<svg xmlns="http://www.w3.org/2000/svg" viewBox="0 0 48 48"><defs><style>.cls-1{fill:#65b1fc;}.cls-2{fill:#fff;}.cls-3{fill:#256494;}</style></defs><title>23-Game Store</title><g id="_23-Game_Store" data-name="23-Game Store"><polygon class="cls-1" points="33 44 33 47 15 47 15 44 17 44 31 44 33 44"/><polygon class="cls-2" points="30 35 31 44 17 44 18 35 30 35"/><polygon class="cls-2" points="43 28 43 31 5 31 5 28 5 9 6 9 35 9 43 9 43 28"/><path class="cls-1" d="M47,31v2a2.006,2.006,0,0,1-2,2H3a2.006,2.006,0,0,1-2-2V31H47Z"/><path class="cls-1" d="M47,7V31H43V9H5V31H1V7A2.006,2.006,0,0,1,3,5H45A2.006,2.006,0,0,1,47,7Z"/><rect class="cls-1" x="26" y="15" width="4" height="4"/><rect class="cls-1" x="34" y="15" width="4" height="4"/><rect class="cls-1" x="34" y="23" width="4" height="4"/><rect class="cls-1" x="26" y="23" width="4" height="4"/><rect class="cls-1" x="18" y="23" width="4" height="4"/><rect class="cls-1" x="10" y="23" width="4" height="4"/><path class="cls-2" d="M22.66,3.34,17,9l5.66,5.66a8,8,0,1,1,0-11.32Z"/><path class="cls-3" d="M45,4H26V6H45a1,1,0,0,1,1,1V33a1,1,0,0,1-1,1H3a1,1,0,0,1-1-1V7A1,1,0,0,1,3,6H6V4H3A3,3,0,0,0,0,7V33a3,3,0,0,0,3,3H16.883l-.778,7H15a1,1,0,0,0-1,1v2H12v2H36V46H34V44a1,1,0,0,0-1-1H31.9l-.778-7H45a3,3,0,0,0,3-3V7A3,3,0,0,0,45,4ZM32,46H16V45H32Zm-2.117-3H18.117l.778-7h10.21Z"/><path class="cls-3" d="M6,8H5A1,1,0,0,0,4,9V32H44V9a1,1,0,0,0-1-1H35v2h7V30H6Z"/><path class="cls-3" d="M14,28a1,1,0,0,0,1-1V23a1,1,0,0,0-1-1H10a1,1,0,0,0-1,1v4a1,1,0,0,0,1,1Zm-3-4h2v2H11Z"/><path class="cls-3" d="M22,28a1,1,0,0,0,1-1V23a1,1,0,0,0-1-1H18a1,1,0,0,0-1,1v4a1,1,0,0,0,1,1Zm-3-4h2v2H19Z"/><path class="cls-3" d="M26,28h4a1,1,0,0,0,1-1V23a1,1,0,0,0-1-1H26a1,1,0,0,0-1,1v4A1,1,0,0,0,26,28Zm1-4h2v2H27Z"/><path class="cls-3" d="M34,20h4a1,1,0,0,0,1-1V15a1,1,0,0,0-1-1H34a1,1,0,0,0-1,1v4A1,1,0,0,0,34,20Zm1-4h2v2H35Z"/><path class="cls-3" d="M26,20h4a1,1,0,0,0,1-1V15a1,1,0,0,0-1-1H27v2h2v2H27V17H25v2A1,1,0,0,0,26,20Z"/><path class="cls-3" d="M33,27a1,1,0,0,0,1,1h4a1,1,0,0,0,1-1V23a1,1,0,0,0-1-1H34a1,1,0,0,0-1,1Zm2-3h2v2H35Z"/><path class="cls-3" d="M17,18a8.982,8.982,0,0,0,6.365-2.63,1,1,0,0,0,0-1.417L18.414,9l4.953-4.953a1,1,0,0,0,0-1.417A9,9,0,1,0,17,18ZM17,2a6.977,6.977,0,0,1,4.194,1.392l-4.9,4.9a1,1,0,0,0,0,1.414l4.9,4.9A7,7,0,1,1,17,2Z"/><rect class="cls-3" x="26" y="8" width="2" height="2"/><rect class="cls-3" x="22" y="8" width="2" height="2"/><rect class="cls-3" x="30" y="8" width="2" height="2"/></g></svg>