<svg xmlns="http://www.w3.org/2000/svg" viewBox="0 0 48 48"><defs><style>.cls-1{fill:#65b1fc;}.cls-2{fill:#fff;}.cls-3{fill:#256494;}</style></defs><title>13-File-Game</title><g id="_13-File-Game" data-name="13-File-Game"><path class="cls-1" d="M42,9H36a2.006,2.006,0,0,1-2-2V1Z"/><path class="cls-2" d="M42,9V45a2.006,2.006,0,0,1-2,2H8a2.006,2.006,0,0,1-2-2V3A2.006,2.006,0,0,1,8,1H34V7a2.006,2.006,0,0,0,2,2h6Z"/><path class="cls-1" d="M26.66,21.34,21,27l5.66,5.66a8,8,0,1,1,0-11.32Z"/><path class="cls-3" d="M42.707,8.293l-8-8A1,1,0,0,0,34,0H8A3,3,0,0,0,5,3V45a3,3,0,0,0,3,3H40a3,3,0,0,0,3-3V9A1,1,0,0,0,42.707,8.293ZM41,45a1,1,0,0,1-1,1H8a1,1,0,0,1-1-1V3A1,1,0,0,1,8,2H33V7a3,3,0,0,0,3,3h2V8H36a1,1,0,0,1-1-1V3.414l6,6Z"/><rect class="cls-3" x="11" y="6" width="10" height="2"/><rect class="cls-3" x="11" y="10" width="2" height="2"/><rect class="cls-3" x="15" y="10" width="2" height="2"/><path class="cls-3" d="M22.414,27l4.953-4.953a1,1,0,0,0,0-1.417,9,9,0,1,0,0,12.74,1,1,0,0,0,0-1.417ZM21,34a7,7,0,1,1,4.194-12.608l-4.9,4.9a1,1,0,0,0,0,1.414l4.9,4.9A6.977,6.977,0,0,1,21,34Z"/><rect class="cls-3" x="30" y="26" width="2" height="2"/><rect class="cls-3" x="26" y="26" width="2" height="2"/><rect class="cls-3" x="34" y="26" width="2" height="2"/></g></svg>