<svg xmlns="http://www.w3.org/2000/svg" viewBox="0 0 512 512"><title>Artboard 145</title><g id="Thropy"><path d="M170.66667,85.33333h-32.0001a95.9999,95.9999,0,0,0-95.9999,95.99991v.00019a95.9999,95.9999,0,0,0,95.9999,95.9999h32.0001A21.33331,21.33331,0,0,0,192,256v0a21.33331,21.33331,0,0,0-21.33331-21.33331H138.66661a53.33329,53.33329,0,0,1-53.33328-53.33328v-.00011A53.33328,53.33328,0,0,1,138.66661,128h32.00006A21.33331,21.33331,0,0,0,192,106.66669v0A21.33331,21.33331,0,0,0,170.66667,85.33333Z" style="fill:#ffbe00"/><circle cx="106.66667" cy="128" r="21.33333" style="fill:#ffa300"/><circle cx="149.33333" cy="256" r="21.33333" style="fill:#ffa300"/><path d="M426.66667,21.33333H85.33333C64,21.33333,64,42.66667,64,42.66667S64,64,85.33333,64c0,0,21.33334,0,21.33334,21.33333v64c0,149.33334,128,149.33334,128,192v64C234.66667,448,192,448,170.66667,448s-21.33334,21.33333-21.33334,21.33333,0,21.33334,21.33334,21.33334H341.33333c21.33334,0,21.33334-21.33334,21.33334-21.33334S362.66667,448,341.33333,448s-64,0-64-42.66667v-64c0-42.66666,128-42.66666,128-192v-64C405.33333,64,426.66667,64,426.66667,64,448,64,448,42.66667,448,42.66667S448,21.33333,426.66667,21.33333Z" style="fill:gold"/><path d="M362.66667,469.33333S362.66667,448,341.33333,448s-64,0-64-42.66667v-64c0-42.66666,128-42.66666,128-192v-64C405.33333,64,426.66667,64,426.66667,64,448,64,448,42.66667,448,42.66667s0-21.33334-21.33333-21.33334h-128C320,21.33333,320,42.66667,320,42.66667S320,64,298.66667,64c0,0-21.33334,0-21.33334,21.33333v64c0,91.58464-48.09895,126.94011-85.33333,150.47787,23.47917,14.84245,42.66667,25.02213,42.66667,41.52213v64c0,30.82813-22.25782,39.27865-42.66667,41.65235A184.83561,184.83561,0,0,0,213.33333,448c21.33334,0,21.33334,21.33333,21.33334,21.33333s0,21.33334-21.33334,21.33334h128C362.66667,490.66667,362.66667,469.33333,362.66667,469.33333Z" style="fill:#ffbe00"/><path d="M351.35872,252.26888a10.63174,10.63174,0,0,0-7.38737,2.97363c-13.45052,12.91862-28.69954,22.42839-42.15364,30.81836C278.25521,300.75456,256,314.63346,256,341.33333v64c0,32.804,19.48828,55.30144,53.4681,61.72364A10.66668,10.66668,0,0,0,313.43,446.09473c-14.60807-2.76107-28.85579-9.52637-34.04166-26.08692l-.00065-.00228q-.15235-.48681-.29428-.98437l-.00032-.00163-.01628-.057-.00228-.00782c-.01692-.06054-.03385-.12044-.05078-.18131l-.00162-.00619q-.0337-.12158-.06706-.24381l-.002-.00749-.04915-.18392-.0013-.00488-.01563-.05892-.00065-.00261c-.01106-.041-.02181-.083-.03255-.124l-.00163-.00618-.01432-.05534-.002-.00716c-.01595-.06185-.03223-.12468-.04785-.18653l-.001-.0039c-.01563-.06185-.0319-.126-.0472-.18815l-.0013-.00521-.01433-.05762-.00162-.00586-.0306-.12532-.001-.00359-.01432-.05989-.0013-.00456-.01433-.05924-.001-.00391c-.01009-.042-.01986-.083-.02963-.125l-.00227-.00911-.013-.05534-.00162-.00651-.02963-.12663-.00065-.00358-.013-.05567-.00293-.013-.013-.05631-.001-.00358-.02865-.127-.00163-.00716-.01269-.056-.002-.00846-.028-.12663-.001-.00488-.013-.05892-.00163-.00684q-.021-.0957-.04134-.19173l-.00162-.00683q-.02052-.0962-.0407-.19239l-.00162-.00716-.01172-.057-.002-.00847c-.00879-.043-.01726-.08463-.02637-.12793l-.0013-.00683-.01172-.05729-.00163-.00879-.012-.05892-.001-.00489-.02572-.12858-.002-.01041-.01074-.05436-.002-.01075c-.00813-.041-.01725-.08691-.02506-.12825l-.0013-.00554-.01074-.05664-.00293-.01432-.0101-.05306-.00162-.00944-.02442-.12825-.002-.01172-.00977-.05111-.0026-.015c-.00814-.04362-.01563-.084-.02344-.12793l-.00163-.00847-.00976-.05338-.00293-.01628-.00912-.05045-.00227-.01335-.0114-.06348-.001-.00553-.01009-.05762-.00261-.01465-.00944-.05306-.002-.01074c-.00749-.04427-.01465-.085-.02246-.12923l-.002-.01237-.00879-.05241-.0026-.01432-.01009-.05957-.00065-.00391-.01107-.06641-.0013-.00683-.00944-.05827-.00195-.01172-.00945-.05729-.0013-.00814c-.00748-.04459-.014-.08594-.02148-.13086l-.00228-.014-.00846-.05274-.002-.01237-.00976-.06217-.00033-.00293-.01074-.06706-.001-.00749-.00879-.05631-.0026-.01595-.00846-.05469-.00131-.00977c-.00651-.04264-.01367-.08854-.01985-.13151l-.00228-.01334-.00781-.05371-.002-.01368-.01985-.13346-.00065-.00521-.00879-.06054-.002-.012-.00781-.055-.00163-.0127-.01888-.13216-.002-.01367-.00749-.055-.00162-.0114-.01856-.13639-.00065-.00456-.00814-.06087-.00163-.01269-.00813-.05958-.001-.00748-.00879-.068-.001-.00553-.00781-.06055-.00163-.014-.00716-.056-.00163-.01172-.01692-.13379-.002-.015-.00651-.05371-.00195-.01464-.00716-.06023-.001-.00618-.00814-.068-.0013-.01042-.00651-.05534-.00228-.01888-.00651-.05469-.0013-.00976c-.00553-.04655-.01042-.0892-.01562-.13575l-.002-.01692-.00553-.04948-.00228-.01986-.00651-.056-.001-.01041-.00748-.06706-.00163-.013-.00586-.05436-.00195-.01758-.00554-.05046-.00195-.0192-.00716-.06543-.00065-.00684-.00619-.06022-.002-.01791-.00521-.05143-.002-.01823-.00619-.05892-.00065-.00781-.00683-.06836-.00131-.012-.00553-.05632-.00195-.01758-.00521-.055-.0013-.01237-.00651-.06836-.00131-.01041-.00553-.05827-.00163-.01693-.00456-.05143-.002-.01921-.00586-.06347-.00032-.00358-.00619-.068-.00163-.01823-.00455-.05045-.00163-.01953-.00488-.05274-.00131-.01693-.00585-.06673-.00131-.015-.00423-.05078-.00228-.02572-.0039-.04622-.00163-.02084c-.00391-.04329-.00781-.09212-.01139-.13541l-.00163-.01986-.00358-.04785-.002-.02409-.00455-.05534-.00065-.01074-.00521-.06869-.00163-.01757-.00391-.05144-.00162-.02148-.00358-.05078-.00131-.01856c-.00358-.0459-.00683-.09212-.01009-.138l-.0013-.01758-.00391-.05436-.001-.0166-.00423-.05989-.00066-.01107-.00488-.07064-.00065-.01042-.00391-.05827-.0013-.0192-.00358-.05469-.001-.0166-.00423-.06836-.001-.01237-.00358-.05762-.00131-.0205-.00293-.05013-.0013-.02214-.0039-.06413v-.00358l-.00424-.07064-.001-.0166-.00326-.05631-.001-.01693-.00293-.05729-.001-.01465-.00391-.07-.00065-.01334-.00293-.05632-.0013-.02311-.00228-.04948-.0013-.02148-.00326-.06543v-.00391l-.00358-.071-.001-.01888-.00228-.05079-.0013-.02376-.00228-.05306-.00065-.01725-.00326-.06966-.00065-.01628-.00228-.05306-.0013-.02669-.00163-.04395-.0013-.027c-.00195-.04493-.00391-.09343-.00553-.13868l-.00065-.02148-.002-.05143-.001-.02181-.002-.056-.00065-.01563-.0026-.07064-.00033-.01562-.002-.05664-.00065-.02051-.002-.056-.00065-.01595-.00228-.07259v-.00488l-.002-.06739-.00065-.01953-.00163-.05338-.00065-.02018-.00163-.06185-.00032-.01075-.002-.07194-.00033-.0166-.0013-.05827-.00065-.01692-.00131-.05729-.00032-.01888-.00163-.071-.00032-.01237-.00131-.05827-.00032-.026-.001-.0485-.00065-.02474-.001-.05632-.00032-.01529-.001-.07194-.00032-.01661-.001-.057-.00033-.02181-.001-.05632V406.21l-.001-.07292-.00032-.01171-.00065-.06153-.00033-.02246-.00033-.04948-.00032-.02571-.00065-.06608v-.00554l-.00065-.07324-.00033-.02018-.00032-.05339v-.02246l-.00033-.05664-.00033-.0179-.00032-.07325v-.096l-.00033-.05306V341.33333h0v-.07942l.00033-.01075v-.04622l.00032-.0306V341.154l.00033-.03515v-.00326l.00065-.03874v-.01106l.00033-.02995.00032-.00944.00065-.03809v-.00879l.00065-.03157v-.01042l.001-.03646v-.002l.00065-.03939.00033-.00879.00065-.0319.00032-.00944.001-.03841V340.765l.001-.03287.00032-.01042.001-.03223.00032-.00781.001-.03678.00065-.013.001-.02767.00032-.01009.00131-.03972h0l.00162-.03971.00033-.00684.0013-.03841v-.0013l.002-.04037.00033-.00683.0013-.03386.00033-.00748.0039-.07813.00033-.00976.00163-.03353.00032-.00586.002-.03874.00065-.00846.00162-.03028.00066-.01074.00423-.0778.00065-.00814.002-.03255.00033-.00748.0026-.03874.00033-.00651.00228-.0319.00065-.01042.0052-.07715.00066-.00846.00227-.03353.00033-.00618.00293-.03874.00065-.00651.00228-.03288.00065-.00879.00619-.0778.00065-.00846.0026-.03223.00065-.00716.00326-.03971.00032-.002.00293-.03678.001-.00781c.002-.02539.00456-.05274.00683-.07813l.00066-.00748.00325-.03386.00033-.00553.00748-.07845.001-.00814.00325-.03386.00033-.00553.00391-.03874.001-.00651.00326-.03255.00065-.00846.00814-.07715.001-.00846.00391-.03484.00033-.00325.00455-.03939.00065-.00586.00358-.03418.001-.00651.00879-.07747.001-.00847.00423-.03352.00065-.00521.00456-.03841.001-.00749.00358-.03027.00131-.01042.00976-.07552.0013-.00912.00391-.03255.001-.00553.00488-.03776.0013-.00879.00391-.02995.0013-.00944.00488-.03678.00033-.001.00521-.03874.001-.00683.00489-.03386.00065-.00553.00586-.03939v-.00163l.00521-.03613.0013-.00781.00553-.03809h0l.00586-.03841.0013-.00814.00456-.03222.001-.00651.00618-.03874.00033-.00228.00553-.03581.0013-.00781.00554-.03483.00032-.00326.00619-.03873.001-.00554.00554-.03385.001-.00651.0127-.07715.0013-.00651.013-.07845.00065-.00228.00619-.03646.001-.00521.01368-.07812.001-.00488.014-.07911.00065-.00195.00651-.03711.001-.00455.01465-.07911.00065-.0026c.00748-.03939.0153-.08138.02311-.12044l.00033-.00228.016-.07943.00065-.00358.00716-.03613.00065-.00391.01628-.07845.00065-.00391.01627-.07812.001-.00423.00781-.03679.00033-.00228.01692-.07877.001-.00391c.00553-.02669.01139-.05208.01725-.07877l.00033-.00163.00846-.03841.00033-.002.0179-.07845.001-.00423c.00586-.02669.01172-.0511.0179-.0778l.00065-.00358.00847-.03548.001-.00456.01823-.07812.00065-.00228.02865-.11784.001-.00358c.00586-.02441.013-.054.0192-.07813l.00065-.00325.01986-.07845.00032-.001.00977-.03841.00033-.00228.02018-.0778.001-.0039.00977-.03744.00033-.001.02083-.07878.00065-.00228.02083-.07747.00131-.00456.01009-.03711v-.00033l.02181-.0791.00065-.00162c1.91276-6.889,7.417-12.72494,15.13086-18.55013l.00065-.00066c.07519-.057.14876-.1123.22428-.16894l.00033-.00033c.02962-.02213.05957-.04492.08952-.067l.002-.00163.13379-.09994.0013-.001c.11947-.0892.24121-.18.36165-.26888l.00358-.00293c.0765-.05664.15072-.11133.22754-.168h0c.23112-.17025.46029-.33789.69466-.50814l.00066-.00033c13.07259-9.48763,31.73014-19.15006,49.9899-33.4541l.01042-.00813c.02735-.02149.056-.04428.08333-.06543l.00977-.00749c.02669-.02149.04688-.03711.07422-.05827l.02018-.01628.07031-.055.02344-.01823.043-.03385.05143-.041.03907-.0306.054-.042c.01107-.00944.02474-.01986.03646-.029.01953-.01563.03906-.03125.05924-.04688l.03256-.02539c.02083-.0166.03971-.0319.06119-.0485l.02735-.02181c.02083-.0166.04427-.03515.06575-.05176l.0267-.02148.06445-.05078.02539-.02018.071-.05664.01628-.01237.07552-.06023.015-.01171c.0267-.02116.05274-.042.07943-.06283l.00846-.00716c.02735-.02181.056-.04427.08334-.06641l.00586-.00456c4.248-3.38085,8.46614-7.01888,12.58138-10.97135a10.66635,10.66635,0,0,0-7.39-18.3597Z" style="fill:#ffa300"/><rect x="320" y="64" width="85.33333" height="42.66667" rx="21.33331" ry="21.33331" style="fill:#ffa300"/><path d="M298.66667,128v0A21.3333,21.3333,0,0,0,320,149.33333h21.33341A42.66663,42.66663,0,0,1,384,192V192a42.66663,42.66663,0,0,1-42.66662,42.66663h-.0001A21.3333,21.3333,0,0,0,320,256V256a21.3333,21.3333,0,0,0,21.3333,21.3333h.00015a85.33324,85.33324,0,0,0,85.33324-85.33324v-.00017a85.33325,85.33325,0,0,0-85.33326-85.33324H320A21.33331,21.33331,0,0,0,298.66667,128Z" style="fill:#ffa300"/><path d="M320,85.33333h32.00009A95.99991,95.99991,0,0,1,448,181.33324v.00019a95.9999,95.9999,0,0,1-95.99991,95.9999H320A21.33331,21.33331,0,0,1,298.66667,256v0A21.33331,21.33331,0,0,1,320,234.66667h32a53.33328,53.33328,0,0,0,53.33328-53.33328v-.00011A53.33328,53.33328,0,0,0,352,128H320a21.33331,21.33331,0,0,1-21.33331-21.33331v0A21.33331,21.33331,0,0,1,320,85.33333Z" style="fill:#ffea21"/><rect x="170.66667" y="448" width="42.66667" height="21.33333" rx="10.66666" ry="10.66666" style="fill:#ffff9d"/><rect x="320" y="85.33333" width="42.66667" height="21.33333" rx="10.66666" ry="10.66666" style="fill:#ffff9d"/><rect x="149.33333" y="128" width="42.66667" height="85.33331" rx="21.33331" ry="21.33331" style="fill:#ffff9d"/><circle cx="181.33333" cy="245.33333" r="10.66667" style="fill:#ffff9d"/><rect x="128" y="64" width="128" height="42.66667" rx="21.33331" ry="21.33331" style="fill:#ffbe00"/><rect x="85.33333" y="21.33333" width="213.33333" height="21.33333" rx="10.66666" ry="10.66666" style="fill:#ffff9d"/></g></svg>