<svg xmlns="http://www.w3.org/2000/svg" viewBox="0 0 512 512"><title>Artboard 121</title><g id="School_Bag" data-name="School Bag"><path d="M426.66667,21.33333A42.66628,42.66628,0,0,0,384,64V405.33333a42.66667,42.66667,0,1,0,85.33333,0V64A42.66628,42.66628,0,0,0,426.66667,21.33333Z" style="fill:#163969"/><rect x="384" y="213.33333" width="85.33333" height="21.33333" rx="10.66666" ry="10.66666" style="fill:#002755"/><path d="M277.33333,64a42.66628,42.66628,0,0,0-42.66666-42.66667H180.08573a42.66669,42.66669,0,0,0-40.47716,29.17429l-32.9419,98.82571H192L220.444,64Z" style="fill:#ffbe00"/><path d="M234.66671,21.33333A42.66662,42.66662,0,0,1,277.33333,64v0l-64,21.33333Z" style="fill:#163969"/><rect x="362.66667" y="149.33333" width="128" height="64" rx="21.33333" ry="21.33333" style="fill:#435e88"/><rect x="362.66667" y="149.33333" width="106.66667" height="21.33333" rx="10.66666" ry="10.66666" style="fill:#7d8fac"/><path d="M469.33333,64a42.66628,42.66628,0,0,0-42.66666-42.66667H372.08573a42.66669,42.66669,0,0,0-40.47716,29.17429l-32.9419,98.82571H384L412.444,64Z" style="fill:#ffbe00"/><path d="M277.33333,42.66667h64A42.66667,42.66667,0,0,1,384,85.33333v21.33333a0,0,0,0,1,0,0H277.33333a0,0,0,0,1,0,0v-64a0,0,0,0,1,0,0Z" style="fill:#ffa300"/><rect x="298.66667" y="64" width="64" height="64" rx="31.99997" ry="31.99997" style="fill:#f98b00"/><path d="M468.80118,395.91016l-49.521-242.32867A85.33334,85.33334,0,0,0,335.6747,85.33333H154.98977A85.33332,85.33332,0,0,0,71.38483,153.5789L21.85547,395.91016a85.33287,85.33287,0,0,0,84.8112,94.75651H383.99A85.33287,85.33287,0,0,0,468.80118,395.91016Z" style="fill:#005eee"/><path d="M405.33331,128h0a26.02245,26.02245,0,0,1,25.51712,20.919l43.081,215.40484A69.95653,69.95653,0,0,1,405.33342,448h-.00017a69.95653,69.95653,0,0,1-68.598-83.67613l43.081-215.40484A26.02247,26.02247,0,0,1,405.33331,128Z" style="fill:#0784ff"/><path d="M291.05339,422.06771l50.27994-251.401q0-64-64-64H98.85026a84.93934,84.93934,0,0,0-27.46484,46.91145l-49.52995,242.332a85.33287,85.33287,0,0,0,84.8112,94.75651H207.3763A85.33406,85.33406,0,0,0,291.05339,422.06771Z" style="fill:#079cff"/><rect x="64" y="426.66667" width="192" height="42.66667" rx="21.33331" ry="21.33331" style="fill:#5cbeff"/><rect x="213.33333" y="384" width="42.66667" height="64" rx="21.33331" ry="21.33331" style="fill:#0784ff"/><rect x="64" y="362.66667" width="192" height="42.66667" rx="21.33331" ry="21.33331" style="fill:#0784ff"/><rect x="106.66667" y="213.33333" width="42.66667" height="85.33333" rx="21.33331" ry="21.33331" style="fill:#0784ff"/><rect x="213.33333" y="213.33333" width="42.66667" height="85.33333" rx="21.33331" ry="21.33331" style="fill:#0784ff"/><path d="M298.64565,85.33333H128.021a42.66668,42.66668,0,0,0-41.39275,32.31848L65.29494,202.98515A42.66666,42.66666,0,0,0,106.68768,256H277.31232a42.66667,42.66667,0,0,0,41.39274-32.31848l21.33334-85.33333A42.66668,42.66668,0,0,0,298.64565,85.33333Z" style="fill:#0784ff"/><path d="M314.73886,42.66667h-193.824a64,64,0,0,0-62.476,50.11645l-14.22222,64a64,64,0,0,0,62.476,77.88355h140.635a64,64,0,0,0,62.476-50.11645L335.56418,68.62785A21.33333,21.33333,0,0,0,314.73886,42.66667Z" style="fill:#ffea21"/><path d="M202.66667,213.33333h-83.957a10.66667,10.66667,0,1,0,0,21.33334h83.957a10.66667,10.66667,0,0,0,0-21.33334ZM327.1589,46.84188a10.67177,10.67177,0,0,0-10.40275,8.35506L288.97827,179.92236a42.41242,42.41242,0,0,1-41.65055,33.411H182.70964a10.66667,10.66667,0,0,0,0,21.33334h64.61808a64,64,0,0,0,62.47591-50.11646L337.58135,59.82479A10.67587,10.67587,0,0,0,327.1589,46.84188Z" style="fill:#ffbe00"/><rect x="85.33333" y="64" width="213.33333" height="42.66667" rx="21.33331" ry="21.33331" style="fill:#fffc74"/><path d="M362.66667,256h42.66667a0,0,0,0,1,0,0v42.66667a0,0,0,0,1,0,0h-64a0,0,0,0,1,0,0V277.33333A21.33333,21.33333,0,0,1,362.66667,256Z" style="fill:#435e88"/><path d="M374.71466,277.33333H435.952a39.40534,39.40534,0,0,1,38.86919,32.92714l15.30932,91.856a39.40481,39.40481,0,0,1,.53616,6.4782v0A39.40534,39.40534,0,0,1,451.26133,448h-91.856A39.40534,39.40534,0,0,1,320,408.59466v0a39.40589,39.40589,0,0,1,.53615-6.4782l15.30933-91.856A39.40533,39.40533,0,0,1,374.71466,277.33333Z" style="fill:#163969"/><rect x="384" y="341.33333" width="85.33333" height="42.66667" rx="21.33331" ry="21.33331" style="fill:#002755"/><path d="M451.26172,405.33333H388.43849a21.33334,21.33334,0,0,1-21.04306-24.84061l10.421-62.524a21.33323,21.33323,0,1,0-42.08594-7.01432l-15.194,91.16146a37.37238,37.37238,0,0,0,.66276,15.70442c.0664.25782.16276.4961.23307.7513A39.31251,39.31251,0,0,0,359.405,448h91.89193a21.33335,21.33335,0,0,0-.03516-42.66667Z" style="fill:#002755"/><rect x="85.33333" y="192" width="42.66667" height="85.33333" rx="21.33331" ry="21.33331" style="fill:#435e88"/><rect x="192" y="192" width="42.66667" height="85.33333" rx="21.33331" ry="21.33331" style="fill:#435e88"/><path d="M469.32282,362.66667H394.67718a21.33335,21.33335,0,0,1-20.69638-16.15924l-10.66666-64A21.33333,21.33333,0,0,1,384.01051,256h74.64565a21.33333,21.33333,0,0,1,20.69637,16.15924l10.66667,64A21.33334,21.33334,0,0,1,469.32282,362.66667Z" style="fill:#435e88"/><rect x="64.00002" y="341.33333" width="191.99996" height="42.66667" rx="21.33331" ry="21.33331" style="fill:#163969"/><rect x="192" y="362.66667" width="42.66667" height="64" rx="21.33331" ry="21.33331" style="fill:#435e88"/><circle cx="426.66667" cy="320" r="21.33333" style="fill:#ffbe00"/><circle cx="416" cy="309.33333" r="10.66667" style="fill:#ffea21"/><rect x="213.33333" y="21.33333" width="42.66667" height="21.33333" rx="10.66666" ry="10.66666" style="fill:#ffbe00"/><rect x="106.66667" y="213.33333" width="21.33333" height="42.66667" rx="10.66666" ry="10.66666" style="fill:#163969"/><rect x="213.33333" y="213.33333" width="21.33333" height="42.66667" rx="10.66666" ry="10.66666" style="fill:#163969"/><circle cx="224" cy="394.66667" r="10.66667" style="fill:#163969"/><rect x="384" y="277.33333" width="85.33333" height="21.33333" rx="10.66666" ry="10.66666" style="fill:#7d8fac"/><path d="M490.01953,336.15885s-3.49219-20.95182-3.513-21.07942l-.00521-.03125a10.66668,10.66668,0,0,0-21.03906,3.53125l3.51432,21.08724q.13867.83983.34636,1.66666H416a10.66667,10.66667,0,0,0,0,21.33334h53.32292l.01041-.01563v.01432A21.33414,21.33414,0,0,0,490.01953,336.15885Z" style="fill:#33527d"/><rect x="405.33333" y="42.66667" width="64" height="21.33333" rx="10.66666" ry="10.66666" style="fill:#ffa300"/><rect x="362.66667" y="21.33333" width="64" height="21.33333" rx="10.66666" ry="10.66666" style="fill:#ffea21"/></g></svg>