<svg xmlns="http://www.w3.org/2000/svg" viewBox="0 0 512 512"><title>Artboard 126</title><g id="Letter"><path d="M179.50322,21.33333H405.33333A42.66667,42.66667,0,0,1,448,64V448a42.66667,42.66667,0,0,1-42.66667,42.66667H106.66667A42.66667,42.66667,0,0,1,64,448V136.83656a21.33332,21.33332,0,0,1,6.24839-15.08495l94.16989-94.16989A21.33334,21.33334,0,0,1,179.50322,21.33333Z" style="fill:#fffc74"/><rect x="106.66667" y="384" width="341.33333" height="85.33333" rx="42.66662" ry="42.66662" style="fill:#ffea21"/><rect x="170.66667" y="42.66667" width="64" height="149.33333" rx="31.99997" ry="31.99997" style="fill:#ffea21"/><rect x="106.66667" y="234.66667" width="149.33333" height="42.66667" rx="21.33331" ry="21.33331" style="fill:#33527d"/><rect x="106.66667" y="320" width="64" height="42.66667" rx="21.33331" ry="21.33331" style="fill:#33527d"/><rect x="192" y="320" width="106.66667" height="42.66667" rx="21.33331" ry="21.33331" style="fill:#33527d"/><rect x="234.66667" y="149.33333" width="170.66667" height="42.66667" rx="21.33331" ry="21.33331" style="fill:#33527d"/><rect x="277.33333" y="234.66667" width="128" height="42.66667" rx="21.33331" ry="21.33331" style="fill:#33527d"/><path d="M213.33333,51.50319v88.99362a30.16986,30.16986,0,0,1-30.16986,30.16986H94.16986A30.16986,30.16986,0,0,1,64,140.49681v-.00005a30.16985,30.16985,0,0,1,8.83655-21.33331l88.99357-88.99357a30.16985,30.16985,0,0,1,21.33331-8.83655h0A30.16986,30.16986,0,0,1,213.33333,51.50319Z" style="fill:#ffffc5"/><rect x="69.49034" y="80.91506" width="138.35265" height="30.16989" rx="15.08493" ry="15.08493" transform="translate(-27.26772 126.1699) rotate(-45)" style="fill:#ffffed"/><path d="M448,405.33333H192A42.66629,42.66629,0,0,0,149.33333,448a42.66711,42.66711,0,0,1-42.66666,42.66667H448a42.66667,42.66667,0,0,0,0-85.33334Z" style="fill:#ffffc5"/><rect x="170.66667" y="448" width="277.33333" height="42.66667" rx="21.33331" ry="21.33331" style="fill:#ffff9d"/></g></svg>