<svg xmlns="http://www.w3.org/2000/svg" viewBox="0 0 512 512"><title>Artboard 167</title><g id="Female_Lecturer" data-name="Female Lecturer"><path d="M170.66859,277.33333h170.6668a42.66665,42.66665,0,0,0,42.66666-42.66666v-85.3304H128.00192v85.3304A42.66666,42.66666,0,0,0,170.66859,277.33333Z" style="fill:#002755"/><path d="M170.66859,277.33333h170.6668a42.66665,42.66665,0,0,0,42.66666-42.66666v-85.3304H128.00192v85.3304A42.66666,42.66666,0,0,0,170.66859,277.33333Z" style="fill:#002755"/><path d="M170.66859,277.33333h170.6668a42.66665,42.66665,0,0,0,42.66666-42.66666v-85.3304H128.00192v85.3304A42.66666,42.66666,0,0,0,170.66859,277.33333Z" style="fill:#002755"/><path d="M181.3333,170.66667H192a0,0,0,0,1,0,0v64a0,0,0,0,1,0,0H181.3333a32,32,0,0,1-32-32v-.00006A32,32,0,0,1,181.3333,170.66667Z" style="fill:#ffbe00"/><path d="M352,170.66667h10.6667a0,0,0,0,1,0,0v64a0,0,0,0,1,0,0H352a32,32,0,0,1-32-32v-.00006A32,32,0,0,1,352,170.66667Z" transform="translate(682.66667 405.33333) rotate(-180)" style="fill:#ffa300"/><path d="M256,298.66667,84.214,345.5174a85.33332,85.33332,0,0,0-62.88065,82.32651V448A42.66667,42.66667,0,0,0,64,490.66667H448A42.66667,42.66667,0,0,0,490.66667,448V427.84391A85.33332,85.33332,0,0,0,427.786,345.5174Z" style="fill:#96a6ff"/><rect x="234.66667" y="384" width="85.33333" height="64" rx="31.99997" ry="31.99997" style="fill:#7388ff"/><circle cx="277.33333" cy="448" r="21.33333" style="fill:#eff2ff"/><path d="M448,490.66667H306.08154a28.74742,28.74742,0,0,1-20.32746-8.41991l0,0a28.74737,28.74737,0,0,1-6.71137-30.09032L332.3241,317.033a28.74737,28.74737,0,0,1,34.60276-17.97157l60.85874,16.59784a85.33389,85.33389,0,0,1,62.88107,82.32706V448A42.66667,42.66667,0,0,1,448,490.66667Z" style="fill:#bc5cf3"/><path d="M64,490.66667H205.91846a28.74742,28.74742,0,0,0,20.32746-8.41991l0,0a28.74737,28.74737,0,0,0,6.71137-30.09032L179.6759,317.033a28.74737,28.74737,0,0,0-34.60276-17.97157L84.2144,315.65929a85.33389,85.33389,0,0,0-62.88107,82.32706V448A42.66667,42.66667,0,0,0,64,490.66667Z" style="fill:#bc5cf3"/><rect x="42.66667" y="426.66667" width="106.66667" height="64" rx="31.99997" ry="31.99997" style="fill:#9d11ee"/><rect x="149.33333" y="320" width="64" height="106.66667" rx="31.99997" ry="31.99997" style="fill:#9d11ee"/><path d="M458.66667,426.66667h-.00006a53.33329,53.33329,0,0,1-53.33328-53.33328v-.00006a32,32,0,0,0-64,0v64a32,32,0,0,1-32,32h0a10.66667,10.66667,0,0,0,0,21.33334H458.66667a32,32,0,0,0,0-64Z" style="fill:#9d11ee"/><ellipse cx="85.33333" cy="384" rx="51.01464" ry="32.20951" transform="translate(-246.53545 172.81077) rotate(-45)" style="fill:#cf94ff"/><ellipse cx="256" cy="341.33333" rx="106.66667" ry="64" style="fill:#eff2ff"/><rect x="192" y="298.66667" width="128" height="64" rx="31.99997" ry="31.99997" style="fill:#ccd4ff"/><rect x="213.33333" y="234.66667" width="85.33333" height="128" rx="42.66662" ry="42.66662" style="fill:#ffa300"/><rect x="170.66667" y="85.33333" width="170.66667" height="234.66658" rx="85.33325" ry="85.33325" style="fill:#ffbe00"/><path d="M170.66667,170.66667v64a84.82563,84.82563,0,0,0,27.58854,62.48047,84.44414,84.44414,0,0,0,100.41146-83.81381v-64a84.82449,84.82449,0,0,0-27.58724-62.48047,84.44537,84.44537,0,0,0-100.41276,83.81381Z" style="fill:#ffea21"/><circle cx="288" cy="202.66667" r="10.66667" style="fill:#005eee"/><circle cx="224" cy="202.66667" r="10.66667" style="fill:#005eee"/><rect x="234.66667" y="256" width="42.66667" height="21.33333" rx="10.66666" ry="10.66666" style="fill:#ffff9d"/><rect x="234.66667" y="213.33333" width="42.66667" height="21.33333" rx="10.66666" ry="10.66666" style="fill:#ffbe00"/><path d="M359.20477,192h0a24.79523,24.79523,0,0,1-23.52283-16.95429l-10.03047-30.09142A24.79523,24.79523,0,0,0,302.12861,128h0a24.79524,24.79524,0,0,0-24.79524,24.79523v0A39.20472,39.20472,0,0,1,238.1286,192h-67.462A42.66662,42.66662,0,0,1,128,149.33338v-.00017A127.99987,127.99987,0,0,1,255.99987,21.33333h.00026A127.99987,127.99987,0,0,1,384,149.33321v17.87156A24.79523,24.79523,0,0,1,359.20477,192Z" style="fill:#33527d"/><ellipse cx="192" cy="106.66667" rx="52.37916" ry="29.93437" transform="translate(-19.18923 167.00645) rotate(-45)" style="fill:#7d8fac"/><path d="M277.33333,64V85.33333a21.33333,21.33333,0,1,0,42.66667,0V64a43.58573,43.58573,0,0,1,5.48177-22.07292A127.28643,127.28643,0,0,0,256,21.33333a128.99061,128.99061,0,0,0-14.30208.84636C260.444,26.14062,277.33333,45.02344,277.33333,64Z" style="fill:#163969"/></g></svg>