<svg xmlns="http://www.w3.org/2000/svg" viewBox="0 0 512 512"><title>Artboard 124</title><g id="School_Building" data-name="School Building"><path d="M54.08389,256H457.91611a32.75056,32.75056,0,0,0,32.75056-32.75055v0a32.75058,32.75058,0,0,0-5.50045-18.16674L405.33333,49.83252a64,64,0,0,0-53.25122-28.49919H165.65781a64,64,0,0,0-55.94606,32.91886l-84.257,151.66259a32.75063,32.75063,0,0,0-4.12142,15.90507v1.4296A32.75056,32.75056,0,0,0,54.08389,256Z" style="fill:#163969"/><path d="M469.33333,490.66667H42.66667v-256l94.4745-170.0541a42.66666,42.66666,0,0,1,37.29737-21.9459H318.49883a42.66669,42.66669,0,0,1,35.50081,18.99945L469.33333,234.66667Z" style="fill:#ffbe00"/><rect x="298.66667" y="341.33333" width="170.66667" height="149.33333" rx="42.66667" ry="42.66667" style="fill:#ffa300"/><path d="M298.66667,490.66667h-256v-256L138.973,61.31534a36.25626,36.25626,0,0,1,31.69369-18.64867h0a36.25626,36.25626,0,0,1,31.69368,18.64867l96.3063,173.35133Z" style="fill:#ffea21"/><rect x="42.66667" y="298.66667" width="64" height="42.66667" rx="21.33331" ry="21.33331" style="fill:#ffff9d"/><rect x="213.33333" y="298.66667" width="64" height="42.66667" rx="21.33331" ry="21.33331" style="fill:#ffff9d"/><rect x="320" y="362.66667" width="64" height="42.66667" rx="21.33331" ry="21.33331" style="fill:#ffbe00"/><rect x="405.33333" y="362.66667" width="64" height="42.66667" rx="21.33331" ry="21.33331" style="fill:#ffbe00"/><rect x="405.33333" y="213.33333" width="64" height="42.66667" rx="21.33331" ry="21.33331" style="fill:#dee1c8"/><rect x="234.66665" y="234.66667" width="64.00002" height="42.66667" rx="21.33331" ry="21.33331" style="fill:#ffff9d"/><rect x="42.66667" y="341.33333" width="256" height="149.33333" rx="42.66667" ry="42.66667" style="fill:#ffbe00"/><rect x="21.33333" y="448" width="469.33331" height="42.66667" rx="21.33331" ry="21.33331" style="fill:#ffbe00"/><rect x="21.33333" y="448" width="298.66667" height="42.66667" rx="21.33331" ry="21.33331" style="fill:#ffea21"/><path d="M170.66665,384h0A21.33331,21.33331,0,0,1,192,405.33331V448a0,0,0,0,1,0,0H149.33333a0,0,0,0,1,0,0V405.33331A21.33331,21.33331,0,0,1,170.66665,384Z" style="fill:#435e88"/><path d="M106.66665,213.33333h0A21.33331,21.33331,0,0,1,128,234.66665v42.66669a0,0,0,0,1,0,0H85.33333a0,0,0,0,1,0,0V234.66665A21.33331,21.33331,0,0,1,106.66665,213.33333Z" style="fill:#435e88"/><path d="M170.66665,213.33333h0A21.33331,21.33331,0,0,1,192,234.66665v42.66669a0,0,0,0,1,0,0H149.33333a0,0,0,0,1,0,0V234.66665A21.33331,21.33331,0,0,1,170.66665,213.33333Z" style="fill:#435e88"/><path d="M234.66665,213.33333h0A21.33331,21.33331,0,0,1,256,234.66665v42.66669a0,0,0,0,1,0,0H213.33333a0,0,0,0,1,0,0V234.66665A21.33331,21.33331,0,0,1,234.66665,213.33333Z" style="fill:#33527d"/><path d="M362.66665,213.33333h0A21.33331,21.33331,0,0,1,384,234.66665v42.66669a0,0,0,0,1,0,0H341.33333a0,0,0,0,1,0,0V234.66665A21.33331,21.33331,0,0,1,362.66665,213.33333Z" style="fill:#163969"/><path d="M362.66665,298.66667h0A21.33331,21.33331,0,0,1,384,320v42.66669a0,0,0,0,1,0,0H341.33333a0,0,0,0,1,0,0V320A21.33331,21.33331,0,0,1,362.66665,298.66667Z" style="fill:#163969"/><path d="M426.66665,213.33333h0A21.33331,21.33331,0,0,1,448,234.66665v42.66669a0,0,0,0,1,0,0H405.33333a0,0,0,0,1,0,0V234.66665a21.33331,21.33331,0,0,1,21.33331-21.33331Z" style="fill:#163969"/><path d="M426.66665,298.66667h0A21.33331,21.33331,0,0,1,448,320v42.66669a0,0,0,0,1,0,0H405.33333a0,0,0,0,1,0,0V320a21.33331,21.33331,0,0,1,21.33331-21.33331Z" style="fill:#163969"/><rect x="341.33333" y="234.66667" width="21.33333" height="42.66667" rx="10.66666" ry="10.66666" style="fill:#002755"/><rect x="405.33333" y="234.66667" width="21.33333" height="42.66667" rx="10.66666" ry="10.66666" style="fill:#002755"/><rect x="341.33333" y="320" width="21.33333" height="42.66667" rx="10.66666" ry="10.66666" style="fill:#002755"/><rect x="405.33333" y="320" width="21.33333" height="42.66667" rx="10.66666" ry="10.66666" style="fill:#002755"/><rect x="85.33333" y="234.66667" width="21.33333" height="42.66667" rx="10.66666" ry="10.66666" style="fill:#163969"/><rect x="149.33333" y="234.66667" width="21.33333" height="42.66667" rx="10.66666" ry="10.66666" style="fill:#163969"/><rect x="213.33333" y="234.66667" width="21.33333" height="42.66667" rx="10.66666" ry="10.66666" style="fill:#163969"/><path d="M106.66665,298.66667h0A21.33331,21.33331,0,0,1,128,320v42.66669a0,0,0,0,1,0,0H85.33333a0,0,0,0,1,0,0V320A21.33331,21.33331,0,0,1,106.66665,298.66667Z" style="fill:#435e88"/><path d="M170.66665,298.66667h0A21.33331,21.33331,0,0,1,192,320v42.66669a0,0,0,0,1,0,0H149.33333a0,0,0,0,1,0,0V320a21.33331,21.33331,0,0,1,21.33331-21.33331Z" style="fill:#435e88"/><path d="M234.66665,298.66667h0A21.33331,21.33331,0,0,1,256,320v42.66669a0,0,0,0,1,0,0H213.33333a0,0,0,0,1,0,0V320A21.33331,21.33331,0,0,1,234.66665,298.66667Z" style="fill:#435e88"/><rect x="85.33333" y="320" width="21.33333" height="42.66667" rx="10.66666" ry="10.66666" style="fill:#163969"/><rect x="149.33333" y="320" width="21.33333" height="42.66667" rx="10.66666" ry="10.66666" style="fill:#163969"/><rect x="149.33333" y="405.33333" width="21.33333" height="42.66667" rx="10.66666" ry="10.66666" style="fill:#163969"/><rect x="213.33333" y="320" width="21.33333" height="42.66667" rx="10.66666" ry="10.66666" style="fill:#163969"/><rect x="64" y="213.33333" width="21.33333" height="64" rx="10.66666" ry="10.66666" style="fill:#ffff9d"/><rect x="128" y="213.33333" width="21.33333" height="64" rx="10.66666" ry="10.66666" style="fill:#ffff9d"/><rect x="192" y="213.33333" width="21.33333" height="64" rx="10.66666" ry="10.66666" style="fill:#ffff9d"/><rect x="320" y="213.33333" width="21.33333" height="64" rx="10.66666" ry="10.66666" style="fill:#ffea21"/><rect x="384" y="213.33333" width="21.33333" height="64" rx="10.66666" ry="10.66666" style="fill:#ffea21"/><rect x="320" y="298.66667" width="21.33333" height="64" rx="10.66666" ry="10.66666" style="fill:#ffea21"/><rect x="384" y="298.66667" width="21.33333" height="64" rx="10.66666" ry="10.66666" style="fill:#ffea21"/><rect x="42.66667" y="469.33333" width="256" height="21.33333" rx="10.66666" ry="10.66666" style="fill:#ffbe00"/><rect x="320" y="469.33333" width="149.33333" height="21.33333" rx="10.66666" ry="10.66666" style="fill:#ffa300"/><rect x="234.66665" y="362.66667" width="64.00002" height="42.66667" rx="21.33331" ry="21.33331" style="fill:#ffea21"/><path d="M42.66669,362.66667A21.33331,21.33331,0,0,1,64,384v0a21.33331,21.33331,0,0,1-21.33331,21.33331Z" style="fill:#ffea21"/><rect x="85.33333" y="362.66667" width="64" height="42.66667" rx="21.33331" ry="21.33331" style="fill:#ffea21"/><circle cx="170.66667" cy="149.33333" r="42.66667" style="fill:#33527d"/><path d="M170.66667,106.66667A42.66669,42.66669,0,0,0,128,149.33333h0v.08968l.00033.04281v.06535l.00032.0293v.03719l.00033.03035.00032.03581.00033.02946.00032.03727v.0297l.00065.03663.00033.02872.00033.038.00032.02921.00065.03955.00033.02531.00065.04509.00032.02181.001.06535.00033.01741.001.04728.00065.02881.00065.03784.00066.02865.00065.03678.00065.02906.001.03824.00066.02824.001.03614.00065.03108.001.03565.00065.02929.0013.03842.00065.027.00131.0411.00065.02482.0013.04151.00065.02506.00163.05119.001.02474.002.05493.00065.02181.00163.04321.001.02751.0013.038.00131.02889.0013.0376.001.02694.00162.03947.0013.0271.00163.039.001.0262.00163.04053.0013.02547.00195.04379.001.02075.00228.04663.001.02042.00261.05689.00032.00806.00326.06559.001.01863.0026.04818.001.01937.00227.04574.00131.02335.00228.04281.00162.02433.00228.04053.0013.02555.00261.042.0013.023.00228.04232.00163.02409.0026.04232.0013.0236.00261.04175.00162.02408.00326.0494.001.01522c.00293.04525.00553.08659.00878.13176l.001.01489.00358.05062.0013.02026.00326.04533.00163.0223.00293.04191.00195.02645.00293.0393.00195.02531.00293.03947.002.0271.00293.0398.00195.02425.00358.04288.00163.02238.0039.05022.0013.01383.00456.058.00065.00822.01107.131.00163.01871.0039.046.00228.024.00358.04012.00228.02669.00358.039.00228.02548.00358.04069.00228.02311.00391.04378.00195.02189.00423.04248.002.02287.00423.044.00228.02124.00455.04874.00163.01579.00554.05453.0026.02881.00488.04532.00261.02808.0039.037.00261.0262.00423.0389.00293.02848.00358.03435.00325.03125.00358.03353.00359.031.00358.0341.00325.02889.00391.03695.00325.02791.00423.03784.00293.02572.00456.0402.00261.0249.015.12785.00163.01489.00618.0503.00228.02026.00521.043.00293.02441.00488.04159.00293.02311.00488.04012.00326.0258.00488.039.00326.026.00488.03776.00326.02588.00553.04281.0026.02058.00586.047.00228.017.00684.05151.00163.01351.01757.13062.00065.00472.00814.05941.002.01391.00683.05086.00228.01538.00651.04851.00293.01977.00619.04427.00292.02019.00619.0441.00325.02141.00619.04419.00293.01936.00651.04582.00293.019.00749.05241.00162.0105c.00977.06494.01921.12891.0293.19377l.00261.01693.00748.04882.00228.01449.00749.04907.00293.01774.00716.047.00293.01806.00716.04525.00326.02027.00716.045.00293.01855.00781.04786.0026.01546.00879.05444.0013.009.00944.05608.00163.00927c.01042.06454.02149.12964.03255.19409l.00163.01034.00912.05241.00293.01684.00813.04834.00261.01457.00879.04907.00293.01693.00813.047.00326.01749.00781.04493.00358.02026.00847.04769.0026.01416.01042.05713.001.00618c.016.0861.03158.172.04786.258l.00227.01147.00977.05184.00293.01522.00879.047.00358.0188.00879.045.00358.019.00879.04525.00358.01766.00944.04842.00293.0144.01074.05453.00163.00814c.01269.06518.02539.128.03874.19311l.001.00562.01172.05648.00358.0179.00912.0446.00423.01985.00879.0437.00423.01978.00944.04451.00358.01709.00977.04753.00358.01579.01041.04988.00261.01237.01106.05135.00261.01286.01269.05868.00066.00317c.014.06486.028.12866.04231.19344l.00033.0022.01367.06169.0013.0052.0127.05607.00293.01319.01139.05045.00293.01311.01107.04939.00325.01457.0114.05021.00293.01262.01171.04988.00293.01367.01335.05746.001.00374c.01985.08594.04.1709.06054.25659v.00082l.015.0616.00163.00708.01334.055.00261.01066.01237.05127.00325.01383.0127.0516.00228.00895.01367.05509.002.00855.01432.058.001.004.01562.062.00033.0013c.016.064.0319.127.0485.191l.001.00472.01432.05607.00358.01327.01335.05143.00228.009.01334.052.00359.01334.013.04989.00325.01229.01335.05061.00325.0118.01433.05518.00162.00578.016.05916.001.00366c.02246.08488.04492.168.06836.25269l.001.00382.016.05835.00195.00692.015.05461.00293.01033.01465.053.00261.00846.0153.05486.002.0074.01627.05737.00131.00424.0166.05916.001.00374c.02994.10547.05989.209.09049.314l.001.00293.01692.05827.00228.00732.01628.05485.00228.00814.01562.05281.00326.01042.016.05371.00195.007c.04329.14421.08789.29085.13249.43433l.0026.00781.0166.05355.00293.00887.0166.05273.00293.00952.01693.05347.00195.00708.01758.05526.00228.00651c.05241.16528.10645.33154.16081.49593l.00032.00041.041.12369.00033.00033q.09325.27918.19075.55648v.00008l.02083.05949.00131.00382c.05794.16431.11588.32569.17578.4891l.00065.00195a42.80353,42.80353,0,0,0,22.40006,24.17261h0q.29493.1344.5918.26416l.0013.00065.05762.02507.00228.001.056.0245.0039.00154c.11882.05168.23633.102.3558.15251l.0026.00106.05632.02384.00521.00212.05306.02238.00846.00342.05143.02156.00716.003.05046.021.01042.00439.05143.02132.00586.00236.05729.02369.001.0004c.09993.04126.19889.08163.29947.12215l.00521.002.05339.02148.00944.00391.05013.01994.00944.00374.04948.01986.01107.00439.04752.01888.01237.00489.04623.01823.014.00545.05078.02.00651.0026q.14942.05873.29981.11629l.00781.0031.05143.01961.01172.00447.04492.01718.01726.00659.04459.01684.01335.00513.04492.01693.01563.00586.0472.01774.01139.00423.05111.01921.00814.003.05859.02172.0013.00049c.04069.01514.07975.02971.12077.04468l.00944.0035.0485.01774.02051.00757.03874.01408.01953.00716.04069.01481.01888.00684.042.01513.01628.00586.043.01555.01888.00675.041.01473.01758.00627.043.0153.01758.00626.0485.01726.00976.00349.05176.01823.00944.00334.06022.02116.00293.001.05664.01977.01237.0044.04818.01668.01563.00545.04134.01424.02343.00814.03646.01261.02344.008.03613.01237.02312.008.0371.01261.02409.00822.03288.01115.027.00919.03711.01254.02116.00708.057.0192.00131.00033.12141.04052.01888.00627.04.01318.02409.0079.03581.0118.02669.00879.0319.01041.029.00944.03.00977.0306.01.02962.00952.029.00936.03059.00993.0306.00976.028.009.03125.00993.02571.00822.03549.01123.01725.00553.13509.04264.02214.00692.0371.01156.02181.00683.03581.01115.02539.00781.03321.01026.02636.00814.03321.01025.02669.00814.03418.0105.02409.00732.03548.01082.02506.00757.03483.01058.02344.00708.03679.01107.0179.00537c.05241.01579.10286.03084.1556.04639l.0013.0004.043.0127.01725.005.04037.012.0192.00561.03906.0114.02084.006.04036.0118.01823.00521.04069.01172.01986.00577.03971.01148.01986.00561.03939.01123.01953.00562.04232.012.00748.00212c.09147.026.18522.05216.277.07747l.00781.00228.04753.013.01269.0035.0446.01213.01628.00447.04362.01188.015.00407.04557.01237.013.0035.04721.0127.01009.00268.04915.01319.00911.00236c.11263.03011.22754.06022.3405.08935l.00228.00057.05566.01433.00326.00089.05078.01294.012.00309.0472.012.0127.00317.04687.01188.012.003.04915.01229.00781.002.05111.0127.00814.002q.14258.0354.28581.07l.00065.00016.05176.01237.01009.00245.0498.01188.00944.00228.04818.01139.014.00334.04785.01131.00879.002.05208.01221.00553.0013q.23194.0542.46517.10588l.00423.001.05534.01221.00391.00081.05566.01221.00391.00081q1.53614.3357,3.11393.5599a10.66668,10.66668,0,0,0,2.99154-21.12256A21.33624,21.33624,0,0,1,170.66667,128a10.66667,10.66667,0,0,0,0-21.33333Z" style="fill:#163969"/><path d="M170.66667,42.66667h.6106a33.53008,33.53008,0,0,1,29.99022,18.535l88.34715,176.6943A32.75056,32.75056,0,0,0,318.90762,256H457.91611a32.75056,32.75056,0,0,0,32.75056-32.75055v0a32.75058,32.75058,0,0,0-5.50045-18.16674L405.33333,49.83252a64,64,0,0,0-53.25122-28.49919H170.66667Z" style="fill:#163969"/><path d="M207.69434,40.49845a10.66784,10.66784,0,0,0-8.78711,16.70069,33.53017,33.53017,0,0,1,2.36035,4.0026h0s1.05469,2.10938,2.93522,5.87061l.01009.02.04948.09855.0153.0306c.01888.03825.03581.0721.05534.11067l.016.03247c.71419,1.4279,1.54394,3.08741,2.47168,4.94328l.013.02613c.07552.15087.15039.30021.22689.45377l.00586.01172c1.08951,2.17887,2.31412,4.62793,3.651,7.30168l.00879.01758c2.23144,4.46289,4.7858,9.57177,7.57161,15.14331l.05241.10506c.04362.08732.08464.16886.12826.25635l.01171.02343c.49252.98478.99382,1.98747,1.5,3.00025l.02312.0463c.13964.27922.27506.54964.41569.83089l.02994.05982.014.0284.03288.06567.0319.06372.08594.1718.01139.0227.03581.07162.029.05818.01823.03622.04687.09383.00033.00065c26.01725,52.03451,68.84928,137.69889,68.84928,137.69889l.03646.07284.01074.021.026.052.01269.02482.02539.05029.01139.02222.02865.05591.00912.01741c.02539.0494.05013.0979.07584.14722l.00749.01392.03125.06.00879.01693.02995.057.00911.01774.03451.06478.00358.00708c.02636.0498.05306.09977.07975.14941l.00553.01025.03386.06267.00781.01481.03418.06266.00488.00936c.04037.07422.08171.149.1224.22274l.00521.00927.03645.06551.00489.009.03776.06722.00358.00626q.063.11268.12728.22469l.00032.00065.04167.07268.0026.00439a32.71265,32.71265,0,0,0,8.76726,9.887l.00065.00025q.16845.126.33821.24959l.002.00147q.13526.09863.27181.1958l.00293.002.0638.04525.00586.00431c.068.04826.13574.0957.2041.14339l.0013.0009.06348.04411.01139.008.05664.039.01074.00749.06153.04232.00455.00309q.06788.04664.13607.09277l.00847.0057.05761.03906.01367.009.05372.03613.01432.00976.05989.04.00586.00383c.04493.03.09017.06.13509.08976l.01433.00944.05143.03377.01888.01229.0498.03247.01726.01148.054.035.0127.00838.06673.04313.00977.00627.05631.03621.02083.01335.04493.02865.02441.01562.042.02653.02572.01636.0472.03.0179.01123.06478.04069.02149.01334.04524.02832.02539.016.04069.02515.02767.01717.04.02474.027.0166.04362.02678.02279.01408.06315.03849.02962.01815.03548.02148.03516.02116.03027.01839.03613.02173.0293.01758.03711.0223.028.01668c.04655.02767.09375.05574.1403.08309l.02246.01318.04264.02523.02148.01245.04427.026.01889.011.04785.02775.00228.0013c.05664.03288.113.06535.16992.0979l.01367.008.04915.028.0153.00855.05046.02881.00944.0052c.07845.04452.15625.08806.23535.13192l.00358.002.05762.032.00488.0026q.92284.50952,1.87858.95964a10.66671,10.66671,0,0,0,9.07422-19.30729,11.474,11.474,0,0,1-5.33854-5.21924L220.349,51.66121a54.93422,54.93422,0,0,0-3.85287-6.53483,10.65457,10.65457,0,0,0-8.80175-4.62793Z" style="fill:#5e7599"/><rect x="234.66667" y="42.66667" width="42.66667" height="21.33333" rx="10.66666" ry="10.66666" style="fill:#33527d"/><rect x="341.33333" y="42.66667" width="42.66667" height="21.33333" rx="10.66666" ry="10.66666" style="fill:#33527d"/><rect x="298.66667" y="64" width="42.66667" height="21.33333" rx="10.66666" ry="10.66666" style="fill:#33527d"/><rect x="362.66667" y="85.33333" width="42.66667" height="21.33333" rx="10.66666" ry="10.66666" style="fill:#33527d"/><rect x="405.33333" y="170.66667" width="42.66667" height="21.33333" rx="10.66666" ry="10.66666" style="fill:#33527d"/><rect x="341.33333" y="170.66667" width="42.66667" height="21.33333" rx="10.66666" ry="10.66666" style="fill:#33527d"/><rect x="362.66667" y="128" width="42.66667" height="21.33333" rx="10.66666" ry="10.66666" style="fill:#33527d"/><rect x="277.33333" y="149.33333" width="42.66667" height="21.33333" rx="10.66666" ry="10.66666" style="fill:#33527d"/><rect x="298.66667" y="106.66667" width="42.66667" height="21.33333" rx="10.66666" ry="10.66666" style="fill:#33527d"/><rect x="320" y="234.66667" width="149.33333" height="21.33333" rx="10.66666" ry="10.66666" style="fill:#002755"/></g></svg>