<svg xmlns="http://www.w3.org/2000/svg" viewBox="0 0 512 512"><title>Artboard 160</title><g id="Apple"><path d="M341.33333,64c-24,0-42,6-55.125,13.5a61.457,61.457,0,0,1-60.41666,0c-13.125-7.5-31.125-13.5-55.125-13.5C64,64,21.33333,149.33333,21.33333,213.33333c0,106.66667,85.33334,128,85.33334,192S149.33333,490.66667,192,490.66667A63.80008,63.80008,0,0,0,229.47588,478.281a46.26487,46.26487,0,0,1,53.04824,0A63.80008,63.80008,0,0,0,320,490.66667c42.66667,0,85.33333-21.33334,85.33333-85.33334s85.33334-85.33333,85.33334-192C490.66667,149.33333,448,64,341.33333,64Z" style="fill:#4cc66e"/><ellipse cx="256" cy="106.66667" rx="42.66667" ry="21.33333" style="fill:#14a142"/><ellipse cx="266.66667" cy="106.66667" rx="32" ry="21.33333" style="fill:#006236"/><path d="M277.96012,21.33333h0a20.69637,20.69637,0,0,0-20.07842,15.67675L235.2948,80.95071a20.69635,20.69635,0,0,0,20.07841,25.716h0a20.69636,20.69636,0,0,0,20.07841-15.67675l22.58686-43.94063A20.69635,20.69635,0,0,0,277.96012,21.33333Z" style="fill:#163969"/><path d="M267.43229,24.51042a20.43084,20.43084,0,0,0-9.55078,12.49869L235.29427,80.95052a20.5935,20.5935,0,0,0,9.27344,22.53906,20.42633,20.42633,0,0,0,9.55078-12.5l22.58724-43.9401A20.5927,20.5927,0,0,0,267.43229,24.51042Z" style="fill:#435e88"/><ellipse cx="128" cy="170.66667" rx="78.57095" ry="44.89769" transform="translate(-83.18923 140.49678) rotate(-45)" style="fill:#84d89c"/><path d="M405.33333,405.33333c0-63.32031,83.39453-85.01041,85.17058-188.763C489.349,233.86979,477.849,320,362.66667,320,256,320,256,405.33333,256,405.33333c0,36.98047,16.08984,73.85808,48.14062,83.0586.60027.16015,1.1875.33333,1.79818.47786A57.52353,57.52353,0,0,0,320,490.66667C362.66667,490.66667,405.33333,469.33333,405.33333,405.33333Z" style="fill:#14a142"/><path d="M86.20826,283.74972c5.90157,20.11756,20.13472,51.33648,49.46231,74.6209,6.42369,5.1,15.423,5.56457,22.75912,1.89649l.00005,0c13.137-6.56849,16.48792-24.14745,6.16062-34.59122-11.30372-11.43121-25.50094-32.14939-35.64184-56.60686C125.597,260.986,117.37165,256,108.62134,256h-1.24573C92.86819,256,82.12454,269.82893,86.20826,283.74972Z" style="fill:#84d89c"/><ellipse cx="117.33333" cy="138.66667" rx="37.6503" ry="25.1002" transform="translate(-63.686 123.58172) rotate(-45)" style="fill:#b7e8c4"/></g></svg>