<svg xmlns="http://www.w3.org/2000/svg" viewBox="0 0 512 512"><title>Artboard 123</title><g id="Abacus"><path d="M448,21.33333H64A42.66629,42.66629,0,0,0,21.33333,64V448A42.66712,42.66712,0,0,0,64,490.66667H448A42.66712,42.66712,0,0,0,490.66667,448V64A42.66629,42.66629,0,0,0,448,21.33333ZM426.66667,426.66667H85.33333V85.33333H426.66667Z" style="fill:gold"/><path d="M448,64H64V448H448ZM426.66667,426.66667H85.33333V85.33333H426.66667Z" style="fill:#ffbe00"/><rect x="85.33333" y="426.66667" width="362.66667" height="21.33333" rx="10.66666" ry="10.66666" style="fill:#ffa300"/><rect x="256" y="256" width="362.66667" height="21.33333" rx="10.66666" ry="10.66666" transform="translate(704 -170.66667) rotate(90)" style="fill:#ffa300"/><path d="M448,426.66667l16.91506,16.91506a15.08493,15.08493,0,0,1,0,21.33331l0,0a15.08493,15.08493,0,0,1-21.33331,0L426.66667,448Z" style="fill:#ffa300"/><path d="M426.66667,64l16.91506-16.91506a15.08493,15.08493,0,0,1,21.33331,0l0,0a15.08493,15.08493,0,0,1,0,21.33331L448,85.33333Z" style="fill:#ffbe00"/><path d="M64,426.66667,47.08494,443.58173a15.08493,15.08493,0,0,0,0,21.33331l0,0a15.08493,15.08493,0,0,0,21.33331,0L85.33333,448Z" style="fill:#ffbe00"/><path d="M85.33333,64,68.41827,47.08494a15.08493,15.08493,0,0,0-21.33331,0l0,0a15.08493,15.08493,0,0,0,0,21.33331L64,85.33333Z" style="fill:#ffbe00"/><rect x="64" y="128" width="384" height="42.66667" rx="21.33331" ry="21.33331" style="fill:#dfe5ff"/><rect x="85.33333" y="149.33333" width="341.33333" height="21.33333" rx="10.66666" ry="10.66666" style="fill:#b8c2ff"/><rect x="64" y="234.66667" width="384" height="42.66667" rx="21.33331" ry="21.33331" style="fill:#dfe5ff"/><rect x="85.33333" y="256" width="341.33333" height="21.33333" rx="10.66666" ry="10.66666" style="fill:#b8c2ff"/><rect x="64" y="341.33333" width="384" height="42.66667" rx="21.33331" ry="21.33331" style="fill:#dfe5ff"/><rect x="85.33333" y="362.66667" width="341.33333" height="21.33333" rx="10.66666" ry="10.66666" style="fill:#b8c2ff"/><rect x="85.33333" y="106.66667" width="64" height="85.33333" rx="31.99997" ry="31.99997" style="fill:#005eee"/><rect x="170.66667" y="106.66667" width="64" height="85.33333" rx="31.99997" ry="31.99997" style="fill:#005eee"/><rect x="256" y="106.66667" width="64" height="85.33333" rx="31.99997" ry="31.99997" style="fill:#005eee"/><rect x="341.33333" y="106.66667" width="64" height="85.33333" rx="31.99997" ry="31.99997" style="fill:#bc5cf3"/><rect x="85.33333" y="213.33333" width="64" height="85.33333" rx="31.99997" ry="31.99997" style="fill:#005eee"/><rect x="149.33333" y="213.33333" width="64" height="85.33333" rx="31.99997" ry="31.99997" style="fill:#005eee"/><rect x="256" y="213.33333" width="64" height="85.33333" rx="31.99997" ry="31.99997" style="fill:#005eee"/><rect x="362.66667" y="213.33333" width="64" height="85.33333" rx="31.99997" ry="31.99997" style="fill:#bc5cf3"/><rect x="106.66667" y="320" width="64" height="85.33333" rx="31.99997" ry="31.99997" style="fill:#005eee"/><rect x="192" y="320" width="64" height="85.33333" rx="31.99997" ry="31.99997" style="fill:#005eee"/><rect x="256" y="320" width="64" height="85.33333" rx="31.99997" ry="31.99997" style="fill:#005eee"/><rect x="341.33333" y="320" width="64" height="85.33333" rx="31.99997" ry="31.99997" style="fill:#bc5cf3"/><circle cx="106.66667" cy="128" r="21.33333" style="fill:#079cff"/><circle cx="96" cy="117.33333" r="10.66667" style="fill:#bce4ff"/><circle cx="192" cy="128" r="21.33333" style="fill:#079cff"/><circle cx="181.33333" cy="117.33333" r="10.66667" style="fill:#bce4ff"/><circle cx="277.33333" cy="128" r="21.33333" style="fill:#079cff"/><circle cx="266.66667" cy="117.33333" r="10.66667" style="fill:#bce4ff"/><circle cx="362.66667" cy="128" r="21.33333" style="fill:#c175ff"/><circle cx="352" cy="117.33333" r="10.66667" style="fill:#d7a5ff"/><circle cx="106.66667" cy="234.66667" r="21.33333" style="fill:#079cff"/><circle cx="96" cy="224" r="10.66667" style="fill:#bce4ff"/><circle cx="170.66667" cy="234.66667" r="21.33333" style="fill:#079cff"/><circle cx="160" cy="224" r="10.66667" style="fill:#bce4ff"/><circle cx="277.33333" cy="234.66667" r="21.33333" style="fill:#079cff"/><circle cx="266.66667" cy="224" r="10.66667" style="fill:#bce4ff"/><circle cx="384" cy="234.66667" r="21.33333" style="fill:#c175ff"/><circle cx="373.33333" cy="224" r="10.66667" style="fill:#d7a5ff"/><circle cx="128" cy="341.33333" r="21.33333" style="fill:#079cff"/><circle cx="117.33333" cy="330.66667" r="10.66667" style="fill:#bce4ff"/><circle cx="213.33333" cy="341.33333" r="21.33333" style="fill:#079cff"/><circle cx="202.66667" cy="330.66667" r="10.66667" style="fill:#bce4ff"/><circle cx="277.33333" cy="341.33333" r="21.33333" style="fill:#079cff"/><circle cx="266.66667" cy="330.66667" r="10.66667" style="fill:#bce4ff"/><circle cx="362.66667" cy="341.33333" r="21.33333" style="fill:#c175ff"/><circle cx="352" cy="330.66667" r="10.66667" style="fill:#d7a5ff"/><rect x="106.66667" y="42.66667" width="106.66667" height="21.33333" rx="10.66666" ry="10.66666" style="fill:#ffff9d"/><rect x="234.66667" y="42.66667" width="42.66667" height="21.33333" rx="10.66666" ry="10.66666" style="fill:#ffff9d"/></g></svg>