<svg xmlns="http://www.w3.org/2000/svg" viewBox="0 0 512 512"><title>Artboard 140</title><g id="School_Bus" data-name="School Bus"><path d="M469.33333,362.66667H170.66667V128H384a42.66667,42.66667,0,0,1,42.66667,42.66667v64H448a42.66668,42.66668,0,0,1,42.66666,42.66667v64A21.33334,21.33334,0,0,1,469.33333,362.66667Z" style="fill:#ffa300"/><rect x="277.33333" y="213.33333" width="149.33333" height="42.66667" rx="21.33331" ry="21.33331" style="fill:#f98b00"/><circle cx="234.66667" cy="362.66667" r="42.66667" style="fill:#002755"/><circle cx="426.66667" cy="362.66667" r="42.66667" style="fill:#002755"/><path d="M448,234.66667H277.33333v-64A42.66628,42.66628,0,0,1,320,128H85.33333a42.66666,42.66666,0,0,0-42.66666,42.66667V320a42.66666,42.66666,0,0,0,42.66666,42.66667h384a21.33334,21.33334,0,0,0,21.33334-21.33334v-64A42.66666,42.66666,0,0,0,448,234.66667Z" style="fill:gold"/><path d="M64,298.66667v-64a21.33272,21.33272,0,0,0-21.33333-21.33334V320A21.33355,21.33355,0,0,0,64,298.66667Z" style="fill:#ffbe00"/><rect x="256" y="170.66667" width="21.33333" height="64" rx="10.66666" ry="10.66666" style="fill:#ffbe00"/><path d="M448,234.66667H405.33333a42.66627,42.66627,0,0,0-42.66666,42.66666v64a21.33356,21.33356,0,0,1-21.33334,21.33334h128a21.33356,21.33356,0,0,0,21.33334-21.33334v-64A42.66628,42.66628,0,0,0,448,234.66667Z" style="fill:#ffbe00"/><rect x="149.33333" y="341.33333" width="128" height="21.33333" rx="10.66666" ry="10.66666" style="fill:#ffbe00"/><circle cx="298.66667" cy="362.66667" r="42.66667" style="fill:#33527d"/><circle cx="298.66667" cy="362.66667" r="21.33333" style="fill:#ccd4ff"/><circle cx="106.66667" cy="362.66667" r="42.66667" style="fill:#33527d"/><circle cx="106.66667" cy="362.66667" r="21.33333" style="fill:#ccd4ff"/><rect x="405.33333" y="256" width="42.66667" height="64" rx="21.33331" ry="21.33331" style="fill:#163969"/><rect x="405.33333" y="256" width="21.33333" height="42.66667" rx="10.66666" ry="10.66666" style="fill:#002755"/><circle cx="437.33333" cy="309.33333" r="10.66667" style="fill:#002755"/><circle cx="384" cy="277.33333" r="21.33333" style="fill:#eff2ff"/><circle cx="469.33333" cy="277.33333" r="21.33333" style="fill:#eff2ff"/><rect x="298.66667" y="170.66667" width="106.66667" height="42.66667" rx="21.33331" ry="21.33331" style="fill:#163969"/><path d="M224,170.66667H224a32,32,0,0,1,32,32V320a0,0,0,0,1,0,0H192a0,0,0,0,1,0,0V202.66663A32,32,0,0,1,224,170.66667Z" style="fill:#33527d"/><path d="M224,170.66667h-.097l-.01834.00032h-.04862l-.03145.00033H223.787l-.0361.00032h-.01163l-.04922.00065h-.00295l-.04585.00033-.01382.00033-.03351.00032-.01859.00033-.03123.00032-.01715.00033-.03256.00032-.01611.00033-.03723.00065h-.01135l-.04731.001-.01519.00032-.03457.00065-.014.00033-.03448.00065-.01725.00032-.03073.00066-.01906.00065-.0282.00065-.02085.00065-.03322.00065-.01386.00033-.04694.0013-.01654.00065-.03247.001-.017.00032-.0308.001-.01949.00065-.02952.001-.01878.00066-.02936.001-.0194.00065-.03571.00131-.01182.00032-.04657.00195-.01858.00066-.03.001-.0176.001-.03131.0013-.01817.00065-.03127.0013-.01612.00065-.03344.00131-.016.001-.09544.00423-.01331.00066-.03522.00162-.0167.001-.029.0013-.02208.0013-.0261.00131-.0212.001-.03078.00163-.016.001-.04781.0026-.00385.00033-.04335.00228-.01693.001-.0318.002-.01658.001-.0309.00163-.01964.0013-.02649.00163-.02223.0013-.02485.00163-.02276.0013-.04537.00293-.01542.001-.03113.00228-.02193.0013-.02549.00163-.02342.00162-.0233.00163-.02388.00163-.02423.00195-.02342.00163-.02639.00195-.01992.0013-.04543.00326-.01782.0013-.03.00228-.02069.00163-.02669.002-.02045.00163-.02767.00228-.02052.00162-.02883.00228-.01768.00131-.03477.00293-.01335.0013-.04689.0039-.01294.001-.03339.00293-.01827.0013-.0308.00293-.01791.0013-.0273.00261-.02175.002-.02726.00228-.01949.00195-.0366.00326-.01319.0013-.04219.00391-.022.00195-.025.00228-.02252.00228-.02578.00228-.02018.00195-.02724.00293-.0213.00195-.02495.00261-.0224.00195-.01975.00228-.05086.00488-.01978.00228-.02517.0026-.021.002-.02553.00293-.02183.00227-.0244.00261-.02317.00228-.02234.0026-.02985.00326-.017.00162-.04563.00521-.01571.00163-.03.00326-.02277.0026-.0237.00293-.0246.0026-.022.00261-.02391.00293-.02258.0026-.02464.00293-.02879.00326-.01562.00195-.04521.00521-.02132.0026-.02578.00326-.02311.00293-.02226.0026-.02437.00293-.023.00293-.02425.00293-.02078.00293-.02494.00293-.02746.00358-.01854.00228-.04484.00586-.02043.0026-.02482.00326-.0236.00325-.02276.00293-.02537.00358-.02039.00261-.02437.00325-.02391.00326-.02291.00325-.02388.00326-.09159.01269-.02011.00293-.02508.00358-.01976.00261-.02638.0039-.01984.00293L219.365,171l-.01613.00228-.02887.00423-.019.0026-.0524.00782-.01622.0026-.02777.00391-.01837.00293-.02578.0039-.01973.00293-.02779.00423-.01675.00261-.02844.00456-.01532.00228c-.05025.00781-.09845.01529-.14864.02343l-.013.002-.029.00488-.01714.0026-.02738.00456-.01843.00293-.02844.00456-.0103.00195c-.03518.00553-.07111.01172-.10622.01758l-.01463.00228-.02783.00488-.0178.00293-.026.00456-.02035.00325-.02472.00456-.02462.00423-.01955.00326-.02608.00455-.04439.00782-.01935.00325-.02643.00488-.01774.00326-.02922.00521-.0157.0026-.02914.00521-.01544.00293-.02885.00521-.01733.00325-.02751.00489-.01505.00293-.05947.01106-.012.002-.03079.00586-.01275.0026-.03237.00586-.01192.00228-.03136.00618-.01287.00228-.0325.00619-.00864.00162-.11261.02181-.00708.00163-.03217.00619-.01149.00228-.03274.00651-.01111.00227-.03255.00651-.011.00228-.03366.00651-.00612.00131-.1568.03222-.00746.0013-.035.00749-.008.00163-.03516.00749-.0073.0013q-.1.021-.19977.04264l-.00484.0013-.035.00749-.01.00228-.03464.00749-.00511.0013c-.06732.01465-.13336.02929-.20052.04459l-.0047.001-.03809.00879-.0034.001-.03867.00879-.00256.00065q-.10194.02343-.20344.0472l-.00164.00032-.03915.00944-.00341.001-.0388.00911-.00143.00033c-.06773.01628-.13393.03223-.20149.04915l-.00509.001-.03872.00977h-.00044c-.17693.04394-.35393.08951-.52969.13639l-.00305.00065c-.07981.02148-.16168.04362-.24123.06543l-.00226.00065a32.05415,32.05415,0,0,0-22.602,23.32227q-.06909.28662-.12193.57259c-.04494.17285-.08563.347-.12233.52409a32.064,32.064,0,0,0-.62437,5.20019l-.00006.0013-.00187.05046,0,.00065-.00163.04557-.00025.00716-.00154.0459-.00019.00489-.00144.04492-.00022.00683-.00141.04558-.00016.00553-.00124.042-.00031.01042-.0011.04-.00032.01139-.00106.04069-.00026.01009-.001.041-.00024.01074-.00092.03939-.00026.012-.001.0446-.00012.00618-.00082.04069-.00022.0114-.00075.042-.00019.00911-.00075.0459-.00008.00521-.00065.04329-.00014.00879-.00055.04135-.00015.01009-.00046.03906-.00015.01269-.00038.03874-.00015.0127-.00026.03157-.00018.02084-.00019.02506-.00018.026-.00014.02637-.00014.02539-.00013.0293-.00008.02181-.00006.02376-.0001.07943h0V309.33333a10.66667,10.66667,0,1,0,21.33333,0V202.66667a10.82831,10.82831,0,0,1,.21312-2.15267c.01286-.06315.02516-.127.03682-.19043.01616-.06218.0317-.124.04682-.18653A10.62348,10.62348,0,0,1,224,192a10.66667,10.66667,0,1,0,0-21.33333Z" style="fill:#002755"/><rect x="64" y="170.66667" width="42.66667" height="42.66667" rx="21.33331" ry="21.33331" style="fill:#33527d"/><rect x="128" y="170.66667" width="42.66667" height="42.66667" rx="21.33331" ry="21.33331" style="fill:#33527d"/><path d="M42.66665,320H64a0,0,0,0,1,0,0v42.66667a0,0,0,0,1,0,0H42.66665a21.33331,21.33331,0,0,1-21.33331-21.33331v0A21.33331,21.33331,0,0,1,42.66665,320Z" style="fill:#5e7599"/><circle cx="320" cy="128" r="21.33333" style="fill:#005eee"/><circle cx="330.66667" cy="117.33333" r="10.66667" style="fill:#5cbeff"/><circle cx="384" cy="128" r="21.33333" style="fill:#005eee"/><circle cx="394.66667" cy="117.33333" r="10.66667" style="fill:#5cbeff"/><circle cx="74.66667" cy="245.33333" r="10.66667" style="fill:#14a142"/><circle cx="96" cy="266.66667" r="10.66667" style="fill:#14a142"/><circle cx="53.33333" cy="266.66667" r="10.66667" style="fill:#14a142"/><circle cx="117.33333" cy="245.33333" r="10.66667" style="fill:#14a142"/><circle cx="138.66667" cy="266.66667" r="10.66667" style="fill:#14a142"/><circle cx="160" cy="245.33333" r="10.66667" style="fill:#14a142"/><circle cx="74.66667" cy="181.33333" r="10.66667" style="fill:#002755"/><circle cx="138.66667" cy="181.33333" r="10.66667" style="fill:#002755"/><circle cx="53.33333" cy="352" r="10.66667" style="fill:#33527d"/><rect x="320" y="170.66667" width="64" height="21.33333" rx="10.66666" ry="10.66666" style="fill:#002755"/><rect x="170.66667" y="170.66667" width="21.33333" height="149.33333" rx="10.66666" ry="10.66666" style="fill:#ffff9d"/><rect x="106.66667" y="170.66667" width="21.33333" height="42.66667" rx="10.66666" ry="10.66666" style="fill:#ffff9d"/><rect x="426.66667" y="149.33333" width="42.66667" height="64" rx="21.33331" ry="21.33331" style="fill:#ffbe00"/><rect x="234.66667" y="149.33333" width="42.66667" height="64" rx="21.33331" ry="21.33331" style="fill:#ffea21"/><rect x="384" y="341.33333" width="85.33333" height="21.33333" rx="10.66666" ry="10.66666" style="fill:#ffa300"/><rect x="277.33333" y="234.66667" width="85.33333" height="21.33333" rx="10.66666" ry="10.66666" style="fill:#ffff9d"/><rect x="85.33333" y="128" width="192" height="21.33333" rx="10.66666" ry="10.66666" style="fill:#ffff9d"/><rect x="149.33333" y="320" width="106.66667" height="21.33333" rx="10.66666" ry="10.66666" style="fill:#ffea21"/></g></svg>