<svg xmlns="http://www.w3.org/2000/svg" viewBox="0 0 512 512"><title>Artboard 163</title><g id="Magnifying_Glass" data-name="Magnifying Glass"><path d="M405.33327,303.399h.00009a45.2548,45.2548,0,0,1,45.2548,45.2548V462.01292a45.25478,45.25478,0,0,1-45.25478,45.25478h-.00009a45.2548,45.2548,0,0,1-45.2548-45.2548V348.65374A45.25477,45.25477,0,0,1,405.33327,303.399Z" transform="translate(-167.89456 405.33356) rotate(-45.00002)" style="fill:#163969"/><circle cx="362.66667" cy="362.66667" r="42.66667" style="fill:#33527d"/><path d="M377.75146,347.58219l-42.6665-42.6665A21.3329,21.3329,0,1,0,304.91569,335.085l42.6665,42.6665a21.3329,21.3329,0,0,0,30.16927-30.16927Z" style="fill:#adb9ca"/><path d="M356.418,347.582,313.7513,304.91536a20.53774,20.53774,0,0,0-4.418-2.93359,20.538,20.538,0,0,0-4.418,2.93359,21.33107,21.33107,0,0,0,0,30.16928L347.582,377.7513A20.538,20.538,0,0,0,352,380.6849a20.538,20.538,0,0,0,4.418-2.9336A21.33106,21.33106,0,0,0,356.418,347.582Z" style="fill:#7d8fac"/><circle cx="202.66667" cy="202.66667" r="181.33333" style="fill:#163969"/><path d="M202.66667,42.66667h-.19922c-.03972.00032-.08268.00032-.12272.00032h-.041l-.15755.00065h-.00944l-.14583.00033-.04851.00032c-.03808,0-.07715.00033-.11523.00066h-.04557l-.15495.001-.02018.00033c-.04525,0-.09017.00032-.13542.00065l-.04948.00065-.11361.00065-.04655.00065c-.05078.00033-.10319.00065-.15364.0013l-.028.00033c-.04362.00032-.08366.00065-.12695.0013l-.05208.00033c-.03972.00065-.07618.001-.11621.0013l-.04135.00065-.15494.002-.03125.00033-.12468.00163-.05013.00065c-.03808.00065-.07812.0013-.11588.00162l-.0433.00066c-.05045.001-.10091.00162-.15169.00227l-.04264.001c-.03809.00033-.07357.001-.11133.00163l-.057.001-.11556.002-.03971.001c-.05046.00066-.10254.00163-.153.00261l-.04.001c-.03971.00065-.07714.0013-.11653.00227l-.05176.001-.11751.00228-.04.001-.15137.00325-.0446.001-.11132.0026-.054.0013-.1237.00293-.03125.00065-.15267.00391-.0459.0013-.1123.00293-.04981.0013c-.04329.001-.08789.00228-.13118.00359l-.02572.00065-.152.00423-.04818.0013c-.03613.0013-.07227.00228-.10807.00326l-.05372.00162c-.04492.00131-.09114.00261-.13606.00424l-.02474.00065-.14518.00455-.05111.00163-.10742.00358-.05111.00163-.13965.00456-.03906.0013c-.04134.00163-.08659.00325-.12793.00456l-.05078.00162-.11.00424-.04818.00162c-.05045.00163-.10156.00358-.152.00554l-.02442.001-.13118.00489-.05111.002-.10937.00423-.04786.002-.14908.00586-.04.00163-.11719.00488-.05274.00228-.10677.00423-.05143.00228-.14941.00651-.03386.00163-.12142.00521-.05273.00228-.113.00521-.04166.002-.15039.00684-.041.002-.11947.00586-.04492.002-.12109.00586-.03776.002c-.05013.00228-.10124.00489-.15137.00749l-.03906.002-.11914.00586-.04753.00261-.12825.00651-.02637.0013c-.05208.00293-.10286.00553-.15462.00814l-.03906.00228-.11882.00618-.04655.00261-.12956.00716-.026.0013-.154.00879-.03809.00228c-.03938.002-.08072.00455-.12011.00683l-.04655.00261-.13705.00781-.0166.001-.153.00911-.0459.0026-.11361.00684-.04655.00293-.14062.00846-.014.001-.153.00944-.04428.00293-.1136.00716-.04851.00326c-.04817.00293-.09472.00586-.1429.00911l-.02571.00163-.13477.00879-.05111.00358-.109.00716-.0485.00326c-.0498.00325-.09831.00651-.14811.01009l-.03353.00228-.12207.00813-.04915.00358-.11329.00782-.04459.00325-.15137.01074-.02474.00163-.12956.00944-.0472.00326-.11914.00879-.03678.0026c-.05176.00391-.10221.00781-.15365.01139l-.02864.00228c-.04265.00326-.08529.00651-.12793.00944l-.04232.00326c-.041.00325-.08268.00651-.1237.00944l-.03515.0026c-.05144.00423-.10254.00814-.154.01205l-.02734.00227-.12825.00977-.0433.00358c-.04264.00326-.08333.00651-.126.01009l-.0306.00228-.15463.01237-.03092.0026-.126.01042-.04134.00326-.1289.01074-.02865.00228-.15332.01269-.03646.00326-.11719.00976-.04948.00424c-.04231.0039-.08463.00748-.12695.01106l-.02572.00228c-.05143.00423-.10188.00879-.15332.01335l-.03776.00325-.12076.01042-.04069.00358c-.04623.00423-.09278.00846-.13868.01237l-.01725.00163c-.0498.00456-.10351.00944-.15332.01367l-.04069.00391-.11719.01074-.043.0039c-.0511.00456-.10123.00912-.15266.014h0c-.05144.00488-.10352.00977-.15463.01432l-.04231.00424-.11882.01106-.03809.00358c-.10286.00977-.20735.01986-.30989.02963l-.041.00423c-.03873.00358-.07812.00749-.11718.01139l-.04167.00391-.15365.0153-.00781.00065-.14518.01465-.04362.00423-.11914.012-.03646.00358-.153.01563-.02408.0026-.13119.01335-.04329.00456c-.03874.00423-.07943.00846-.11817.01237l-.03841.0039-.153.01628-.02214.00228-.13021.01367-.04752.00521-.11784.01269-.03483.00358-.15235.01661-.03125.00325-.123.01367-.04688.00521-.11426.01237-.04036.00456-.14941.0166-.03646.00423-.11752.01335-.04785.00521-.12109.01367-.03125.00358-.14942.01725-.04394.00521-.11133.0127-.04883.00585c-.04069.00456-.0791.00912-.11979.014l-.03288.00358c-.04915.00586-.097.01172-.14616.01726l-.05208.00618-.09961.012-.05859.00684-.11751.01432-.02995.00358c-.04916.00586-.098.01172-.14714.01791l-.0498.00586-.10449.013-.05274.00618-.126.01563-.02408.00293-.14714.01855-.04883.00586-.10709.01367-.04883.00586c-.09831.0127-.20085.02572-.29883.03809l-.04915.00651c-.03516.00423-.07162.00911-.10677.01367l-.04948.00619c-.04883.00651-.09831.013-.14747.0192l-.01464.002-.13477.01758-.05045.00684-.10515.01367-.05078.00684-.14616.01953-.02474.00325c-.04.00521-.083.01107-.12337.0166l-.05469.00717-.10221.014-.05143.00684c-.04883.00651-.0944.01269-.14323.01953l-.04069.00553c-.03679.00521-.07292.0101-.1097.015l-.05371.00749-.10775.015-.04395.00618c-.05045.00684-.0983.01368-.14876.02084l-.02962.0039-.11882.01693-.05273.00716-.10807.01563-.04362.00618c-.04916.00684-.09766.01367-.14649.02084l-.03906.00553-.11068.01595-.05306.00749-.10872.016-.04265.00618-.14713.02149-.03841.00553-.11068.01628-.05306.00781-.11328.01693-.03678.0052c-.04883.00749-.09766.01465-.14616.02214l-.0433.00618c-.03678.00554-.07389.0114-.11035.01661l-.0472.00716c-.04167.00651-.08431.01269-.1263.0192l-.02442.00358-.152.02344-.03386.00521-.11491.01758-.04883.00749-.13151.02018-.01757.00293-.14974.02311-.04167.00651-.113.0179-.04329.00684c-.04883.00749-.09408.01465-.1429.02246l-.00782.0013c-.05013.00781-.10123.01595-.15136.02409l-.03874.00619c-.03809.00586-.07585.012-.11393.01822l-.04492.00717-.14877.02376-.00455.001-.14356.02311-.04915.00814c-.03451.00553-.07292.01171-.10743.01757l-.04329.00684c-.05046.00846-.09961.0166-.15006.02474l-.01042.00163c-.04655.00781-.09473.01595-.1416.02343l-.03841.00652-.11784.01953-.03874.00651-.151.02539-.01139.00195-.13868.02344-.04134.00683-.11849.02019-.03483.00586c-.05013.00878-.09863.01692-.14876.02539l-.02962.0052-.12468.02149-.03939.00683-.11914.02051-.03548.00619-.14909.026-.02767.00488-.12337.02149-.04362.00781c-.04134.00716-.08268.01432-.124.02181l-.02572.00456c-.05176.00911-.10026.01757-.152.027l-.02734.00489c-.04134.00716-.08333.01465-.12467.02213l-.041.00749c-.04134.00716-.08236.01465-.124.02213l-.02735.00489c-.05013.00911-.09863.0179-.14843.02669l-.03679.00684-.11653.02116-.04265.00781-.1263.02311-.02409.00423-.14876.02735-.03613.00683c-.03972.00716-.07813.01432-.11752.02181l-.04134.00749-.13737.02571-.01139.002-.15072.02832-.03776.00716-.112.02116-.04785.00879-.13476.02571-.01172.00228c-.04981.00944-.099.01856-.14877.02832l-.03906.00749c-.03939.00749-.07747.01465-.11719.02246l-.03776.00716-.29817.05762-.042.00814c-.03776.00716-.07552.01465-.11328.02213l-.041.00781-.14811.0293-.00879.00163c-.04786.00944-.0918.0179-.14.02767l-.04069.00781-.11816.02344-.03451.00683-.151.03028-.00879.00163-.1403.02832-.03808.00748c-.03939.00782-.08008.01595-.11947.02409l-.03483.00684-.14974.0306-.016.00325c-.04427.00879-.08854.0179-.13314.027l-.03906.00814c-.041.00814-.0804.01627-.12142.02474l-.03092.00618c-.04981.01042-.09831.02018-.14779.0306l-.03093.00619-.11946.02474-.043.00911-.11523.02376-.03614.00749-.14583.0306-.0332.00683c-.03907.00847-.07683.01628-.11589.02442l-.04394.00944c-.041.00846-.08236.01725-.12338.026l-.02571.00553c-.04948.01042-.09929.02084-.14877.03158l-.0319.00684c-.03906.00813-.07975.01692-.11914.02539l-.03939.00846c-.04069.00846-.08366.0179-.12467.02669l-.02669.00554-.14877.03222-.02929.00619c-.04069.00911-.08041.01758-.1211.02637l-.03841.00846-.13509.0293-.01432.00325c-.04948.01074-.099.02149-.14811.03255l-.03842.00814-.11263.02507-.042.00911-.12858.02832-.02083.00488c-.04753.01042-.098.02149-.14551.03223l-.04036.00912-.11.02441-.0433.00976c-.0983.02214-.19466.04362-.29329.06609l-.04362.00976-.10807.02442-.04265.00976c-.04915.01107-.096.02181-.14518.0332l-.014.00293c-.04557.01075-.08984.02084-.13541.03125l-.03841.00879-.11556.02637-.03614.00846-.14908.03451-.00912.002c-.04557.01074-.09017.02116-.13574.03158l-.04623.01074-.10807.02539-.03939.00911-.14485.03386-.027.00651c-.04069.00944-.08073.01888-.12142.02865l-.0446.01041-.1084.02572-.04.00944-.14388.03418-.03125.00748-.11524.02767-.0485.0114c-.03548.00879-.07227.01758-.10775.026l-.03874.00944-.1416.03385-.04134.01009c-.03548.00879-.071.01726-.10644.02572l-.04883.012c-.03711.00879-.07715.01856-.11426.02767l-.03027.00749c-.04883.01172-.09571.02344-.14453.03516l-.03842.00944c-.03548.00879-.07194.0179-.10742.02636l-.05045.0127-.11394.028-.02962.00717-.14193.03515-.04622.01172c-.03353.00814-.06706.0166-.10059.02507l-.0524.013c-.03679.00911-.0752.01855-.112.028l-.03125.00781-.141.03516-.04525.01139-.10319.02637-.04883.01205-.12825.03255-.014.00358-.14421.03678-.043.01107c-.03548.00879-.07324.01855-.10872.02767l-.04069.01042c-.04883.01237-.09473.02441-.14356.03678l-.00162.00032-.14453.03744-.044.01139c-.03353.00847-.06934.01791-.10286.0267l-.04948.01269-.14193.03678h0l-.1429.03744-.0446.01172-.10677.028-.043.0114c-.04687.012-.09538.02506-.14225.03743l-.01921.00488-.123.03256-.05046.01334-.09863.02637-.04916.013c-.04687.01237-.09179.02441-.13867.03711l-.03027.00814-.11231.02995-.05306.01432-.09863.02637-.04622.01237c-.04655.01269-.09278.02539-.13965.03776l-.03321.00911c-.03678.01009-.07259.01986-.10937.02962l-.05208.01433c-.0319.00846-.06608.0179-.09766.02669l-.04818.013-.13834.03776-.03744.01042c-.03483.00944-.06966.01888-.10449.02864l-.05371.01465-.10091.028-.04265.01171c-.04655.0127-.09017.02474-.13671.03777l-.04916.01367c-.03157.00879-.0625.01725-.09407.02636l-.056.0153-.09571.027-.04817.01335c-.04493.01237-.09115.02539-.13607.03808l-.04557.0127c-.03158.00911-.06543.01855-.097.02734l-.05436.0153c-.03646.01042-.07292.02084-.1097.03093l-.03125.00911-.141.03972-.04134.012-.10384.0293-.04818.014-.10742.0306-.03776.01075-.13705.03938-.04655.01335-.096.02767-.05436.01562-.10644.03093-.04558.013-.125.03646-.05273.0153-.09343.02734-.05078.01465-.11816.03483-.04362.0127c-.03971.01171-.07715.02278-.11686.03417l-.05436.016-.0879.026-.05664.01692c-.04459.013-.09082.0267-.13541.04l-.02051.00619c-.04134.012-.08171.02409-.12305.03646l-.04687.014-.09864.0293-.04785.01432-.13574.04069-.03516.01075c-.03645.01074-.07259.02148-.10872.03255l-.0498.015c-.03125.00944-.06543.01953-.09668.0293l-.04851.01465-.13411.04036-.0433.01335-.09863.02995-.05631.01725-.09213.028-.0485.015c-.04459.01334-.09049.02734-.13476.041l-.0433.01335-.09928.0306-.054.0166-.09245.02865-.05013.0153-.13313.04134-.04558.014-.09668.03028-.055.01725-.09408.0293-.0472.01465c-.04427.014-.08691.027-.13118.041l-.055.01725-.08692.02735-.05957.01888-.08724.02734-.05306.01693c-.04459.014-.085.02669-.12923.041l-.05534.01758-.08594.027-.06119.01953-.0905.029-.04752.015-.13054.042-.055.01758c-.02962.00944-.05827.01855-.08757.02832l-.05761.01823-.0918.02962-.07129.02311-.10547.03418-.05827.01888-.08366.027-.06087.01986-.098.0319-.06478.02116-.10286.03352-.0625.02051-.0791.026-.06218.02051c-.03125.01009-.06413.02083-.09505.03125l-.0804.02637-.08952.02962-.0625.02083-.07617.02507-.06674.02214-.098.03287c-.02929.00944-.05208.01726-.08105.027l-.082.02734-.06446.02149-.07942.02669-.06055.02018-.12077.04069-.0612.02051-.08235.028-.0612.0205-.08236.028-.05957.02018-.124.042-.06478.02214-.071.02409-.07032.02409-.07064.02408-.0677.02312-.12012.04134-.06836.02344-.07064.02441-.0664.02279-.07194.02474-.08724.03027-.10124.03516-.07031.02441-.06478.02246-.07324.02539-.06739.02376c-.03841.01335-.0778.02735-.11653.04069l-.06934.02442-.08008.028-.05631.01986-.07455.026-.06478.02279-.12532.04427-.06511.02311-.07356.026-.0612.02181c-.02409.00847-.05111.01791-.07487.02669l-.06348.02247-.125.04459-.06478.02311-.07617.02735-.05762.02051-.07682.02766-.057.02051-.14486.05209-.04785.01725-.08041.029-.055.01986-.07747.028-.057.02083-.14.05079-.05306.01953-.07943.029-.05566.02018-.07487.02734-.06608.02442c-.0433.01562-.0892.03255-.13217.0485l-.05241.01921-.0817.02995-.04883.01822-.08431.03093-.03418.01269c-.05729.02116-.10742.03972-.16471.0612l-.04557.01693-.08171.03027-.05436.02018-.07715.029-.0459.01692c-.05241.01953-.10059.03776-.15332.05729l-.04818.01823-.08268.03093-.04687.01758c-.09538.0358-.18816.071-.28353.10677l-.04362.0166c-.02865.01107-.05827.02213-.08692.03288l-.04329.0166c-.095.03613-.19043.07226-.28548.10872l-.04265.01628-.08821.03353-.03483.01367c-.09994.03808-.19759.07552-.2972.11393l-.03353.013c-.03353.0127-.0612.02344-.0944.03646l-.02637.01009c-.10449.04037-.20085.0778-.305.11817l-.02963.01171-.097.03776-.01921.00749c-.071.02767-.14.05436-.21093.08236l-.002.00065-.09342.03678-.03581.014-.09277.03646-.026.01042-.19206.07552-.016.00618c-.03288.01335-.06218.02474-.095.03776l-.03125.01237-.09831.03906-.00228.001-.223.08854-.00195.001c-.03321.013-.068.027-.10124.04036l-.02442.00977c-.10384.04134-.21517.08594-.319.12793l-.01009.00391-.09961.04036-.02571.01009c-.14616.05892-.28646.11589-.43229.17513l-.013.00521c-.14583.05957-.29524.12044-.44108.18034l-.00781.00325c-.15039.06185-.29394.12077-.444.18295l-.00553.00227A159.35944,159.35944,0,0,0,121.279,64.88379,10.66668,10.66668,0,0,0,132.18164,83.2207,138.49276,138.49276,0,0,1,202.66667,64a10.66667,10.66667,0,0,0,0-21.33333Zm-120.002,60.445a10.65251,10.65251,0,0,0-8.54622,4.27312A159.98049,159.98049,0,0,0,58.97526,132.209l-.00033.001-.053.10775-.00033.001c-.07129.14519-.14128.28809-.21191.4336l-.002.00358-.05176.10677-.00032.00065c-.03548.07292-.06966.14356-.10482.21647l-.00325.00619-.0459.0957-.00912.01856-.04069.08463-.01074.02214c-.03288.06836-.068.141-.10059.20931l-.00423.00846-.0459.0957-.00781.0166c-.01334.02735-.0306.06381-.04362.09115l-.00683.014c-.03483.07291-.06674.14-.10157.21321l-.00293.00586-.04622.09733-.00781.01661-.04265.08951-.00878.01856-.099.209-.00651.014-.043.09082-.00977.02116c-.013.02734-.02474.05176-.03743.07943l-.014.02929-.04264.09115-.00423.00846-.098.20931-.01237.02637-.03353.07129-.0179.03906-.03548.07552-.00977.02149c-.01725.03645-.03125.06673-.04817.10319l-.00619.01334-.042.09017-.0127.02767-.03418.07389-.01529.03256-.03581.0778-.01172.02474c-.02962.06445-.06445.1403-.09408.20442l-.01464.0319-.0306.06641-.02084.04557-.02636.05729-.01921.04135-.03288.07194-.01367.02962-.04492.09863-.01628.03613-.028.06088-.02214.0485-.02441.054-.02116.04654-.02637.058-.01985.04329-.04167.0918-.02474.05469-.01986.04427-.02539.056-.02148.04785-.02181.04818-.02637.05826-.01986.04427-.042.09343-.02213.04883-.02181.04883-.02474.055-.02149.04785-.02344.05241-.02018.04525-.02506.05664-.01953.04362-.0433.09668-.02213.0498-.02474.056-.01953.04362-.02442.055-.02018.04558-.02507.05664-.01823.041-.05078.11491-.01367.03093-.028.06347-.0166.03776-.02637.06022-.01725.03874-.026.0599-.0179.04069c-.03125.071-.06283.14323-.09408.21452l-.01432.03255-.026.05989-.01855.04232-.02572.05892-.01758.041c-.02962.0677-.06055.139-.08984.2067l-.01856.04264-.02506.05762-.01725.04037-.02637.06087-.0153.03581c-.03255.07519-.06641.15332-.09863.22851l-.00879.02083-.02995.06967-.01237.029-.02995.06966-.01172.02734-.02962.06966-.00619.014-.068.15983-.00456.01009-.03222.07585-.00879.02116-.0319.07487-.00847.02018c-.04817.113-.09635.22754-.1442.34082l-.00586.01367-.03353.07976-.00651.0153c-.04818.11523-.09831.2347-.14681.34993l-.002.00521-.03516.08366-.00488.01237c-.04981.11914-.09864.23665-.14811.35579-.002.00488.00162-.00358-.00033.0013l-.03548.08529-.00423.01074-.03483.08431c-.002.00456.00032-.001-.00163.00391-.04948.11946-.09831.23795-.14714.35742l-.00293.00684c-.06152.15006-.12337.30175-.18424.45214l-.00065.00131-.03646.08984-.001.002c-.12337.30437-.24479.6071-.36653.91211l-.00066.00131a158.86632,158.86632,0,0,0-9.23307,33.38606l-.0013.00716q-.08009.49659-.15788.99447a.02171.02171,0,0,1-.00065.00456l-.015.09668-.00065.00423c-.02572.165-.05079.32943-.07585.49447l-.0013.00976c-.01953.12761-.03874.25586-.058.38346l-.0026.01823-.013.08757-.00228.01432c-.01953.13184-.03808.25912-.05729.39095a.01886.01886,0,0,0-.00065.00423l-.013.08985-.00293.0192-.0127.0892-.0013.00716c-.01335.09407-.027.1875-.04036.2819l-.00261.01855-.01172.08269-.00358.02441-.01172.08333-.00293.02084c-.0179.12565-.03483.24739-.05241.37337l-.00358.02571-.01139.08236-.00293.02246c-.01725.12565-.0345.25033-.05143.3763l-.00261.01791-.01139.08594-.00325.02311-.0114.08463-.0013.00944c-.01269.09473-.02474.1849-.03711.27963l-.00293.02148-.01107.08529-.00293.02213-.01106.08334-.00261.02115c-.012.09017-.02376.18-.03548.27051l-.0026.02149-.01042.08105-.00391.0293-.01041.08366-.0013.00944c-.01172.09244-.02344.18261-.03484.27506l-.00358.028-.00911.07356-.00521.03972-.00879.07-.00488.03939-.0293.23894-.00553.04427-.00847.06966-.0052.04232-.00847.071-.00455.03516-.00912.07682-.002.01562-.01953.16341-.00358.0293-.00847.07194-.00488.041-.00814.06738-.00488.04395-.00879.07291-.002.01823c-.01075.09082-.02084.17611-.03125.26693l-.00358.0319-.00912.07878-.00325.02734-.00944.08236-.00228.02115-.02084.1836-.00032.00228-.00847.07487-.0039.03613-.00847.07422-.0039.03483-.00879.07943-.00228.02181-.02962.26855-.00261.02507-.00878.08007-.00326.029-.00846.07975-.00326.03092c-.00944.08692-.0192.17806-.02832.265l-.00228.02148-.00814.0778-.00358.03483-.00813.07585-.00359.03353c-.0026.02539-.0052.0524-.00813.0778l-.00131.01237c-.00553.055-.01106.10937-.01692.16438l-.00326.03353-.00748.07292-.00359.03613c-.0026.02539-.00553.05143-.00781.07682l-.00325.03223-.00814.07975-.00163.016c-.00651.06348-.01237.1237-.01888.1875-.00032.00521.00033-.0026,0,.00261-.0026.02539-.00553.05306-.00781.07877l-.00358.03418-.00749.07552-.00358.03744-.00684.07129-.00423.04134-.01627.16829v.00261l-.00749.07715-.00326.03385-.00683.07357-.00423.04232-.00651.06868-.00391.04167c-.00716.07845-.015.16048-.02214.23926l-.00455.04752-.00586.06445-.00456.04948-.00586.06446-.00423.04817-.00619.06608-.00358.04232c-.00423.04492-.00813.0892-.012.13379l-.00326.03581-.00651.07324-.00358.04134-.00618.069-.00391.04655-.00586.06543-.00488.05664-.00944.109-.00456.05078-.00553.06478-.00423.05013-.00521.06185-.00456.05567-.00488.05924-.00554.0651-.00683.08236-.00619.07162-.00455.056-.00489.06185-.00455.055-.00489.05957-.00455.05664-.00554.06706-.00423.05273c-.00228.0319-.00553.07-.00814.10189l-.00423.05729-.00456.05631-.00488.0612-.00391.05274-.0052.06315-.00391.05371-.00456.05924-.00488.06055c-.0026.03613-.00521.07194-.00814.1084l-.0039.05078-.00456.06152-.00391.05371-.00456.06088-.00423.056-.00455.05957-.00521.07226-.00619.08757-.00455.06087-.00391.05469-.00456.06217-.0039.056-.00424.06087-.0039.05437-.00423.06119-.00749.10482-.00391.05632-.0039.05566-.00391.06152-.00391.05534-.00423.06022-.0039.05762-.00456.069-.00488.07227-.00521.08008-.00326.05273-.00456.06543-.00325.05371-.00391.0612-.00358.056-.00423.06413-.00456.07161-.00553.08789-.00326.04981-.0039.0677-.00326.04948-.00455.07259-.00261.04395-.00488.0817-.00228.03614c-.00228.03711-.00456.07519-.00651.1123l-.0026.04134-.00456.07552-.00261.04851-.00423.07-.0026.04851-.00391.0677-.00293.05176-.00651.111-.00163.02929-.00488.08561-.0026.04883-.00358.06836-.00293.05078-.00358.068-.00293.0498-.00424.0804-.00423.07846-.00325.06543-.00293.05631-.00326.06087-.00293.05534-.00293.06185-.00293.05729-.00455.08919-.00131.0254-.00553.10937-.002.0459-.00391.07389-.00228.04753-.00325.069-.00228.0498-.00423.0905-.00131.02376-.0052.11719-.00163.03483-.00391.083-.00163.04036-.00358.0791-.002.04362-.00391.09147-.0013.02312-.00488.11914-.0013.02571-.00391.09343-.00163.03613-.00358.08626-.0013.03288-.00423.1058-.00065.01236c-.00163.04265-.00293.08008-.00488.12305l-.00066.01563c-.001.0319-.0026.07-.0039.10188l-.0013.03549-.00326.083-.00163.042-.00325.08724-.001.029-.00456.11881-.00032.0153-.00391.10515-.0013.03417-.0026.08073-.00163.04558-.00293.07975-.0013.03776-.00358.11035-.00033.00781-.00391.11752-.001.0345-.00261.08366-.00162.04362c-.001.03223-.00131.05013-.00261.08236l-.001.03288-.00293.10319-.00066.01822-.00358.11915-.001.029-.00228.08593-.0013.04428-.00228.07975-.001.03971-.00228.08333-.001.03679-.00326.11263-.001.04264-.002.0752-.0013.05273-.00163.06608-.0013.04883-.002.07845-.001.04069c-.00065.03744-.00163.07845-.0026.11589l-.00033.02343-.00228.09148-.001.04524-.00162.07943-.001.03841-.00195.0918-.00033.02637-.0026.11979-.00033.02018-.002.097-.00065.04362-.00163.07943-.00065.03776-.00163.08692-.00065.03515-.00391.23633-.00032.03581c-.00065.02669-.001.05957-.0013.08659l-.00065.03776-.00131.0817-.00065.04c-.00032.03223-.00065.06445-.0013.097l-.00032.02213-.00131.11589-.00065.04036-.001.07943-.00033.04134c-.00065.03223-.00065.05143-.001.08366l-.00065.03678-.001.11328v.00261c-.00066.043-.001.0804-.00131.12337l-.00032.026-.001.09278-.00032.03971-.00065.08105-.00033.04037-.00065.08561v.03548l-.001.11524v.03548l-.00065.08366-.00032.04166-.00033.08008-.00033.04362-.00032.08008v.03874c-.00033.03776-.00033.07845-.00033.11621l-.00032.02506v.09505l-.00033.04v.1237l-.00032.08008v.15723h0v.15983l.00032.07519v.126l.00033.03776v.109l.00032.028c0,.03223,0,.06706.00033.09929v.03646l.00032.08431.00033.03873.00033.08529.00032.03646.00065.11523v.02246c.00033.03223.00065.06576.00065.098l.00033.03516.00065.08626.00033.03679.001.09342v.02539c.00033.043.00065.0791.0013.1224v.0013l.001.12077.00033.02116.001.099.00033.03027.0013.09635.00033.02539c.00032.043.00065.07683.0013.1198l.00032.0166.00131.10189.00032.03483.0013.08984.00033.0306c.00065.03743.0013.07226.00163.1097l.00032.00781.00391.24935.00032.01856.00163.10416.00033.02214c.00227.12337.00455.2487.00716.37207l.00032.01367c.00065.03744.00131.07552.00228.113v.01334c.00293.12858.00521.24675.00847.37565v.0127l.00293.113.00032.01335c.00293.12858.00586.248.00912.37663l.00032.00976.00326.11654.00032.01042c.00326.12858.00684.2513.01042.37988l.00032.00423a160.81171,160.81171,0,0,0,2.014,21.11524A10.66675,10.66675,0,0,0,65.804,225.11133,140.27618,140.27618,0,0,1,64,202.66667a137.51384,137.51384,0,0,1,27.22266-82.53158,10.66769,10.66769,0,0,0-8.558-17.02344Z" style="fill:#7d8fac"/><circle cx="202.66667" cy="202.66667" r="117.33333" style="fill:#dfe5ff"/><ellipse cx="224" cy="245.33333" rx="62.75049" ry="41.83366" transform="translate(-107.86878 230.24839) rotate(-45)" style="fill:#eff2ff"/><circle cx="149.33333" cy="213.33333" r="21.33333" style="fill:#eff2ff"/><path d="M202.66667,85.33333A117.33331,117.33331,0,0,0,85.33333,202.66667v.15918c.00033.03808.00033.07454.00033.11263v.01139l.00032.1237.00033.03222c0,.03516,0,.07422.00033.10938v.01725l.00065.12272.00032.03158c0,.03483.00033.07324.00065.1084v.01888l.001.1237.00033.02929.001.10645v.02278c.00065.04069.001.08171.0013.12273l.00033.029c.00032.03515.00065.071.0013.10579l.00033.02376.0013.124.00032.02669.00163.10319.00033.028.00163.12337.00032.02409.00195.10612.00033.02734.002.12272.00065.02572.00163.10188.00065.03158.00261.12175.00032.02408c.00065.03483.0013.06836.00228.10319l.00065.0319c.00065.04362.00163.07943.00261.123l.00032.01628.00261.1097.00065.03125.00293.12435.00032.00944.00293.11784.00065.027c.001.04362.00228.08171.00326.12566l.00032.00878c.001.03776.002.0778.00326.11556l.00065.03223c.0013.04069.0026.08268.00358.12337l.00033.00554c.001.03776.00227.07942.00358.11718l.001.03549.00782.24511.001.03451.00391.11035.00032.01335.00424.12142.0013.03515c.001.03483.00228.068.00358.10287l.00065.02148c.00163.03776.00325.08138.00456.11914l.0013.03516.00391.10579.001.01823c.0013.04069.00293.08236.00456.12305l.0013.02962.00423.10645.001.0205.00488.12012.00163.03483.00423.10059.001.02409.00553.12337.001.02539.00488.10482.001.02571.00586.1211.0013.02929c.00163.03483.00293.06576.00488.10059l.0013.029.00586.12175.00131.02311c.00162.03483.00325.07129.0052.10579l.00131.02637.00618.12305.0013.02278.00521.10417.00163.0306.00651.12044.0013.02376.00554.10124.002.03353.00651.11849.0013.02474.00586.10189.002.03353.00684.11979.001.0166.00651.10547.00195.03743c.00228.03451.00456.07259.00651.10742l.00195.02767.00619.10482.0026.03906.00651.10482.001.0166.00749.11621.0026.04167.00619.09082.00195.03158.00749.1136.00292.04167.00586.09082.00228.0306.00782.11458.0026.03972.00651.08886.00228.03614.00781.11067.00326.04558.00618.082.00261.03841c.00293.03743.00553.07454.00813.112l.00326.04329.00618.08008.00326.04395c.0026.03743.00553.07487.00846.1123l.00261.03581.00683.08789.00293.03939.00879.11132.00326.04.00651.08431.00358.04232.00879.11165.00325.03711c.00228.02865.00423.05534.00684.084l.00325.043.00944.111.00326.03971.00683.08138.00391.04655.00944.111.0026.03125.00749.08789.00391.04427.01009.113.00228.02572.00846.0957.00358.04069c.00326.03711.00619.07129.00977.1084l.00228.02669.00911.099.00391.04134c.00293.03451.00586.06543.00911.09961l.00293.03223.00944.10189.00423.04329.00912.09928.00195.01856.01107.11621.00358.03874.00944.095.0026.027.01107.1136.00423.042c.00261.02864.00586.05989.00879.08854l.00293.03092.01172.11459.00358.03613.00944.09505.00326.02962.01139.11263.00456.042.00879.08431.00358.03678.01172.11035.00455.04362c.00326.02832.00586.05436.00879.08268l.00423.03841.01205.11231.00423.03809.00911.084.00424.04069c.0039.03418.00846.07487.012.109l.00488.04362.00879.07845.00489.04557c.00423.03711.00813.07.012.1071l.00521.04427.00846.07552.00521.04622.01237.10743.00488.04264.00912.0791.00521.04492c.00455.03711.00846.07162.01269.1084l.00456.03711.00976.08268.00521.04558.0114.0944.00585.0485.01042.08626.00553.04492.01042.08594.00684.05729.01009.08269.00618.04785.01009.08268.00684.05371.01139.09082.00554.04492.01074.08366.00488.03972.013.10319.00619.0472.01009.07845.00553.04231.01368.10515.00651.04883.00878.06933.00684.05046.01335.10189.00683.05045.00944.07064.00684.05013.01367.10189.00716.05306.00879.06412.00684.05209.01432.10286.00716.05144.00912.06738.00716.0511.01432.10352.00749.05143.00846.0612.00814.05827c.00488.03385.00944.06543.014.09928l.00748.05078.00944.06674.00782.055.01464.09993.00717.04981.00976.06706.00749.05273.01237.083.01009.06966.00977.0651.00813.056.0114.07552.01139.07487.00911.0625.00912.05925.01074.071.01074.07031c.00358.02539.00749.04981.0114.0752l.00781.05078.012.07975.00944.06088.01205.07747.00846.05436.01074.068.01172.07519.01172.07357.00814.05338.01139.07162.00879.054.01432.09016.00912.057.01009.06283.01009.06217.01432.08854.00912.05664.01042.06315.00846.05046.01627.10059.00879.05338.01107.06641.00847.05045c.00553.03353.01074.06511.0166.09864l.00976.05826.00944.05664.00977.058.016.0944.01074.06347.00912.05241.01009.06023.0166.097.00944.05436.01041.06055.00977.05631c.00553.0306.01107.06283.01628.09375l.01009.057.01139.06413.00944.054.01367.07748.013.07454.01107.06185.00977.05436.01269.07129.0153.08431.01009.056.01075.0599.01106.06152.0166.09082.0101.05567.01106.06087.01009.054.01823.09994.01009.054.0114.06152.00944.05046.01985.10677.00912.04752.012.06446.00879.04622c.00684.03743.01465.07812.02181.11556l.00749.04036.013.06836.00846.0433c.00619.03353.01465.0778.02116.11133l.00879.04492.013.06738.00847.0446.02116.10839.00944.04916.01269.06445.00912.04753.01888.096.01171.05924.01237.06315.00977.04948c.00846.041.016.07878.02409.11979l.00683.03418.01335.06706.00879.04427.013.0651.01855.0918.0127.06283.01009.04948.013.06315.01888.09342.01172.05762.01139.05436.01237.06022.0127.06218.01953.09375.00977.04655.014.0677.00782.03777c.00879.04069.01627.07682.02474.11783l.00878.042.01433.067.00879.04265.02571.12044.00716.0332.01563.0739.00618.029.028.13118.00716.0319.01563.0739.00651.02929c.00944.0446.01823.084.028.12858l.00781.03614.0153.07129.00749.03352.02832.12956.00651.02962.01628.0726.00716.0332.03157.14193.00358.01627.01726.07715.00618.02767c.01725.0778.03581.1595.05306.2373l.00651.02832c.01758.0778.03646.16114.05436.23861l.00554.02474.054.23535.00814.03581c.01791.07747.03614.15592.05436.2334l.00619.027c.01921.08138.03646.15494.05534.236l.00716.02962c.01888.08106.03743.15886.05664.23991l.00521.02116.01888.07877.0013.00652c.01172.04785.02572.10611.03711.154l.00651.02767.01888.0778.00033.0013.03906.16178.00521.02083.01888.07748.00455.01823c.01237.05176.02377.097.03614.14876l.00488.01888.01986.08106.00162.00618c.01433.05892.027.11.04167.16895l.001.0039.02116.08431.00228.00977c.01269.05143.02636.10612.03938.15755l.00391.0153.02018.08073.00293.012c.02018.08041.04232.1683.06283.2487l.00488.01921.06283.24609.0039.01432c.02051.08073.04232.16537.06315.24577l.00521.02051c.02083.0804.043.16471.0638.24512l.00391.01432c.02083.0804.04362.16732.0651.24739l.00391.01563c.02214.084.04492.16992.06738.25391l.00065.00227c.02344.08757.04493.16895.06869.25652l.00228.00878c.02343.08757.0459.16993.06966.25749l.00032.002c.02377.08724.04655.17123.07064.25847l.0013.00456c.07976.291.15983.57975.24187.87011l.00032.00065c.01628.05827.0319.11361.0485.17155l.00066.00261.02441.085.001.00423c.02474.08724.04882.17025.07356.25716l.00065.00228.07455.25846.00065.00163c.02507.08692.0498.17188.0752.25879l.00065.0013.07552.25814.001.0026c.02539.08659.05013.1696.07585.25619l.0013.00423A117.19575,117.19575,0,0,0,117.61,283.49089l.0026.0026c.32324.34017.64551.67513.973,1.01139l.00554.00586.11783.12077.00131.00163.06087.06217.001.001c.06152.06282.11946.12207.181.18457l.00846.00846c.05924.06022.11686.11914.17611.179l.00976.00976c.05925.0599.11719.11882.17676.17872l.00618.00651c.05957.05989.11784.11881.17741.17838l.01107.01107.16862.16927.02279.02279.16959.16927.01172.01139c.057.057.11979.11914.17708.17578l.00847.00847.17643.1748.01205.01172c.05729.05664.11751.11556.1748.1722l.013.01269c.05762.05665.11947.11719.17708.17351l.01042.01009.05664.05534.01367.01334.11.10743.00716.00683c.084.08171.16374.15918.248.24089l.00944.00911c.03678.03548.07552.07292.1123.10873l.00912.00878.05794.05567.01172.01107c.03678.0358.07584.07324.113.10872l.00684.00684.05469.0524.02083.01986.17188.16472.01562.01464.17155.16374.02148.02051.16928.16015.02213.02084c.05859.05566.1097.10384.1683.15918l.02246.02116.1735.16308.0153.01433c.05631.05273.11719.1097.1735.1621l.02083.01986.055.05111.00683.00651.10808.10058.02311.02149.05208.04818.02181.0205.09473.08789.02441.02214.05469.05078.00976.00912.10547.09733.02344.02148.04981.0459.02994.02734.08822.08106.02539.02344.05208.04752.02377.02181.09375.08594.02376.02148.05013.0459.0319.029.07682.07.03809.03483.0472.04264.0293.0267.0983.08919.016.01432.05208.0472.028.02539c.03288.0293.0612.055.09375.08431l.02246.02019.05046.04557.029.026.0944.08464.02116.0192.05111.04557.028.02507.111.09928.00585.00521.05144.0459.02734.02441c.05469.04851.10872.09668.16341.14551l.03744.03288.04687.04167.03353.02994c.02767.02409.05566.04883.083.07325l.0293.02571.05143.04558.02637.02311.08886.07845.03125.02734.05013.04427.03646.0319.0778.068.03223.02832.05208.04557.027.02344.08463.07422.03614.03125.04752.04134.03972.03483.06966.06022.04264.03711.04362.03776.0472.041.06185.05338.0459.03971.04459.03842.0407.03515.07486.06413.03549.03092.05013.043.03418.0293.07389.06348.04395.03743.04524.03874.03841.03288.07422.06315.03939.03353.04753.04069.03938.0332c.02214.0192.04558.03906.068.05794l.04525.03874.04817.04069.03744.03157.04525.03842.069.05826.05013.042.03385.029.04883.04069.06966.05892.04492.03776.04037.03385.04427.03678c.02474.02116.04655.03939.07161.06023l.042.03515.0459.03809.041.0345.07357.0612.03971.0332.04655.03874.041.03386.06153.05143.0511.04232.05013.04134.03777.03125.07877.0651.028.02279.05761.04785.03874.03157.05566.0459.054.0446.055.04492.03679.03027.05892.04818.04948.04069c.0192.0153.03776.0306.05664.04623l.03678.02994.05859.04753.04818.03939.06087.04948.03549.02864.06184.05013.0306.02507c.02312.01855.05176.042.0752.06055l.03613.02962.057.0459.03548.02832c.02539.0205.05371.04362.0791.0638l.029.02344.06283.05078.029.02311.08073.06478.03353.02669c.0192.0153.03906.03158.05827.04655l.03352.027.08073.06445.0306.02442.0612.04882.0306.02442.08138.06478.0332.026.05729.04557.03516.028c.028.02181.05371.04231.08138.06412l.02962.02344.0612.04818.03125.02506c.028.02181.05534.0433.083.06543l.02832.02214.06348.0498.03287.02572.08334.06543.02278.0179.06869.05371.02864.02246c.028.02149.058.04493.08562.06674l.02311.0179.06868.05371.0306.02344.08757.06836.00911.00716.08008.06185.0293.02278.08431.06511.01692.013c.02572.02018.05078.03939.0765.05924l.03.02312.08463.0651.00586.00423c.03.02344.05892.04557.0892.06869l.02441.01888.08529.0651.00781.00619.08984.06868.027.02051.083.06348.00749.00553.09212.07031.02311.01758.07845.05957.01693.0127c.028.02148.06087.04622.08919.0677l.02637.01986.07519.057.01726.013.09114.06868.02214.0166.07975.06023.016.012.09245.06934.02083.0153.082.06184.01237.00912c.03028.02278.06446.04785.09473.07064l.01855.014.07943.05925.02018.015c.0306.02279.06022.04492.09082.06739l.02311.01725.07194.05338.02572.01921c.0306.02279.0599.04427.0905.06673l.01692.0127.08106.05989.02051.0153c.03092.02246.06217.0459.09309.06836l.0153.01139.08008.05892.02246.01628.09375.069.01042.00749.08626.06315.02051.015.09505.06934.00521.0039c.02865.02084.0625.04558.09115.06608l.0192.01433c.0638.04655.12858.09342.19239.13965l.02083.015c.0638.04622.12825.09277.19238.139l.01725.01237.196.14095.0166.01172.0944.068.00326.00228.099.07064.0153.01106c.03321.02344.06413.04558.09733.06934h.00033c.03548.02539.06868.04915.10417.07422l.00586.00423.098.06966.00683.00489c.03321.02343.06739.04752.10059.07128l.01042.00717.0944.06673.00879.00618.10156.07162.00683.00488.097.068.00781.00586c.03581.02474.06836.04753.10384.07259l.002.00131.10091.07063.00748.00521c.06934.04851.138.09636.207.14453l.00716.00489.21028.14616.00326.00227c.06934.04786.13932.09636.209.14421l.00814.00553c.06966.04818.13965.09636.20931.14388l.00488.00359q.1045.07178.20964.14322l.00749.00521.20866.14226.00748.0052c.07.0472.13965.0944.20964.14193l.00618.00423.21224.14323.00293.00163c.07227.04883.14193.0957.21419.1442l.00293.00163c.14486.097.28776.19239.43327.28874l.001.001q.92627.61425,1.86361,1.21093l.001.00033q.33106.21093.66309.41894l.001.00066q.499.313,1.00065.62044l.00032.00032c.29785.18262.59473.36263.89421.54265l.00325.002A116.94149,116.94149,0,0,0,155.387,310.085a10.66669,10.66669,0,1,0,8.6045-19.52116,96.01953,96.01953,0,0,1,38.67513-183.89713h0a96.17194,96.17194,0,0,1,26.90755,3.8164A10.66666,10.66666,0,0,0,235.54036,90.001q-2.26074-.65869-4.55761-1.22819l-.00423-.001c-.08171-.02018-.16276-.04-.24414-.06022l-.00652-.00163-.1123-.02734-.01237-.00293c-.07682-.01888-.153-.03744-.23014-.056l-.02865-.00716-.10514-.02539-.00619-.00131c-.03613-.00879-.07356-.0179-.1097-.02636l-.03515-.00847-.08008-.0192-.03516-.00847-.10514-.02474-.03093-.00748-.07845-.01856-.04231-.01009-.0726-.01693-.06412-.0153-.07325-.01692-.0498-.01172-.05957-.014-.05013-.01172-.09635-.02213-.04818-.0114-.06022-.01367-.056-.013-.04916-.01139-.10286-.02344-.04395-.01009-.06412-.01465-.04167-.00944-.22559-.05111-.02734-.00618-.07389-.0166-.01563-.00326c-.05176-.01172-.10514-.02376-.15722-.03515l-.01075-.00261c-.02962-.00651-.05371-.01172-.08333-.01855l-.00781-.00163q-.12793-.02832-.25586-.05632l-.012-.0026a117.202,117.202,0,0,0-14.08431-2.19922h0c-.21614-.02018-.43066-.04-.64713-.05924l-.00358-.00033c-.21647-.0192-.43-.03743-.64681-.05566l-.00293-.00033c-.0931-.00748-.182-.015-.27474-.02246l-.00391-.00032c-.124-.0101-.24088-.01921-.36523-.029l-.01433-.001-.26139-.02018-.015-.001c-.08561-.00651-.18034-.01335-.26563-.01953l-.01041-.001-.08692-.00618-.00976-.00066-.25879-.01855-.02767-.00195c-.02735-.00163-.05306-.00358-.08008-.00554h-.00326c-.05826-.00423-.1123-.00781-.17057-.01172l-.01823-.0013-.07975-.00521-.027-.002c-.0817-.00521-.16439-.01074-.24609-.01595l-.03255-.00228-.07422-.00456-.01921-.0013-.14941-.00944-.0306-.00163-.07455-.00488-.03222-.002c-.04688-.00261-.09082-.00521-.1377-.00814l-.03027-.00195-.06966-.00391-.04265-.0026-.069-.00391c-.03157-.00195-.0638-.00391-.0957-.00553l-.057-.00326-.05468-.00293-.0625-.00358-.05209-.00293-.10742-.00586-.04883-.0026-.0651-.00358-.04948-.00261-.06185-.00325c-.03223-.00163-.06543-.00326-.098-.00521l-.05534-.0026-.0625-.00326-.054-.0026-.071-.00358-.0765-.00391-.069-.00326-.05338-.0026-.06641-.00326-.05045-.00227-.10319-.00489-.04981-.002c-.02148-.001-.04362-.00228-.0651-.00293l-.05371-.0026-.08757-.00391-.05794-.00228-.07259-.00325-.05437-.00228-.06835-.00293-.04493-.002-.10514-.00423-.04915-.00195-.07162-.00293-.04557-.00163-.1084-.00423-.03711-.0013-.0778-.00293-.05078-.002-.069-.00261-.06152-.002-.09245-.00326-.0446-.00162-.07487-.00261-.04459-.0013c-.03679-.0013-.07292-.0026-.10938-.00358l-.03385-.0013-.084-.00261-.04427-.0013-.09017-.00293-.03092-.001-.10547-.00293-.04329-.0013-.08334-.00228-.03483-.001c-.03711-.0013-.07454-.00228-.112-.00326l-.03646-.001-.08593-.00228-.03549-.00065-.1149-.00293-.00977-.00033-.11035-.0026-.03679-.001-.08951-.002-.03158-.00065-.1123-.00261-.03842-.00065-.08235-.00163-.04037-.001-.11328-.00228-.02181-.00033c-.03125-.00065-.06347-.0013-.09472-.00163l-.043-.001-.08757-.0013-.03027-.00066-.11426-.00195-.03418-.00032-.08887-.00131-.03483-.00065-.11458-.00162-.02539-.00033c-.03255-.00033-.0638-.00065-.09636-.0013l-.03548-.00033-.097-.001-.02311-.00033c-.03874-.00065-.07618-.001-.11524-.0013l-.03613-.00033-.08659-.001-.03613-.00033-.11556-.001h-.02344c-.03255-.00032-.06543-.00065-.098-.00065l-.0332-.00032-.111-.00065h-.00879c-.03906-.00033-.07877-.00065-.11784-.00065l-.03548-.00033-.09147-.00033h-.02962l-.11784-.00032h-.02637l-.09375-.00033h-.15429Z" style="fill:#b8c2ff"/><path d="M249.541,72.85384a10.66853,10.66853,0,0,0-3.91049,20.59473,117.65148,117.65148,0,0,1,69.09375,74.32454l.00261.00814c.01693.055.03353.10872.05078.16374l.001.00358.0791.25618.00065.00228c.02506.08236.05143.16862.07682.2513l.00358.01172c.02507.08268.05143.17057.0765.25326l.00065.00195.07617.25293.00358.012c.02474.08269.04916.16537.0739.24838l.00358.012c.02441.08268.04915.16569.07356.2487l.00326.01107c.04134.14127.08236.28157.12337.42285l.0013.00456c.02409.08333.04883.16894.0726.252l.00325.01139c.02409.083.04688.16341.07064.24675l.00488.01692c.02279.08041.04688.16439.06934.24512l.00488.0166.06966.2474.00358.01334c.02344.08334.04623.166.06934.24935l.00358.01237.06966.25261.002.00651.069.25293.00456.01627c.01367.05013.02669.098.04.14812l.00553.0205.02181.07976.00261.01041.04167.1543.00488.01823.02148.08073.00228.00781c.014.05339.02669.10124.041.1543l.00618.02311.0625.23665.00814.03125.01953.0739.00065.00227c.01367.05339.02669.10287.04069.15625l.00879.03418.06022.23112.00912.03581c.01953.07552.04036.1569.05957.23242l.00716.02767.03581.14063.00553.02181.01921.07519.00781.03093.03288.13118.00748.029.01823.07292.00912.03613.03222.12923.00684.02735.0192.0778.00489.01953c.01139.04492.02376.09538.03483.1403l.00716.029.01888.07682.00456.01888.0332.13542.01009.04134.01725.07031.00358.015.03516.14453.00781.03353c.01921.0791.03679.153.056.23209l.00879.03744c.01172.04818.02246.09342.03386.14127l.0039.01758.01758.0739.00749.03157c.01139.04818.02213.0931.0332.14128l.00488.01985.01693.07292.00912.03874c.00944.03971.01888.08073.028.12012l.00944.03971.01595.069.01009.04329.026.113.01009.04362.01563.068.01009.04492.02572.112.01009.04493.01562.069.00814.03613.028.12272.00879.03971.01562.06869.01042.0472.02474.111.00976.044.0153.06933.00456.02051c.01009.04525.01986.08854.02962.13412l.01107.0498.01367.06185.02051.09407.01334.0612.012.05436.02409.11133.00879.04037.015.07.00944.04395.02279.10612.01106.05241.014.0651.0114.05274.01985.09505.013.06055.0127.06087.01334.0638c.00619.02832.01172.05566.01758.084l.01335.06381.012.05761.01563.07455.01627.07845.01237.06022.012.05925c.00683.03352.01335.06542.02051.099l.01041.05111.013.06445.0114.05632.01985.098.0114.05664.012.05925.012.06022.0192.09537.01172.05892.01139.05827.01368.06771.01692.08691.012.0599.01106.05664.01823.09277.012.06316.012.06087.0114.05957.0166.08594.013.06738.01107.057.01269.06641.0166.08724.01205.06348.01074.05664.014.07324.0153.08138.01106.0599.0114.06022.013.07064.01562.084.0114.06055.01041.05761.01823.09831.01042.05664.01139.06218.01009.055c.00521.03027.01237.06966.01791.09961l.01009.05664.012.06641.00912.0498.01855.10417.00912.05143.01237.07.01106.0625.01563.08756.00976.05632.01237.07031.012.06933.014.07976.00944.055.01367.07845.01074.06348.01335.07715.00976.05631.01335.07943.01172.06771.01237.07421.00879.05274.01692.09993.00847.04981.012.07292.00846.05208c.00586.03385.01172.06966.01726.10384l.00813.04883.01172.07161.00847.05176.0166.10287.00846.0524.01107.06739.00846.05371.0166.10254.00814.05045.01172.07487.00749.04655.01627.10287.00879.05664.01042.06575.01107.07031.013.084.00814.05306.01237.08008.00911.05827.01335.08789.00748.0498.0127.084.01009.06576.01139.0752.00782.05273.01367.09212.00879.05892.01107.07422.00781.05273c.00488.03418.01009.07032.0153.1045l.00683.04687.01075.07357.00716.05078c.0052.03418.01041.07031.0153.10449l.00716.04948.01041.07422.00717.04981.01464.10351.00782.054.00976.071.00684.04688.01465.10742.00716.04948.01074.07942.00586.04167.01465.10645.00749.05436.00976.07291.00879.06511.01139.08561.00684.05046.012.09017.00716.05436.0114.08561.00651.0485.01432.11166.00391.029.012.09245.00554.04362.01464.11295.00424.03386.01139.08919.00553.04459.014.11036.00521.04134.01009.082.00553.04427.01368.111.0052.04232.01042.08463.00521.04167c.00391.03451.00944.07878.01367.11328l.00456.03874.01107.09082.0039.03516c.00456.03841.00912.07422.01335.11263l.00521.04394.01041.08724.00554.04883.01172.09993.0052.0446c.00391.03451.00782.06934.01205.10384l.00293.02637.01237.10807.00423.03874.0127.11426.00358.03027.01074.09831.00456.03906.01269.11654.00293.02767c.00391.0345.00749.0664.01107.10091l.00358.03222.01269.11882.00358.0345.0101.09343.0039.03711.01237.11784.00326.0306.01041.10091.00326.02929.012.11947.00326.03288.01074.10482.0026.02376.012.12077.00325.0345.01075.10677.00162.01888c.00391.03841.00814.08106.01172.11979l.00391.03776c.00358.03874.00684.07292.01074.11166l.0013.013.0114.12109.00358.03614.01107.12011.002.01888.00976.10482.00358.03939.01075.11686.0026.02995.00879.09766.00358.03743c.00391.04232.00684.0765.01042.11914l.0026.02832.00847.096.00358.04069.01009.11458.00293.03679c.00293.03092.00553.06217.00813.09342l.00326.03679.00977.11621.00325.03841.00749.0931.00293.03385.00944.11556.00358.04232.00716.09114.00293.03549.00911.11425.00358.04427.00717.09375.00293.03614.00846.111.00293.03841.00846.11.00228.03222c.00261.03125.00554.07064.00781.10157l.00293.042.00879.11686.002.028.00716.09863.0026.03874c.00293.03873.00586.0791.00846.11816l.00228.03027c.00228.03516.00424.06446.00684.09929l.00228.0358c.00293.03907.00553.07813.00814.11687l.0026.03873c.00228.03093.00423.06185.00619.0931l.00227.03451c.00261.03873.00554.07877.00782.11784l.0026.03906c.00228.03092.00423.0638.00619.09472l.00227.03256.00749.11979.00228.03613c.00195.03093.00456.07.00618.10091l.002.0267.00716.12011.00228.03679.00651.10644.0013.02116.00684.11947.00227.04.00717.12207v.00032c.00227.043.00455.08236.00716.12533l.002.0345c.002.03906.00456.08464.00684.1237l.00065.01563.00618.112.00163.03418.00684.12435.00065.0166.00586.11459.00162.02734.00619.126.0013.02278.00521.1084.00163.0306c.00162.03906.0039.08561.00586.12468l.001.02343c.002.03907.00358.07194.00521.111l.0013.02474.00554.126.0013.0267.00488.11165.001.02181.00553.1237.0013.03385.00456.11035.00065.01758.00521.12468.0013.0332.00456.11654.00065.01334.00456.125.0013.03125.00456.126.00065.01237c.0013.03906.0026.07942.00423.11849l.001.028.00423.12826.00065.01562.00391.11556.001.028.00391.12793.00065.0192.00358.112.00065.029.00391.125.00065.02572.00326.113.00065.02149.00358.12858.00065.02376.00293.11979.00032.01368c.00131.04329.00228.08593.00326.12923l.00065.02832.00293.11849.00032.012.00293.12826.00066.03092.00227.11849.00033.01107.0026.12532.00065.03418.00228.127v.00456c.001.04329.00163.08072.00228.124l.00065.0319.002.1276.00032.01075.00163.11881.00065.03093.00163.12662.00032.01856.00131.11328.00032.03027.00163.126.00032.02311.001.11.00033.02864c.00032.03972.00065.08757.0013.127v.02408l.001.11394v.02246l.001.1289v.02442c.00033.03939.00065.07617.00065.11556l.00033.01985.00032.127.00033.02962.00032.11914v.01237c0,.03971,0,.08757.00033.12695v.16114h0A117.3333,117.3333,0,0,1,202.66667,320h-.166c-.04362-.00033-.08822-.00033-.13183-.00033h-.02409l-.12045-.00065h-.02343c-.0433,0-.08757-.00032-.13119-.00065h-.03092c-.0433-.00032-.09147-.00065-.13477-.00065l-.00716-.00032c-.04329,0-.08594-.00033-.12956-.00066l-.02929-.00032-.13086-.001-.028-.00032c-.03939-.00033-.08008-.00065-.11946-.0013h-.02051l-.13119-.00163-.03255-.00033-.13249-.00163h-.014c-.03939-.00065-.08594-.0013-.12533-.00162l-.026-.00065c-.0433-.00033-.08789-.001-.13119-.002l-.02994-.00032-.12663-.002-.01009-.00032c-.0433-.00065-.08952-.0013-.13281-.00228l-.03223-.00033-.13119-.0026-.02148-.00033c-.03939-.001-.07682-.00162-.11621-.00227l-.03093-.00066c-.04329-.001-.08431-.00195-.1276-.0026l-.03223-.001c-.043-.00065-.08984-.00195-.13313-.00293H199.918c-.0472-.001-.08626-.00195-.13346-.00325l-.02735-.00065c-.04329-.001-.08952-.00195-.13281-.00326l-.02344-.00065c-.04329-.001-.08008-.00195-.12337-.00325l-.0179-.00033-.13379-.00358-.028-.001c-.04329-.001-.09114-.0026-.13444-.0039l-.01237-.00033-.12174-.00358-.03386-.001c-.03906-.0013-.08984-.00292-.1289-.0039l-.02572-.001-.12174-.0039-.01856-.00066c-.043-.0013-.08789-.00292-.13086-.00455l-.03157-.001-.12924-.00456-.026-.001-.11263-.00391-.0306-.0013-.1289-.00488-.03028-.001-.12174-.00488-.01465-.00065-.12728-.00489-.03841-.00162-.12533-.00521-.028-.00131-.11393-.00488-.02669-.001-.12989-.00586-.02995-.00131-.13086-.00586-.01009-.00065-.12727-.00586-.0293-.0013-.13021-.00618-.02539-.0013-.12044-.00586-.01986-.001c-.043-.00228-.08757-.00456-.13053-.00651l-.03158-.00163-.13151-.00683-.01172-.00066-.1237-.00651-.02994-.00162c-.043-.00228-.085-.00456-.12793-.00717l-.03028-.00162c-.03873-.002-.0778-.00423-.11686-.00651l-.02018-.001c-.043-.00228-.08692-.00488-.12988-.00749l-.03191-.00162-.12793-.00749-.02539-.00163-.11165-.00651-.03125-.00195-.124-.00749-.03874-.00228-.11263-.00716-.02018-.0013-.12663-.00781-.03483-.00228c-.043-.00261-.08268-.00521-.12565-.00814l-.03-.00195-.1071-.00684-.03222-.00228c-.043-.00293-.08073-.00553-.12338-.00814l-.03776-.0026-.12174-.00846-.01921-.00131-.11946-.00813-.03451-.00261c-.043-.00293-.07942-.00553-.12207-.00879l-.03906-.0026-.10384-.00749-.028-.002c-.04264-.00326-.082-.00619-.12467-.00912l-.03776-.00293-.125-.00944-.02181-.00162-.113-.00847-.03385-.0026c-.03874-.00293-.085-.00651-.124-.00977l-.03516-.0026-.1097-.00879-.02311-.00163-.124-.01009-.03971-.00293-.12109-.01009-.03288-.0026c-.03483-.00293-.07031-.00586-.10514-.00847l-.03321-.00293-.12272-.01009-.03743-.00325-.11426-.00977-.01725-.0013c-.04265-.00391-.08138-.00716-.124-.01074l-.03873-.00358-.12435-.01075-.02539-.00228-.11426-.01009-.02637-.00228-.126-.01139-.03418-.00325-.126-.0114-.01433-.0013-.12141-.01139-.03-.00261c-.04265-.00423-.08659-.00813-.12891-.01237l-.02311-.002-.12468-.012-.01367-.00131c-.04622-.00423-.08561-.00813-.13183-.01269l-.028-.00261-.13346-.013-.00488-.00065-.12891-.01269-.026-.00261-.13119-.013-.02083-.00228c-.04232-.00423-.085-.00846-.12728-.013l-.012-.001c-.04232-.00456-.08952-.00944-.13184-.01368l-.027-.00292c-.04622-.00456-.08561-.00879-.13183-.01368l-.015-.00162c-.04231-.00424-.08268-.00879-.125-.013l-.0192-.00227c-.04232-.00424-.0905-.00944-.13282-.014l-.02246-.00261c-.09244-.00976-.179-.0192-.27116-.02929l-.02441-.00261c-.04232-.00488-.0918-.01009-.13379-.015l-.012-.0013c-.04232-.00456-.08594-.00944-.12793-.01433l-.01758-.002-.13314-.015-.02148-.00261c-.04623-.0052-.0905-.01009-.1364-.01562H189.097l-.13314-.01563-.02279-.0026-.13314-.01563-.01725-.00195-.13151-.01562-.00716-.001c-.0459-.00521-.0905-.01074-.13639-.01628l-.01986-.00228-.13737-.0166-.00293-.00032-.13216-.01628-.02214-.0026-.13314-.0166-.0179-.00228c-.0957-.01172-.18164-.02246-.27734-.03451l-.01335-.002-.14128-.0179h-.001c-.04981-.00652-.09473-.01237-.14453-.01856l-.00424-.00065-.14225-.01856-.00944-.0013c-.0957-.01237-.18717-.02441-.28255-.03711l-.0127-.00162-.14127-.01921h-.00228l-.14421-.01953-.0026-.00033-.14355-.01953-.00717-.0013c-.09537-.013-.19433-.02669-.28971-.04h-.00163c-.04948-.00716-.09472-.01335-.14453-.02051l-.00618-.00065c-.09506-.01367-.18978-.027-.28483-.04069l-.0114-.00163a116.56737,116.56737,0,0,1-20.556-4.88281,10.66674,10.66674,0,0,0-6.73958,20.24089,138.46658,138.46658,0,0,0,44.12012,7.17252c76.46093,0,138.66666-62.20573,138.66666-138.66666A137.92862,137.92862,0,0,0,253.44531,73.598a10.64012,10.64012,0,0,0-3.90429-.74414Z" style="fill:#33527d"/><rect x="390.24839" y="402.74517" width="30.16989" height="90.50967" rx="15.08493" ry="15.08493" transform="translate(-198.06445 417.83011) rotate(-45)" style="fill:#002755"/></g></svg>