<svg xmlns="http://www.w3.org/2000/svg" viewBox="0 0 512 512"><title>Artboard 150</title><g id="Medal"><path d="M256,106.66667c-106.03906,0-192,85.96093-192,192,0,106.03776,85.96094,192,192,192s192-85.96224,192-192C448,192.6276,362.03906,106.66667,256,106.66667Zm53.33333,106.66666H202.66667a32,32,0,0,1,0-64H309.33333a32,32,0,0,1,0,64Z" style="fill:gold"/><path d="M85.53244,226.01953a10.672,10.672,0,0,0-10.02524,7.02409q-2.24641,6.17724-4.07639,12.54525l-.00393.01367-.04095.1429-.00442.01563-.04064.14225-.00448.01563c-.06009.21061-.11945.42024-.17884.63151l-.00084.00293-.042.14941-.00821.0293-.03352.11979-.01314.04687-.0299.10742-.01353.04851-.0293.10514-.01366.04948-.02885.10384-.01452.05241-.02761.10026-.01481.05339-.0338.123-.0081.0293-.04109.14974-.0178.0651-.023.084-.02153.07877-.01945.07162-.02257.083-.01837.0677-.02242.08269-.01833.06771-.02367.08756-.01544.05729-.02567.09538-.01224.04525-.029.10807-.00419.01562c-.03678.13737-.07251.27116-.109.40853l-.00228.00847-.03174.11979-.00765.029-.02971.1123-.01009.03809-.0294.11165-.009.03451-.03.11426-.00839.0319-.03112.11881-.00529.02019q-.11022.42188-.2186.8444l-.00138.0052-.03511.13737L69.97,250.974l-.03543.139-.00087.00325a191.05719,191.05719,0,0,0-4.19444,21.59668l-.00007.00033-.01811.13444-.00312.02343-.01647.12273-.00461.0345-.01611.12109-.00425.03223-.01578.11914-.00508.03874-.01563.11881-.00341.026-.01676.12792-.0003.00228-.038.2933-.00064.00521-.01332.10384-.00717.05566-.01129.08854-.00943.07422-.01065.084-.00924.07324-.00666.05273A10.66662,10.66662,0,0,0,86.68075,277.099a169.8332,169.8332,0,0,1,8.87509-36.76432,10.67318,10.67318,0,0,0-10.0234-14.31511ZM325.79454,120.5778a10.66858,10.66858,0,0,0-4.11284,20.51335A169.85108,169.85108,0,0,1,424.05908,268.7627a10.66672,10.66672,0,0,0,21.01107-3.69467l-.01139-.06445-.01368-.07715-.01595-.09017-.0179-.10026-.02486-.13932-.01432-.07975-.017-.09473-.01327-.07357-.01749-.09668-.01294-.07129-.03532-.19433-.00863-.04753-.01872-.10221-.01237-.06738-.01831-.09961-.01208-.06543-.01892-.10254-.00891-.04785-.03679-.19792-.01241-.06673-.01888-.10091-.01229-.06543-.019-.10124-.01107-.05859-.03914-.207-.00875-.04589-.01953-.10287-.01209-.06348-.01961-.10253-.012-.06218c-.02352-.12272-.047-.24414-.07068-.36654l-.00863-.04459-.02132-.1097-.01078-.05534-.022-.11231-.00615-.03157-.0496-.25228-.00325-.0166-.02259-.11426-.01054-.05306-.02217-.112-.00814-.04069c-.02437-.12239-.05192-.26009-.0765-.38216l-.00826-.041-.02384-.11849-.00814-.04-.02454-.1211-.00337-.0166-.05013-.24609-.008-.03907-.02364-.11523-.00875-.04264-.02478-.12012-.00631-.0306c-.02771-.13444-.05513-.2666-.08308-.40072l-.00485-.02311-.02689-.12858-.00546-.026c-.03833-.18262-.0782-.37174-.11706-.55436l-.0059-.02767-.02824-.13249-.00065-.00293c-.03121-.14616-.06039-.2819-.09192-.42806l-.00252-.01139-.02991-.13835-.00224-.01009c-.04215-.19466-.083-.38151-.12573-.57552l-.00049-.00228c-.05347-.24284-.107-.48372-.16138-.72623l-.00044-.002c-.0435-.194-.08688-.38607-.131-.57975l-.00025-.001A192.38254,192.38254,0,0,0,331.54169,122.09831h-.00006c-.2238-.096-.44458-.19011-.66881-.28516l-.00864-.00358c-.17939-.07585-.35022-.14811-.52989-.22363l-.00625-.00261c-.15159-.0638-.29889-.12532-.45068-.1888a10.6324,10.6324,0,0,0-4.08282-.81673ZM256,106.66667h-.2358c-.04138.00032-.08563.00032-.127.00032h-.06374l-.13577.00065h-.04321c-.0579,0-.12262.00033-.1805.00065h-.04116c-.04547.00033-.09528.00066-.14075.00066l-.05944.00032c-.04133.00033-.08576.00065-.1271.00065l-.05725.00065-.16052.001h-.02027c-.062.00065-.11737.001-.17934.0013l-.05511.00065-.12826.001-.06012.00065c-.04543.00033-.08673.00065-.13214.0013l-.05088.00033-.17993.00195-.02637.00033-.15306.00195-.05873.00065c-.04126.00033-.08661.001-.12787.00163l-.05807.00065-.14611.00195-.03427.00065c-.06189.00065-.11863.00163-.18048.00261l-.04472.00065c-.04536.00065-.09094.0013-.13629.00228l-.06032.001-.131.002-.05033.001c-.06183.001-.11886.002-.18067.00326h-.013c-.0577.0013-.11078.00228-.16846.00325l-.05365.001c-.04119.001-.087.00195-.12823.0026l-.06026.00131-.13975.00293-.04037.00065-.18123.00423-.03662.00065c-.0494.001-.09294.00228-.14234.00326l-.06087.0013-.12394.00293-.05982.00162-.17415.00424h-.00285l-.17968.00488-.05583.0013-.12775.00358-.05955.00163-.13163.00358-.05029.0013-.1765.00521-.04331.0013-.13625.00391-.064.002-.1218.00391-.05917.002-.14011.00423-.04242.00163c-.0575.00163-.11855.00358-.176.00554l-.04944.00162-.1321.00456-.05837.00195-.13336.00489-.04873.00162-.17946.00651-.02069.00066-.15926.00585-.053.002-.13245.00521-.05493.002-.14573.00586-.03416.0013-.17733.00716-.05167.00195-.1309.00554-.05986.00228c-.041.002-.083.00358-.12392.00521l-.059.0026c-.05733.00228-.11454.00488-.17188.00749l-.0072.00032c-.06142.00261-.11558.00489-.177.00782l-.055.00227-.126.00586-.06118.00261c-.045.00195-.08482.0039-.12982.00618l-.05074.00228-.17706.00814-.03758.002c-.04907.00228-.09025.00423-.13934.00684l-.06305.00293-.1249.00618-.05436.00261-.16315.00813-.01587.001c-.0613.00293-.11792.00586-.17922.00912l-.05035.0026c-.04086.00195-.08844.00456-.12932.00684l-.06219.00325c-.04085.002-.08759.00456-.12844.00684l-.04993.0026-.17822.00944-.02716.00163c-.049.0026-.10264.00553-.15161.00846l-.05745.00326-.124.00683-.06016.00358c-.049.00261-.09348.00521-.14245.00814l-.036.002c-.05711.00325-.12061.00683-.17772.01041l-.04586.00261-.1337.00781-.05848.00358-.12762.00781-.05422.00326c-.06114.00358-.1166.00716-.17773.01074l-.00727.00065-.16933.01042-.05747.00358-.12486.00814-.06.00358-.12638.00813-.05469.00359c-.057.0039-.11479.00748-.17179.01139l-.05188.00325-.12549.00847-.06795.00455-.1151.00782-.06317.00423c-.04474.00293-.0971.00651-.14184.00976l-.04307.00293-.16626.0114-.05876.00423c-.04067.00293-.07782.00553-.11849.00814l-.06811.00488-.119.00846-.0586.00424c-.0569.00423-.1148.00846-.17169.01237l-.04681.00358c-.0447.00325-.08594.00618-.13062.00976l-.06429.00456-.11845.00879-.06187.00488c-.04874.00358-.09806.00716-.14679.01107l-.02893.00195c-.06089.00488-.11442.00879-.17531.01367l-.05524.00424c-.04056.00292-.08307.00618-.12365.00944l-.064.00488c-.04059.00325-.07967.00651-.12024.00944l-.05843.00488c-.06083.00456-.111.00879-.17177.01367l-.04252.00326-.13231.01074-.0708.00586-.11031.00879-.06667.00553c-.04458.00358-.07994.00651-.12451.01042l-.05383.00423-.17033.01432-.05668.00489c-.03646.00293-.08218.00683-.11862.01009l-.069.00586c-.04048.00325-.07658.00651-.11706.01009l-.06.00488-.15871.014-.02562.00228-.16575.01432-.05715.00521-.12107.01074-.06451.00553c-.0445.00424-.079.00717-.12344.01107l-.05357.00488-.1725.01563-.04265.00391-.13608.01269-.059.00521-.1198.01139-.062.00554-.14921.014-.02551.00261c-.06059.00553-.11444.01074-.175.0166l-.054.00521c-.04038.00358-.08251.00781-.1229.01172l-.064.00618c-.03634.00358-.08035.00781-.11666.01107l-.06334.00618-.16941.01661-.039.0039-.13631.01367-.0634.00619-.11881.01172-.06031.00618-.13712.014-.039.00391c-.05642.00553-.11849.012-.17491.0179l-.04567.00456-.13086.01334-.06159.00651-.12195.0127-.05527.00586c-.05638.00586-.10765.01107-.164.01725l-.03615.00358-.14978.016-.05778.00619-.11967.01269-.06209.00684-.13041.014-.04643.0052c-.05634.00586-.11524.01237-.17153.01856l-.05048.00553-.12687.014-.061.00684-.11809.013-.06347.00716c-.04824.00553-.09463.01074-.14284.016l-.03089.00358c-.05625.00618-.113.0127-.16921.01921l-.062.00683-.11855.01367-.06222.00717-.11822.01367-.06.00683-.16776.01953-.05.00586-.12445.01465-.07084.00847-.10616.01237-.06871.00813-.11995.01433-.05689.00683c-.05613.00684-.11005.01335-.16618.01986l-.06278.00781-.10913.01335-.074.00879-.10752.01334-.06732.00814-.16689.02051-.04033.00521-.13139.01627-.07126.00879-.10425.01335-.07384.00911-.11608.01465-.0551.00716-.16664.02116-.06482.00814c-.036.00488-.07186.00944-.10783.014l-.077.01009-.09745.01237-.07707.01009-.11955.01562-.08677.0114-.12894.01692-.07276.00977c-.036.00456-.06463.00846-.10058.01335l-.07493.00976-.10739.01465-.06728.00879-.16235.02181-.06486.00879-.10795.01465-.07453.01041-.10333.014-.07149.00977-.11475.016-.0698.00944c-.04785.00683-.104.01465-.15184.02116l-.06648.00944c-.03587.00488-.07438.01009-.11025.0153l-.06853.00944-.1111.016-.064.00879-.1615.02311-.05764.00814-.11947.01692-.07.01009c-.03186.00456-.07078.0101-.10262.015l-.074.01041-.11184.01628-.06069.00879-.16231.02376-.06927.01009-.10421.0153-.07414.01107-.101.015-.07365.01074-.13365.02018-.07546.01107c-.03971.00618-.08329.01269-.123.01855l-.07544.0114-.1.015-.07326.01139-.11255.01693-.05847.00911-.16541.02507-.06231.00976-.10649.01628-.08057.0127-.09385.01432-.07635.012-.10915.01693-.10466.0166-.11643.01823-.08049.0127-.09049.01432-.08173.013-.09735.01563-.07393.01171c-.04753.00749-.104.01661-.15149.02442l-.07864.01237c-.03167.00521-.06716.01107-.09883.016l-.08059.01334c-.03166.00489-.05845.00944-.09011.01465l-.08347.01335-.10315.01693-.06405.01041c-.05141.00847-.10921.01791-.16062.0267l-.0696.01139-.10472.01725-.07347.01237c-.03556.00586-.06213.01009-.09769.01628l-.076.01269c-.04346.00716-.08686.01433-.13031.02181l-.0874.01465c-.03949.00651-.07182.01205-.11131.01888l-.07857.013-.09176.01563-.08071.01367-.0957.0166-.07565.0127-.15852.02734-.06694.01139-.1024.01791-.07767.01334-.09554.0166-.07715.01335c-.03941.00716-.07811.01367-.11752.02083l-.08158.01433c-.04335.00748-.08618.015-.12952.02278l-.07314.0127-.09851.01758-.07576.01334-.10411.01856-.06577.01172-.15863.02832-.07463.01334-.09587.01726-.08038.01464-.09161.01661-.0787.01432-.0995.01823c-.03691.00651-.07251.013-.1094.01986l-.11694.02148-.07943.01465-.09174.0166-.07916.01465-.0947.01758-.07681.01432-.12734.02376-.10323.01921-.09161.01725-.08515.016-.08793.0166-.08154.0153-.09326.01758-.07567.01465c-.051.00944-.10439.01986-.15537.0293l-.07422.01432-.09558.01823-.08142.01562-.08856.01725-.08051.0153-.10178.01986-.123.02376-.09859.01921-.085.0166-.07943.01563-.09062.01757-.08313.01661-.08366.01627-.15374.0306-.07491.01465-.09274.01855-.08254.01628-.087.01758-.08291.0166-.10406.02083-.08736.01758-.13034.02637-.07808.01562-.093.01888-.07786.01595c-.03125.00619-.06412.013-.09535.01954l-.07319.015c-.05074.01009-.10469.02116-.15541.03158l-.06785.014-.10246.02116-.07845.01628c-.03121.00651-.05912.01237-.09031.01855l-.079.0166-.09585.01986-.09419.01953c-.04287.00912-.09085.01921-.13371.028l-.07774.01627-.08848.01888c-.02435.00489-.05917.01237-.08354.01758l-.08679.01823-.08327.01758-.085.01823c-.0487.01009-.10188.02148-.15057.0319l-.08107.01725-.08547.01823-.082.01758-.08971.01953-.07851.01693-.0852.01823-.14978.03255c-.03038.00651-.05357.01139-.08395.01823l-.08577.01855-.08643.01888-.07621.0166-.09125.01986-.07544.0166c-.06073.01335-.10534.02311-.166.03679l-.07107.01562-.09476.02083-.07074.01563-.09314.02083-.07369.01628-.0929.02083c-.05041.0114-.09833.02214-.14872.0332l-.07935.01791-.08427.01888-.09049.02051-.07569.01725-.09016.02018-.07713.01758-.15507.03516-.08006.01823-.09253.02148-.07165.01628-.09571.02181-.07049.01627-.09121.02116-.08276.01921c-.05443.01237-.10295.02376-.15735.03645l-.07237.01661-.09351.02181-.07.01627-.09526.02246-.07017.01628-.16345.03841-.076.0179-.09129.02149-.07375.01758-.09206.02181-.07174.01692-.09448.02246-.06885.01661c-.06032.01432-.10717.02539-.16748.04l-.072.01726-.09253.02213-.07287.01758-.09324.02246-.06731.01628-.3337.08105-.07265.01758-.09143.02246-.07208.01758-.09387.02311-.06073.015c-.06016.01464-.13074.03222-.19086.04687l-.05516.01367-.0945.02344-.07023.01758-.09283.02311-.07209.0179-.09232.02279-.0707.0179c-.05406.01335-.11056.02767-.16459.04135l-.07365.01822c-.03.00782-.06035.0153-.09035.02279l-.07286.01856-.09351.02343-.0677.01726c-.072.01822-.14163.0358-.21359.05436l-.0226.00553-.1001.02572-.06589.01692-.09282.02377-.07172.01823-.0922.02376-.07108.01823-.17253.0446-.06148.016-.10018.026-.06179.01595-.09861.02571-.06.01563c-.11967.03125-.23378.06087-.35335.09245l-.04708.01237-.10716.02832-.05558.01465-.10482.02767-.04146.01106c-.0717.01888-.15265.04037-.22431.05957l-.03143.00847-.10486.02767-.05729.01562-.10453.02767-.05.01367c-.11934.0319-.2323.06218-.35154.09473l-.05864.01562-.0995.027-.05776.01563-.10454.02864-.04771.013c-.07149.01921-.14858.04037-.22005.0599l-.03.00814-.1037.02864-.05719.01563c-.0357.00976-.06421.01758-.09991.02767l-.05975.01627-.10385.02865-.02315.00651c-.07733.02148-.14286.03939-.22015.06087l-.054.015-.10024.028-.06056.01693-.10189.02864-.04867.01335c-.11881.03353-.2326.06543-.35132.099l-.05828.01627-.0997.02832-.06022.01693-.09859.028-.05255.015-.20254.05762-.04457.01269-.1037.02995-.0545.01563-.10256.02929-.05473.01563-.3562.10286-.044.0127-.10386.03027-.057.0166-.10482.0306-.03613.01042c-.0828.02409-.17092.0498-.25368.07422l-.00071.00032c-.03546.01009-.07487.02181-.11031.03223l-.05076.015-.107.03158-.04486.013c-.11814.03516-.24559.07259-.36363.10775l-.04052.012-.11025.03288-.04544.01367-.10982.03288-.03937.01172c-.11794.03515-.24827.07454-.36612.11l-.04133.01237-.11.03321-.04789.01464c-.03534.01042-.07443.02247-.10974.03321l-.01945.00586c-.08244.02506-.157.04752-.23942.07291l-.03054.00912-.10926.03353-.04827.01465-.1092.03352-.04276.013c-.11762.03614-.233.07162-.35051.10808l-.05737.01758-.09967.03092-.05629.01758-.10029.03125-.05554.01725c-.06457.01986-.14009.04362-.20465.0638l-.03442.01075-.10643.0332-.05055.016-.105.03288-.04665.01465c-.11725.0371-.24286.07649-.36.1136l-.04063.013c-.03516.01107-.07009.02214-.10523.03353l-.0533.01693-.10455.0332-.03888.01237-.241.07715-.01027.00325-.10472.03353-.053.01693-.1041.03353-.04834.01562-.10942.03516-.00525.00163c-.08181.02669-.16217.05273-.24394.0791l-.04008.013-.10534.03418-.0484.016-.10828.03516-.0388.01269c-.12254.04-.24282.07943-.36525.11979l-.03742.012-.1096.03613-.04392.01465-.11363.03743-.00818.00261c-.134.04459-.25887.08594-.39274.13053l-.03426.0114-.1142.03808-.03489.01172c-.128.04264-.244.08171-.37186.12467l-.03018.0101-.11287.03808-.04213.01432-.10924.03679-.03542.012c-.122.04134-.24819.08431-.37.12565l-.03091.01075-.11674.03971-.03159.01074q-.19142.06543-.38292.13151l-.01772.00619-.11464.03939-.04.014-.1153.03972-.01882.00651c-.12738.04427-.25075.08691-.378.13151l-.03585.01237c-.0347.012-.07977.02767-.11446.04l-.031.01074c-.1272.04459-.25847.09049-.38554.13541l-.01465.00521c-.04043.014-.07621.0267-.11664.041l-.03477.01237c-.04042.014-.07479.02637-.11519.04069l-.02869.01009c-.127.04492-.24927.08822-.37612.13346l-.02559.00912c-.04037.01465-.07587.02734-.11621.04166l-.03467.01237c-.04035.01433-.0776.02767-.11794.04232l-.00564.002c-.13252.04752-.25722.09212-.3896.14l-.03366.012-.11456.04167-.03237.01172c-.12658.04557-.24229.08756-.36873.13379l-.03062.01107-.10976.04-.04232.01563-.10895.03971-.03355.01237c-.1206.04427-.25053.0918-.371.1364l-.0248.00911-.11682.043-.03259.012c-.1319.04883-.25242.09343-.3842.14258l-.0097.00358c-.0401.015-.07626.02865-.11634.0433l-.03635.01367-.11605.04329-.01746.00651c-.12593.0472-.25685.09636-.38267.14388l-.023.00847c-.04.0153-.08008.03027-.12009.04524l-.02574.00977c-.13149.0498-.26074.09863-.39207.14876l-.00476.00163-.12183.04655-.02392.00911c-.04.015-.08258.03125-.12252.04655l-.01693.00651c-.13122.05014-.25972.09929-.39083.14974l-.01045.00424-.12167.04655-.02624.01009c-.17092.06608-.34634.13411-.517.20052l-.02519.00976-.12166.0472-.01557.00619-.39135.153-.00989.00391-.12032.0472-.02761.01107-.11735.04622-.02079.00814c-.1249.04915-.2591.10221-.38385.15169l-.01325.00554c-.03969.01562-.08341.03287-.12311.04882l-.02223.00879c-.17005.06771-.34756.13868-.51736.20671l-.02315.00944-.12435.0498-.00454.002c-.13578.05468-.2655.10709-.40112.16178l-.00386.00163c-.04523.01823-.08446.03418-.12966.05273l-.01093.00423c-.17511.07129-.352.14323-.52689.21485l-.01451.00586-.12716.05241-.00777.00293c-.17478.07194-.35089.14453-.52543.21679l-.02118.00879c-.16888.06966-.34965.14486-.51829.2155l-.01658.00683c-.045.01856-.07768.03223-.12264.05111l-.01768.00749c-.16856.07064-.34731.14583-.51563.21679l-.02223.00944c-.03927.01628-.08179.03451-.12106.05111l-.01391.00586q-.19349.08154-.38631.16374l-.00975.00423c-.03922.0166-.08266.03516-.12187.05208l-.0226.00944c-.168.07162-.342.14616-.50972.21843l-.02487.01074c-.03914.01693-.0814.03516-.12052.05176l-.00985.00423c-.13411.05794-.25632.11068-.3903.16894l-.00693.00293c-.03909.01693-.08417.03646-.12323.05371l-.01911.00814c-.173.0752-.345.15039-.51772.22591l-.01125.00521c-.04458.01953-.08152.03548-.12608.05534l-.01029.00423c-.17821.07845-.34522.152-.52314.2308l-.0084.0039c-.17792.07878-.35079.1556-.52842.235l-.00132.00065-.12862.05729-.01014.00456c-.17755.07943-.34458.15462-.52185.2347l-.008.00358-.12592.05664-.01123.00521c-.1772.08008-.3407.1543-.5176.235l-.01283.00585c-.1769.08073-.34294.15658-.51958.23764l-.00575.0026c-.22077.10156-.43641.20117-.65672.30338l-.00535.00261c-.22034.10221-.43718.20345-.657.30631l-.0015.00065c-.17591.08269-.348.16374-.52358.24642l-.00517.00261c-.439.20736-.873.41439-1.31018.625l-.00545.00293c-.17487.084-.34135.16471-.51591.24935l-.00938.00455c-.17458.085-.343.167-.51729.25228l-.00177.001q-1.56852.76758-3.11955,1.56185l-.002.001q-2.06979,1.06054-4.10794,2.16764l-.00293.00163q-4.08076,2.21679-8.03849,4.62207h0q-3.95861,2.40527-7.787,4.99186l-.00667.00456c-1.27682.86263-2.53631,1.73567-3.791,2.62793l-.00555.0039c-1.25469.89225-2.49019,1.79362-3.72227,2.71485l-.01014.00748c-.34653.25944-.68706.516-1.03177.77735h-.00014q-.28726.21777-.57289.43619l-.00161.00131c-.34369.26269-.68332.52408-1.02517.78906l-.00474.00358c-.18993.14713-.377.29264-.56634.44043l-.00028.00032c-.14675.11459-.3.2347-.44639.34961l-.01337.01075c-.15112.11881-.29367.23112-.44443.35026l-.00338.0026-.111.08789-.00226.00163c-.15066.11946-.29781.23633-.44811.35612l-.00352.00293c-.18786.14941-.36975.29492-.557.44531l-.00908.00749c-.14983.12011-.28894.23209-.4384.35286l-.00894.00749c-.03736.03-.071.05729-.1083.08756l-.00153.001c-.1447.11719-.29446.23861-.43882.35612l-.01512.01237-.10315.084-.00488.00391c-.11168.09115-.215.17546-.32645.26693l-.00684.00553-.103.08431-.01547.0127c-.13924.11425-.284.2334-.42294.348l-.02318.0192-.09814.08106-.009.00749c-.11106.09179-.21281.1761-.32365.26823l-.00394.00325-.10556.08757-.00961.00813c-.14309.11882-.28463.237-.42736.35645l-.0156.013-.099.08268-.0176.015c-.10582.08854-.20839.1748-.314.26367l-.00644.00521-.09886.08333-.01962.0166c-.13766.11589-.27959.236-.41692.35254l-.02053.01725-.09618.08171-.0168.01432c-.13722.11654-.28118.23926-.41807.35612l-.01917.01628-.09685.083-.01256.01074q-.15731.13476-.31429.26953l-.00668.00586-.0978.084-.02289.01986c-.13643.11751-.26815.23112-.40424.349l-.03155.02734-.08765.07617-.02589.02246c-.09972.08627-.19348.168-.293.25456l-.02057.01791-.09023.07877-.02665.02344c-.03165.02734-.06129.05338-.09292.081l-.00923.00814c-.0994.08692-.20222.17676-.30142.264l-.0255.02246-.08931.07845-.02567.02246c-.13517.11882-.26758.23568-.40241.35482l-.02712.02409-.088.07812-.02564.02246c-.09879.08757-.18561.16472-.28422.25261l-.02767.02441-.08777.07813-.02925.02636c-.03136.02767-.05635.05013-.08768.07813l-.014.01237-.19007.16992-.01482.01335-.0869.0778-.032.02864-.084.07552-.032.02865c-.08926.08008-.18628.16764-.2754.24772l-.03148.02865c-.02672.02408-.054.0485-.0807.07291l-.03921.03516-.08074.07324-.02815.02539c-.05338.04818-.11.09961-.16333.14811l-.02968.0267-.075.068-.04588.042-.07729.07031-.03314.03c-.08872.08073-.18417.168-.27273.249l-.03225.02929-.07974.07292-.03881.03548-.07923.07259-.03179.0293c-.06189.057-.12444.11426-.18626.17122l-.00135.001-.08457.07813-.03148.029-.08285.07617-.03452.0319-.08344.07715-.00584.00521-.18789.17415-.02233.02051-.07989.07422-.0402.03711-.07707.07161-.03792.03548c-.08786.08138-.17266.16048-.26037.24252l-.03983.0371-.07518.07032-.04046.03776-.0786.07357-.0239.02246c-.05691.05306-.12588.11783-.18272.17122l-.00823.00781-.08546.08041-.03211.02994-.07866.07422-.03993.03776c-.08732.082-.17127.16146-.25843.24382l-.03684.03483-.07515.07129-.04482.04232-.07237.06868-.04163.03971c-.0435.04135-.09281.08789-.13627.12956l-.04249.04037-.06724.06412-.05152.04883-.06928.06608-.048.0459-.06831.06543-.05033.04818-.11937.11426-.05387.05175-.06576.06315-.05031.04818-.06819.06543-.05145.04981c-.03458.0332-.073.07-.1075.10351l-.0631.06087-.06529.06283-.05184.05013-.06675.06445-.0494.04785-.06938.06739-.04861.04687-.11535.112-.05606.05469-.06431.0625-.05437.05273-.06318.06185-.05786.05632-.05835.057-.10741.10482-.05594.05469-.06211.06087-.05989.05892-.05843.05729-.05933.05827-.05765.05664c-.03422.03353-.07371.07227-.1079.10612l-.05865.05762-.05917.05827-.058.05729-.05884.05794-.06273.06217-.05646.05567-.08161.08105-.08.07911-.06141.06087-.05635.056-.0639.0638-.0554.055-.06675.06641-.05213.05208-.10455.10417-.05349.05338-.067.06706-.05232.05241-.06816.06836-.0486.0485c-.02979.03-.06528.06576-.09506.09538l-.05284.05339-.08024.0804-.05078.05111-.06665.06738-.05134.05176-.0721.07259-.04595.04655c-.03777.03808-.07292.07356-.11067.112l-.04265.043-.07128.07227-.05367.05436-.066.06706-.05116.05208-.08675.08822-.04229.043-.09669.09863-.04669.04753-.07048.07194-.04954.05078-.078.07975-.0358.03646-.11421.11719-.03292.03385-.084.08626-.04468.0459-.07224.07422-.0465.04785-.08665.0892-.02886.02994q-.05607.05761-.11218.11589l-.03993.04134-.07942.082-.03921.04069-.08215.085-.03778.03939-.11323.11751-.02229.02311-.09221.096-.04272.0446-.07718.0804-.04082.04265-.0834.08691-.03346.03516-.113.11816-.02984.03125-.08778.09212-.03832.04-.07976.084-.03842.04036c-.03172.0332-.06839.07194-.10008.10547l-.03245.03418-.096.10091-.03917.04167-.07449.07845-.04651.04915-.07523.07975-.03923.04167-.10968.11621-.03749.03972-.07766.08268-.043.04557-.0752.08008-.04147.04427-.10468.11165-.00731.00782-.11419.12207-.03474.03711-.08374.08984-.03471.03711-.08909.09538-.02656.02864-.11605.12468-.015.01627-.09822.1058-.03755.04036-.082.08854-.03244.03516-.10205.11035-.013.014-.11687.12663-.02223.02409-.0928.10058-.03152.03451c-.03118.03385-.06105.06608-.0922.10026l-.02364.02571c-.07787.08464-.15433.168-.23205.25293l-.02732.03-.0885.09668-.032.03516c-.03365.03678-.06532.07129-.09892.10839l-.01419.0153-.1183.12989-.01159.01269c-.03615.03972-.06989.07683-.106.11686l-.02108.02312-.09694.10677-.02271.02506c-.0773.08529-.15578.17188-.23294.25749l-.02064.02279-.09446.10481-.02728.03028-.09736.10807-.01763.01953c-.077.08561-.15544.17285-.23228.25879l-.02287.02539-.09726.10872-.01947.02181c-.07674.08562-.15689.17546-.23348.2614l-.01584.0179-.099.111-.02408.02735-.10239.11523-.011.01237c-.079.08887-.15443.17383-.23323.263l-.02178.02474-.0953.10775-.02141.02441c-.0787.0892-.15484.17546-.23338.265l-.00624.00716-.11068.126-.01319.015-.10722.1224-.01078.012c-.07837.08952-.15619.17871-.23441.26823l-.013.015-.10529.12077-.01294.015c-.11591.13313-.23643.27181-.352.40527l-.01115.013-.10957.12663-.0066.00781c-.11792.13639-.23231.26921-.34986.40592l-.01641.01921c-.11753.13672-.23173.27018-.34887.40723l-.00723.00846-.1081.12663-.01187.014c-.117.13737-.23308.27377-.34972.41146l-.00727.00847-.11513.13606h-.00011c-.07932.09408-.1579.18685-.237.28093-.00386.00456.00209-.00261-.00178.00195-.03957.0472-.07663.09115-.11616.138l-.00231.00293c-.11858.141-.23386.27832-.352.41992l-.00469.00554-.11548.13834h-.00013c-.11806.14161-.23371.2806-.35136.42221l-.0041.00488a192.59746,192.59746,0,0,0-13.73116,18.74512,10.66662,10.66662,0,1,0,17.9392,11.54524A170.1559,170.1559,0,0,1,256,128h0a172.47937,172.47937,0,0,1,29.37514,2.515,10.66661,10.66661,0,1,0,3.64311-21.01985q-1.2561-.21779-2.51693-.41895l-.00519-.001-.12231-.01954-.00466-.00065c-.04012-.00651-.08168-.013-.1218-.0192l-.00786-.0013c-.11578-.01856-.231-.03646-.34684-.05469l-.03056-.00489-.08667-.01334-.05513-.00847-.076-.012-.06417-.00976-.07025-.01075-.07385-.01139-.06462-.01009-.08321-.0127-.05815-.00879-.133-.0205-.0291-.00424c-.03725-.00585-.0781-.012-.11537-.01757l-.03217-.00489-.11137-.0166-.03267-.00521-.11707-.01725-.02435-.00391c-.19881-.02962-.38851-.05761-.58752-.08691l-.00177-.00032a192.972,192.972,0,0,0-20.62382-1.89258h0c-.25649-.00977-.51229-.01921-.769-.028h-.00209l-.148-.00488-.00885-.00033c-.20545-.00683-.40554-.013-.61115-.0192l-.00451-.00033-.14572-.00423-.01239-.00032-.13619-.00391-.01839-.00065c-.05143-.0013-.09432-.00261-.14575-.00423h-.00161l-.45223-.01205-.02968-.00065-.12183-.00293-.02539-.00065-.12976-.00325-.01949-.00033-.45406-.01042h-.01023l-.13475-.00293-.02932-.00065-.11993-.00228-.0319-.00065c-.03864-.001-.08071-.00163-.11936-.00228l-.02926-.00065-.2994-.00553h-.00881c-.0451-.001-.09173-.00163-.13686-.00228l-.03322-.00065-.11294-.00195-.04221-.00065-.10657-.00163-.04061-.00065c-.0387-.00033-.07377-.001-.11247-.00163l-.03552-.00033c-.10321-.00162-.18905-.0026-.29228-.0039l-.03861-.00065-.10907-.00131-.04277-.00065-.10524-.001-.04336-.00065-.108-.001-.04006-.00065-.11633-.001-.0306-.00032c-.05166-.00066-.09522-.001-.14689-.00131l-.01929-.00032-.12559-.001-.048-.00032-.09666-.00065-.05384-.00033-.09362-.00065-.05343-.00033c-.03233-.00032-.06885-.00065-.10118-.00065l-.0426-.00032-.12907-.00065h-.01672c-.05172-.00033-.09528-.00066-.147-.00066l-.037-.00032c-.03233,0-.07385,0-.10618-.00033h-.05331c-.03232-.00032-.06359-.00032-.09594-.00032h-.051c-.03233-.00033-.06321-.00033-.09556-.00033h-.052l-.10283-.00032H256Z" style="fill:#fffc74"/><path d="M340.776,175.79557a31.61767,31.61767,0,0,1-31.44271,37.53776H202.66667A31.61767,31.61767,0,0,1,171.224,175.79557a149.33334,149.33334,0,1,0,169.55208,0Z" style="fill:#ffea21"/><path d="M362.53752,282.28451a21.3351,21.3351,0,0,0-21.29464,20.36328A85.38416,85.38416,0,0,1,216.97579,374.584a21.33349,21.33349,0,0,0-19.56268,37.918l.02913.015.064.03287.03051.01563.07622.03906.01983.01042.19479.09961.02508.013.07326.03711.02655.01367.07331.03744.02484.01269.08.04037.01788.00911c.06667.03385.13129.06673.198.10026l.0156.00814.08173.041.02523.0127.07346.03711.02531.01269.07766.03907.02085.01041c.06576.03321.13294.06673.19875.09961l.01211.00619.08722.04329.01837.00912.08042.04.02114.01074.08832.04362.00889.00455c.10052.04981.20286.10059.30353.15007l.01495.00749.087.04264.01363.00684.09385.04622.00574.0026c.10294.05046.2066.10124.30971.15137l.00248.0013.09839.04785.00808.00391c.17155.08333.34137.16537.51336.24805l.00971.00488.09192.044.01147.00553c.13723.06575.27281.13053.4103.19564l.00918.00456c.03383.016.0649.03059.09875.04687l.00195.001c.13975.06608.27816.13118.4182.19694l.00162.001.10273.04818.00238.001q.20853.09765.41717.19433l.0059.00293.10179.04688.00037.00032c.17445.08073.34985.16146.52473.24121l.0044.002a127.06875,127.06875,0,0,0,29.96979,9.43034l.0047.00065q.82052.15039,1.64463.28971l.0045.001.11295.01888.00444.00065c.15615.02637.31321.05273.46956.07845l.00232.00032.11184.01823.00907.00163q.23273.03809.46611.0752l.00754.0013.11068.01758.006.001.11465.01823h.0012c.11843.01888.23626.03711.35479.05567.00413.00065-.00327-.00065.00086,0,.03829.00618.07554.01171.11383.01757l.00842.00131c.15686.02441.312.04785.46908.07129l.00374.00065.112.01692.0091.00131.10982.01627.00626.001c.11632.01725.23572.03483.35214.05176l.00779.001.10331.015.02216.00325c.03344.00488.06492.00944.09838.014l.01315.00195c.03841.00554.07582.01107.11426.01628h0c.07932.01139.1571.02246.23649.03353l.00555.001.10893.0153.01479.002.10122.014.0153.00228c.036.00488.07468.01009.11069.0153.00415.00033-.00087-.00032.00328.00033.07945.01106.15668.02148.23618.03222l.00558.001.10771.01432.01812.00261.09982.01334.01489.002.106.01432.00992.0013.23393.0306.00885.0013.10454.01367.02136.00261.09228.012.02525.00326c.03235.00423.06425.00846.09662.01237l.01623.00228c.07844.01009.15491.01953.2334.02962l.00529.00065.10657.01335.02423.00293.091.01139.02489.00325.09224.0114.02338.00293c.07605.00944.15311.01888.22923.028l.01328.00163.10195.01237.02161.0026.09073.01075.02869.00358.09094.01074.02244.0026.10885.013.00413.00033.23269.02734.0202.00228.096.01107.021.00228.09288.01074.02622.00293c.035.00391.07315.00814.10816.01237H241.49c.0788.00911.1579.0179.23672.02669l.01094.001.09994.01107.02685.00293c.03.00358.06193.00683.092.01009l.0221.0026.10746.01172.00543.00033c.0789.00879.155.01692.234.02506l.01979.00228.096.01009.02248.00228.09432.01009.023.00228.10417.01074.00883.001c.11664.012.23464.02409.35136.03581l.01927.002.098.00976.01979.002.101.01009.01487.0013c.07786.00781.15611.0153.234.02279l.01432.00162.1003.00944.02411.00228c.03017.00293.05882.00586.089.00847l.03119.00325.0908.00847.0216.00195.23336.02181.01172.001.09823.00878.03505.00326.08189.00749.032.00293.088.00781.02527.00228.23169.02051.01492.0013.099.00846.02784.00228.08677.00749.03241.00293.08677.00716.02663.00228.099.00846.01636.0013c.07694.00651.15434.0127.2313.01888l.02566.00228c.029.00228.05861.00456.08764.00716l.03351.00261.08222.00651.03263.0026.09955.00781.01269.001c.077.00619.15562.01237.23271.01823l.02515.002.08768.00651.03638.00293.07823.00586.03621.00261.089.00651.024.00195.22922.0166.031.00228.08417.00618.03418.00228.082.00586.03344.00228.08816.00619.02686.002c.038.0026.07548.00521.11346.00749l.00478.00032.111.00781.02834.00163.08529.00586.0379.00261.0767.00488.0386.0026.08115.00521.03276.00195.22835.01465.03058.002.08157.00488.04313.0026.06891.00423.04659.00293.07346.00456.0388.00228.09462.00553.01844.001.11383.00684.02822.00162.08589.00489.03766.002.07831.00456.037.002.07993.00456.03658.002.09316.00488.01972.00131.11287.00586.03347.002.08236.00423.03666.00195.08036.00423.03451.00163.08376.00423.03347.00163.09136.00456.02287.0013c.03819.00163.0774.00358.11558.00553l.01662.00066.09825.00488.03327.00163.08044.00358.03933.002.075.00326.04213.00195.08848.0039.02224.001c.03823.002.07792.00358.11617.00521l.01809.001.09552.0039.03855.00163.076.00326.04079.00162.077.00326.03934.00163.07947.00325.03491.0013.11453.00456h.00429c.037.00163.07294.00293.11.00423l.03449.0013.07969.00293.03874.00163.07725.00261.04079.00162.081.00293.03213.001.10264.00358.02567.001.102.00325.03237.0013.0802.00261.04185.0013.07538.00228.0424.0013.0697.00228.04625.0013.08715.00261.02586.00065c.03709.0013.075.00228.1121.00325l.03736.0013.0768.002.04287.0013.07253.00195.0448.001.079.00228.0318.00065.10186.0026.0149.00033.11568.00293.02811.00065.084.002.0426.001.076.00163.0398.001.07623.00163.03977.00065.09267.002.02139.00033c.03845.001.07649.00163.115.00228l.02836.00065.08622.00163.04.00065.07468.0013.04436.00065.07381.0013.04034.00066.07821.0013.03931.00032c.03723.00065.07411.0013.11134.00163l.02853.00065.08573.001.04.00065.07831.001.03967.00032.07392.001.044.00065.07914.00065.03534.00065.11446.001h.01555l.09863.001.03977.00033.07276.00065.04864.00033.0708.00065h.04118l.08325.00065.03264.00032.11521.00033.00948.00032.10356.00033h.04138l.07507.00033.04391.00032h.116l.07784.00033h.27638l.08079-.00033h.13121l.07224-.00032h.0436l.05789-.00033.04553-.00033h.0566l.04789-.00032.05377-.00033.04751-.00032.0546-.00033.04981-.00032.05184-.00033.04856-.00032.05408-.00033.04759-.00033.05448-.00065.04757-.00032.0535-.00065.05093-.00033.05137-.00065.04706-.00032.05623-.00066.04578-.00065.057-.00065.04291-.00032.05841-.00065.04623-.00066.05617-.00065.04344-.00065.05857-.001.04555-.00066.05569-.00065.04445-.00065.05735-.001.04688-.00065.0544-.001.04627-.00065.055-.001.04846-.001.05286-.001.0474-.00065.0544-.001.04938-.001.05143-.001.04867-.001.05412-.0013.04827-.001.05658-.001.04316-.001.05564-.0013.049-.001.052-.0013.04755-.001.055-.0013.0481-.001.06718-.00162.0309-.001.06557-.00163.03937-.001.081-.00195.01791-.00065.0942-.00228.0084-.00032.20278-.00554.03662-.001.06689-.002.02527-.001.0757-.00228.02889-.00065.07494-.00228.02571-.001.072-.00228.0425-.0013.06145-.00195.03678-.0013.06268-.002.04023-.0013.06418-.00228.03569-.0013.06276-.002.04234-.00163.06106-.002.04067-.00163.05837-.002.0424-.00162.06264-.00228.03872-.00163.05757-.00195.048-.002.05629-.002.04128-.00163.0602-.0026.04025-.00163.06363-.00228.03722-.00162.061-.00261.04272-.00163.0598-.0026.04071-.00163.06065-.0026.03941-.00163.06351-.0026.03941-.002.05583-.00228.04787-.00227.05542-.00228.04413-.002.05644-.0026.04522-.00228.05428-.00228.049-.00228.047-.00227.05385-.00261.05317-.0026.04565-.00228.05784-.00261.0426-.00227.06027-.00293.04166-.002.051-.0026.05149-.00261.04787-.0026.05247-.0026.05443-.00261.0451-.0026.06464-.00326.03642-.00195.04982-.0026.05273-.00293.02139-.001.07938-.00456c.03406-.00163.06568-.00358.09974-.00553l.02459-.0013.07447-.00424.054-.00293.04671-.0026.06145-.00358.038-.00228.0541-.00293.04848-.00293.04976-.00293.05013-.00293.05148-.00293.04913-.00293.05054-.00325.05125-.00293.04254-.00261.05977-.0039.04513-.00261.0519-.00325.05383-.00358.04633-.00293.05216-.00326.05072-.00325.04472-.00261.05729-.0039.04541-.00293.05308-.00358.04794-.00293.05271-.00358.04722-.00326.05575-.00358.04115-.00293.06063-.00391.04254-.00293.054-.0039.0483-.00326.05174-.00358.04842-.00325.05477-.00391.04307-.00293.059-.00423.04118-.00293.05969-.00423.04073-.00293.05931-.00456.04152-.00293.06309-.00456.03424-.0026.06893-.00488.03235-.00261.065-.00488.03723-.0026.05467-.00424.04883-.00358.053-.00423.04427-.00325.06325-.00489.03687-.00293.06384-.00488.03654-.00293.06345-.00521.03724-.00293.08774-.00683.00971-.001.08347-.00651.019-.00163.06917-.00553.03212-.00261.0482-.0039.08942-.00749.06248-.00521.045-.00358.05272-.00455.05035-.00424.05186-.00423.039-.00358.06059-.00488.03615-.00326.06659-.00586.03-.0026.06775-.00586.04122-.00358.05851-.00488.046-.00424.05223-.00455.04654-.00423.05654-.00489.03856-.00358.06061-.00553.04146-.00358.05892-.00554.03994-.00358.06-.00553.03907-.00358.06311-.00586.03548-.00326.06227-.00586.04153-.0039.05721-.00521.04374-.00423.05495-.00521.045-.00423.05586-.00521.04362-.00423.056-.00554.043-.00423.0589-.00553.03933-.00391.05991-.00586.04059-.0039.05927-.00586.04173-.00423.0547-.00554.046-.00456.05258-.0052.04825-.00489.04727-.00488.05287-.00521.04822-.00488.05111-.00521.04756-.00488.05089-.00521.05328-.00553.04519-.00489.05416-.00553.04569-.00488.0552-.00586.04386-.00456.05729-.00586.04185-.00456.061-.00651.03827-.00423.061-.00651.03862-.00423.09464-.01009c.00407-.00033-.00118,0,.00289-.00033l.30149-.0332c.00409-.00033-.00032,0,.00375-.00033l.09544-.01074.017-.002.083-.00912.01915-.00228.07967-.00911.02972-.00326.06747-.00781.04235-.00488.05707-.00651.03984-.00456.05985-.00683.03943-.00456.05984-.00716.03916-.00456.05953-.00684.04321-.0052.0554-.00651.04311-.00489.05573-.00683.04445-.00521.05518-.00651.04276-.00521.05526-.00651.04653-.00586.05276-.00619.04376-.00553.05576-.00684.04366-.0052.05821-.00717.03583-.00423.06407-.00813.03784-.00456.05912-.00749.04043-.00488.05684-.00716.04508-.00554.0516-.00651.04691-.00618.05028-.00619.05068-.00651.049-.00618.04758-.00619.05193-.00651.04724-.00618.05385-.00684.04272-.00553.05685-.00749.04354-.00553.05578-.00749.04151-.00553.05648-.00717.04355-.00586.05654-.00748.04081-.00554.05227-.00683.04975-.00651.04414-.00586.05233-.00716.05257-.00716.04629-.00619.07013-.00944.02632-.00358.06071-.00814.04063-.00586c.06653-.00879.12814-.01725.19464-.02669l.032-.00423.06876-.00977.02747-.00358.0675-.00944.04989-.00716.0507-.00716.03847-.00521.0601-.00846.03408-.00489.06661-.00944.03072-.00455.06494-.00912.04065-.00586.05939-.00846.03684-.00554.06047-.00878.03782-.00521.06238-.00912.03731-.00553.05762-.00846.04352-.00619.05769-.00846.03795-.00586.05892-.00847.03849-.00586.0637-.00944.03324-.00488.06161-.00911.039-.00586.062-.00944.03475-.00521.06126-.00912.03906-.00585.05809-.00879.04331-.00684.05024-.00749.04846-.00748.05391-.00814.04157-.00651.05631-.00847.04169-.00651.05739-.00878.04151-.00652.05255-.00813.04685-.00749.05282-.00814.0436-.00683.05731-.00912.03908-.00618.063-.00977.03489-.00553.05762-.00912.04187-.00683.06051-.00977.036-.00553.066-.01075.03088-.00488.06944-.01107.02952-.00488.05859-.00944.04089-.00683.05986-.00977.03689-.00586.07631-.01237.02073-.00358.07381-.012.02529-.00424.02651-.00423.11717-.01953.05214-.00879.01217-.00195.08586-.01432.02166-.00359.07538-.01269.03266-.00553.06412-.01075.03894-.00651.05953-.01009.03321-.00553.06455-.01107.03689-.00651.06018-.01009.03821-.00651.05834-.01009.04419-.00749.05335-.00944.03839-.00651.06187-.01074.03512-.00619.06083-.01041.038-.00684.05914-.01042.04106-.00716.05644-.00976.03814-.00684.05947-.01042.04187-.00748.05207-.00912.04779-.00846.04736-.00846.05231-.00945.046-.00813.04677-.00847.05143-.00944.048-.00846.04956-.00911.04449-.00782.05186-.00944.04889-.00911.04814-.00879.04582-.00814.05118-.00944.0483-.00879.05036-.00944.04341-.00781.05333-.00977.0463-.00879.05595-.01041.036-.00651.06321-.01172.03652-.00684.05591-.01074.04134-.00749.05085-.00976.049-.00912.04522-.00846.049-.00944.0521-.00977.04632-.00879.04828-.00911.04743-.00911.04321-.00814.05564-.01074.06763-.013.02537-.00488.08775-.01693.01034-.00195.09724-.01888.01136-.00228.08514-.01627.023-.00456.07562-.015.01756-.00326.07684-.015.0351-.00717.06331-.01236.03365-.00652.06075-.012.0377-.00749.06238-.01237.02832-.00586.06718-.01334.0342-.00684.062-.01237.03854-.00781.0559-.01107.04354-.00879.05414-.01106.04173-.00847.05306-.01074.04634-.00944.04979-.01009.04783-.00977.04661-.00944.05013-.01009.049-.01009.04366-.00911.05335-.01107.0426-.00879.05459-.01107.04168-.00879.05345-.01107.04364-.00911.05359-.01107.042-.00879.05479-.01139.04093-.00846.05549-.01172.04209-.00879.0509-.01074.04576-.00977.05259-.01107.04344-.00944.05055-.01074.04625-.00976.04919-.01042.04751-.01009.04822-.01042.04655-.00977.05322-.01171.04252-.00912.05361-.01139.04234-.00912.052-.01139.04512-.00977.04769-.01041.04788-.01042.04919-.01074.04726-.01009.04775-.01042.04732-.01042.0729-.01595.02118-.00488.08-.01758.01688-.00358.19232-.04264.02208-.00521.07371-.01627.03-.00684.06577-.01465.03426-.00781.06169-.01367.03652-.00814.05835-.01335.04368-.00976.05135-.01172.04608-.01042.04889-.01107.05278-.012.04115-.00944.05473-.01237.04069-.00944.05559-.0127.03983-.00911.05249-.012.04332-.01009.05259-.012.04376-.01009.04871-.01139.0472-.01107.04726-.01074.0496-.01172.04337-.01009.05172-.012.04625-.01074.04927-.01172.04362-.01009.05288-.0127.0423-.00976.05448-.013.03916-.00912.05467-.013.0445-.01074.04895-.01139.04591-.01107.04822-.01139.0482-.01172.048-.0114.045-.01074.05009-.012.04736-.0114.048-.01172.04489-.01074.05092-.01237.04545-.01106.051-.01237.04224-.0101.0509-.01237.04708-.01171.04893-.01172.04291-.01075.05941-.01432.0358-.00879.067-.0166.02643-.00651.05979-.01465.03854-.00976.06471-.01595.02761-.00684.09253-.02279.0021-.00065c.12819-.0319.2537-.06347.38173-.0957l.02513-.00619.07133-.01822.024-.00619.06808-.01725.03841-.00977.05825-.01465.03544-.00911.05715-.01465.04089-.01042.05512-.014.04445-.0114.04647-.012.0522-.01335.0433-.01106.04931-.013.0455-.01171.04441-.0114.05312-.01367.04093-.01074.05125-.01335.04334-.01139.05467-.01432.037-.00944.05656-.015.0376-.00976.05919-.01563.03588-.00944.05473-.01432.04262-.01139.05274-.014.04136-.01074.05294-.014.03947-.01074.05833-.0153.0357-.00944.0554-.015.04094-.01074.0566-.0153.03493-.00944.061-.01628.033-.00878.06081-.01661.036-.00976.05084-.01367.04555-.01237.05162-.014.04008-.01074.06-.01628.03262-.00879.06372-.01758.03117-.00846.06282-.01725.03091-.00847.07757-.02115.0142-.00391.08785-.02409.00611-.00163.0934-.026.00116-.00032.08136-.02247.01507-.00423c.12688-.03515.25186-.07.37857-.10547l.00687-.002.08677-.02441.01624-.00456.07867-.02214.0186-.0052.07316-.02084.03528-.01009.05725-.01595.04142-.012.053-.015.03713-.01041.0569-.01628.03748-.01074.057-.01628.03277-.00944.06155-.01758.03377-.00976.06042-.01758.0303-.00879.06394-.01823.0315-.00911.06276-.01823.02985-.00879.06152-.01758.03693-.01074.05766-.01693.03238-.00944.06137-.0179.03456-.01009.05929-.01726.03251-.00976.0603-.01758.035-.01042.0629-.01855.02539-.00749.0684-.02018.02767-.00814.06549-.01953.02749-.00814.06264-.01855.03408-.01009.06356-.01888.02582-.00782.06774-.02018.02782-.00814.0674-.02018.02437-.00749.0697-.02083.02407-.00716.08427-.02539.00476-.00163.08311-.02506.01333-.00391.08284-.02507.01-.00325.07107-.02148.026-.00782.17177-.05241.01357-.00423c.15688-.04818.31026-.09538.46688-.14388l.03683-.01139.05293-.0166.04114-.0127.056-.01725.02319-.00749.06757-.02116.03284-.01009.06185-.01953.02994-.00944.06018-.01888.03492-.01074.06166-.01953.028-.00879.06056-.01921.03748-.01172.05853-.01855.03176-.01009.05746-.01823.03818-.012.0576-.01855.03347-.01074.05591-.01758.038-.01237.05847-.01856.03091-.01009.06-.0192.03375-.01074.06061-.01954.03163-.01009.05862-.01888.036-.01172.05527-.0179.03953-.01269.05022-.01628.0414-.01367.05424-.01758.03711-.012.05757-.01856.03156-.01042.06677-.02181.024-.00781.06805-.02246.02415-.00781.06932-.02279.02433-.00814.06549-.02148.02706-.00879.06818-.02246.0238-.00814.06527-.02148.02826-.00944.06667-.02214.0251-.00814.06722-.02246.025-.00846.06882-.02279.02365-.00814.07279-.02408.01874-.00651.07757-.026.015-.00488.08929-.02995.00246-.001.18573-.0625.002-.00065.09057-.03093.00631-.002.08567-.0293.01225-.00391.08163-.028.00244-.00065.08882-.0306.01494-.00488.07509-.02572.026-.00911.06584-.02246.03088-.01075.059-.02018.03386-.01172.05936-.02051.0316-.01074.05963-.02083.033-.01139.058-.01986.03579-.0127.05575-.0192.03261-.0114.06128-.02148.029-.01009.06348-.02214.027-.00944.06333-.02213.03129-.01107.05945-.02083.0318-.01107.05845-.02051.03579-.01269.05645-.01986.03256-.01139.05893-.02084.03341-.012.06167-.02181.02537-.00879.06638-.02376.02725-.00977.06471-.02279.02531-.00911.06456-.02311.02909-.01042.06213-.02213.02806-.0101.06169-.02213.03155-.01139.06128-.02214.02812-.01009.06728-.02409.02329-.00846.07485-.027.01459-.00521.0674-.02441.02786-.01009.06364-.02312.02594-.00944.0637-.02311.02868-.01074.0669-.02409.02307-.00846.05788-.02116.03518-.013c.12253-.04492.24123-.08854.36358-.13379l.00556-.002.177-.06576.01076-.00391.08049-.02994.01471-.00554.07273-.027.03125-.01171.0614-.02279.02348-.00879.067-.02507.02409-.00911.0683-.02572.023-.00846.06332-.02409.03481-.013.05706-.02148.03219-.012.05739-.02181.0326-.01237.05971-.02246.03072-.01172.05695-.02181.03582-.01334.05713-.02181.02985-.0114.06181-.02376.02634-.00977.06686-.02571.02384-.00912.0613-.02343.03322-.0127.05837-.02246.03018-.01172.06089-.02344.02871-.01106.06233-.02409.02928-.0114.05552-.02148.03707-.01432.05609-.02149.03137-.01237.06218-.02409.02659-.01041.06492-.02507.02618-.01041.0585-.02279.03318-.013.06008-.02344.02842-.01107.06278-.02474.02737-.01074.06419-.02506.02581-.01009.06012-.02377.03066-.012.08431-.03353.00214-.00065c.21185-.08366.42181-.16732.63312-.25228l.01141-.00456.08028-.03222.00169-.00065.089-.03581.00057-.00033.08826-.03548.00932-.00391.07863-.0319.02006-.00813.06907-.028.02018-.00814.071-.02864.0181-.00749.06989-.02865.02279-.00911.066-.027.02567-.01042.06608-.027.01789-.00749.07322-.02995.01656-.00683.07212-.02963.01841-.00748.06952-.02865.02267-.00944.068-.028.01941-.00782.06832-.02832.02427-.01009.06453-.02669.02476-.01042.06075-.02506.032-.01335.05912-.02474.0271-.01107.061-.02571.03087-.0127.05692-.02376.03129-.01335.05589-.02311.035-.015.05759-.02409.028-.01172.0605-.02539.03081-.013.054-.02279.03567-.015.04665-.01986.04415-.01855.05641-.02377.0269-.01139.0636-.027.02734-.01172.07691-.03255.0086-.00391.07032-.02994.02115-.00879c.05972-.02572.11489-.04916.17458-.07487l.00192-.00065c.11936-.05111.23749-.10189.35665-.15365l.00874-.00358c.05587-.02409.11086-.04818.16669-.07227l.02374-.01041.068-.0293.01066-.00488.07656-.03321.01739-.00748.07247-.03158.01508-.00683.07037-.0306.02413-.01042.06775-.02995.01552-.00651.06991-.03092.02425-.01042.065-.02864.02435-.01075.06-.02669.03148-.01367.05955-.02637.02689-.01172.05858-.026.03206-.01432.05631-.02474.03292-.01465.05233-.02344.03548-.01562.05666-.02539.02934-.013.05668-.02539.03237-.01433.05632-.02506.03145-.01433.05575-.02474.0311-.014.062-.028.02413-.01074.06063-.02734.02869-.0127.06333-.02864.02265-.0101.06123-.02766.02853-.013.0628-.02832.02367-.01074.06306-.02864.02527-.0114.06187-.02832.02621-.01172.06266-.02864.02427-.01107.07644-.03483.00925-.00423.07416-.03386.015-.00683.07588-.03483.01156-.00521c.23559-.10807.468-.2155.70276-.32487l.01-.00488.07765-.03614.01185-.00553.07491-.03483.01593-.00749.07008-.03288.022-.01041.06551-.0306.02-.00944.06716-.03158.02187-.01041.06575-.03093.01988-.00944.06639-.03125.02368-.01139.06343-.02995.02234-.01042.06391-.03027.027-.013.058-.02734.02873-.01368.05906-.02832.02834-.01334.05821-.02767.0276-.01335.05764-.02734.03329-.01595.05078-.02442.03495-.0166.05438-.026.03115-.015.05522-.0267.03168-.0153.0519-.02474.03731-.0179.04836-.02344.03692-.0179.04955-.02376.03767-.01823.05062-.02474.03339-.01595.05365-.026.03416-.01661.05322-.026.03154-.0153.05737-.028.02911-.014.06385-.03125.0205-.01009.06366-.03093.02434-.012.07456-.03646.00958-.00488c.02541-.01237.05042-.02441.07581-.03711l.01149-.00553c.17414-.08562.34479-.16993.51848-.25619l.01631-.00814.07145-.03548.00857-.00423.07715-.03841.01214-.00619.07477-.03743.0127-.00619.07013-.03515.02409-.01205.064-.03222.01937-.00977.06482-.03255.02244-.01107.066-.0332.01862-.00944.0625-.03158.03194-.01595.05336-.027.03361-.01692.05068-.02572.03251-.0166.05766-.0293.02517-.01269.05865-.02963.02747-.014.06-.0306.02553-.013.05953-.03028.02466-.01269.06181-.03158.02573-.013.05567-.02864.03072-.01563.05894-.03027.02425-.01237.06231-.0319.022-.0114.06463-.0332.02116-.01107.06429-.0332.02055-.01042.07007-.03613.01355-.00716.07273-.03744.01268-.00683.07155-.03711.0151-.00781.06594-.03418.0203-.01042.07546-.03939.00743-.0039c.315-.16407.62758-.32846.941-.49512l.00187-.001c.08549-.04525.16746-.08919.25283-.13476l.00858-.00456.07363-.03939.01882-.01009.06706-.03581.01493-.00814.0686-.03678.02014-.01074.06354-.03418.02246-.01205.06079-.03287.025-.01335.06177-.03353.01943-.01042.0637-.0345.02467-.01335.05683-.03092.03086-.0166.04954-.027.03727-.02018.04971-.027.03011-.01628.05491-.02995.03066-.0166.05135-.02832.03359-.01823.04844-.02636.03683-.02019.05092-.028.02852-.01563.059-.03222.02533-.014.058-.0319.026-.01432.05369-.02963.03265-.0179.05679-.03125.02315-.01269.06358-.03516.02111-.01172.066-.03646.01654-.00944.06558-.03613.01953-.01107c.11273-.0625.21966-.12207.33217-.18489l.00224-.00131c.11253-.06282.22408-.12532.33638-.1888l.00566-.00293c.05615-.03157.10616-.05989.16227-.0918l.00745-.0039.07755-.04395.00214-.0013.07739-.04394.02185-.01237.06531-.03679.008-.00456.07468-.04264.01217-.00683.07165-.04069.01278-.00749.06826-.03874.01847-.01074.06838-.03906.0104-.00586.06946-.03972.02054-.012.061-.03483.02627-.015.05334-.03092.03125-.0179.05577-.0319.02335-.01368.05906-.03385.02411-.014.06063-.03515.02124-.012.0611-.03548.0215-.01237.06523-.03776.01595-.00944.06411-.03711.02107-.01237.06269-.03646.01949-.01107.06386-.03743.01823-.01042.06854-.04.01314-.00781.069-.04036.014-.00814.07715-.04525.00283-.00163.08152-.04785.00136-.00065.08041-.0472.00333-.00195.07614-.04492.00781-.00456.079-.04655.00321-.002q.499-.29443.994-.59278l.002-.0013.07957-.04785.00713-.00423.0744-.04493.01005-.00618.071-.043.0152-.00911.06594-.04.0178-.01074.06225-.03777.02363-.01432.06022-.03678.017-.01042.06539-.03971.01636-.01009.06848-.04167.00959-.00586.06939-.04232.01742-.01074.06376-.03906.01784-.01107.06291-.03841.0201-.01237.0626-.03841.01762-.01074.06165-.03809.0225-.01367.06516-.04037.011-.00683.07283-.04492.00837-.00521.07694-.04753.00289-.00195.07485-.04623.00954-.00586.07149-.04427.01016-.00651.06746-.042.01585-.00976.07231-.04493.00653-.00423.07157-.04459.01152-.00717.07812-.04882.00122-.00065.0812-.05079.00043-.00032q.49038-.30712.97715-.61817l.0026-.00162c.02708-.01758.05184-.03321.0789-.05046l.00149-.001.07531-.0485.01575-.01009.06822-.04362.0061-.00391.07489-.04817.00553-.00358.07705-.04948.00118-.001.07772-.05013.00641-.00391.07627-.04947.00189-.001.07925-.05143.00124-.00065c.05393-.03516.104-.06739.15792-.10254l.00622-.00391.077-.05013.00126-.001c.08077-.05241.15831-.10319.23895-.15592l.00434-.00261.07572-.0498.00509-.00326.076-.0498.00386-.0026.07457-.04883.00722-.00488.06787-.0446.01418-.00912.0694-.04589.00938-.00619c.05361-.03516.102-.06738.15558-.10254l.0037-.0026.07928-.05241.00023-.00033q.40155-.26612.80049-.5345l.00365-.00261.07462-.05013.01357-.00911.06352-.043.02226-.015.05949-.04037.01133-.00749.069-.04687.00962-.00651.06779-.0459.01546-.01074.06305-.04264.01874-.0127.06158-.042.01345-.00912.06584-.04492.01546-.01074.06193-.042.01805-.01237.06075-.04167.01912-.013.063-.04329.01093-.00749.06949-.04753.00955-.00651.06917-.04752.0095-.00651.06765-.04655.014-.00977.066-.04557.01107-.00749.06655-.0459.01406-.00976.0651-.04493.0129-.00911.06262-.04329.01838-.0127.06667-.04622.008-.00586.07154-.04948.00744-.00521.15216-.10612.00478-.00326c.421-.29361.838-.58821,1.25527-.887l.00354-.0026c.05217-.03711.10028-.07162.15239-.10905l.00468-.00358.07371-.05274.00362-.0026.07377-.05306.00484-.00358.15037-.1084.00653-.00488.0727-.05241.00331-.00261.07251-.05241.00747-.00553.0706-.05111.00708-.00521.0687-.0498.01021-.00749.06822-.04948.00881-.00651.06631-.04817.01263-.00944.06777-.04948.00775-.00554.06934-.05078.00809-.00586.0726-.05306.00319-.00228.07367-.054.004-.00293.07621-.056.0001-.00033q.81369-.59814,1.61739-1.20866h.00039c.051-.03906.10012-.07617.15108-.11523l.0045-.00326.07257-.05533.00256-.002.07064-.054.00966-.00716.06954-.05339.00293-.00228.06891-.05273.01237-.00944.06445-.04948.01-.00782.066-.05045.00993-.00781.06806-.05241.00632-.00489.06753-.05208.01009-.00781.07011-.054.00287-.00228.07224-.05566.00425-.00326.14881-.11556.00248-.00195q.75921-.58887,1.50767-1.18815l.00273-.00228.14707-.11784.00265-.00228.07208-.05794.00333-.0026.06651-.05371.01433-.0114.06207-.05013.01009-.00813.06441-.05176.00977-.00814.0663-.05339.007-.00586.06606-.05338.00942-.00749.06683-.05436.00625-.00488.06838-.05567.00553-.00455.07213-.0586.00048-.00032.06765-.05534.01034-.00846.06819-.05534.00375-.00326.07025-.05729.00413-.00358.068-.05567.00721-.00585.06225-.05079.01329-.01106.06333-.05209.00952-.00781.14571-.11979.00084-.00065q.48184-.397.95933-.7985l.001-.00066c.07353-.06184.14525-.12207.21863-.18424l.00316-.0026.06842-.058.008-.00651.0673-.057.002-.00163.21769-.1849.00175-.00163c.09751-.08268.19187-.16341.28914-.24641l.00379-.00326c.58363-.49967,1.15958-1.00163,1.734-1.51139l.00487-.00423c.04787-.04232.09031-.08008.13812-.12273l.00564-.00488.06768-.06055.001-.00065.07035-.06282.00157-.0013c.04775-.04265.09251-.08269.1402-.12566l.00439-.0039.0673-.06022.004-.00358.06474-.058.00867-.00781.06592-.05924.00248-.00228.06795-.0612.00395-.00358.06791-.0612.00289-.0026.06844-.06185.00252-.00228.13867-.12533.00415-.0039.06511-.05892.00683-.00619.06438-.05859.006-.00553c.56827-.51628,1.12821-1.03451,1.687-1.56088l.00529-.0052.06584-.06185.00195-.002.06742-.0638.00273-.00228c.04651-.04394.09155-.08659.138-.13086h0c.09289-.08789.18339-.17383.276-.26237l.0035-.00325c.55574-.53,1.10368-1.06153,1.64978-1.60124l.00476-.00488c.04549-.04492.0874-.08626.13285-.13151l.00135-.0013c.04541-.04493.08618-.08529.13155-.13054l.00838-.00814.061-.06087.00529-.00521.06092-.06054.00826-.00814.0592-.05925.00948-.00944.05347-.05338.01664-.0166.05619-.05632.00765-.00781.06368-.0638.00187-.00163c.04517-.04557.08846-.08887.13355-.13444l.00183-.00163q.67663-.68066,1.34131-1.36946l.004-.00424c.08886-.09212.17354-.18034.26212-.27246l.0031-.00325.06319-.06608.00289-.00293.06319-.06608.00362-.00358.06258-.06576.00354-.00358.05929-.06217.01017-.01075.06071-.06347.00073-.001c.04411-.04622.08752-.0918.13155-.13835l.00061-.00065.064-.06738.003-.00326c.044-.04655.08557-.09049.12951-.13671l.00192-.00228.12911-.13672.00272-.00293q.59235-.62891,1.1753-1.26432l.00069-.00066.06425-.07031.00032-.00032.06238-.068.00651-.00716.05929-.0651.00341-.00358.05974-.06543.00683-.00749.05892-.06478.00411-.00456.05746-.06315.01029-.01139.05558-.0612.00733-.00781.056-.06185.00879-.00977.05717-.06315.00569-.00618.05689-.06315.0085-.00912.05644-.0625.00728-.00814.05734-.0638.006-.00651.059-.06575.00484-.00521.05782-.06445.00655-.00717.06026-.06738.00261-.0026.06254-.07.00089-.001.06238-.06966.002-.00228q.67181-.75145,1.33133-1.51269l.00017-.00033.06185-.07129.00223-.0026.06035-.07.00264-.00293.06031-.07.00191-.00228.05977-.06934.004-.00456.06014-.07.00061-.00065c.06262-.07292.1228-.14291.18522-.21582l.00358-.00424.06083-.07129h0l.05978-.07.00415-.00489c.04154-.0485.08069-.09472.12215-.14322l.00122-.00163q.49774-.585.98779-1.17513l.00224-.00293.12057-.14518.001-.00131.1178-.14257.01351-.01628.04789-.05794.01127-.01367.0494-.06023.01107-.01334.05025-.0612.01038-.0127.04862-.05924.01363-.0166.0483-.05892.01054-.0127.0509-.06217.00826-.01009.05359-.06576.00635-.00781.04985-.06087.01464-.01823.04761-.05827.01087-.01335.04858-.05989.012-.01465.0507-.0625.00843-.01009.05066-.0625.01-.01237.05232-.06478.00688-.00846.055-.068.00423-.00521.05559-.069.00516-.00618.05258-.06543.00817-.01009.05742-.07129.00089-.001q.45155-.56153.89563-1.12663l.0048-.00618.05559-.071h.00012l.059-.0752.00094-.0013.11637-.14876.00423-.00521.05623-.07227h0l.05757-.07389.00423-.00553.05262-.06739.00919-.012.048-.06153.01212-.01562.04968-.06413.00513-.00683.05257-.06771.00773-.01009.05115-.06608.0068-.00879.05021-.06511.00968-.01237.05144-.06673.0048-.00651.05273-.06836.00684-.00879.05009-.06543.009-.01172.0461-.05989.01379-.01791.05091-.0664.00386-.00521.051-.06673.00919-.012.05461-.07129.00122-.00162.05371-.07064.00566-.00716c.27189-.3571.53983-.71257.80806-1.07227l.00346-.00456.11137-.14974.00281-.00358c.03825-.05143.07352-.09928.11169-.15071l.00281-.00358.054-.07324.00411-.00554.05042-.068.01025-.014.04871-.06608.00517-.00684.05237-.071.00358-.00488.05448-.07422.00114-.00163.0544-.07389.00387-.00521.05424-.07422.00138-.00163.05225-.07161.0074-.01009.04834-.06608.00912-.01237.04512-.06185.01229-.01693.047-.06445.00769-.01042.04846-.06673.008-.01107.04943-.068.00635-.00879.05209-.07162.00321-.00455.0555-.0765h0l.05436-.0752.00269-.0039c.338-.46778.67-.9336,1.00179-1.40625l.00854-.01237.04639-.06608.008-.0114.04769-.068.00646-.00911.049-.07.00524-.00749.04814-.069.0096-.014.04537-.06478.00883-.01269.044-.06348.01347-.0192.04057-.0586.01375-.01953.039-.05631.01819-.02637.03682-.05306.01526-.02214.04065-.05859.01306-.0192.04383-.06316.00879-.013.04357-.06315.0127-.01823.04154-.06054.012-.01758.04187-.06087.01269-.01856.04228-.06152.01135-.0166.04021-.0586.01513-.02213.04126-.06022.01135-.01693.04379-.0638.01017-.015.10347-.152.00346-.00488c.06991-.10286.13778-.20312.20744-.30631l.00875-.0127c.0719-.10644.14156-.21.21313-.31673l.01107-.0166.04289-.0638.00887-.01335.043-.06413.01485-.02213.03963-.05925.01046-.01562.04142-.06218.01481-.02213.03907-.0586.012-.01823.04081-.06119.01164-.01758.04264-.06413.009-.01367.04207-.06348.01388-.02083.03914-.05925.014-.02116.03759-.057.01591-.02409.03728-.05632.0157-.02376.0354-.054.01766-.0267.037-.05631.01335-.02018.04-.06088.01135-.01758.04232-.06445.00988-.015.04077-.0625.013-.01986.04-.0612.012-.01823.04061-.0625.01082-.0166.04268-.06543.00973-.015.04077-.0625.0118-.01823.04553-.07031.00444-.00684c.05241-.08073.1029-.15885.15519-.23991l.00073-.001.051-.07911.00142-.00227.05172-.08008.0002-.00033.0481-.07487.0048-.00749.04488-.07.00716-.01107c.13875-.21647.27454-.42969.412-.64714l.00948-.015.04285-.06771.00366-.00586.04744-.07519.00574-.00912.04423-.07031.01123-.01758.03862-.06152.016-.02539.03458-.05534.01575-.02507.035-.05566.017-.02734.03313-.05274.01843-.02962.031-.04948.02112-.03385.03048-.04883.01721-.02767.0339-.05436.01757-.02832.03231-.05209.01782-.02864.0319-.05143.0197-.03158.03145-.05078.01681-.02734.03458-.056.01575-.0254.03459-.056.01542-.02507.03259-.05273.01925-.03125.03353-.05469.01391-.02246.0363-.05925.015-.02441.03418-.05567.01555-.02539.033-.05371.01806-.02962.036-.05892.01131-.01855.03768-.06185.01347-.02181.03634-.0599.01314-.02148.03113-.05111.02059-.03385.03491-.05762.01217-.02018.0389-.06413.01143-.01888.048-.07943.00028-.00032.04167-.069.00911-.015c.06649-.11035.13115-.21777.19731-.32812l.00716-.01205.09159-.153.00851-.01432.04085-.06836.00989-.01661.03743-.06282.016-.02669.03463-.05827.01139-.01921.03561-.06022.01754-.0293.03206-.05436.0168-.02832.02991-.05045.02051-.03483.02974-.05014.01713-.02929.03044-.05143.01925-.03256.02974-.05078.01819-.03092.03-.05078.01762-.03028.03263-.05566.01469-.02507.03206-.05468.0177-.03028.03162-.054.01538-.02637.03337-.057.014-.02409.03606-.06184.01163-.02019.03463-.05924.01489-.02572.03308-.057.01526-.02637.03158-.05436.01644-.02865.03344-.05762.014-.02441.03251-.056.01607-.028.03182-.055.016-.02767.03-.05241.01819-.03157.03117-.054.016-.028.03308-.05762.01392-.02441.03849-.06739.00826-.01432.03829-.06706.00977-.01692.042-.07357.005-.00879.04692-.08236.00037-.00065q.09558-.168.19055-.33626l.00171-.00293.04492-.07943.01212-.02181.03447-.06087.01644-.0293.03068-.05468.01538-.02735.03121-.05566.01827-.03255.028-.04981.02-.03581.026-.04655L367.82336,361l.022-.03939.02307-.04134.02384-.04264.0221-.03972.02478-.04459.02067-.03711.02523-.04557.02233-.04.02434-.04395.02022-.03646.02669-.04817.0197-.03581.02641-.04753.01949-.03548.02592-.04687.02209-.04037.02356-.04264.02218-.04037.02331-.04231.02364-.043.02161-.03939.02449-.04492.02015-.03679.02714-.04948.01766-.03222.02758-.05046.01848-.03385.02677-.04916.01978-.03645.0251-.04623.01925-.03515.02816-.05176.01558-.029.029-.05339.01693-.03125.02873-.05306.01761-.03255.02625-.0485.02018-.03744.02625-.0485.01749-.03255.02678-.04981.0214-.03971.02336-.0433.02929-.05468.01453-.027.0271-.05046.01982-.03711.02254-.042.0216-.04069.03406-.06348.01074-.02018.07715-.14485.04025-.07585.01717-.03223.02042-.03873.02438-.0459.01892-.03581.026-.04915.02771-.05241.015-.02832.02726-.05176.01884-.03581.022-.04167.02226-.04231.02115-.04037.02413-.0459.01986-.03776.0238-.04557.02-.03809.02592-.04947.016-.0306.02853-.05469.01505-.029.0295-.05664.01648-.03158.02564-.04915.02083-.04.02356-.04557.02087-.04.02226-.043.021-.04069.02449-.0472.01945-.03744.02287-.04459.0221-.04265.02168-.042.02234-.04362.02124-.041.02169-.04232.02242-.04362.02271-.04427.01782-.03483.02677-.05209.0166-.03255.02682-.05241.01676-.03288.02523-.04947.01978-.03874.02449-.04818.01693-.0332.02571-.05046.02027-.04.02234-.04394.0216-.04265.02116-.04166.02226-.04395.022-.04329.01782-.03548.02478-.04916.02072-.041.02238-.04427.021-.042.02132-.04231.02242-.0446.0212-.04232.01445-.02864.0286-.05729.00607-.012.07165-.14323.00692-.014.02067-.04134.02132-.043c.0245-.04915.04964-.0996.0741-.14908l.01074-.02149.024-.0485.01892-.03841.02616-.05274.01534-.03092.027-.05469.01538-.03125.027-.05469.01534-.03125.02213-.04492.02129-.04329.02351-.04785.01689-.03451.02771-.05664.01343-.02734.03-.0612.01172-.02409.0273-.056.01595-.03255.02551-.05241.01591-.03255.02637-.05436.01477-.03028.028-.05794.01326-.02734.027-.05567.0151-.03125.02815-.05794.0116-.02409.03072-.0638.0096-.01986.03268-.06771.0083-.01725.03015-.06282.01432-.02963.02718-.05664.01327-.02767.02722-.057.0151-.03125.026-.05469.01652-.03451.02266-.04752.02027-.04265.02209-.04622.01656-.03483.0245-.05143.01542-.03255.02694-.05665.01175-.02473.02784-.05892.01517-.03223.02653-.056.0125-.02637.0273-.05794.01424-.03027.02759-.0586.00777-.0166.03215-.06836.00931-.01985c.0752-.16016.15263-.32585.22722-.48666l.00447-.00944.039-.08431.00045-.001.02625-.05664.01578-.03418.02849-.06152.00968-.02083.03117-.06771.00907-.01986.03361-.07291.00509-.01107.03162-.069.00923-.01986.03166-.069.00716-.01562.03015-.06609.0107-.02343.02906-.06348.00972-.02148.02893-.06348.01156-.02539.02808-.06185.01082-.02376.02864-.06315.01075-.02344.03039-.06706.00729-.01627.03084-.06836.01017-.02246.02836-.06283.01038-.02311.02824-.0625.0122-.027.02706-.06022.01087-.02442.02811-.0625.0116-.026.028-.0625.00944-.02116.02929-.06575.00989-.02214.02983-.06673.00679-.0153.03194-.07194.00713-.01595.03186-.07161.00524-.012.03325-.07487.00537-.012.03353-.07585.003-.00683.03495-.07943.00464-.01042q.30279-.687.59859-1.37988l.00025-.00033c.08671-.20345.17232-.40527.258-.609l.001-.00227.0345-.082.00318-.00781.03487-.083.00061-.00162.03585-.08562.00081-.00195.07154-.17155.00236-.00553.03487-.084.00044-.001.03488-.084.00313-.00748.03373-.08138.00179-.00456.03361-.08138.00411-.00977q.43152-1.04589.846-2.10286l.00126-.00326c.04618-.11784.09155-.234.13741-.35189l.00033-.001c.03438-.08854.06827-.17611.10245-.26465l.00053-.0013.033-.08561.00216-.00554a127.428,127.428,0,0,0,8.3737-40.0625A21.333,21.333,0,0,0,363.5247,282.307c-.33118-.015-.659-.02246-.98718-.02246Z" style="fill:#fffc74"/><rect x="213.33333" y="277.33333" width="85.33333" height="42.66667" rx="21.33331" ry="21.33331" style="fill:gold"/><rect x="234.66667" y="256" width="64" height="170.66667" rx="31.99997" ry="31.99997" style="fill:gold"/><path d="M291.11326,192H220.88674a42.66668,42.66668,0,0,1-39.615-26.82066l-28.1001-70.25026a53.665,53.665,0,0,1-3.8383-19.93068v-.00006a53.665,53.665,0,0,1,53.665-53.665H309.00166a53.665,53.665,0,0,1,53.665,53.665v.00006a53.665,53.665,0,0,1-3.8383,19.93068l-28.1001,70.25026A42.66668,42.66668,0,0,1,291.11326,192Z" style="fill:#b244f1"/><rect x="170.66667" y="42.66667" width="170.66667" height="42.66667" rx="21.33331" ry="21.33331" style="fill:#bc5cf3"/><rect x="192" y="149.33333" width="128" height="42.66667" rx="21.33331" ry="21.33331" style="fill:#9d11ee"/><rect x="213.33333" y="21.33333" width="85.33333" height="170.66667" rx="42.66662" ry="42.66662" style="fill:#cf94ff"/><path d="M256,256H234.66667a21.33334,21.33334,0,1,0,0,42.66667V384a21.33333,21.33333,0,0,0,42.66666,0V277.33333A21.33272,21.33272,0,0,0,256,256Z" style="fill:#fffc74"/><rect x="192" y="213.33333" width="128" height="21.33333" rx="10.66666" ry="10.66666" style="fill:#fffc74"/><path d="M97.6329,310.83952a10.67516,10.67516,0,0,0-10.57285,12.17806c10.66709,74.58431,70.2176,134.05469,144.81621,144.62109a10.66647,10.66647,0,1,0,2.992-21.12207A148.299,148.299,0,0,1,194.958,434.99479l-.00057-.00032c-.13884-.06218-.274-.123-.41264-.18555l-.00216-.001c-.34474-.15592-.68617-.31185-1.02952-.47037l-.00148-.00066c-.1345-.06217-.27387-.12662-.40815-.18912l-.00718-.00326-.09523-.04427-.00529-.0026-.09544-.0446-.007-.00326c-.1024-.04752-.20262-.09472-.30489-.14257l-.00212-.001-.09645-.04557-.00812-.00358c-.10223-.04818-.202-.09538-.30406-.14356h0l-.09552-.04525-.01572-.00748-.0859-.041-.01164-.00553c-.09849-.04655-.20056-.09538-.29893-.14225l-.01058-.00521-.09127-.04362-.00779-.00358c-.10184-.04883-.19991-.096-.30161-.14519l-.00411-.00195c-.03156-.015-.06031-.029-.09186-.04427l-.01731-.00846-.08053-.03874-.02018-.00977-.08814-.04264-.006-.00293c-.10158-.04915-.19623-.09538-.29769-.14486l-.01426-.00683-.08781-.043-.01-.00488c-.03147-.0153-.06378-.03093-.09523-.04655l-.00308-.0013-.19974-.098-.00961-.00488-.08831-.04329-.01274-.00619-.0875-.04329-.01237-.00586c-.0977-.04818-.19615-.097-.29375-.14551l-.018-.00879-.07518-.03743-.026-.0127-.0771-.03841-.01752-.00879c-.06616-.03288-.12915-.06445-.19525-.09733l-.00847-.00423-.08589-.043-.02206-.01107-.07757-.03906-.01693-.00846c-.03129-.01563-.05941-.02963-.09068-.04558l-.005-.00228-.19686-.09928-.01231-.00619-.08714-.04394-.01245-.00651-.0859-.0433-.01249-.00618-.09135-.04655-.00639-.00325c-.06587-.03321-.12845-.06511-.19427-.09864l-.0175-.00879-.07841-.04-.02185-.01106-.07588-.03907-.02013-.01009-.07723-.03971-.02085-.01042-.09393-.04817-.01465-.00749-.07813-.04037-.02553-.013-.0742-.03808-.021-.01107-.07675-.03939-.0192-.01009c-.06216-.0319-.1306-.06738-.19271-.09961l-.01276-.00651-.079-.041-.02695-.014-.06617-.03418-.03127-.01628-.07542-.03939-.01515-.00781-.09493-.04948-.01626-.00846-.07745-.04037-.02846-.015-.06611-.0345-.02878-.0153-.06885-.03614-.02651-.01367-.07876-.04134-.01357-.00716-.09444-.04981-.019-.01009-.07265-.03808-.035-.01856-.05826-.03092-.03366-.01758-.064-.03385-.02934-.01563-.185-.09831-.024-.01269-.07034-.03744-.0283-.015-.06362-.03386-.03259-.01757-.06512-.03483-.02814-.015-.07479-.04-.03955-.02116-.06763-.03613-.03273-.01758-.06041-.03255-.03788-.02018-.05385-.029-.03762-.02019-.05475-.02962-.03953-.02116-.08622-.04655-.03449-.01888-.05426-.02929-.04467-.02409-.0483-.026-.04395-.02409-.04459-.02409-.04684-.02539-.05052-.02767-.04-.02148-.0837-.04558-.04792-.02636-.04264-.02312-.046-.02506-.04518-.02474-.04782-.02637-.04364-.02376-.04514-.02474-.04859-.02669-.06868-.03776-.05975-.03288-.042-.02311-.04372-.02409-.05161-.02832-.04043-.02214-.04781-.02669-.04319-.02376-.04667-.02572-.06037-.03353-.06093-.03353-.05276-.02929-.04272-.02377-.05109-.02832-.03635-.02051-.0551-.03059-.04065-.02247-.048-.02669-.04273-.02409-.03165-.01757-.10193-.057-.03963-.02214-.04718-.02636-.04179-.02344-.04763-.02669-.04551-.02572-.04417-.02474-.05109-.02865-.03788-.02148-.08523-.04785-.0402-.02279-.049-.02767-.04531-.02571-.04527-.02539-.04441-.02539-.04112-.02312-.05348-.03027-.01662-.00944-.11121-.06315-.03971-.02279-.04344-.02474-.05-.02832-.04244-.02409-.041-.02343-.05341-.0306-.03035-.01725-.1991-.11394-.02441-.014-.05931-.03418-.0269-.0153-.06211-.03581-.02405-.014-.05918-.03385-.03135-.01823c-.06509-.03744-.13129-.07585-.19633-.11328l-.02535-.01465-.05658-.03288-.03534-.02051-.05152-.02994-.03466-.01986-.05408-.03158-.0332-.0192-.09813-.05729-.03609-.02084-.05455-.0319-.03257-.01888-.05249-.03092-.03617-.02116-.0532-.03093-.033-.01953-.05463-.0319-.01841-.01074-.13149-.07715-.01469-.00879-.06071-.03581-.02606-.0153-.05683-.03352-.03265-.01921-.05719-.03353-.01768-.01042c-.07275-.043-.13934-.08235-.212-.12565l-.01865-.01106-.06163-.03646-.02488-.015-.05931-.03515-.02563-.0153-.06244-.03711-.015-.00879-.21393-.1276-.01705-.01042-.06649-.03971-.01577-.00944-.06817-.0407-.01516-.00911c-.09656-.05794-.19739-.11881-.29382-.17676l-.02031-.01237-.064-.03873-.02039-.01205-.06349-.03841-.01789-.01107c-.09633-.05827-.19838-.12011-.29457-.17838l-.01738-.01075-.06276-.03808-.02389-.01465-.05869-.03581-.03042-.01855c-.06807-.04134-.1391-.085-.20709-.12663l-.00865-.00521-.06407-.03939-.02276-.014-.06332-.03874-.01735-.01074-.06791-.04167-.0009-.00065c-.10386-.0638-.20709-.12728-.31079-.19173l-.00905-.00554c-.13161-.08138-.25871-.16015-.39-.24186l-.00016-.00032-.07318-.04558-.012-.00748q-.23272-.145-.4654-.29134l-.00087-.00065c-.15873-.09994-.31055-.19564-.46887-.2959l-.00456-.00293-.30538-.19434-.00716-.00456-.07389-.0472-.00415-.0026c-.13036-.08333-.25725-.16439-.38731-.248l-.00218-.0013-.07534-.0485-.00464-.00293-.07446-.04818-.00332-.002c-.10239-.06608-.20172-.13021-.30393-.19662l-.00883-.00553c-.15334-.09961-.30969-.20117-.46263-.30111l-.00079-.00065q-1.78818-1.16845-3.53636-2.38314l-.0002-.00032a149.423,149.423,0,0,1-61.49094-94.15658l-.00066-.00358c-.03043-.15723-.06014-.31185-.09009-.46907l-.00028-.00163-.01743-.0918-.00118-.00618c-.02353-.124-.0458-.24219-.069-.36654l-.00192-.01009-.01479-.07943-.0047-.02506-.01346-.07259-.00525-.02832c-.02127-.11459-.04254-.22982-.06354-.34473l-.00416-.02246-.01379-.07552-.00432-.02377-.01449-.07975-.0021-.01139q-.03257-.17969-.06471-.35905l-.00328-.01823-.01429-.08008-.0037-.02083-.014-.07878-.00293-.0166c-.0153-.08626-.03-.16927-.04512-.25553l-.00357-.02019L108.91,324.597l-.00614-.03516-.01209-.069-.005-.029-.01266-.07292-.00374-.02148c-.01414-.08138-.02833-.16374-.04234-.24545l-.00526-.03027-.01142-.06706-.00659-.03841-.01093-.06413-.00707-.04134-.01053-.06217-.006-.03516-.02069-.12239-.00706-.042-.00988-.05892-.00754-.04492-.0102-.06087-.0073-.044-.01021-.06119-.00647-.03907-.03463-.20931-.00966-.05859-.00877-.05371-.008-.04883-.00937-.05729-.008-.04915-.0091-.056-.00964-.05957-.00713-.044-.0158-.098-.00864-.05371-.00873-.05436-.00833-.05209-.00853-.05371-.0081-.05078-.01022-.06445-.00649-.04069-.0129-.08171-.00682-.04329-.01321-.084-.00682-.04329-.01-.0638-.0075-.04818-.009-.05794-.00746-.04818-.0098-.06315-.00681-.04427-.016-.10384-.00269-.01758-.0133-.08659-.00647-.04264-.01043-.06836-.00575-.03776-.01161-.0765-.00447-.02962-.01431-.09505-.0021-.014-.01657-.11035-.0023-.0153-.01425-.09571-.00322-.02148-.01326-.08952-.00382-.02571-.01282-.08692-.0034-.02311-.03269-.22331-.00142-.00976-.01437-.099-.00325-.02246-.01351-.09375-.00239-.0166-.0184-.12826a10.669,10.669,0,0,0-10.54566-9.15755Zm311.976,22.04883a10.67206,10.67206,0,0,0-10.22185,7.63737,149.12017,149.12017,0,0,1-33.84684,59.63769l-.00089.001-.11015.11881-.002.002c-.07621.082-.14644.15755-.22281.23925l-.00159.002c-.0732.07845-.14917.1595-.22258.238l-.00341.00358c-.07337.07813-.14763.15723-.2212.23536l-.00541.00585c-.07356.07813-.14673.1556-.22046.23373l-.00651.00683c-.07373.07813-.14717.1556-.22107.2334l-.00468.00489c-.07389.0778-.14957.15722-.22363.235l-.00211.00195c-.07406.0778-.15039.15756-.22461.235l-.00493.00521c-.03552.03711-.0673.07031-.10282.1071l-.01249.013c-.03553.03711-.07268.07584-.10824.11263l-.00464.00488c-.0356.03711-.0688.07161-.10445.1084l-.01037.01074-.11011.11426-.00179.00163c-.03565.0371-.06824.07063-.104.10742l-.016.0166c-.07141.07389-.14213.14648-.2137.22005l-.01668.01725c-.07158.07357-.14189.14584-.21359.21908l-.01753.0179c-.07174.07357-.14165.14486-.21355.2181l-.01737.01758c-.0719.07324-.14242.14518-.21444.2181l-.01737.01758c-.036.03678-.06783.069-.10388.10547l-.00228.00227-.1084.10938-.0179.01823c-.02955.02995-.066.06673-.09555.09635l-.01342.01367c-.03618.03646-.06946.07-.10563.10612l-.01876.01888-.09392.09441-.01468.01464-.10791.1084-.01156.0114-.09985.09993-.01416.014-.10844.1084-.0103.01009-.09806.09765-.01872.01856c-.03638.03646-.07133.071-.10775.10709l-.00622.00619-.1003.09961-.0221.02181-.10656.10547-.00163.00163-.10413.10253-.02295.02279c-.07312.07194-.14018.138-.21342.21l-.02234.02181-.09912.09733-.00809.00782-.10694.10481-.021.02051-.09526.09277-.01457.01433c-.03674.0358-.0673.06575-.10408.10123l-.02653.026-.0835.08105-.02555.02474c-.03349.03255-.06852.06673-.102.099l-.025.02441c-.02681.02572-.05786.056-.08471.082l-.02625.02539-.10372.09994-.02022.01953-.086.083-.029.02767-.102.0983-.02173.02084-.08573.082-.03032.0293-.10221.09765-.01786.01725-.08732.08334-.0317.03027-.10315.09831-.01213.01139-.09281.08822-.03276.03125-.09769.09277-.00708.00651-.0999.09473-.03918.03711-.0776.07324-.02689.02539-.09762.0918-.0402.03808-.06934.06511-.036.03385-.09281.08692-.04614.04329-.06279.05892-.042.03939-.09318.08691-.04228.03939-.06726.06283-.03756.03483-.09562.08919-.04207.03906-.06454.0599-.04386.04069-.09351.08659-.04081.03776-.06437.05924-.04468.04134-.08223.07585-.05229.04818-.066.06087-.04366.04-.08016.07356-.05107.04688-.068.06217-.04508.04135-.06983.0638-.06173.05631-.0686.0625-.04606.042-.06978.06348-.044.04-.08447.07682-.04867.04395-.05831.05306-.06543.05924-.0747.06739-.0481.04329-.05741.05176-.04916.04459-.09082.08171-.0483.04329-.05887.05274-.05054.04557-.08838.0791-.05391.04818-.05115.0459-.05375.04785-.07142.0638-.07316.06511-.04789.04264-.0579.05143-.06795.06055-.07268.06445-.05008.04427-.05717.05078-.05538.04883-.08789.0778-.04777.042-.06193.05469-.0398.03483c-.03605.0319-.0708.0625-.10693.09408l-.03878.03418-.06319.05534-.04252.03743-.10877.095-.03589.03158-.06644.05794-.0363.03158-.10327.09017-.04614.04-.06075.05273-.04562.03971-.094.08171-.05265.04557-.05974.05176-.04573.03939-.05758.0498-.0874.07552-.06035.05176-.046.03971-.06124.05274-.02731.02344-.12333.10579-.03711.0319-.06421.055-.03833.03256-.11177.0957-.04.03418-.06409.05469-.03853.03287-.10938.09278-.04207.03581-.06181.0524-.04577.03907-.09872.08333-.04988.04232-.06071.05143-.039.03288c-.03934.0332-.08182.069-.12121.10189l-.02885.02441-.066.05566-.04045.03386-.115.09668-.03532.02962-.06551.05469-.03841.03222c-.03686.0306-.07841.06543-.11531.09636l-.03618.02995-.06425.05371-.04187.03483c-.04484.03743-.09057.07552-.1355.11263l-.01448.012-.0671.05567-.03593.02994-.06868.05664-.01921.016c-.04236.03515-.08443.07-.12679.10481l-.04781.03939-.0614.05078-.04142.03418-.113.09278-.03621.02994-.06824.056-.03231.02637c-.03984.03288-.08447.06934-.12435.10189l-.0319.026-.07109.05827-.0286.02311-.1346.11-.02116.01692-.07674.0625-.02116.01726-.13847.1123-.0247.02018-.07308.05925-.0282.02278c-.04541.03646-.09786.07911-.14331.11556l-.01391.0114-.07215.05794-.03458.028c-.0776.0625-.15064.1211-.22836.1836l-.0284.02278q-.11658.09327-.23315.1862l-.0271.02181-.23116.18392-.033.02637-.07166.05664-.01428.01139-.1425.113-.03361.02669-.07161.05632-.02112.01692-.13831.10873-.02962.02344-.07186.05664-.02937.02311-.13286.10416-.0286.02247-.073.057-.02792.02181c-.046.03613-.08931.07-.13537.1058l-.02629.0205-.07165.056-.03264.02539-.13732.10677-.02222.01726-.0741.05729-.02742.02148-.23641.18262-.02869.02214c-.08162.06315-.158.12174-.23979.18457l-.02262.01725c-.08179.06282-.16044.12305-.24235.18587l-.02315.01758c-.08191.0625-.16573.12663-.24776.18913l-.01575.01172c-.08484.06477-.1663.12662-.25126.19075l-.016.01237c-.08768.06641-.16768.12663-.25553.193l-.01078.00814-.08146.0612-.02015.0153-.15071.113-.01758.01334-.078.0586-.02755.0205-.1414.1058-.02152.01595-.07508.056-.03108.02311q-.11994.08936-.23987.17839l-.02669.01985c-.08008.05957-.1578.11686-.238.17643l-.03455.02539c-.0802.05925-.16.11784-.24031.17709l-.02417.01758c-.08036.05924-.165.12142-.24544.18l-.02495.01823-.07987.05859-.00517.00358c-.05273.03874-.1095.08008-.16231.11849l-.02193.016-.08049.0586-.01448.01041-.15182.11036-.02551.01855-.07935.05729-.01664.012c-.05294.03841-.105.07617-.158.11425l-.01493.01075-.07959.05729-.02552.01855-.15454.111-.01245.00912-.08073.05794-.0223.016c-.08386.0599-.16479.11784-.24882.17774l-.026.01855c-.08121.05794-.16418.11719-.24556.17481l-.02747.01953c-.08419.05989-.16406.11621-.24837.17578l-.02356.01693c-.08431.05957-.17167.12109-.2561.18033l-.014.00977c-.08443.05957-.17367.12207-.25822.18132l-.01823.01269c-.0874.0612-.17346.12142-.261.18229l-.01265.00879-.085.05925-.01565.01074c-.05086.03548-.10461.07291-.15551.10807l-.02216.0153-.08138.05632-.019.01334c-.08775.06055-.16877.11654-.25666.17709l-.021.01464c-.085.0586-.16828.11556-.25346.17416l-.02653.0179c-.08519.05859-.16648.11426-.25181.1722l-.02222.0153c-.0853.05827-.16858.11491-.254.17285l-.02437.0166-.24955.169-.031.02083c-.02567.01758-.0544.03679-.08008.054l-.00046.00032c-.05709.03874-.11253.07585-.16968.11426l-.02511.01693-.08231.05534-.01075.00716-.16831.113-.01408.00944-.08649.05761-.01149.00782-.16856.1123-.01253.00846-.08627.0573-.01411.00944-.177.11751-.00073.00032-.08734.058-.0178.01172c-.0862.057-.17277.11425-.2591.17089l-.02531.01661c-.08632.057-.17486.11523-.26131.17187l-.013.00846c-.09222.06023-.18066.11817-.273.17839l-.00439.00293c-.08948.05827-.18559.12077-.27521.17871l-.00934.00618-.27071.17513-.01343.00847-.268.17285-.01575.01009-.08576.055-.01721.01107c-.05513.03516-.11474.07324-.16992.10873l-.0084.0052-.08834.05632-.017.01107-.17069.10872-.00784.00488-.08628.05469-.02211.014q-.131.08349-.26227.16634l-.02041.0127c-.08744.05533-.17541.11067-.263.16569l-.02252.01432c-.08761.055-.17422.10937-.26192.16406l-.0237.015c-.0848.05274-.17251.10775-.25743.16049l-.02993.01855c-.08785.05469-.17206.10677-.26.16146l-.0222.01367-.08593.05306-.00934.00586-.16783.10352-.023.01432-.08805.054-.00344.00227-.18186.11133-.01.00619-.08724.05338-.02116.013-.16736.10222-.01231.00748-.08587.05241-.02324.014c-.08842.054-.1746.10612-.26314.15983l-.02478.015q-.13284.08058-.26573.16049l-.01866.01139c-.08868.05339-.17659.10612-.2654.15951l-.02795.0166-.26286.15722-.02315.01368c-.08893.053-.17625.10514-.26532.15787l-.02468.01465-.08689.05143-.00527.00326c-.05644.03353-.11784.06966-.17434.10319l-.02114.01237-.08823.05208-.01276.00749-.16687.098-.02354.014-.08535.05013-.02067.012c-.0566.03321-.11391.06673-.17057.09961l-.011.00651-.08553.04981-.02962.01758-.17029.09895-.00525.00293c-.02986.01758-.05869.03418-.08858.05144l-.02142.01269q-.13446.07764-.26876.15527l-.02486.01433c-.08677.05013-.17688.10189-.26378.152l-.02948.01692c-.0839.04785-.17551.10059-.25952.14844l-.03542.02018c-.087.04981-.17175.098-.25887.14746l-.03139.01791-.08175.04622-.02425.014-.15788.08919-.02738.01563-.08517.04785-.02061.01172c-.05116.029-.106.05989-.15726.08854l-.03091.01725-.08034.04525-.0364.02051-.13761.07682-.042.02376-.076.04232-.03957.02213-.15542.08659-.01745.00977-.083.0459-.03434.0192c-.0514.02832-.10433.05762-.15577.08627l-.02343.013-.07819.043-.04089.02278c-.08478.04655-.16761.09245-.25249.139l-.04189.02279c-.08488.04687-.16579.09114-.25077.13737l-.0447.02441-.07627.04167-.04057.02213-.12921.07031-.05178.02832-.07348.03972-.04613.02506c-.03955.02149-.084.04558-.12359.06674l-.05141.028-.07152.03841-.05328.029-.12.06446-.05017.027-.07385.03972-.04993.02669-.12174.0651-.049.02637-.07469.03972-.04887.026-.128.06836-.04486.02376-.0757.04-.04739.02539-.12144.06413-.05289.028-.071.03744-.0558.02962-.11245.05924-.05762.03028-.07283.03808-.05264.02767-.0698.03679-.10319.05371-.07015.03678-.05412.02832-.07116.03711-.066.03418c-.03687.01921-.0703.03678-.10718.05566l-.05286.02767-.0709.03679-.06073.03125c-.03693.0192-.07391.03841-.11086.05729l-.05721.02962-.07027.03613-.05518.02832-.11593.0599-.05714.0293-.06775.0345-.06313.03255-.11141.057-.05487.028-.07314.0371-.051.026-.11658.05924-.06075.03093-.06744.03418-.06093.03092-.0906.04557-.08274.042-.06434.03223-.06024.0306-.08758.044-.08653.04329-.06411.03223-.06492.03255-.06427.03223c-.03373.0166-.07481.0371-.10856.054l-.06085.03028-.06694.03352-.0628.03125-.10985.05437-.05977.02962-.06866.03418-.06269.03092-.09918.04883-.06742.0332-.07129.03516-.06334.03125-.07891.03874-.08576.042-.07479.03678-.06313.0306-.06929.03386c-.03117.0153-.06639.03255-.09758.04752l-.069.03386-.06594.0319-.0699.03385-.08458.041-.08528.04134-.05835.02832-.08209.03939-.04623.02246-.11413.055-.06254.03-.07186.0345-.05677.02735c-.03828.01823-.07605.03613-.11436.05468l-.05847.02767-.072.03451-.05841.02767-.11273.05371-.05774.02734-.07792.03711-.05412.02572-.11546.05469-.05472.02571-.07758.03646-.05585.02637-.10435.04915-.06476.03028-.07936.03743-.05624.026c-.0342.01628-.07041.0332-.10463.04916l-.05831.027c-.02995.014-.05318.02507-.08315.03874l-.05869.02734-.08433.03939-.07758.03581-.08659.04036-.0553.02539-.08726.04037-.058.02669-.10624.04916-.0496.02278-.09243.04232-.04256.01953-.12185.056-.04852.02214-.0916.04166-.04209.01921-.12327.05631-.04722.02149-.09025.04069-.04669.02148c-.043.01921-.08291.03744-.126.057l-.03652.01627-.09829.0446-.044.01986c-.04309.0192-.08281.03711-.12594.05664l-.03678.01627-.09945.0446-.04539.02051-.12628.05631-.031.014-.10477.04655-.0422.01888-.12974.05762-.02512.01107-.1069.04752-.049.02149-.12414.055-.01471.00651-.12212.05371-.04266.01888c-.039.01693-.07892.03451-.11792.05176l-.01666.00716c-.04334.01921-.0907.03971-.13405.05859l-.03561.01563c-.039.01725-.08217.03613-.12121.05306l-.01555.00683-.13609.05925-.03232.014-.12028.05208-.01984.00846c-.04777.02084-.08848.03842-.13627.05892l-.03146.01367c-.0391.01693-.08048.03484-.1196.05144l-.01976.00879c-.04348.01855-.0966.04134-.1401.06022l-.02286.00976-.12348.05274-.02313.01009c-.04787.02018-.09257.03939-.14048.05989l-.018.00749-.12553.05371-.02455.01042c-.048.02018-.09406.03971-.142.06022l-.01007.00423-.13314.05632-.02393.01009-.143.06022-.00263.0013-.138.05794-.026.01107c-.09609.04-.188.07878-.28414.11882l-.02525.01041c-.09621.04-.1913.07976-.28761.1198l-.01874.00748c-.09632.04-.19558.08106-.292.12077l-.01772.00716-.13953.05762-.00627.0026c-.04824.01953-.10036.041-.14862.06088l-.01166.00455c-.10091.04134-.20041.082-.30145.12305l-.00447.00195-.14633.05925-.00885.00358c-.05273.02148-.09865.04-.15142.0612l-.00251.001-.14709.05957-.0104.00391c-.0968.03906-.20015.08073-.29706.11947l-.017.00683-.29751.11849-.01223.00488c-.10142.04037-.19867.07878-.30019.11882l-.011.00456c-.10152.04-.20023.07877-.30185.11849l-.01016.00423-.30057.11751-.01443.00554-.30284.11751-.0037.0013-.31.11979-.00185.00065a148.35649,148.35649,0,0,1-32.20149,8.37631,10.66662,10.66662,0,0,0,3.069,21.11132,170.85205,170.85205,0,0,0,139.427-121.05013,10.6752,10.6752,0,0,0-10.24471-13.65722Z" style="fill:#ffbe00"/><rect x="234.66667" y="149.33333" width="42.66667" height="42.66667" rx="21.33331" ry="21.33331" style="fill:#c175ff"/><rect x="234.66667" y="42.66667" width="42.66667" height="42.66667" rx="21.33331" ry="21.33331" style="fill:#d7a5ff"/><path d="M135.34757,298.16117a21.15995,21.15995,0,0,0,11.9275,5.98153,21.45127,21.45127,0,0,0,24.30586-17.98888l.11753-.77464a21.33378,21.33378,0,0,0-42.11926-6.81456c-.01079.06747-.0225.14185-.033.20914l-.002.01361q-.06749.43245-.13226.86533l-.00236.01513-.01528.103-.00869.0576-.01369.094c-.013.08735-.02578.17539-.03844.26263a21.18727,21.18727,0,0,0,6.01414,17.976Z" style="fill:#ffff9d"/></g></svg>