<?xml version="1.0" standalone="no"?><!DOCTYPE svg PUBLIC "-//W3C//DTD SVG 1.1//EN" "http://www.w3.org/Graphics/SVG/1.1/DTD/svg11.dtd"><svg t="1772091510377" class="icon" viewBox="0 0 1024 1024" version="1.1" xmlns="http://www.w3.org/2000/svg" p-id="6155" xmlns:xlink="http://www.w3.org/1999/xlink" width="200" height="200"><path d="M1021.852576 385.517926L944.574872 61.513359a80.881644 75.803729 90 0 0-92.642447-58.919013L538.827675 89.008898c-20.519656 5.704904-38.094361 19.810668-48.722183 39.279341l-279.205318 533.348057a82.350619 77.180706 90 0 0 27.40154 113.125103l389.069477 238.58a83.5116 78.268688 90 0 0 106.183219-31.423473l279.558313-534.338041c10.339827-18.717686 13.444775-40.953313 8.706854-62.061959z m-274.821392 24.797584c-59.413004 0-107.558197-51.131143-107.463198-114.081087 0-62.915945 48.114193-113.91109 107.463198-113.91109 59.350005 0 107.463198 50.995145 107.463198 113.91109 0.095998 62.948944-48.017195 114.081087-107.463198 114.081087z" fill="#25BEBF" p-id="6156"></path><path d="M597.920684 710.548476L489.912495 239.192379a70.702814 66.263889 90 0 0-29.449506-42.797282L236.412746 50.515543a67.662865 63.414937 90 0 0-87.456534 22.371625L9.481551 317.411068a70.088825 65.688899 90 0 0-7.394876 53.796098l107.623195 469.95312a69.19984 64.855913 90 0 0 78.364686 50.65315l363.717902-98.198353a68.892845 64.567917 90 0 0 46.096227-83.067607zM309.815515 381.009001a95.944391 89.920492 90 0 1-126.734875-1.980966 94.407417 88.480516 90 0 1 1.664972-134.097752 95.944391 89.920492 90 0 1 126.734875 1.741971 94.612414 88.672513 90 0 1-1.664972 134.336747z" fill="#25BEBF" p-id="6157"></path><path d="M490.072493 239.842368a70.702814 66.263889 90 0 0-29.449507-42.831281l-4.641922-2.937951-245.305887 468.553143a82.384619 77.212705 90 0 0 27.43454 113.091104l117.258034 71.898795 196.584704-52.839114a68.892845 64.567917 90 0 0 46.129227-84.228588z" fill="#FF6366" p-id="6158"></path></svg>