<svg xmlns="http://www.w3.org/2000/svg" viewBox="0 0 48 48"><defs><style>.cls-1{fill:#65b1fc;}.cls-2{fill:#fff;}.cls-3{fill:#256494;}</style></defs><title>30-Adventure games</title><g id="_30-Adventure_games" data-name="30-Adventure games"><path class="cls-1" d="M43,3V6H3V3A2.006,2.006,0,0,1,5,1H41A2.006,2.006,0,0,1,43,3Z"/><polygon class="cls-2" points="43 6 43 39 23 47 3 39 3 6 7 6 7 9 7 36 23 42 39 36 39 9 39 6 43 6"/><polygon class="cls-1" points="39 9 39 36 23 42 7 36 7 9 7 6 39 6 39 9"/><polygon class="cls-2" points="28 26 28 30 18 30 18 26 20 26 26 26 28 26"/><polygon class="cls-2" points="29 13 29 17 26 17 20 17 17 17 17 13 20 13 26 13 29 13"/><polygon class="cls-2" points="30 30 30 33 16 33 16 30 18 30 28 30 30 30"/><polygon class="cls-2" points="26 20 26 26 20 26 20 20 20 17 26 17 26 20"/><rect class="cls-2" x="20" y="10" width="6" height="3"/><path class="cls-3" d="M46,5H44V3a3,3,0,0,0-3-3H5A3,3,0,0,0,2,3V5H0V7H2V39a1,1,0,0,0,.629.929l20,8a1,1,0,0,0,.742,0l20-8A1,1,0,0,0,44,39V7h2ZM4,3A1,1,0,0,1,5,2H41a1,1,0,0,1,1,1V5H4ZM42,38.323l-19,7.6-19-7.6V7H42Z"/><path class="cls-3" d="M6.648,36.937l16,6a1.015,1.015,0,0,0,.7,0l16-6A1,1,0,0,0,40,36V9H38V35.307l-14,5.25V36H22v4.557L8,35.307V9H6V36A1,1,0,0,0,6.648,36.937Z"/><path class="cls-3" d="M17,18H29a1,1,0,0,0,1-1V13a1,1,0,0,0-1-1H27V10a1,1,0,0,0-1-1H20a1,1,0,0,0-1,1v2H17a1,1,0,0,0-1,1v4A1,1,0,0,0,17,18Zm4-7h4v1H21Zm-3,3H28v2H18Z"/><path class="cls-3" d="M30,34h3V32H31V30a1,1,0,0,0-1-1H29V26a1,1,0,0,0-1-1H27V20H25v5H21V20H19v5H18a1,1,0,0,0-1,1v3H16a1,1,0,0,0-1,1v2H13v2H30ZM19,27h8v2H19Zm-2,4H29v1H17Z"/><rect class="cls-3" x="10" y="9" width="2" height="2"/><rect class="cls-3" x="34" y="9" width="2" height="2"/></g></svg>