<svg xmlns="http://www.w3.org/2000/svg" viewBox="0 0 48 48"><defs><style>.cls-1{fill:#65b1fc;}.cls-2{fill:#fff;}.cls-3{fill:#256494;}</style></defs><title>21-Adventure games</title><g id="_21-Adventure_games" data-name="21-Adventure games"><path class="cls-1" d="M43,38v9c-3.8,0-3.8-2-7.6-2s-3.8,2-7.61,2C24,47,24,45,20.2,45s-3.8,2-7.6,2S8.8,45,5,45V11A10,10,0,0,1,15,1H33A10,10,0,0,1,43,11V38Z"/><circle class="cls-2" cx="17" cy="16" r="5"/><circle class="cls-2" cx="31" cy="16" r="5"/><path class="cls-2" d="M35,36H9c-7,0-8-8-8-8H35v8Z"/><rect class="cls-2" x="40" y="30" width="7" height="4"/><polygon class="cls-2" points="37 34 35 34 35 30 37 30 40 30 40 34 37 34"/><path class="cls-3" d="M34,37v1H32v2h2a2,2,0,0,0,2-2V26a2,2,0,0,0-2-2H32v2h2v1H1a1,1,0,0,0-.992,1.124C.392,31.194,2.765,37,9,37ZM2.227,29H34v6H9C4.4,35,2.762,31.013,2.227,29Z"/><rect class="cls-3" x="7" y="31" width="16" height="2"/><path class="cls-3" d="M47,29H41V27H39v2H37v2h2v2H37v2h2v2h2V35h6a1,1,0,0,0,1-1V30A1,1,0,0,0,47,29Zm-1,4H41V31h5Z"/><rect class="cls-3" x="25" y="31" width="2" height="2"/><rect class="cls-3" x="29" y="31" width="2" height="2"/><path class="cls-3" d="M42,45.941a6.261,6.261,0,0,1-2.334-.826,8.72,8.72,0,0,0-8.531,0A6.135,6.135,0,0,1,27.79,46a6.079,6.079,0,0,1-3.323-.884A8.051,8.051,0,0,0,20.2,44a8.063,8.063,0,0,0-4.266,1.115A6.107,6.107,0,0,1,12.6,46a6.107,6.107,0,0,1-3.334-.885A8.072,8.072,0,0,0,6,44.047V39H4v6a1,1,0,0,0,1,1,6.107,6.107,0,0,1,3.334.885A8.063,8.063,0,0,0,12.6,48a8.063,8.063,0,0,0,4.266-1.115A6.107,6.107,0,0,1,20.2,46a6.092,6.092,0,0,1,3.334.886A8.034,8.034,0,0,0,27.79,48a8.082,8.082,0,0,0,4.276-1.116,6.726,6.726,0,0,1,6.668,0A8.066,8.066,0,0,0,43,48a1,1,0,0,0,1-1V38H42Z"/><path class="cls-3" d="M6,11a9.011,9.011,0,0,1,9-9H33a9.011,9.011,0,0,1,9,9V26h2V11A11.013,11.013,0,0,0,33,0H15A11.013,11.013,0,0,0,4,11V25H6Z"/><polygon class="cls-3" points="20.293 11.293 17 14.586 13.707 11.293 12.293 12.707 15.586 16 12.293 19.293 13.707 20.707 17 17.414 20.293 20.707 21.707 19.293 18.414 16 21.707 12.707 20.293 11.293"/><polygon class="cls-3" points="34.293 11.293 31 14.586 27.707 11.293 26.293 12.707 29.586 16 26.293 19.293 27.707 20.707 31 17.414 34.293 20.707 35.707 19.293 32.414 16 35.707 12.707 34.293 11.293"/></g></svg>