<svg xmlns="http://www.w3.org/2000/svg" viewBox="0 0 48 48"><defs><style>.cls-1{fill:#fff;}.cls-2{fill:#65b1fc;}.cls-3{fill:#256494;}</style></defs><title>29-Game Controller</title><g id="_29-Game_Controller" data-name="29-Game Controller"><rect class="cls-1" x="11" y="43" width="4" height="4"/><rect class="cls-1" x="33" y="44" width="4" height="3"/><path class="cls-2" d="M41,16V42a1,1,0,0,1-1,1H30a1,1,0,0,1-1-1V16a.975.975,0,0,1,.77-.95c-.02-.01-.03-.03-.05-.05H40l.23.05A.975.975,0,0,1,41,16Z"/><path class="cls-2" d="M19,16V42a1,1,0,0,1-1,1H8a1,1,0,0,1-1-1V16a.975.975,0,0,1,.77-.95c-.02-.01-.03-.03-.05-.05H18l.23.05A.975.975,0,0,1,19,16Z"/><path class="cls-1" d="M43,9a8,8,0,0,1-2.77,6.05L40,15H29.72A8,8,0,1,1,43,9Z"/><path class="cls-1" d="M21,9a8,8,0,0,1-2.77,6.05L18,15H7.72A8,8,0,1,1,21,9Z"/><circle class="cls-1" cx="35" cy="32" r="2"/><circle class="cls-1" cx="35" cy="24" r="2"/><circle class="cls-1" cx="13" cy="32" r="2"/><circle class="cls-1" cx="13" cy="24" r="2"/><path class="cls-3" d="M13,0A8.993,8.993,0,0,0,6.283,14.98,1.974,1.974,0,0,0,6,16v1H4v2H6V42a2,2,0,0,0,2,2H18a2,2,0,0,0,2-2V19h2V17H20V16a1.969,1.969,0,0,0-.282-1.018A8.995,8.995,0,0,0,13,0Zm5,42H8L7.992,19H18Zm-.121-28H14v2h4v1H7.992v-.975a1,1,0,0,0,.454-1.712c-.022-.024-.046-.047-.065-.064a7.005,7.005,0,1,1,9.5-.249Z"/><path class="cls-3" d="M14,46H12V45H10v2a1,1,0,0,0,1,1h4a1,1,0,0,0,1-1V45H14Z"/><path class="cls-3" d="M42,16a1.969,1.969,0,0,0-.282-1.018,9,9,0,1,0-13.435,0A1.974,1.974,0,0,0,28,16v1H26v2h2V42a2,2,0,0,0,2,2H40a2,2,0,0,0,2-2V19h2V17H42Zm-12.009.025a1,1,0,0,0,.454-1.712c-.022-.024-.046-.047-.065-.064a7.005,7.005,0,1,1,9.5-.249H36v2h4v1H29.992ZM40,42H30l-.008-23H40Z"/><path class="cls-3" d="M36,46H34V45H32v2a1,1,0,0,0,1,1h4a1,1,0,0,0,1-1V45H36Z"/><path class="cls-3" d="M30,9h2a3,3,0,0,1,3-3V4A5.006,5.006,0,0,0,30,9Z"/><path class="cls-3" d="M13,27a3,3,0,1,0-3-3A3,3,0,0,0,13,27Zm0-4a1,1,0,1,1-1,1A1,1,0,0,1,13,23Z"/><path class="cls-3" d="M13,35a3,3,0,1,0-3-3A3,3,0,0,0,13,35Zm0-4a1,1,0,1,1-1,1A1,1,0,0,1,13,31Z"/><path class="cls-3" d="M35,27a3,3,0,1,0-3-3A3,3,0,0,0,35,27Zm0-4a1,1,0,1,1-1,1A1,1,0,0,1,35,23Z"/><path class="cls-3" d="M35,35a3,3,0,1,0-3-3A3,3,0,0,0,35,35Zm0-4a1,1,0,1,1-1,1A1,1,0,0,1,35,31Z"/><rect class="cls-3" x="32" y="38" width="2" height="2"/><rect class="cls-3" x="36" y="38" width="2" height="2"/><path class="cls-3" d="M8,9h2a3,3,0,0,1,3-3V4A5.006,5.006,0,0,0,8,9Z"/><rect class="cls-3" x="10" y="38" width="2" height="2"/><rect class="cls-3" x="14" y="38" width="2" height="2"/></g></svg>