<?xml version="1.0" encoding="UTF-8"?>
<!DOCTYPE svg PUBLIC "-//W3C//DTD SVG 1.1//EN" "http://www.w3.org/Graphics/SVG/1.1/DTD/svg11.dtd">
<!-- Creator: CorelDRAW -->
<svg xmlns="http://www.w3.org/2000/svg" xml:space="preserve" width="6.82666in" height="6.82666in" style="shape-rendering:geometricPrecision; text-rendering:geometricPrecision; image-rendering:optimizeQuality; fill-rule:evenodd; clip-rule:evenodd"
viewBox="0 0 6.82666 6.82666"
 xmlns:xlink="http://www.w3.org/1999/xlink">
 <defs>
  <style type="text/css">
   <![CDATA[
    .fil3 {fill:none}
    .fil2 {fill:#263238;fill-rule:nonzero}
    .fil1 {fill:#E68100;fill-rule:nonzero}
    .fil0 {fill:#FF8F00;fill-rule:nonzero}
   ]]>
  </style>
 </defs>
 <g id="Layer_x0020_1">
  <metadata id="CorelCorpID_0Corel-Layer"/>
  <g id="_275113120">
   <polygon id="_275113960" class="fil0" points="2.11093,3.64905 2.40123,4.46715 3.26825,4.49005 3.42244,4.49413 3.3002,4.58805 2.61191,5.1169 2.85819,5.94905 2.902,6.09704 2.77478,6.00973 2.05893,5.51842 1.34372,6.00973 1.21656,6.09709 1.26031,5.94905 1.50634,5.11646 0.818303,4.58826 0.695772,4.4942 0.850256,4.49005 1.71779,4.46677 2.00757,3.64905 2.05922,3.50331 "/>
   <polygon id="_275113504" class="fil1" points="2.11093,3.64905 2.40123,4.46715 3.26825,4.49005 3.42244,4.49413 3.3002,4.58805 2.61191,5.1169 2.85819,5.94905 2.902,6.09704 2.77478,6.00973 2.05911,5.51854 2.05911,3.50363 2.05922,3.50331 "/>
  </g>
  <g id="_275113216">
   <polygon id="_275112808" class="fil0" points="1.61577,1.84809 1.80457,2.38015 2.36845,2.39504 2.46873,2.3977 2.38923,2.45878 1.94159,2.80273 2.10176,3.34393 2.13025,3.44018 2.04751,3.3834 1.58195,3.06387 1.1168,3.3834 1.0341,3.44021 1.06255,3.34393 1.22256,2.80244 0.775083,2.45892 0.695394,2.39774 0.795862,2.39504 1.36008,2.37991 1.54855,1.84809 1.58213,1.7533 "/>
   <polygon id="_275112736" class="fil1" points="1.61577,1.84809 1.80457,2.38015 2.36845,2.39504 2.46873,2.39769 2.38923,2.45878 1.94159,2.80273 2.10176,3.34393 2.13025,3.44018 2.04751,3.3834 1.58206,3.06394 1.58206,1.7535 1.58213,1.7533 "/>
  </g>
  <g id="_275113360">
   <polygon id="_275112832" class="fil0" points="4.23386,4.5286 4.42266,5.06066 4.98654,5.07556 5.08682,5.07821 5.00732,5.13929 4.55968,5.48324 4.71985,6.02444 4.74834,6.12069 4.6656,6.06391 4.20004,5.74438 3.73489,6.06391 3.65219,6.12072 3.68064,6.02444 3.84065,5.48296 3.39317,5.13943 3.31348,5.07826 3.41395,5.07556 3.97817,5.06042 4.16664,4.5286 4.20022,4.43381 "/>
   <polygon id="_275113192" class="fil1" points="4.23386,4.5286 4.42266,5.06066 4.98654,5.07556 5.08682,5.0782 5.00732,5.13929 4.55968,5.48324 4.71985,6.02444 4.74834,6.12069 4.6656,6.06391 4.20015,5.74446 4.20015,4.43402 4.20022,4.43381 "/>
  </g>
  <path class="fil2" d="M2.40036 4.20958c0.392815,-0.619996 0.888583,-1.08921 1.46034,-1.40878 0.587579,-0.328409 1.25426,-0.497555 1.97082,-0.508783l0.00333071 0.212504c-0.681232,0.0106732 -1.31411,0.170957 -1.87082,0.482114 -0.54028,0.301972 -1.00996,0.747264 -1.38367,1.33711l-0.18 -0.114165z"/>
  <path class="fil2" d="M2.72036 4.31624c0.399449,-0.630469 0.824276,-1.03707 1.32874,-1.29009 0.502205,-0.251882 1.07791,-0.348039 1.78242,-0.359079l0.00333071 0.212504c-0.673591,0.0105551 -1.2205,0.100717 -1.69075,0.336575 -0.468008,0.234736 -0.865555,0.617354 -1.24374,1.21426l-0.18 -0.114165z"/>
  <path class="fil2" d="M1.86703 2.18291c0.4035,-0.636866 0.840358,-0.964256 1.35722,-1.13593 0.508528,-0.168902 1.08459,-0.182303 1.78257,-0.19324l0.00333071 0.212504c-0.680122,0.0106575 -1.24098,0.023563 -1.71923,0.182406 -0.469925,0.156083 -0.869748,0.457902 -1.24389,1.04842l-0.18 -0.114165z"/>
 </g>
 <rect class="fil3" width="6.82666" height="6.82666"/>
</svg>
