<svg xmlns="http://www.w3.org/2000/svg" viewBox="0 0 48 48"><defs><style>.cls-1{fill:#fff;}.cls-2{fill:#65b1fc;}.cls-3{fill:#256494;}</style></defs><title>19-Monster</title><g id="_19-Monster" data-name="19-Monster"><g id="_Group_" data-name="&lt;Group&gt;"><circle class="cls-1" cx="31" cy="16" r="4"/><circle class="cls-1" cx="17" cy="16" r="4"/><path class="cls-2" d="M43,11V47c-3.8,0-3.8-2-7.6-2s-3.8,2-7.61,2C24,47,24,45,20.2,45s-3.8,2-7.6,2S8.8,45,5,45V11A10,10,0,0,1,15,1H33A10,10,0,0,1,43,11Zm-8,5a4,4,0,1,0-4,4A4,4,0,0,0,35,16ZM21,16a4,4,0,1,0-4,4A4,4,0,0,0,21,16Z"/><path class="cls-3" d="M43,48a8.056,8.056,0,0,1-4.266-1.115,6.728,6.728,0,0,0-6.669,0A8.08,8.08,0,0,1,27.79,48a8.031,8.031,0,0,1-4.256-1.114A6.1,6.1,0,0,0,20.2,46a6.112,6.112,0,0,0-3.334.885A8.053,8.053,0,0,1,12.6,48a8.05,8.05,0,0,1-4.266-1.115A6.109,6.109,0,0,0,5,46a1,1,0,0,1-1-1V11A11.013,11.013,0,0,1,15,0H33A11.013,11.013,0,0,1,44,11V47A1,1,0,0,1,43,48ZM20.2,44a8.051,8.051,0,0,1,4.267,1.116A6.085,6.085,0,0,0,27.79,46a6.14,6.14,0,0,0,3.345-.886,8.72,8.72,0,0,1,8.531,0A6.261,6.261,0,0,0,42,45.941V11a9.01,9.01,0,0,0-9-9H15a9.01,9.01,0,0,0-9,9V44.047a8.057,8.057,0,0,1,3.266,1.068A6.107,6.107,0,0,0,12.6,46a6.113,6.113,0,0,0,3.335-.885A8.052,8.052,0,0,1,20.2,44Z"/><path class="cls-3" d="M17,21a5,5,0,1,1,5-5A5.006,5.006,0,0,1,17,21Zm0-8a3,3,0,1,0,3,3A3,3,0,0,0,17,13Z"/><path class="cls-3" d="M31,21a5,5,0,1,1,5-5A5.006,5.006,0,0,1,31,21Zm0-8a3,3,0,1,0,3,3A3,3,0,0,0,31,13Z"/><rect class="cls-3" x="23" y="22" width="2" height="2"/><path class="cls-3" d="M33,32a3.218,3.218,0,0,1-2.543-1.331C30,30.164,29.819,30,29.4,30s-.61.164-1.069.672a3.095,3.095,0,0,1-5.084,0c-.455-.5-.638-.669-1.057-.669s-.593.163-1.044.666a3.1,3.1,0,0,1-5.089,0C15.6,30.164,15.419,30,15,30V28a3.218,3.218,0,0,1,2.543,1.331c.455.5.638.669,1.057.669s.6-.164,1.057-.67a3.086,3.086,0,0,1,5.076,0c.455.5.638.669,1.057.669s.6-.163,1.057-.668a3.1,3.1,0,0,1,5.1,0c.455.5.638.669,1.057.669Z"/></g></g></svg>