<svg xmlns="http://www.w3.org/2000/svg" viewBox="0 0 48 48"><defs><style>.cls-1{fill:#fff;}.cls-2{fill:#65b1fc;}.cls-3{fill:#256494;}</style></defs><title>24-Game Controller</title><g id="_24-Game_Controller" data-name="24-Game Controller"><g id="_Group_" data-name="&lt;Group&gt;"><circle class="cls-1" cx="41" cy="33" r="2"/><rect class="cls-1" x="5" y="30" width="14" height="7"/><circle class="cls-1" cx="33" cy="33" r="2"/><circle class="cls-1" cx="25" cy="33" r="2"/><path class="cls-1" d="M36,23h6a1,1,0,0,1,1,1v2H35V24A1,1,0,0,1,36,23Z"/><path class="cls-1" d="M24,23h6a1,1,0,0,1,1,1v2H23V24A1,1,0,0,1,24,23Z"/><polygon class="cls-1" points="17 23 18 26 6 26 7 23 10 23 14 23 17 23"/><polygon class="cls-1" points="44 40 44 44 4 44 4 40 41 40 44 40"/><path class="cls-2" d="M5,37H19V30H5ZM45,26a2.006,2.006,0,0,1,2,2V38a2.006,2.006,0,0,1-2,2H3a2.006,2.006,0,0,1-2-2V28a2.006,2.006,0,0,1,2-2H45Zm-2,7a2,2,0,1,0-2,2A2.006,2.006,0,0,0,43,33Zm-8,0a2,2,0,1,0-2,2A2.006,2.006,0,0,0,35,33Zm-8,0a2,2,0,1,0-2,2A2.006,2.006,0,0,0,27,33Z"/><path class="cls-2" d="M17,9a5,5,0,0,1-3,4.58V23H10V13.58A5,5,0,1,1,17,9Z"/><path class="cls-3" d="M45,25H44V24a2,2,0,0,0-2-2H36a2,2,0,0,0-2,2v1H32V24a2,2,0,0,0-2-2H24a2,2,0,0,0-2,2v1H18.721l-.772-2.316A1,1,0,0,0,17,22H7a1,1,0,0,0-.949.684L5.279,25H3a3,3,0,0,0-3,3V38a3,3,0,0,0,3,3v3a1,1,0,0,0,1,1H44a1,1,0,0,0,1-1V41a3,3,0,0,0,3-3V28A3,3,0,0,0,45,25Zm-9-1h6v1H36ZM24,24h6v1H24ZM7.721,24h8.558l.334,1H7.387ZM46,38a1,1,0,0,1-1,1H44a1,1,0,0,0-1,1v3H5V41H41V39H3a1,1,0,0,1-1-1V28a1,1,0,0,1,1-1H45a1,1,0,0,1,1,1Z"/><path class="cls-3" d="M19,29H5a1,1,0,0,0-1,1v7H6V31H18v6h2V30A1,1,0,0,0,19,29Z"/><path class="cls-3" d="M25,30a3,3,0,1,0,3,3A3,3,0,0,0,25,30Zm0,4a1,1,0,1,1,1-1A1,1,0,0,1,25,34Z"/><path class="cls-3" d="M33,30a3,3,0,1,0,3,3A3,3,0,0,0,33,30Zm0,4a1,1,0,1,1,1-1A1,1,0,0,1,33,34Z"/><path class="cls-3" d="M41,30a3,3,0,1,0,3,3A3,3,0,0,0,41,30Zm0,4a1,1,0,1,1,1-1A1,1,0,0,1,41,34Z"/><path class="cls-3" d="M9,14.193V21h2V13.58a1,1,0,0,0-.6-.916,4,4,0,1,1,3.2,0,1,1,0,0,0-.6.916V21h2V14.193a6,6,0,1,0-6,0Z"/><rect class="cls-3" x="9" y="33" width="2" height="2"/><rect class="cls-3" x="13" y="33" width="2" height="2"/></g></g></svg>