<svg xmlns="http://www.w3.org/2000/svg" viewBox="0 0 48 48"><defs><style>.cls-1{fill:#65b1fc;}.cls-2{fill:#fff;}.cls-3{fill:#256494;}</style></defs><title>11-Puzzle Game</title><g id="_11-Puzzle_Game" data-name="11-Puzzle Game"><rect class="cls-1" x="1" y="1" width="46" height="46" rx="4" ry="4"/><circle class="cls-2" cx="38" cy="10" r="3"/><circle class="cls-2" cx="24" cy="24" r="3"/><circle class="cls-2" cx="10" cy="38" r="3"/><rect class="cls-2" x="39" y="41" width="4" height="5"/><polygon class="cls-2" points="43 20 43 41 39 41 39 20 41 17 43 20"/><path class="cls-3" d="M43,0H5A5.006,5.006,0,0,0,0,5V43a5.006,5.006,0,0,0,5,5H36V46H5a3,3,0,0,1-3-3V5A3,3,0,0,1,5,2H43a3,3,0,0,1,3,3V23h2V5A5.006,5.006,0,0,0,43,0Z"/><path class="cls-3" d="M32,5H30V16H18V5H16V16H5v2H16V30H5v2H16V43h2V32H30V43h2V32h4V30H32V18h5V16H32ZM30,30H18V18H30Z"/><path class="cls-3" d="M38,6a4,4,0,0,0,0,8V12a2,2,0,1,1,2-2h2A4,4,0,0,0,38,6Z"/><polygon class="cls-3" points="6.707 13.707 9.5 10.914 12.293 13.707 13.707 12.293 10.914 9.5 13.707 6.707 12.293 5.293 9.5 8.086 6.707 5.293 5.293 6.707 8.086 9.5 5.293 12.293 6.707 13.707"/><polygon class="cls-3" points="21.707 14.707 24.5 11.914 27.293 14.707 28.707 13.293 25.914 10.5 28.707 7.707 27.293 6.293 24.5 9.086 21.707 6.293 20.293 7.707 23.086 10.5 20.293 13.293 21.707 14.707"/><path class="cls-3" d="M6,38a4,4,0,1,0,4-4A4,4,0,0,0,6,38Zm6,0a2,2,0,1,1-2-2A2,2,0,0,1,12,38Z"/><path class="cls-3" d="M24,28a4,4,0,1,0-4-4A4,4,0,0,0,24,28Zm0-6a2,2,0,1,1-2,2A2,2,0,0,1,24,22Z"/><path class="cls-3" d="M46,43H44V20a1.006,1.006,0,0,0-.168-.555l-2-3a1.039,1.039,0,0,0-1.664,0l-2,3A1.006,1.006,0,0,0,38,20V46a1,1,0,0,0,1,1h4a1,1,0,0,0,1-1V45h3a1,1,0,0,0,1-1V32H46ZM41,18.8l1,1.5V40H40V20.3ZM40,45V42h2v3Z"/><rect class="cls-3" x="40" y="12" width="2" height="2"/></g></svg>