<svg xmlns="http://www.w3.org/2000/svg" viewBox="0 0 48 48"><defs><style>.cls-1{fill:#65b1fc;}.cls-2{fill:#fff;}.cls-3{fill:#256494;}</style></defs><title>25-Game Controller</title><g id="_25-Game_Controller" data-name="25-Game Controller"><g id="_Group_" data-name="&lt;Group&gt;"><circle class="cls-1" cx="24" cy="22" r="4"/><circle class="cls-1" cx="35" cy="22" r="2"/><circle class="cls-1" cx="13" cy="22" r="2"/><path class="cls-2" d="M39,28h2.54A17.975,17.975,0,0,1,30,40.97V30a1.959,1.959,0,0,1,2-2Z"/><path class="cls-2" d="M18,30V40.97A17.975,17.975,0,0,1,6.46,28H16A1.959,1.959,0,0,1,18,30Z"/><path class="cls-2" d="M40.1,15.95,40,16H31V14h-.09a1.505,1.505,0,0,0-1.41-1h-11a1.505,1.505,0,0,0-1.41,1H17v2H8l-.1-.05a18,18,0,0,1,32.2,0Z"/><path class="cls-2" d="M18,40.97V30a1.959,1.959,0,0,0-2-2H6.46A17.1,17.1,0,0,1,6,24a17.943,17.943,0,0,1,1.9-8.05L8,16h9V14h.09a1.505,1.505,0,0,1,1.41-1h11a1.505,1.505,0,0,1,1.41,1H31v2h9l.1-.05A17.943,17.943,0,0,1,42,24a17.1,17.1,0,0,1-.46,4H32a1.959,1.959,0,0,0-2,2V40.97a17.991,17.991,0,0,1-12,0ZM37,22a2,2,0,1,0-2,2A2.006,2.006,0,0,0,37,22Zm-9,0a4,4,0,1,0-4,4A4,4,0,0,0,28,22ZM15,22a2,2,0,1,0-2,2A2.006,2.006,0,0,0,15,22Z"/><path class="cls-1" d="M18,40.97A17.988,17.988,0,0,0,41.54,28,17.1,17.1,0,0,0,42,24,18,18,0,1,0,6,24a17.1,17.1,0,0,0,.46,4A17.975,17.975,0,0,0,18,40.97ZM24,1A23,23,0,1,1,1,24,23,23,0,0,1,24,1Z"/><path class="cls-3" d="M24,0A24,24,0,1,0,48,24,24.028,24.028,0,0,0,24,0Zm0,46A22,22,0,1,1,46,24,22.025,22.025,0,0,1,24,46Z"/><path class="cls-3" d="M41,15.5A19,19,0,0,0,5,24a18.127,18.127,0,0,0,.484,4.22A19.07,19.07,0,0,0,17.665,41.912a18.99,18.99,0,0,0,12.668,0,19.063,19.063,0,0,0,12.179-13.68A18.1,18.1,0,0,0,43,24,18.845,18.845,0,0,0,41,15.5ZM24,7a16.892,16.892,0,0,1,14.414,8H32V14a.948.948,0,0,0-.294-.667A2.511,2.511,0,0,0,29.5,12h-11a2.509,2.509,0,0,0-2.157,1.246A1,1,0,0,0,16,14v1H9.586A16.892,16.892,0,0,1,24,7ZM40.564,27.78A17.06,17.06,0,0,1,31,39.482V30a.915.915,0,0,1,1-1h7V27H32a2.916,2.916,0,0,0-3,3V40.232a17.066,17.066,0,0,1-10,0V30a2.916,2.916,0,0,0-3-3H9v2h6.988A.918.918,0,0,1,17,30v9.482A17.071,17.071,0,0,1,7.432,27.767,16.193,16.193,0,0,1,7,24a16.819,16.819,0,0,1,1.535-7H17a1,1,0,0,0,1-1V14.414c.011-.024.021-.048.03-.074A.509.509,0,0,1,18.5,14h11a.509.509,0,0,1,.47.34.776.776,0,0,0,.03.072V16a1,1,0,0,0,1,1h8.465A16.819,16.819,0,0,1,41,24,16.171,16.171,0,0,1,40.564,27.78Z"/><path class="cls-3" d="M24,17a5,5,0,1,0,5,5A5.006,5.006,0,0,0,24,17Zm0,8a3,3,0,1,1,3-3A3,3,0,0,1,24,25Z"/><rect class="cls-3" x="23" y="21" width="2" height="2"/><polygon class="cls-3" points="21 32 23 32 23 38 25 38 25 32 27 32 27 30 21 30 21 32"/><path class="cls-3" d="M35,19a3,3,0,1,0,3,3A3,3,0,0,0,35,19Zm0,4a1,1,0,1,1,1-1A1,1,0,0,1,35,23Z"/><path class="cls-3" d="M13,19a3,3,0,1,0,3,3A3,3,0,0,0,13,19Zm0,4a1,1,0,1,1,1-1A1,1,0,0,1,13,23Z"/></g></g></svg>