<svg xmlns="http://www.w3.org/2000/svg" viewBox="0 0 48 48"><defs><style>.cls-1{fill:#fff;}.cls-2{fill:#65b1fc;}.cls-3{fill:#256494;}</style></defs><title>27-Lego</title><g id="_27-Lego" data-name="27-Lego"><g id="_Group_" data-name="&lt;Group&gt;"><path class="cls-1" d="M47,29v9a2.006,2.006,0,0,1-2,2H3a2.006,2.006,0,0,1-2-2V29H47Z"/><path class="cls-1" d="M38,13h3v3H31V13h3V9a1,1,0,0,1,1-1h2a1,1,0,0,1,1,1Z"/><path class="cls-1" d="M14,13h3v3H7V13h3V9a1,1,0,0,1,1-1h2a1,1,0,0,1,1,1Z"/><path class="cls-2" d="M47,26v3H1V18a2.006,2.006,0,0,1,2-2H45a2.006,2.006,0,0,1,2,2Z"/><path class="cls-3" d="M45,15H42V13a1,1,0,0,0-1-1H39V9a2,2,0,0,0-2-2H35a2,2,0,0,0-2,2v3H31a1,1,0,0,0-1,1v2H18V13a1,1,0,0,0-1-1H15V9a2,2,0,0,0-2-2H11A2,2,0,0,0,9,9v3H7a1,1,0,0,0-1,1v2H3a3,3,0,0,0-3,3v8H2V18a1,1,0,0,1,1-1h9V15H8V14h2a1,1,0,0,0,1-1V9h2v4a1,1,0,0,0,1,1h2v2a1,1,0,0,0,1,1H36V15H32V14h2a1,1,0,0,0,1-1V9h2v4a1,1,0,0,0,1,1h2v2a1,1,0,0,0,1,1h4a1,1,0,0,1,1,1v8h2V18A3,3,0,0,0,45,15Z"/><path class="cls-3" d="M46,38a1,1,0,0,1-1,1H3a1,1,0,0,1-1-1V30H44V28H1a1,1,0,0,0-1,1v9a3,3,0,0,0,3,3H45a3,3,0,0,0,3-3V29H46Z"/><path class="cls-3" d="M4,33v2a1.959,1.959,0,0,0,2,2H8V35H6V33Z"/></g></g></svg>