<?xml version="1.0" encoding="utf-8"?>
<!-- Generator: Adobe Illustrator 19.2.0, SVG Export Plug-In . SVG Version: 6.00 Build 0)  -->
<svg version="1.1" id="Layer_1" xmlns="http://www.w3.org/2000/svg" xmlns:xlink="http://www.w3.org/1999/xlink" x="0px" y="0px"
	 viewBox="0 0 500 500" style="enable-background:new 0 0 500 500;" xml:space="preserve">
<style type="text/css">
	.st0{fill:#ECF4F7;}
	.st1{fill:#1C1D21;}
	.st2{fill:#83E1E5;}
	.st3{fill:#AAB1BA;}
	.st4{fill:none;stroke:#1C1D21;stroke-width:10;stroke-linecap:round;stroke-linejoin:round;stroke-miterlimit:10;}
	.st5{fill:#FDDF7F;}
	.st6{fill:#FFFFFF;}
</style>
<g>
	<g>
		<g>
			<path class="st0" d="M350,495H150v-98.2c0-11,9-20,20-20H330c11,0,20,9,20,20V495z"/>
		</g>
	</g>
	<g>
		<g>
			<path class="st0" d="M150,495H14.4v-39.1c0-11,9-20,20-20H130c11,0,20,9,20,20V495z"/>
		</g>
	</g>
	<g>
		<g>
			<path class="st0" d="M485.6,495H350v-39.1c0-11,9-20,20-20h95.6c11,0,20,9,20,20V495z"/>
		</g>
	</g>
	<g>
		<g>
			<path class="st5" d="M180.7,376.8c0-38.3,31-69.3,69.3-69.3s69.3,31,69.3,69.3H180.7z"/>
		</g>
	</g>
	<g>
		<g>
			<path class="st5" d="M153.4,15.4c1.3,53.3-1.4,126.1,1.3,179.6c5.4,28.1,22.7,54.4,49,68c1.8,0.9,4.5,0.9,6.4,2.7
				c0.9,0.9,2.7,0.9,3.6,0.9c0.9,0.9,1.8,0.9,2.7,1.8c14.5,5.4,30.8,7.3,46.3,5.4c23.6-3.6,43.6-13.6,59.9-31.8
				c12.7-15.4,22.7-33.6,22.7-53.5c1.8-51.7,0.9-121.8,1.3-173.3"/>
		</g>
	</g>
	<g>
		<g>
			<path class="st1" d="M250,279.4c-56,0-101.6-45.6-101.6-101.6V26.9c0-0.1,0-0.1,0-0.2V16.6c0-3.6-2.9-6.6-6.6-6.6
				c-3.6,0-6.6,2.9-6.6,6.6c0,2.8-2.2,5-5,5c-2.8,0-5-2.2-5-5c0-9.1,7.4-16.6,16.6-16.6c9.1,0,16.6,7.4,16.6,16.6v10
				c0,0.1,0,0.1,0,0.2v151.1c0,50.5,41.1,91.6,91.6,91.6s91.6-41.1,91.6-91.6V26.7c0-0.1,0-0.1,0-0.2v-10C341.6,7.4,349,0,358.2,0
				c9.1,0,16.6,7.4,16.6,16.6c0,2.8-2.2,5-5,5c-2.8,0-5-2.2-5-5c0-3.6-2.9-6.6-6.6-6.6c-3.6,0-6.6,2.9-6.6,6.6v10.2
				c0,0.1,0,0.1,0,0.2v150.9C351.6,233.8,306,279.4,250,279.4z"/>
		</g>
	</g>
	<g>
		<g>
			<path class="st1" d="M319.3,381.8H180.7c-2.8,0-5-2.2-5-5c0-41,33.3-74.3,74.3-74.3s74.3,33.3,74.3,74.3
				C324.3,379.5,322,381.8,319.3,381.8z M185.9,371.8h128.2c-2.6-33.1-30.3-59.3-64.1-59.3S188.5,338.7,185.9,371.8z"/>
		</g>
	</g>
	<g>
		<g>
			<path class="st1" d="M250,312.6c-2.8,0-5-2.2-5-5v-33.2c0-2.8,2.2-5,5-5s5,2.2,5,5v33.2C255,310.3,252.8,312.6,250,312.6z"/>
		</g>
	</g>
	<g>
		<g>
			<g>
				<g>
					<path class="st5" d="M129.6,186.9c-36.2,0-65.6-29.4-65.6-65.6s29.4-65.6,65.6-65.6h23.8v26.8h-23.8
						c-21.4,0-38.8,17.4-38.8,38.8c0,21.4,17.4,38.8,38.8,38.8h23.8v26.8H129.6z"/>
				</g>
			</g>
		</g>
		<g>
			<g>
				<g>
					<path class="st1" d="M153.4,191.9h-23.8c-38.9,0-70.6-31.7-70.6-70.6c0-38.9,31.7-70.6,70.6-70.6h23.8c2.8,0,5,2.2,5,5v26.8
						c0,2.8-2.2,5-5,5h-23.8c-18.6,0-33.8,15.2-33.8,33.8S111,155,129.6,155h23.8c2.8,0,5,2.2,5,5v26.8
						C158.4,189.6,156.2,191.9,153.4,191.9z M129.6,60.7C96.2,60.7,69,87.9,69,121.3c0,33.4,27.2,60.6,60.6,60.6h18.8V165h-18.8
						c-24.1,0-43.8-19.6-43.8-43.8s19.6-43.8,43.8-43.8h18.8V60.7H129.6z"/>
				</g>
			</g>
		</g>
	</g>
	<g>
		<g>
			<g>
				<g>
					<path class="st5" d="M370.4,186.9c36.2,0,65.6-29.4,65.6-65.6s-29.4-65.6-65.6-65.6h-23.8v26.8h23.8
						c21.4,0,38.8,17.4,38.8,38.8c0,21.4-17.4,38.8-38.8,38.8h-23.8v26.8H370.4z"/>
				</g>
			</g>
		</g>
		<g>
			<g>
				<g>
					<path class="st1" d="M370.4,191.9h-23.8c-2.8,0-5-2.2-5-5V160c0-2.8,2.2-5,5-5h23.8c18.6,0,33.8-15.1,33.8-33.8
						S389,87.5,370.4,87.5h-23.8c-2.8,0-5-2.2-5-5V55.7c0-2.8,2.2-5,5-5h23.8c38.9,0,70.6,31.7,70.6,70.6
						C441,160.2,409.3,191.9,370.4,191.9z M351.6,181.9h18.8c33.4,0,60.6-27.2,60.6-60.6c0-33.4-27.2-60.6-60.6-60.6h-18.8v16.8
						h18.8c24.1,0,43.8,19.6,43.8,43.8S394.5,165,370.4,165h-18.8V181.9z"/>
				</g>
			</g>
		</g>
	</g>
	<g>
		<g>
			<path class="st1" d="M185.6,20.4h-8.5c-2.8,0-5-2.2-5-5s2.2-5,5-5h8.5c2.8,0,5,2.2,5,5S188.3,20.4,185.6,20.4z"/>
		</g>
	</g>
	<g>
		<g>
			<path class="st1" d="M236.4,20.4h-30.8c-2.8,0-5-2.2-5-5s2.2-5,5-5h30.8c2.8,0,5,2.2,5,5S239.2,20.4,236.4,20.4z"/>
		</g>
	</g>
	<g>
		<g>
			<path class="st1" d="M346.6,20.4h-85.2c-2.8,0-5-2.2-5-5s2.2-5,5-5h85.2c2.8,0,5,2.2,5,5S349.4,20.4,346.6,20.4z"/>
		</g>
	</g>
	<g>
		<g>
			<path class="st6" d="M295.7,125.2l-25-3.6c-1.9-0.3-3.5-1.4-4.3-3.1l-11.2-22.7c-2.1-4.3-8.2-4.3-10.3,0l-11.2,22.7
				c-0.8,1.7-2.5,2.9-4.3,3.1l-25,3.6c-4.7,0.7-6.6,6.5-3.2,9.8l18.1,17.7c1.4,1.3,2,3.2,1.7,5.1l-4.3,24.9
				c-0.8,4.7,4.1,8.3,8.4,6.1l22.4-11.8c1.7-0.9,3.7-0.9,5.4,0l22.4,11.8c4.2,2.2,9.2-1.4,8.4-6.1l-4.3-24.9
				c-0.3-1.9,0.3-3.8,1.7-5.1l18.1-17.7C302.3,131.6,300.4,125.8,295.7,125.2z"/>
		</g>
	</g>
	<g>
		<g>
			<path class="st1" d="M222.2,194.4c-2.2,0-4.4-0.7-6.3-2.1c-3.3-2.4-5-6.5-4.3-10.5l4.3-24.9c0-0.2,0-0.5-0.2-0.7l-18.1-17.7
				c-3-2.9-4-7.1-2.7-11c1.3-3.9,4.6-6.7,8.7-7.3l25-3.6c0.2,0,0.5-0.2,0.6-0.4l11.2-22.7c1.8-3.7,5.5-6,9.6-6c4.1,0,7.8,2.3,9.6,6
				l11.2,22.7c0.1,0.2,0.3,0.4,0.6,0.4l25,3.6h0c4.1,0.6,7.4,3.4,8.7,7.3c1.3,3.9,0.2,8.1-2.7,11l-18.1,17.7
				c-0.2,0.2-0.3,0.4-0.2,0.7l4.3,24.9c0.7,4.1-0.9,8.1-4.3,10.5c-3.3,2.4-7.7,2.7-11.3,0.8l-22.4-11.8c-0.2-0.1-0.5-0.1-0.7,0
				l-22.4,11.8C225.7,194,224,194.4,222.2,194.4z M250,171.3c1.7,0,3.4,0.4,5,1.2l22.4,11.8c0.1,0.1,0.4,0.2,0.8-0.1
				c0.4-0.3,0.3-0.6,0.3-0.7l-4.3-24.9c-0.6-3.5,0.6-7,3.1-9.5l18.1-17.7c0.1-0.1,0.3-0.3,0.2-0.8c-0.1-0.4-0.5-0.5-0.6-0.5
				c0,0,0,0,0,0l-25-3.6c-3.5-0.5-6.5-2.7-8.1-5.9l-11.2-22.7c-0.1-0.1-0.2-0.4-0.7-0.4c-0.5,0-0.6,0.3-0.7,0.4l-11.2,22.7
				c-1.6,3.2-4.6,5.4-8.1,5.9l-25,3.6c-0.1,0-0.5,0.1-0.6,0.5c-0.1,0.4,0.1,0.7,0.2,0.8l18.1,17.7c2.5,2.5,3.7,6,3.1,9.5l-4.3,24.9
				c0,0.1-0.1,0.5,0.3,0.7c0.4,0.3,0.7,0.1,0.8,0.1l22.4-11.8C246.6,171.7,248.3,171.3,250,171.3z"/>
		</g>
	</g>
	<g>
		<g>
			<path class="st1" d="M350,500H150c-2.8,0-5-2.2-5-5v-98.2c0-13.8,11.2-25,25-25H330c13.8,0,25,11.2,25,25V495
				C355,497.8,352.7,500,350,500z M155,490H345v-93.2c0-8.3-6.7-15-15-15H170c-8.3,0-15,6.7-15,15V490z"/>
		</g>
	</g>
	<g>
		<g>
			<path class="st1" d="M150,500H14.4c-2.8,0-5-2.2-5-5v-39.1c0-13.8,11.2-25,25-25H130c13.8,0,25,11.2,25,25V495
				C155,497.8,152.8,500,150,500z M19.4,490H145v-34.1c0-8.3-6.7-15-15-15H34.4c-8.3,0-15,6.7-15,15V490z"/>
		</g>
	</g>
	<g>
		<g>
			<path class="st1" d="M485.6,500H350c-2.8,0-5-2.2-5-5v-39.1c0-13.8,11.2-25,25-25h95.6c13.8,0,25,11.2,25,25V495
				C490.6,497.8,488.4,500,485.6,500z M355,490h125.6v-34.1c0-8.3-6.7-15-15-15H370c-8.3,0-15,6.7-15,15V490z"/>
		</g>
	</g>
</g>
</svg>
