<?xml version="1.0" encoding="utf-8"?>
<!-- Generator: Adobe Illustrator 19.2.0, SVG Export Plug-In . SVG Version: 6.00 Build 0)  -->
<svg version="1.1" id="Layer_1" xmlns="http://www.w3.org/2000/svg" xmlns:xlink="http://www.w3.org/1999/xlink" x="0px" y="0px"
	 viewBox="0 0 500 500" style="enable-background:new 0 0 500 500;" xml:space="preserve">
<style type="text/css">
	.st0{fill:#ECF4F7;}
	.st1{fill:#1C1D21;}
	.st2{fill:#83E1E5;}
	.st3{fill:#AAB1BA;}
	.st4{fill:none;stroke:#1C1D21;stroke-width:10;stroke-linecap:round;stroke-linejoin:round;stroke-miterlimit:10;}
	.st5{fill:#FDDF7F;}
	.st6{fill:#FFFFFF;}
</style>
<g>
	<g>
		<g>
			<g>
				<path class="st1" d="M32.5,142.1c-0.8,0-1.6-0.2-2.3-0.6c-2.5-1.3-3.4-4.3-2.1-6.7c23.4-44.9,59.3-81.3,104-105.3
					c2.4-1.3,5.5-0.4,6.8,2c1.3,2.4,0.4,5.5-2,6.8C93.9,61.3,59.4,96.3,37,139.4C36.1,141.1,34.3,142.1,32.5,142.1z"/>
			</g>
		</g>
		<g>
			<g>
				<path class="st1" d="M250,500c-66.8,0-129.6-26-176.8-73.2C26,379.6,0,316.8,0,250c0-20.4,2.5-40.7,7.3-60.3
					c0.7-2.7,3.4-4.3,6.1-3.7c2.7,0.7,4.3,3.4,3.7,6.1c-4.7,18.8-7,38.3-7,57.9c0,132.3,107.7,240,240,240s240-107.7,240-240
					c0-126.3-98.6-231.5-224.5-239.5c-5.1-0.3-10.3-0.5-15.5-0.5c-2.8,0-5-2.2-5-5s2.2-5,5-5c5.4,0,10.8,0.2,16.1,0.5
					c63.3,4,122.3,31.8,165.9,78.1c43.8,46.5,68,107.4,68,171.4c0,66.8-26,129.6-73.2,176.8C379.6,474,316.8,500,250,500z"/>
			</g>
		</g>
		<g>
			<g>
				<path class="st1" d="M199.5,15.2c-2.3,0-4.4-1.6-4.9-4c-0.6-2.7,1.2-5.4,3.9-5.9c8.1-1.7,16.4-3,24.6-3.9
					c2.7-0.3,5.2,1.7,5.5,4.4c0.3,2.7-1.7,5.2-4.4,5.5c-7.9,0.8-15.9,2.1-23.7,3.7C200.1,15.2,199.8,15.2,199.5,15.2z"/>
			</g>
		</g>
	</g>
	<g>
		<g>
			<g>
				<path class="st2" d="M407.1,373.6C432,342,447.6,302.7,449.7,260h-88.7c-0.6,25.5-3.3,50.2-7.9,73.3
					C372.9,343.8,391.2,357.3,407.1,373.6z"/>
			</g>
		</g>
		<g>
			<g>
				<path class="st2" d="M338,429.6c1.1-0.6,2.3-1.1,3.4-1.7c1-0.5,2-1.1,3-1.6c0.3-0.2,0.7-0.4,1-0.5c18-9.8,34.4-22.4,48.5-37
					c-13.5-14-28.9-25.8-45.5-35.2c-4.7,17.9-10.7,34.5-17.9,49.3c-7.6,15.8-16.3,29.1-25.8,39.5c11.2-3.2,22-7.3,32.5-12.4
					C337.5,429.8,337.7,429.7,338,429.6z"/>
			</g>
		</g>
		<g>
			<g>
				<path class="st2" d="M260,448.7c29.9-7.5,55.9-48.3,70-104.4c-22-9.6-45.7-15.3-70-16.5V448.7z"/>
			</g>
		</g>
		<g>
			<g>
				<path class="st2" d="M260,240h81.1c-0.5-22.6-2.9-44.3-6.7-64.4c-23.4,9.7-48.6,15.4-74.4,16.6V240z"/>
			</g>
		</g>
		<g>
			<g>
				<path class="st2" d="M260,51.3v120.9c24.3-1.2,48-6.9,70-16.5C315.9,99.5,289.9,58.8,260,51.3z"/>
			</g>
		</g>
		<g>
			<g>
				<path class="st2" d="M407.1,126.4c-15.9,16.3-34.2,29.8-54,40.3c4.7,23.1,7.4,47.8,7.9,73.3h88.7
					C447.6,197.3,432,158,407.1,126.4z"/>
			</g>
		</g>
		<g>
			<g>
				<path class="st2" d="M260,307.8c25.8,1.2,50.9,6.9,74.4,16.6c3.8-20.2,6.2-41.9,6.7-64.4H260V307.8z"/>
			</g>
		</g>
		<g>
			<g>
				<path class="st2" d="M348.4,146.5c16.6-9.4,32-21.2,45.5-35.2c-14.1-14.7-30.5-27.2-48.5-37c-0.3-0.2-0.7-0.4-1-0.5
					c-1-0.5-2-1.1-3-1.6c-1.1-0.6-2.3-1.2-3.5-1.7c-0.2-0.1-0.4-0.2-0.6-0.3c-10.4-5.1-21.3-9.2-32.5-12.4
					c9.5,10.4,18.1,23.7,25.8,39.5C337.7,112,343.7,128.6,348.4,146.5z"/>
			</g>
		</g>
		<g>
			<g>
				<path class="st2" d="M240,448.7V327.8c-24.3,1.2-48,6.9-70,16.5C184.1,400.5,210.1,441.2,240,448.7z"/>
			</g>
		</g>
		<g>
			<g>
				<path class="st2" d="M240,192.2c-25.8-1.2-50.9-6.9-74.4-16.6c-3.8,20.2-6.2,41.9-6.7,64.4H240V192.2z"/>
			</g>
		</g>
		<g>
			<g>
				<path class="st2" d="M92.9,126.4C68,158,52.4,197.3,50.3,240h88.7c0.6-25.5,3.3-50.2,7.9-73.3
					C127.1,156.2,108.8,142.7,92.9,126.4z"/>
			</g>
		</g>
		<g>
			<g>
				<path class="st2" d="M240,51.3c-29.9,7.5-55.9,48.3-70,104.4c22,9.6,45.7,15.3,70,16.5V51.3z"/>
			</g>
		</g>
		<g>
			<g>
				<path class="st2" d="M240,260h-81.1c0.5,22.6,2.9,44.3,6.7,64.4c23.4-9.7,48.6-15.4,74.4-16.6V260z"/>
			</g>
		</g>
		<g>
			<g>
				<path class="st2" d="M154.6,425.7c0.3,0.2,0.7,0.4,1,0.5c1,0.5,2,1.1,3,1.6c1.1,0.6,2.3,1.2,3.5,1.7c0.2,0.1,0.4,0.2,0.6,0.3
					c10.4,5.1,21.3,9.2,32.5,12.4c-9.5-10.4-18.1-23.7-25.8-39.5c-7.2-14.9-13.1-31.5-17.9-49.3c-16.6,9.4-32,21.2-45.5,35.2
					C120.2,403.4,136.6,415.9,154.6,425.7z"/>
			</g>
		</g>
		<g>
			<g>
				<path class="st2" d="M169.4,97.2c7.6-15.8,16.3-29.1,25.8-39.5c-11.2,3.2-22,7.3-32.5,12.4c-0.2,0.1-0.5,0.2-0.7,0.3
					c-1.1,0.6-2.3,1.1-3.4,1.7c-1,0.5-2,1.1-3,1.6c-0.3,0.2-0.7,0.4-1,0.5c-18,9.8-34.4,22.4-48.5,37c13.5,14,28.9,25.8,45.5,35.2
					C156.3,128.6,162.3,112,169.4,97.2z"/>
			</g>
		</g>
		<g>
			<g>
				<path class="st2" d="M92.9,373.6c15.9-16.3,34.2-29.8,54-40.3c-4.7-23.1-7.4-47.8-7.9-73.3H50.3C52.4,302.7,68,342,92.9,373.6z"
					/>
			</g>
		</g>
	</g>
	<g>
		<g>
			<g>
				<path class="st5" d="M308.4,217.6c15.4-40.1-12.1-84.8-55-87c-1.1-0.1-2.3-0.1-3.4-0.1s-2.3,0-3.4,0.1
					c-42.9,2.2-70.5,46.9-55,87L250,369.5L308.4,217.6z"/>
			</g>
		</g>
		<g>
			<g>
				<path class="st1" d="M250,374.5c-2.1,0-3.9-1.3-4.7-3.2l-58.4-151.9c-8-20.8-5.5-44.4,6.7-63.2c11.9-18.4,31.2-29.5,52.7-30.6
					c2.4-0.1,4.9-0.1,7.3,0c21.6,1.1,40.8,12.3,52.7,30.6c12.2,18.8,14.7,42.4,6.7,63.2l-58.4,151.9
					C253.9,373.2,252.1,374.5,250,374.5z M250,135.5c-1.1,0-2.1,0-3.2,0.1c-18.3,0.9-34.7,10.4-44.9,26.1
					c-10.5,16.1-12.6,36.3-5.7,54.1L250,355.6l53.8-139.8l4.7,1.8l-4.7-1.8c6.9-17.8,4.7-38.1-5.7-54.1
					c-10.2-15.7-26.5-25.2-44.9-26.1C252.1,135.5,251.1,135.5,250,135.5z"/>
			</g>
		</g>
		<g>
			<g>
				<circle class="st6" cx="250" cy="190.2" r="26.5"/>
			</g>
		</g>
		<g>
			<g>
				<path class="st1" d="M250,221.7c-17.3,0-31.5-14.1-31.5-31.5c0-17.3,14.1-31.5,31.5-31.5s31.5,14.1,31.5,31.5
					C281.5,207.6,267.3,221.7,250,221.7z M250,168.8c-11.8,0-21.5,9.6-21.5,21.5c0,11.8,9.6,21.5,21.5,21.5
					c11.8,0,21.5-9.6,21.5-21.5C271.5,178.4,261.8,168.8,250,168.8z"/>
			</g>
		</g>
	</g>
</g>
</svg>
