<?xml version="1.0" encoding="utf-8"?>
<!-- Generator: Adobe Illustrator 19.2.0, SVG Export Plug-In . SVG Version: 6.00 Build 0)  -->
<svg version="1.1" id="Layer_1" xmlns="http://www.w3.org/2000/svg" xmlns:xlink="http://www.w3.org/1999/xlink" x="0px" y="0px"
	 viewBox="0 0 500 500" style="enable-background:new 0 0 500 500;" xml:space="preserve">
<style type="text/css">
	.st0{fill:#ECF4F7;}
	.st1{fill:#1C1D21;}
	.st2{fill:#83E1E5;}
	.st3{fill:#AAB1BA;}
	.st4{fill:none;stroke:#1C1D21;stroke-width:10;stroke-linecap:round;stroke-linejoin:round;stroke-miterlimit:10;}
	.st5{fill:#FDDF7F;}
	.st6{fill:#FFFFFF;}
</style>
<g>
	<g>
		<g>
			<g>
				<path class="st3" d="M331.1,172.7h-168c-11,0-20-9-20-20V83.4c0-26.9,21.9-48.7,48.7-48.7h110.5c26.9,0,48.7,21.9,48.7,48.7
					v69.2C351.1,163.7,342.2,172.7,331.1,172.7z M183.1,132.7h128V83.4c0-4.8-3.9-8.7-8.7-8.7H191.9c-4.8,0-8.7,3.9-8.7,8.7V132.7z"
					/>
			</g>
		</g>
	</g>
	<g>
		<g>
			<g>
				<path class="st1" d="M331.1,177.7h-168c-13.8,0-25-11.2-25-25V83.4c0-29.6,24.1-53.7,53.7-53.7h110.5
					c29.6,0,53.7,24.1,53.7,53.7v69.2C356.1,166.4,344.9,177.7,331.1,177.7z M191.9,39.7c-24.1,0-43.7,19.6-43.7,43.7v69.2
					c0,8.3,6.7,15,15,15h168c8.3,0,15-6.7,15-15V83.4c0-24.1-19.6-43.7-43.7-43.7H191.9z M311.1,137.7h-128c-2.8,0-5-2.2-5-5V83.4
					c0-7.6,6.2-13.7,13.7-13.7h110.5c7.6,0,13.7,6.2,13.7,13.7v49.2C316.1,135.4,313.9,137.7,311.1,137.7z M188.1,127.7h118V83.4
					c0-2.1-1.7-3.7-3.7-3.7H191.9c-2.1,0-3.7,1.7-3.7,3.7V127.7z"/>
			</g>
		</g>
	</g>
	<g>
		<g>
			<path class="st5" d="M417.5,132.6H465c16.6,0,30,13.4,30,30v272.7c0,16.6-13.4,30-30,30H35c-16.6,0-30-13.4-30-30V162.6
				c0-16.6,13.4-30,30-30h47.5H417.5z"/>
		</g>
	</g>
	<g>
		<g>
			<path class="st1" d="M5,210.3c-2.8,0-5-2.2-5-5V193c0-2.8,2.2-5,5-5c2.8,0,5,2.2,5,5v12.3C10,208.1,7.8,210.3,5,210.3z"/>
		</g>
	</g>
	<g>
		<g>
			<path class="st1" d="M5,312c-2.8,0-5-2.2-5-5v-66.7c0-2.8,2.2-5,5-5c2.8,0,5,2.2,5,5V307C10,309.8,7.8,312,5,312z"/>
		</g>
	</g>
	<g>
		<g>
			<path class="st1" d="M465,470.3H35c-19.3,0-35-15.7-35-35v-94c0-2.8,2.2-5,5-5c2.8,0,5,2.2,5,5v94c0,13.8,11.2,25,25,25h430
				c13.8,0,25-11.2,25-25V162.6c0-13.8-11.2-25-25-25H35c-13.8,0-25,11.2-25,25c0,2.8-2.2,5-5,5c-2.8,0-5-2.2-5-5
				c0-19.3,15.7-35,35-35h430c19.3,0,35,15.7,35,35v272.7C500,454.6,484.3,470.3,465,470.3z"/>
		</g>
	</g>
	<g>
		<g>
			<g>
				<g>
					<rect x="74.5" y="132.6" class="st2" width="42" height="332.7"/>
				</g>
			</g>
			<g>
				<g>
					<path class="st1" d="M116.5,470.3h-42c-2.8,0-5-2.2-5-5V132.6c0-2.8,2.2-5,5-5h42c2.8,0,5,2.2,5,5v332.7
						C121.5,468.1,119.3,470.3,116.5,470.3z M79.5,460.3h32V137.6h-32V460.3z"/>
				</g>
			</g>
			<g>
				<g>
					<path class="st0" d="M119.3,245.3H71.8c-13.3,0-24,10.7-24,24v59.3c0,13.3,10.7,24,24,24h47.5c13.3,0,24-10.7,24-24v-59.3
						C143.3,256.1,132.5,245.3,119.3,245.3z M116.5,315.8c0,5.1-4.2,9.3-9.3,9.3H83.8c-5.1,0-9.3-4.2-9.3-9.3v-33.7
						c0-5.1,4.2-9.3,9.3-9.3h23.4c5.1,0,9.3,4.2,9.3,9.3V315.8z"/>
				</g>
			</g>
			<g>
				<g>
					<path class="st1" d="M119.3,357.6H71.8c-16,0-29-13-29-29v-59.3c0-16,13-29,29-29h47.5c16,0,29,13,29,29v59.3
						C148.3,344.6,135.2,357.6,119.3,357.6z M71.8,250.3c-10.5,0-19,8.5-19,19v59.3c0,10.5,8.5,19,19,19h47.5c10.5,0,19-8.5,19-19
						v-59.3c0-10.5-8.5-19-19-19H71.8z M107.2,330.1H83.8c-7.9,0-14.3-6.4-14.3-14.3v-33.7c0-7.9,6.4-14.3,14.3-14.3h23.4
						c7.9,0,14.3,6.4,14.3,14.3v33.7C121.5,323.7,115.1,330.1,107.2,330.1z M83.8,277.8c-2.4,0-4.3,1.9-4.3,4.3v33.7
						c0,2.4,1.9,4.3,4.3,4.3h23.4c2.4,0,4.3-1.9,4.3-4.3v-33.7c0-2.4-1.9-4.3-4.3-4.3H83.8z"/>
				</g>
			</g>
		</g>
		<g>
			<g>
				<g>
					<rect x="383.5" y="132.6" class="st2" width="42" height="332.7"/>
				</g>
			</g>
			<g>
				<g>
					<path class="st1" d="M425.5,470.3h-42c-2.8,0-5-2.2-5-5V132.6c0-2.8,2.2-5,5-5h42c2.8,0,5,2.2,5,5v332.7
						C430.5,468.1,428.3,470.3,425.5,470.3z M388.5,460.3h32V137.6h-32V460.3z"/>
				</g>
			</g>
			<g>
				<g>
					<path class="st0" d="M428.2,245.3h-47.5c-13.3,0-24,10.7-24,24v59.3c0,13.3,10.7,24,24,24h47.5c13.3,0,24-10.7,24-24v-59.3
						C452.2,256.1,441.5,245.3,428.2,245.3z M425.5,315.8c0,5.1-4.2,9.3-9.3,9.3h-23.4c-5.1,0-9.3-4.2-9.3-9.3v-33.7
						c0-5.1,4.2-9.3,9.3-9.3h23.4c5.1,0,9.3,4.2,9.3,9.3V315.8z"/>
				</g>
			</g>
			<g>
				<g>
					<path class="st1" d="M428.2,357.6h-47.5c-16,0-29-13-29-29v-59.3c0-16,13-29,29-29h47.5c16,0,29,13,29,29v59.3
						C457.2,344.6,444.2,357.6,428.2,357.6z M380.7,250.3c-10.5,0-19,8.5-19,19v59.3c0,10.5,8.5,19,19,19h47.5c10.5,0,19-8.5,19-19
						v-59.3c0-10.5-8.5-19-19-19H380.7z M416.2,330.1h-23.4c-7.9,0-14.3-6.4-14.3-14.3v-33.7c0-7.9,6.4-14.3,14.3-14.3h23.4
						c7.9,0,14.3,6.4,14.3,14.3v33.7C430.5,323.7,424.1,330.1,416.2,330.1z M392.8,277.8c-2.4,0-4.3,1.9-4.3,4.3v33.7
						c0,2.4,1.9,4.3,4.3,4.3h23.4c2.4,0,4.3-1.9,4.3-4.3v-33.7c0-2.4-1.9-4.3-4.3-4.3H392.8z"/>
				</g>
			</g>
		</g>
	</g>
</g>
</svg>
