<?xml version="1.0" encoding="utf-8"?>
<!-- Generator: Adobe Illustrator 19.2.0, SVG Export Plug-In . SVG Version: 6.00 Build 0)  -->
<svg version="1.1" id="Layer_1" xmlns="http://www.w3.org/2000/svg" xmlns:xlink="http://www.w3.org/1999/xlink" x="0px" y="0px"
	 viewBox="0 0 500 500" style="enable-background:new 0 0 500 500;" xml:space="preserve">
<style type="text/css">
	.st0{fill:#ECF4F7;}
	.st1{fill:#1C1D21;}
	.st2{fill:#83E1E5;}
	.st3{fill:#AAB1BA;}
	.st4{fill:none;stroke:#1C1D21;stroke-width:10;stroke-linecap:round;stroke-linejoin:round;stroke-miterlimit:10;}
	.st5{fill:#FDDF7F;}
	.st6{fill:#FFFFFF;}
</style>
<g>
	<g>
		<g>
			<path class="st5" d="M450,167.3H50c-5.5,0-10-4.5-10-10V138c0-5.5,4.5-10,10-10h400c5.5,0,10,4.5,10,10v19.3
				C460,162.9,455.5,167.3,450,167.3z"/>
		</g>
	</g>
	<g>
		<g>
			<g>
				<path class="st2" d="M40,341v104c0,11,9,20,20,20h380c11,0,20-9,20-20V341H40z"/>
			</g>
		</g>
		<g>
			<g>
				<g>
					<path class="st6" d="M128.3,373.3H79.7c-5.5,0-10,4.5-10,10v33.3c0,5.5,4.5,10,10,10h48.7c5.5,0,10-4.5,10-10v-33.3
						C138.3,377.8,133.9,373.3,128.3,373.3z"/>
				</g>
			</g>
			<g>
				<g>
					<path class="st6" d="M225.7,373.3H177c-5.5,0-10,4.5-10,10v33.3c0,5.5,4.5,10,10,10h48.7c5.5,0,10-4.5,10-10v-33.3
						C235.7,377.8,231.2,373.3,225.7,373.3z"/>
				</g>
			</g>
			<g>
				<g>
					<path class="st6" d="M323,373.3h-48.7c-5.5,0-10,4.5-10,10v33.3c0,5.5,4.5,10,10,10H323c5.5,0,10-4.5,10-10v-33.3
						C333,377.8,328.5,373.3,323,373.3z"/>
				</g>
			</g>
			<g>
				<g>
					<path class="st6" d="M420.3,373.3h-48.7c-5.5,0-10,4.5-10,10v33.3c0,5.5,4.5,10,10,10h48.7c5.5,0,10-4.5,10-10v-33.3
						C430.3,377.8,425.9,373.3,420.3,373.3z"/>
				</g>
			</g>
		</g>
	</g>
	<g>
		<g>
			<path class="st2" d="M460,128V62.4c0-11-9-20-20-20H60c-11,0-20,9-20,20V128H460z"/>
		</g>
	</g>
	<g>
		<g>
			<path class="st1" d="M465,500H35c-19.3,0-35-15.7-35-35V35C0,15.7,15.7,0,35,0h430c19.3,0,35,15.7,35,35v430
				C500,484.3,484.3,500,465,500z M35,10c-13.8,0-25,11.2-25,25v430c0,13.8,11.2,25,25,25h430c13.8,0,25-11.2,25-25V35
				c0-13.8-11.2-25-25-25H35z"/>
		</g>
	</g>
	<g>
		<g>
			<g>
				<path class="st1" d="M40,97.7c-2.8,0-5-2.2-5-5V62.4c0-13.8,11.2-25,25-25h4.3c2.8,0,5,2.2,5,5s-2.2,5-5,5H60
					c-8.3,0-15,6.7-15,15v30.3C45,95.4,42.8,97.7,40,97.7z"/>
			</g>
		</g>
		<g>
			<g>
				<path class="st1" d="M104,47.4H89c-2.8,0-5-2.2-5-5s2.2-5,5-5h15c2.8,0,5,2.2,5,5S106.8,47.4,104,47.4z"/>
			</g>
		</g>
	</g>
	<g>
		<g>
			<g>
				<path class="st1" d="M440,465h-4.3c-2.8,0-5-2.2-5-5s2.2-5,5-5h4.3c8.3,0,15-6.7,15-15v-30.3c0-2.8,2.2-5,5-5s5,2.2,5,5V440
					C465,453.8,453.8,465,440,465z"/>
			</g>
		</g>
		<g>
			<g>
				<path class="st1" d="M411,465h-15c-2.8,0-5-2.2-5-5s2.2-5,5-5h15c2.8,0,5,2.2,5,5S413.8,465,411,465z"/>
			</g>
		</g>
	</g>
	<g>
		<g>
			<g>
				<path class="st5" d="M124,460H50c-5.5,0-10-4.5-10-10V205c0-5.5,4.5-10,10-10h74c5.5,0,10,4.5,10,10v245
					C134,455.5,129.5,460,124,460z"/>
			</g>
		</g>
		<g>
			<g>
				<path class="st1" d="M124,465H50c-8.3,0-15-6.7-15-15V205c0-8.3,6.7-15,15-15h74c8.3,0,15,6.7,15,15v245
					C139,458.3,132.3,465,124,465z M50,200c-2.8,0-5,2.2-5,5v245c0,2.8,2.2,5,5,5h74c2.8,0,5-2.2,5-5V205c0-2.8-2.2-5-5-5H50z"/>
			</g>
		</g>
	</g>
	<g>
		<g>
			<path class="st1" d="M411,200H173c-2.8,0-5-2.2-5-5s2.2-5,5-5h238c2.8,0,5,2.2,5,5S413.8,200,411,200z"/>
		</g>
	</g>
	<g>
		<g>
			<path class="st1" d="M460,200h-22c-2.8,0-5-2.2-5-5s2.2-5,5-5h22c2.8,0,5,2.2,5,5S462.8,200,460,200z"/>
		</g>
	</g>
	<g>
		<g>
			<path class="st1" d="M411,231H173c-2.8,0-5-2.2-5-5s2.2-5,5-5h238c2.8,0,5,2.2,5,5S413.8,231,411,231z"/>
		</g>
	</g>
	<g>
		<g>
			<path class="st1" d="M460,231h-22c-2.8,0-5-2.2-5-5s2.2-5,5-5h22c2.8,0,5,2.2,5,5S462.8,231,460,231z"/>
		</g>
	</g>
	<g>
		<g>
			<path class="st1" d="M411,262H173c-2.8,0-5-2.2-5-5c0-2.8,2.2-5,5-5h238c2.8,0,5,2.2,5,5C416,259.8,413.8,262,411,262z"/>
		</g>
	</g>
	<g>
		<g>
			<path class="st1" d="M460,262h-22c-2.8,0-5-2.2-5-5c0-2.8,2.2-5,5-5h22c2.8,0,5,2.2,5,5C465,259.8,462.8,262,460,262z"/>
		</g>
	</g>
	<g>
		<g>
			<path class="st1" d="M411,293H173c-2.8,0-5-2.2-5-5s2.2-5,5-5h238c2.8,0,5,2.2,5,5S413.8,293,411,293z"/>
		</g>
	</g>
	<g>
		<g>
			<path class="st1" d="M460,293h-22c-2.8,0-5-2.2-5-5s2.2-5,5-5h22c2.8,0,5,2.2,5,5S462.8,293,460,293z"/>
		</g>
	</g>
	<g>
		<g>
			<path class="st1" d="M411,324H173c-2.8,0-5-2.2-5-5s2.2-5,5-5h238c2.8,0,5,2.2,5,5S413.8,324,411,324z"/>
		</g>
	</g>
	<g>
		<g>
			<path class="st1" d="M460,324h-22c-2.8,0-5-2.2-5-5s2.2-5,5-5h22c2.8,0,5,2.2,5,5S462.8,324,460,324z"/>
		</g>
	</g>
	<g>
		<g>
			<path class="st1" d="M450,172.3H50c-8.3,0-15-6.7-15-15V138c0-8.3,6.7-15,15-15h400c8.3,0,15,6.7,15,15v19.3
				C465,165.6,458.3,172.3,450,172.3z M50,133c-2.8,0-5,2.2-5,5v19.3c0,2.8,2.2,5,5,5h400c2.8,0,5-2.2,5-5V138c0-2.8-2.2-5-5-5H50z"
				/>
		</g>
	</g>
</g>
</svg>
