<?xml version="1.0" encoding="utf-8"?>
<!-- Generator: Adobe Illustrator 19.2.0, SVG Export Plug-In . SVG Version: 6.00 Build 0)  -->
<svg version="1.1" id="Layer_1" xmlns="http://www.w3.org/2000/svg" xmlns:xlink="http://www.w3.org/1999/xlink" x="0px" y="0px"
	 viewBox="0 0 500 500" style="enable-background:new 0 0 500 500;" xml:space="preserve">
<style type="text/css">
	.st0{fill:#ECF4F7;}
	.st1{fill:#1C1D21;}
	.st2{fill:#83E1E5;}
	.st3{fill:#AAB1BA;}
	.st4{fill:none;stroke:#1C1D21;stroke-width:10;stroke-linecap:round;stroke-linejoin:round;stroke-miterlimit:10;}
	.st5{fill:#FDDF7F;}
	.st6{fill:#FFFFFF;}
</style>
<g>
	<g>
		<g>
			<path class="st5" d="M355.7,421.7l96.1-274.2c2.3-6.6-6.3-11.4-10.7-6l-71.3,87.7c-26.8,32.9-79.8,20-88.4-21.5L256.1,86.3
				c-1.4-6.6-10.8-6.6-12.1,0l-25.3,121.5c-8.6,41.5-61.6,54.4-88.4,21.5l-71.3-87.7c-4.4-5.4-13-0.6-10.7,6l96.1,274.2H355.7z"/>
		</g>
	</g>
	<g>
		<g>
			<path class="st5" d="M383.6,484v-6.9c0-15.6-5.8-30.6-16.2-42.2l-11.8-13.1h-211l-11.8,13.1c-10.4,11.6-16.2,26.6-16.2,42.2v6.9
				H383.6z"/>
		</g>
	</g>
	<g>
		<g>
			<circle class="st2" cx="250" cy="48.7" r="32.7"/>
		</g>
	</g>
	<g>
		<g>
			<path class="st1" d="M318.8,426.7H313c-2.8,0-5-2.2-5-5c0-2.8,2.2-5,5-5h5.8c2.8,0,5,2.2,5,5
				C323.8,424.5,321.5,426.7,318.8,426.7z"/>
		</g>
	</g>
	<g>
		<g>
			<path class="st1" d="M289.1,426.7h-43.5c-2.8,0-5-2.2-5-5c0-2.8,2.2-5,5-5h43.5c2.8,0,5,2.2,5,5
				C294.1,424.5,291.8,426.7,289.1,426.7z"/>
		</g>
	</g>
	<g>
		<g>
			<path class="st1" d="M218.4,426.7h-74.1c-2.1,0-4-1.3-4.7-3.3l-38.4-109.6c-0.9-2.6,0.5-5.5,3.1-6.4c2.6-0.9,5.5,0.5,6.4,3.1
				l37.2,106.2h70.5c2.8,0,5,2.2,5,5C223.4,424.5,221.1,426.7,218.4,426.7z"/>
		</g>
	</g>
	<g>
		<g>
			<path class="st1" d="M96.5,290.3c-2.1,0-4-1.3-4.7-3.3l-15.2-43.5c-0.9-2.6,0.5-5.5,3.1-6.4c2.6-0.9,5.5,0.5,6.4,3.1l15.2,43.5
				c0.9,2.6-0.5,5.5-3.1,6.4C97.6,290.2,97.1,290.3,96.5,290.3z"/>
		</g>
	</g>
	<g>
		<g>
			<path class="st1" d="M70.3,215.6c-2.1,0-4-1.3-4.7-3.3l-1.8-5.1c-0.9-2.6,0.5-5.5,3.1-6.4c2.6-0.9,5.5,0.5,6.4,3.1l1.8,5.1
				c0.9,2.6-0.5,5.5-3.1,6.4C71.4,215.5,70.9,215.6,70.3,215.6z"/>
		</g>
	</g>
	<g>
		<g>
			<path class="st1" d="M355.7,426.7h-17.4c-2.8,0-5-2.2-5-5c0-2.8,2.2-5,5-5h13.9L447,145.8c0.1-0.3,0.3-1-0.5-1.4
				c-0.9-0.5-1.3,0.1-1.5,0.3l-71.3,87.8c-13.6,16.7-35.1,24-56.1,18.9c-21-5.1-36.7-21.4-41.1-42.5L251.2,87.3
				c-0.1-0.3-0.2-1-1.2-1c-1,0-1.1,0.7-1.2,1l-25.3,121.5c-4.4,21.1-20.2,37.4-41.1,42.5c-21,5.1-42.5-2.1-56.1-18.9L55,144.7
				c-0.2-0.2-0.6-0.8-1.5-0.3c-0.9,0.5-0.6,1.2-0.5,1.4l11.8,33.8c0.9,2.6-0.5,5.5-3.1,6.4c-2.6,0.9-5.5-0.5-6.4-3.1l-11.8-33.8
				c-1.8-5.2,0.3-10.8,5.1-13.5c4.8-2.7,10.7-1.6,14.2,2.7l71.3,87.8c11.2,13.7,28.8,19.6,45.9,15.5c17.2-4.2,30.1-17.5,33.7-34.8
				L239,85.3c1.1-5.3,5.6-8.9,11-8.9c5.4,0,9.9,3.7,11,8.9l25.3,121.5c3.6,17.3,16.5,30.7,33.7,34.8c17.2,4.2,34.8-1.7,45.9-15.5
				l71.3-87.8c3.5-4.3,9.3-5.4,14.2-2.7c4.8,2.7,6.9,8.2,5.1,13.5l-96.1,274.2C359.7,425.4,357.8,426.7,355.7,426.7z"/>
		</g>
	</g>
	<g>
		<g>
			<path class="st1" d="M383.6,489H116.4c-2.8,0-5-2.2-5-5v-6.9c0-16.8,6.2-33,17.5-45.5l11.8-13.1c1.8-2.1,5-2.2,7.1-0.4
				c2.1,1.8,2.2,5,0.4,7.1l-11.8,13.1c-9.6,10.7-14.9,24.5-14.9,38.8v1.9h257.1v-1.9c0-14.4-5.3-28.2-14.9-38.8l-11.8-13.1
				c-1.8-2.1-1.7-5.2,0.4-7.1c2.1-1.8,5.2-1.7,7.1,0.4l11.8,13.1c11.3,12.5,17.5,28.7,17.5,45.5v6.9
				C388.6,486.8,386.3,489,383.6,489z"/>
		</g>
	</g>
	<g>
		<g>
			<path class="st1" d="M250,86.4c-20.8,0-37.7-16.9-37.7-37.7c0-20.8,16.9-37.7,37.7-37.7c20.8,0,37.7,16.9,37.7,37.7
				C287.7,69.5,270.8,86.4,250,86.4z M250,21c-15.3,0-27.7,12.4-27.7,27.7c0,15.3,12.4,27.7,27.7,27.7c15.3,0,27.7-12.4,27.7-27.7
				C277.7,33.4,265.3,21,250,21z"/>
		</g>
	</g>
	<g>
		<g>
			<g>
				<circle class="st2" cx="462.3" cy="112.4" r="32.7"/>
			</g>
		</g>
		<g>
			<g>
				<path class="st1" d="M462.3,150.1c-20.8,0-37.7-16.9-37.7-37.7c0-20.8,16.9-37.7,37.7-37.7c20.8,0,37.7,16.9,37.7,37.7
					C500,133.2,483.1,150.1,462.3,150.1z M462.3,84.7c-15.3,0-27.7,12.4-27.7,27.7s12.4,27.7,27.7,27.7c15.3,0,27.7-12.4,27.7-27.7
					S477.6,84.7,462.3,84.7z"/>
			</g>
		</g>
	</g>
	<g>
		<g>
			<g>
				<circle class="st2" cx="37.7" cy="112.4" r="32.7"/>
			</g>
		</g>
		<g>
			<g>
				<path class="st1" d="M37.7,150.1C16.9,150.1,0,133.2,0,112.4c0-20.8,16.9-37.7,37.7-37.7c20.8,0,37.7,16.9,37.7,37.7
					C75.3,133.2,58.4,150.1,37.7,150.1z M37.7,84.7C22.4,84.7,10,97.1,10,112.4s12.4,27.7,27.7,27.7c15.3,0,27.7-12.4,27.7-27.7
					S52.9,84.7,37.7,84.7z"/>
			</g>
		</g>
	</g>
	<g>
		<g>
			<g>
				<path class="st2" d="M290,319.2l-32.9,32.9c-3.9,3.9-10.2,3.9-14.1,0L210,319.2c-3.9-3.9-3.9-10.2,0-14.1l32.9-32.9
					c3.9-3.9,10.2-3.9,14.1,0l32.9,32.9C293.9,309,293.9,315.3,290,319.2z"/>
			</g>
		</g>
		<g>
			<g>
				<path class="st0" d="M346.3,319.2L327,338.5c-3.9,3.9-10.2,3.9-14.1,0l-19.3-19.3c-3.9-3.9-3.9-10.2,0-14.1l19.3-19.3
					c3.9-3.9,10.2-3.9,14.1,0l19.3,19.3C350.2,309,350.2,315.3,346.3,319.2z"/>
			</g>
		</g>
		<g>
			<g>
				<path class="st0" d="M206.5,319.2l-19.3,19.3c-3.9,3.9-10.2,3.9-14.1,0l-19.3-19.3c-3.9-3.9-3.9-10.2,0-14.1l19.3-19.3
					c3.9-3.9,10.2-3.9,14.1,0l19.3,19.3C210.4,309,210.4,315.3,206.5,319.2z"/>
			</g>
		</g>
	</g>
	<g>
		<g>
			<g>
				<path class="st1" d="M250,360.1c-3.8,0-7.7-1.5-10.6-4.4l-32.9-32.9c-5.8-5.8-5.8-15.4,0-21.2l32.9-32.9
					c5.8-5.9,15.4-5.8,21.2,0l32.9,32.9c5.8,5.8,5.8,15.4,0,21.2l-32.9,32.9C257.7,358.6,253.8,360.1,250,360.1z M250,274.2
					c-1.3,0-2.6,0.5-3.5,1.5l-32.9,32.9c-1.9,2-1.9,5.1,0,7.1l32.9,32.9c1.9,1.9,5.1,1.9,7.1,0l32.9-32.9l0,0c1.9-2,1.9-5.1,0-7.1
					l-32.9-32.9C252.6,274.7,251.3,274.2,250,274.2z"/>
			</g>
		</g>
		<g>
			<g>
				<path class="st1" d="M319.9,346.4c-4,0-7.8-1.6-10.6-4.4L290,322.8c-2.8-2.8-4.4-6.6-4.4-10.6c0-4,1.6-7.8,4.4-10.6l19.3-19.3
					c2.8-2.8,6.6-4.4,10.6-4.4s7.8,1.6,10.6,4.4l19.3,19.3c2.8,2.8,4.4,6.6,4.4,10.6c0,4-1.6,7.8-4.4,10.6L330.5,342
					C327.7,344.9,323.9,346.4,319.9,346.4z M319.9,287.9c-1.3,0-2.6,0.5-3.5,1.5l-19.3,19.3c-1.9,2-1.9,5.1,0,7.1l19.3,19.3
					c0.9,0.9,2.2,1.5,3.5,1.5c1.3,0,2.6-0.5,3.5-1.5l19.3-19.3c1.9-2,1.9-5.1,0-7.1l-19.3-19.3C322.5,288.4,321.2,287.9,319.9,287.9
					z"/>
			</g>
		</g>
		<g>
			<g>
				<path class="st1" d="M180.1,346.4c-4,0-7.8-1.6-10.6-4.4l-19.3-19.3c-2.8-2.8-4.4-6.6-4.4-10.6c0-4,1.6-7.8,4.4-10.6l19.3-19.3
					c2.8-2.8,6.6-4.4,10.6-4.4c4,0,7.8,1.6,10.6,4.4l19.3,19.3c2.8,2.8,4.4,6.6,4.4,10.6c0,4-1.6,7.8-4.4,10.6L190.7,342
					C187.9,344.9,184.1,346.4,180.1,346.4z M180.1,287.9c-1.3,0-2.6,0.5-3.5,1.5l-19.3,19.3c-1.9,2-1.9,5.1,0,7.1l19.3,19.3
					c0.9,0.9,2.2,1.5,3.5,1.5c1.3,0,2.6-0.5,3.5-1.5l19.3-19.3l0,0c1.9-2,1.9-5.1,0-7.1l-19.3-19.3
					C182.7,288.4,181.4,287.9,180.1,287.9z"/>
			</g>
		</g>
	</g>
</g>
</svg>
