<?xml version="1.0" encoding="utf-8"?>
<!-- Generator: Adobe Illustrator 19.2.0, SVG Export Plug-In . SVG Version: 6.00 Build 0)  -->
<svg version="1.1" id="Layer_1" xmlns="http://www.w3.org/2000/svg" xmlns:xlink="http://www.w3.org/1999/xlink" x="0px" y="0px"
	 viewBox="0 0 500 500" style="enable-background:new 0 0 500 500;" xml:space="preserve">
<style type="text/css">
	.st0{fill:#ECF4F7;}
	.st1{fill:#1C1D21;}
	.st2{fill:#83E1E5;}
	.st3{fill:#AAB1BA;}
	.st4{fill:none;stroke:#1C1D21;stroke-width:10;stroke-linecap:round;stroke-linejoin:round;stroke-miterlimit:10;}
	.st5{fill:#FDDF7F;}
	.st6{fill:#FFFFFF;}
</style>
<g>
	<g>
		<g>
			<g>
				<g>
					<path class="st2" d="M388.4,295.3v-36.2c0-24.4-15.4-46.2-38.4-54.4L303.1,188c-12.4-4.4-15.1-21-4.5-28.9
						c20.3-14.9,33.5-39,33.5-66.2v0c0-45.4-36.8-82.1-82.1-82.1h0c-45.4,0-82.1,36.8-82.1,82.1v0c0,27.2,13.2,51.2,33.5,66.2
						c10.6,7.8,8,24.5-4.5,28.9L150,204.7c-23,8.2-38.4,30-38.4,54.4v36.2c0,16.7,13.5,30.2,30.2,30.2l52.1-6.2l56.2,65.4l44.7-59.2
						h63.5C374.9,325.4,388.4,311.9,388.4,295.3z"/>
				</g>
			</g>
			<g>
				<g>
					<path class="st1" d="M388.4,300.3c-2.8,0-5-2.2-5-5v-36.2c0-22.3-14.1-42.2-35.1-49.7l-46.9-16.7c-7.6-2.7-13-9.3-14.2-17.3
						c-1.2-8,2-15.6,8.4-20.3c19.7-14.5,31.4-37.7,31.4-62.1c0-42.5-34.6-77.1-77.1-77.1c-42.5,0-77.1,34.6-77.1,77.1
						c0,24.4,11.8,47.6,31.4,62.1c6.5,4.7,9.6,12.3,8.4,20.3c-1.2,8-6.6,14.6-14.2,17.3l-46.9,16.7c-21,7.5-35.1,27.4-35.1,49.7
						v36.2c0,2.8-2.2,5-5,5c-2.8,0-5-2.2-5-5v-36.2c0-26.5,16.8-50.2,41.7-59.1l46.9-16.7c4.1-1.5,7-5,7.6-9.3
						c0.6-4.2-1-8.3-4.5-10.8c-22.2-16.4-35.5-42.6-35.5-70.2c0-48,39.1-87.1,87.1-87.1s87.1,39.1,87.1,87.1
						c0,27.6-13.3,53.8-35.5,70.2c-3.4,2.5-5.1,6.6-4.5,10.8c0.6,4.4,3.5,7.9,7.6,9.3l46.9,16.7c25,8.9,41.7,32.6,41.7,59.1v36.2
						C393.4,298,391.2,300.3,388.4,300.3z"/>
				</g>
			</g>
		</g>
		<g>
			<g>
				<g>
					<path class="st5" d="M135.5,277.4h-6.6c-9.1,0-16.4-7.4-16.4-16.4v-12.2c0-13.2-14.8-21-25.7-13.5l-74.5,51.2
						c-9.5,6.5-9.5,20.6,0,27.1l74.5,51.2c10.9,7.5,25.7-0.3,25.7-13.5v-14.8c0-9.1,7.4-16.4,16.4-16.4h6.6
						c63.3,0,114.5,51.3,114.5,114.5v-9.6C250,343.4,198.7,277.4,135.5,277.4z"/>
				</g>
			</g>
			<g>
				<g>
					<path class="st5" d="M364.5,277.4h6.6c9.1,0,16.4-7.4,16.4-16.4v-12.2c0-13.2,14.8-21,25.7-13.5l74.5,51.2
						c9.5,6.5,9.5,20.6,0,27.1l-74.5,51.2c-10.9,7.5-25.7-0.3-25.7-13.5v-14.8c0-9.1-7.4-16.4-16.4-16.4h-6.6
						c-63.3,0-114.5,51.3-114.5,114.5v-9.6C250,343.4,301.3,277.4,364.5,277.4z"/>
				</g>
			</g>
		</g>
		<g>
			<g>
				<g>
					<path class="st1" d="M250,439.4c-2.8,0-5-2.2-5-5c0-60.4-49.1-109.5-109.5-109.5h-6.6c-6.3,0-11.4,5.1-11.4,11.4v14.8
						c0,8-4.4,15.3-11.5,19c-7.1,3.7-15.5,3.2-22.1-1.3L9.3,317.6C3.5,313.6,0,307,0,299.9c0-7.1,3.5-13.7,9.3-17.7L83.8,231
						c6.6-4.5,15.1-5,22.1-1.3c7.1,3.7,11.5,11,11.5,19v12.2c0,6.3,5.1,11.4,11.4,11.4h6.6c65.9,0,119.5,68.4,119.5,152.4v9.6
						C255,437.1,252.8,439.4,250,439.4z M128.8,314.8h6.6c42.8,0,80.4,22.6,101.5,56.5c-16.3-52.1-55.7-88.9-101.5-88.9h-6.6
						c-11.8,0-21.4-9.6-21.4-21.4v-12.2c0-4.3-2.3-8.1-6.1-10.1c-3.8-2-8.2-1.8-11.8,0.7L15,290.5c-3.2,2.2-5,5.6-5,9.4
						c0,3.8,1.8,7.3,5,9.4l74.5,51.2c3.6,2.4,8,2.7,11.8,0.7c3.8-2,6.1-5.8,6.1-10.1v-14.8C107.4,324.4,117,314.8,128.8,314.8z"/>
				</g>
			</g>
			<g>
				<g>
					<path class="st1" d="M250,439.4c-2.8,0-5-2.2-5-5v-9.6c0-40.5,12.3-78.6,34.6-107.3c22.6-29.1,52.8-45.1,84.9-45.1h6.6
						c6.3,0,11.4-5.1,11.4-11.4v-12.2c0-8,4.4-15.3,11.5-19c7.1-3.7,15.5-3.2,22.1,1.3l74.5,51.2c5.8,4,9.3,10.6,9.3,17.7
						c0,7.1-3.5,13.7-9.3,17.7l-74.5,51.2c-6.6,4.5-15.1,5-22.1,1.3c-7.1-3.7-11.5-11-11.5-19v-14.8c0-6.3-5.1-11.4-11.4-11.4h-6.6
						C304.1,324.8,255,374,255,434.4C255,437.1,252.8,439.4,250,439.4z M364.5,282.4c-45.9,0-85.2,36.8-101.5,88.9
						c21.1-33.9,58.7-56.5,101.5-56.5h6.6c11.8,0,21.4,9.6,21.4,21.4v14.8c0,4.3,2.3,8.1,6.1,10.1c3.8,2,8.2,1.8,11.8-0.7l74.5-51.2
						c3.2-2.2,5-5.6,5-9.4c0-3.8-1.8-7.3-5-9.4l-74.5-51.2c-3.6-2.4-8-2.7-11.8-0.7c-3.8,2-6.1,5.8-6.1,10.1v12.2
						c0,11.8-9.6,21.4-21.4,21.4H364.5z"/>
				</g>
			</g>
		</g>
	</g>
	<g>
		<g>
			<path class="st1" d="M250,461.8c-2.8,0-5-2.2-5-5v-22.5c0-2.8,2.2-5,5-5c2.8,0,5,2.2,5,5v22.5C255,459.6,252.8,461.8,250,461.8z"
				/>
		</g>
	</g>
	<g>
		<g>
			<path class="st1" d="M250,494.2c-2.8,0-5-2.2-5-5v-11.3c0-2.8,2.2-5,5-5c2.8,0,5,2.2,5,5v11.3C255,491.9,252.8,494.2,250,494.2z"
				/>
		</g>
	</g>
</g>
</svg>
