<svg xmlns="http://www.w3.org/2000/svg" viewBox="0 0 48 48"><defs><style>.cls-1{fill:#65b1fc;}.cls-2{fill:#fff;}.cls-3{fill:#256494;}</style></defs><title>6-Mobile Game</title><g id="_6-Mobile_Game" data-name="6-Mobile Game"><polygon class="cls-1" points="38 9 38 39 35 39 13 39 10 39 10 9 13 9 35 9 38 9"/><path class="cls-2" d="M38,39v6a2.006,2.006,0,0,1-2,2H12a2.006,2.006,0,0,1-2-2V39H38Z"/><path class="cls-2" d="M38,3V9H10V3a2.006,2.006,0,0,1,2-2H36A2.006,2.006,0,0,1,38,3Z"/><path class="cls-2" d="M29.66,18.34,24,24l5.66,5.66a8,8,0,1,1,0-11.32Z"/><path class="cls-3" d="M36,0H12A3,3,0,0,0,9,3V45a3,3,0,0,0,3,3H36a3,3,0,0,0,3-3V28H37V45a1,1,0,0,1-1,1H12a1,1,0,0,1-1-1V3a1,1,0,0,1,1-1H36a1,1,0,0,1,1,1V20h2V3A3,3,0,0,0,36,0Z"/><rect class="cls-3" x="13" y="8" width="22" height="2"/><rect class="cls-3" x="13" y="38" width="22" height="2"/><rect class="cls-3" x="16" y="4" width="12" height="2"/><rect class="cls-3" x="30" y="4" width="2" height="2"/><rect class="cls-3" x="23" y="42" width="2" height="2"/><path class="cls-3" d="M13,13v4h2V14h3V12H14A1,1,0,0,0,13,13Z"/><path class="cls-3" d="M24,15a9,9,0,1,0,6.365,15.37,1,1,0,0,0,0-1.417L25.414,24l4.953-4.953a1,1,0,0,0,0-1.417A8.983,8.983,0,0,0,24,15Zm-.707,8.293a1,1,0,0,0,0,1.414l4.9,4.9a7,7,0,1,1,0-11.216Z"/><rect class="cls-3" x="33" y="23" width="2" height="2"/><rect class="cls-3" x="29" y="23" width="2" height="2"/><rect class="cls-3" x="37" y="23" width="2" height="2"/></g></svg>