<?xml version="1.0" encoding="utf-8"?>
<!-- Generator: Adobe Illustrator 19.2.0, SVG Export Plug-In . SVG Version: 6.00 Build 0)  -->
<svg version="1.1" id="Layer_1" xmlns="http://www.w3.org/2000/svg" xmlns:xlink="http://www.w3.org/1999/xlink" x="0px" y="0px"
	 viewBox="0 0 500 500" style="enable-background:new 0 0 500 500;" xml:space="preserve">
<style type="text/css">
	.st0{fill:#ECF4F7;}
	.st1{fill:#1C1D21;}
	.st2{fill:#83E1E5;}
	.st3{fill:#AAB1BA;}
	.st4{fill:none;stroke:#1C1D21;stroke-width:10;stroke-linecap:round;stroke-linejoin:round;stroke-miterlimit:10;}
	.st5{fill:#FDDF7F;}
	.st6{fill:#FFFFFF;}
</style>
<g>
	<g>
		<g>
			<g>
				<path class="st3" d="M227.8,173.7v-29.3c0-12.2,9.9-22.2,22.2-22.2l0,0c12.2,0,22.2,9.9,22.2,22.2v29.8L227.8,173.7z"/>
			</g>
		</g>
		<g>
			<g>
				<path class="st0" d="M155.3,155.3l1.3,0.6c58.8,25.4,127.9,25.4,186.7,0l1.3-0.6L329,327.7l-1.2-0.8
					c-50.4-32.5-105.2-32.5-155.6,0l-1.2,0.8L155.3,155.3z"/>
			</g>
		</g>
		<g>
			<g>
				<path class="st1" d="M329,332.7c-0.9,0-1.9-0.3-2.7-0.8l-1.2-0.8c-49.1-31.7-101.1-31.7-150.2,0l-1.2,0.8
					c-1.5,0.9-3.3,1.1-4.9,0.3c-1.6-0.8-2.6-2.3-2.8-4l-15.7-172.4c-0.2-1.8,0.6-3.5,2-4.5c1.4-1,3.3-1.2,4.9-0.5l1.3,0.6
					c57.2,24.7,125.5,24.7,182.7,0l1.3-0.6c1.6-0.7,3.5-0.5,4.9,0.5c1.4,1,2.2,2.7,2,4.5L334,328.1c-0.2,1.7-1.2,3.3-2.8,4
					C330.5,332.5,329.7,332.7,329,332.7z M250,297.6c25.3,0,50.5,7.2,74.8,21.6l14.2-156c-27.8,11-58.4,16.8-88.9,16.8
					c-30.5,0-61.1-5.8-88.9-16.8l14.2,156C199.5,304.8,224.7,297.6,250,297.6z"/>
			</g>
		</g>
		<g>
			<g>
				<path class="st3" d="M193.9,259.5l-36.3,161.6c-5.9,26.4-29.4,45.2-56.5,45.2h0l0,0c-27.1,0-50.6-18.8-56.5-45.2L8.3,259.5
					H193.9z"/>
			</g>
		</g>
		<g>
			<g>
				<path class="st1" d="M101.1,471.4c-14.2,0-28.2-4.9-39.3-13.8c-11.1-8.9-19-21.5-22.1-35.3L3.4,260.6c-0.3-1.5,0-3,1-4.2
					c0.9-1.2,2.4-1.9,3.9-1.9h185.6c1.5,0,3,0.7,3.9,1.9c0.9,1.2,1.3,2.7,1,4.2l-36.3,161.6C156,451.2,130.7,471.4,101.1,471.4z
					 M14.5,264.5l34.9,155.6c5.5,24.3,26.7,41.3,51.6,41.3c24.9,0,46.2-17,51.6-41.3l34.9-155.6H14.5z"/>
			</g>
		</g>
		<g>
			<g>
				<circle class="st0" cx="101.1" cy="234.6" r="96.1"/>
			</g>
		</g>
		<g>
			<g>
				<path class="st1" d="M101.1,335.7C45.3,335.7,0,290.3,0,234.6s45.3-101.1,101.1-101.1s101.1,45.3,101.1,101.1
					S156.8,335.7,101.1,335.7z M101.1,143.5c-50.2,0-91.1,40.9-91.1,91.1c0,50.2,40.9,91.1,91.1,91.1c50.2,0,91.1-40.9,91.1-91.1
					C192.1,184.4,151.3,143.5,101.1,143.5z"/>
			</g>
		</g>
		<g>
			<g>
				<path class="st3" d="M491.7,259.5l-36.3,161.6c-5.9,26.4-29.4,45.2-56.5,45.2l0,0h0c-27.1,0-50.6-18.8-56.5-45.2l-36.3-161.6
					H491.7z"/>
			</g>
		</g>
		<g>
			<g>
				<path class="st1" d="M398.9,471.4c-29.7,0-54.9-20.2-61.4-49.1l-36.3-161.6c-0.3-1.5,0-3,1-4.2c0.9-1.2,2.4-1.9,3.9-1.9h185.6
					c1.5,0,3,0.7,3.9,1.9c0.9,1.2,1.3,2.7,1,4.2l-36.3,161.6c-3.1,13.9-11,26.4-22.1,35.3C427.1,466.5,413.2,471.4,398.9,471.4z
					 M312.4,264.5l34.9,155.6c5.5,24.3,26.7,41.3,51.6,41.3c24.9,0,46.2-17,51.6-41.3l34.9-155.6H312.4z"/>
			</g>
		</g>
		<g>
			<g>
				<circle class="st0" cx="398.9" cy="234.6" r="96.1"/>
			</g>
		</g>
		<g>
			<g>
				<path class="st1" d="M398.9,335.7c-55.7,0-101.1-45.3-101.1-101.1s45.3-101.1,101.1-101.1S500,178.9,500,234.6
					S454.7,335.7,398.9,335.7z M398.9,143.5c-50.2,0-91.1,40.9-91.1,91.1c0,50.2,40.9,91.1,91.1,91.1c50.2,0,91.1-40.9,91.1-91.1
					C490,184.4,449.1,143.5,398.9,143.5z"/>
			</g>
		</g>
		<g>
			<g>
				<path class="st2" d="M141,219.6h-27v-27c0-7.2-5.8-13-13-13c-7.2,0-13,5.8-13,13v27h-27c-7.2,0-13,5.8-13,13s5.8,13,13,13h27v27
					c0,7.2,5.8,13,13,13c7.2,0,13-5.8,13-13v-27h27c7.2,0,13-5.8,13-13S148.2,219.6,141,219.6z"/>
			</g>
		</g>
		<g>
			<g>
				<path class="st1" d="M101.1,290.6c-9.9,0-18-8.1-18-18v-22h-22c-9.9,0-18-8.1-18-18c0-9.9,8.1-18,18-18h22v-22
					c0-9.9,8.1-18,18-18s18,8.1,18,18v22h22c9.9,0,18,8.1,18,18c0,9.9-8.1,18-18,18h-22v22C119.1,282.5,111,290.6,101.1,290.6z
					 M61.1,224.6c-4.4,0-8,3.6-8,8c0,4.4,3.6,8,8,8h27c2.8,0,5,2.2,5,5v27c0,4.4,3.6,8,8,8c4.4,0,8-3.6,8-8v-27c0-2.8,2.2-5,5-5h27
					c4.4,0,8-3.6,8-8c0-4.4-3.6-8-8-8h-27c-2.8,0-5-2.2-5-5v-27c0-4.4-3.6-8-8-8c-4.4,0-8,3.6-8,8v27c0,2.8-2.2,5-5,5H61.1z"/>
			</g>
		</g>
		<g>
			<g>
				<g>
					<g>
						<g>
							<circle class="st2" cx="398.9" cy="197.7" r="25.9"/>
						</g>
					</g>
					<g>
						<g>
							<path class="st1" d="M398.9,228.6c-17.1,0-30.9-13.9-30.9-30.9s13.9-30.9,30.9-30.9c17.1,0,30.9,13.9,30.9,30.9
								S416,228.6,398.9,228.6z M398.9,176.8c-11.5,0-20.9,9.4-20.9,20.9c0,11.5,9.4,20.9,20.9,20.9c11.5,0,20.9-9.4,20.9-20.9
								C419.9,186.1,410.5,176.8,398.9,176.8z"/>
						</g>
					</g>
				</g>
				<g>
					<g>
						<g>
							<circle class="st3" cx="398.9" cy="271.5" r="25.9"/>
						</g>
					</g>
					<g>
						<g>
							<path class="st1" d="M398.9,302.4c-17.1,0-30.9-13.9-30.9-30.9c0-17.1,13.9-30.9,30.9-30.9c17.1,0,30.9,13.9,30.9,30.9
								C429.9,288.6,416,302.4,398.9,302.4z M398.9,250.5c-11.5,0-20.9,9.4-20.9,20.9c0,11.5,9.4,20.9,20.9,20.9
								c11.5,0,20.9-9.4,20.9-20.9C419.9,259.9,410.5,250.5,398.9,250.5z"/>
						</g>
					</g>
				</g>
			</g>
			<g>
				<g>
					<g>
						<g>
							<circle class="st5" cx="435.8" cy="234.6" r="25.9"/>
						</g>
					</g>
					<g>
						<g>
							<path class="st1" d="M435.8,265.5c-17.1,0-30.9-13.9-30.9-30.9s13.9-30.9,30.9-30.9s30.9,13.9,30.9,30.9
								S452.9,265.5,435.8,265.5z M435.8,213.6c-11.5,0-20.9,9.4-20.9,20.9c0,11.5,9.4,20.9,20.9,20.9c11.5,0,20.9-9.4,20.9-20.9
								C456.8,223,447.4,213.6,435.8,213.6z"/>
						</g>
					</g>
				</g>
				<g>
					<g>
						<g>
							<circle class="st6" cx="362" cy="234.6" r="25.9"/>
						</g>
					</g>
					<g>
						<g>
							<path class="st1" d="M362,265.5c-17.1,0-30.9-13.9-30.9-30.9s13.9-30.9,30.9-30.9c17.1,0,30.9,13.9,30.9,30.9
								S379.1,265.5,362,265.5z M362,213.6c-11.5,0-20.9,9.4-20.9,20.9c0,11.5,9.4,20.9,20.9,20.9c11.5,0,20.9-9.4,20.9-20.9
								C383,223,373.6,213.6,362,213.6z"/>
						</g>
					</g>
				</g>
			</g>
		</g>
		<g>
			<g>
				<path class="st1" d="M272.2,179.1C272.1,179.1,272.1,179.1,272.2,179.1l-44.4-0.4c-2.7,0-5-2.3-5-5v-29.3
					c0-15,12.2-27.2,27.2-27.2c15,0,27.2,12.2,27.2,27.2v29.8c0,1.3-0.5,2.6-1.5,3.6C274.7,178.6,273.5,179.1,272.2,179.1z
					 M232.8,168.7l34.3,0.3v-24.7c0-9.5-7.7-17.2-17.2-17.2c-9.5,0-17.2,7.7-17.2,17.2V168.7z"/>
			</g>
		</g>
		<g>
			<g>
				<path class="st1" d="M250,127.2c-2.8,0-5-2.2-5-5V76.3c0-2.8,2.2-5,5-5s5,2.2,5,5v45.9C255,125,252.8,127.2,250,127.2z"/>
			</g>
		</g>
		<g>
			<g>
				<path class="st1" d="M250,48.9c-2.8,0-5-2.2-5-5V33.6c0-2.8,2.2-5,5-5s5,2.2,5,5v10.3C255,46.6,252.8,48.9,250,48.9z"/>
			</g>
		</g>
	</g>
	<g>
		<g>
			<g>
				<path class="st5" d="M262.5,223.6h-25.1c-7.4,0-13.5,6-13.5,13.5v0.9c0,7.4,6,13.5,13.5,13.5h25.1c7.4,0,13.5-6,13.5-13.5v-0.9
					C276,229.6,270,223.6,262.5,223.6z"/>
			</g>
		</g>
		<g>
			<g>
				<path class="st1" d="M262.5,256.4h-25.1c-10.2,0-18.5-8.3-18.5-18.5v-0.9c0-10.2,8.3-18.5,18.5-18.5h25.1
					c10.2,0,18.5,8.3,18.5,18.5v0.9C281,248.1,272.7,256.4,262.5,256.4z M237.5,228.6c-4.7,0-8.5,3.8-8.5,8.5v0.9
					c0,4.7,3.8,8.5,8.5,8.5h25.1c4.7,0,8.5-3.8,8.5-8.5v-0.9c0-4.7-3.8-8.5-8.5-8.5H237.5z"/>
			</g>
		</g>
	</g>
</g>
</svg>
