<?xml version="1.0" encoding="utf-8"?>
<!-- Generator: Adobe Illustrator 19.2.0, SVG Export Plug-In . SVG Version: 6.00 Build 0)  -->
<svg version="1.1" id="Layer_1" xmlns="http://www.w3.org/2000/svg" xmlns:xlink="http://www.w3.org/1999/xlink" x="0px" y="0px"
	 viewBox="0 0 500 500" style="enable-background:new 0 0 500 500;" xml:space="preserve">
<style type="text/css">
	.st0{fill:#ECF4F7;}
	.st1{fill:#1C1D21;}
	.st2{fill:#83E1E5;}
	.st3{fill:#AAB1BA;}
	.st4{fill:none;stroke:#1C1D21;stroke-width:10;stroke-linecap:round;stroke-linejoin:round;stroke-miterlimit:10;}
	.st5{fill:#FDDF7F;}
	.st6{fill:#FFFFFF;}
</style>
<g>
	<g>
		<g>
			<circle class="st5" cx="250" cy="154.3" r="22.3"/>
		</g>
	</g>
	<g>
		<g>
			<path class="st3" d="M127.5,154.3L127.5,154.3C59.8,154.3,5,209.1,5,276.7v0c0,67.7,54.8,122.5,122.5,122.5h0
				c67.7,0,122.5-54.8,122.5-122.5v0C250,209.1,195.2,154.3,127.5,154.3z"/>
		</g>
	</g>
	<g>
		<g>
			<path class="st3" d="M372.5,154.3L372.5,154.3c-67.7,0-122.5,54.8-122.5,122.5v0c0,67.7,54.8,122.5,122.5,122.5h0
				c67.7,0,122.5-54.8,122.5-122.5v0C495,209.1,440.2,154.3,372.5,154.3z"/>
		</g>
	</g>
	<g>
		<g>
			<path class="st1" d="M127.5,404.3C57.2,404.3,0,347.1,0,276.8s57.2-127.5,127.5-127.5S255,206.4,255,276.8
				S197.8,404.3,127.5,404.3z M127.5,159.3C62.7,159.3,10,212,10,276.8s52.7,117.5,117.5,117.5S245,341.5,245,276.8
				S192.3,159.3,127.5,159.3z"/>
		</g>
	</g>
	<g>
		<g>
			<path class="st1" d="M372.5,404.3c-70.3,0-127.5-57.2-127.5-127.5s57.2-127.5,127.5-127.5S500,206.4,500,276.8
				S442.8,404.3,372.5,404.3z M372.5,159.3C307.7,159.3,255,212,255,276.8s52.7,117.5,117.5,117.5S490,341.5,490,276.8
				S437.3,159.3,372.5,159.3z"/>
		</g>
	</g>
	<g>
		<g>
			<path class="st1" d="M141.5,159.3c-1,0-2-0.3-2.9-0.9c-2.2-1.6-2.8-4.7-1.1-7c21.2-29.6,54.8-49,94.5-54.6c0.1,0,0.1,0,0.2,0
				c24.7-2.7,49.7,0.5,72.3,9.5c24,9.5,44.1,25.1,58.2,45.1c1.6,2.3,1,5.4-1.2,7c-2.3,1.6-5.4,1-7-1.2
				c-25.7-36.6-72.1-55.9-121.1-50.5c-36.9,5.3-68.1,23.2-87.7,50.6C144.6,158.5,143.1,159.3,141.5,159.3z"/>
		</g>
	</g>
	<g>
		<g>
			<path class="st1" d="M250,181.5c-15,0-27.3-12.2-27.3-27.3S235,127,250,127c15,0,27.3,12.2,27.3,27.3S265,181.5,250,181.5z
				 M250,137c-9.5,0-17.3,7.7-17.3,17.3s7.7,17.3,17.3,17.3c9.5,0,17.3-7.7,17.3-17.3S259.5,137,250,137z"/>
		</g>
	</g>
	<g>
		<g>
			<g>
				<path class="st2" d="M127.5,190.8L127.5,190.8c-47.5,0-85.9,38.5-85.9,85.9v0c0,47.5,38.5,85.9,85.9,85.9h0
					c47.5,0,85.9-38.5,85.9-85.9v0C213.4,229.3,175,190.8,127.5,190.8z"/>
			</g>
		</g>
		<g>
			<g>
				<path class="st1" d="M127.5,367.7c-50.1,0-90.9-40.8-90.9-90.9s40.8-90.9,90.9-90.9s90.9,40.8,90.9,90.9
					S177.6,367.7,127.5,367.7z M127.5,195.8c-44.6,0-80.9,36.3-80.9,80.9s36.3,80.9,80.9,80.9s80.9-36.3,80.9-80.9
					S172.1,195.8,127.5,195.8z"/>
			</g>
		</g>
		<g>
			<g>
				<g>
					<path class="st1" d="M57.5,331.6c-1.3,0-2.6-0.5-3.5-1.5c-2-2-2-5.1,0-7.1L84,293.2c0.9-0.9,2.2-1.5,3.5-1.5
						c1.3,0,2.6,0.5,3.5,1.5l19,19l51.7-51.7c2-2,5.1-2,7.1,0c2,2,2,5.1,0,7.1l-55.2,55.2c-0.9,0.9-2.2,1.5-3.5,1.5
						c-1.3,0-2.6-0.5-3.5-1.5l-19-19l-26.4,26.4C60.1,331.2,58.8,331.6,57.5,331.6z"/>
				</g>
			</g>
			<g>
				<g>
					<path class="st1" d="M165.2,300.6c-2.8,0-5-2.2-5-5v-26.5h-26.5c-2.8,0-5-2.2-5-5s2.2-5,5-5h31.5c2.8,0,5,2.2,5,5v31.5
						C170.2,298.4,168,300.6,165.2,300.6z"/>
				</g>
			</g>
		</g>
	</g>
	<g>
		<g>
			<g>
				<path class="st2" d="M372.5,190.8L372.5,190.8c-47.5,0-85.9,38.5-85.9,85.9v0c0,47.5,38.5,85.9,85.9,85.9h0
					c47.5,0,85.9-38.5,85.9-85.9v0C458.4,229.3,420,190.8,372.5,190.8z"/>
			</g>
		</g>
		<g>
			<g>
				<path class="st1" d="M372.5,367.7c-50.1,0-90.9-40.8-90.9-90.9s40.8-90.9,90.9-90.9s90.9,40.8,90.9,90.9
					S422.6,367.7,372.5,367.7z M372.5,195.8c-44.6,0-80.9,36.3-80.9,80.9s36.3,80.9,80.9,80.9s80.9-36.3,80.9-80.9
					S417.1,195.8,372.5,195.8z"/>
			</g>
		</g>
		<g>
			<g>
				<g>
					<path class="st1" d="M302.5,331.6c-1.3,0-2.6-0.5-3.5-1.5c-2-2-2-5.1,0-7.1l29.9-29.9c0.9-0.9,2.2-1.5,3.5-1.5s2.6,0.5,3.5,1.5
						l19,19l51.7-51.7c2-2,5.1-2,7.1,0c2,2,2,5.1,0,7.1l-55.2,55.2c-0.9,0.9-2.2,1.5-3.5,1.5s-2.6-0.5-3.5-1.5l-19-19l-26.4,26.4
						C305.1,331.2,303.8,331.6,302.5,331.6z"/>
				</g>
			</g>
			<g>
				<g>
					<path class="st1" d="M410.2,300.6c-2.8,0-5-2.2-5-5v-26.5h-26.5c-2.8,0-5-2.2-5-5s2.2-5,5-5h31.5c2.8,0,5,2.2,5,5v31.5
						C415.2,298.4,413,300.6,410.2,300.6z"/>
				</g>
			</g>
		</g>
	</g>
</g>
</svg>
