<?xml version="1.0" encoding="utf-8"?>
<!-- Generator: Adobe Illustrator 19.2.0, SVG Export Plug-In . SVG Version: 6.00 Build 0)  -->
<svg version="1.1" id="Layer_1" xmlns="http://www.w3.org/2000/svg" xmlns:xlink="http://www.w3.org/1999/xlink" x="0px" y="0px"
	 viewBox="0 0 500 500" style="enable-background:new 0 0 500 500;" xml:space="preserve">
<style type="text/css">
	.st0{fill:#ECF4F7;}
	.st1{fill:#1C1D21;}
	.st2{fill:#83E1E5;}
	.st3{fill:#AAB1BA;}
	.st4{fill:none;stroke:#1C1D21;stroke-width:10;stroke-linecap:round;stroke-linejoin:round;stroke-miterlimit:10;}
	.st5{fill:#FDDF7F;}
	.st6{fill:#FFFFFF;}
</style>
<g>
	<g>
		<g>
			<path class="st5" d="M193.4,346.5c-40.9,0-79.4-15.9-108.4-44.9c-28.9-28.9-44.9-67.4-44.9-108.4c0-40.9,15.9-79.4,44.9-108.4
				C114,56,152.5,40,193.4,40c40.9,0,79.4,15.9,108.4,44.9c28.9,28.9,44.9,67.4,44.9,108.4c0,40.9-15.9,79.4-44.9,108.4
				C272.8,330.6,234.3,346.5,193.4,346.5z"/>
		</g>
	</g>
	<g>
		<g>
			<path class="st1" d="M173.1,46.3c-2.5,0-4.6-1.8-5-4.3c-0.4-2.7,1.6-5.2,4.3-5.6c6.9-0.9,13.9-1.4,20.9-1.4c2.8,0,5,2.2,5,5
				s-2.2,5-5,5c-6.6,0-13.2,0.4-19.6,1.3C173.5,46.3,173.3,46.3,173.1,46.3z"/>
		</g>
	</g>
	<g>
		<g>
			<path class="st1" d="M47.9,149.9c-0.5,0-1.1-0.1-1.6-0.3c-2.6-0.9-4-3.7-3.2-6.3c7.8-23.4,20.7-44.3,38.3-62
				c14.8-14.8,32-26.4,51.1-34.3c2.5-1.1,5.5,0.1,6.5,2.7c1.1,2.5-0.1,5.5-2.7,6.5c-17.9,7.4-34,18.2-47.9,32.1
				c-16.6,16.6-28.7,36.1-35.9,58C51.9,148.6,50,149.9,47.9,149.9z"/>
		</g>
	</g>
	<g>
		<g>
			<path class="st1" d="M470.3,499.9c-7.6,0-15.2-2.9-21-8.7L338.7,380.6c-16.9-16.9-43.1-21.5-65.1-11.5
				c-35.6,16.2-74.8,21.2-113.5,14.5c-39.6-6.9-75.5-25.7-103.9-54.3C19.9,292.7-0.1,244.2,0,192.9c0.1-51.4,20.3-99.7,56.8-136.2
				c75.3-75.3,197.9-75.3,273.3,0c28.5,28.5,47.1,64.4,53.8,104c6.6,38.7,1.4,77.9-14.9,113.4c-10,21.7-5.2,47.7,12,64.8
				l110.4,110.3c0,0,0,0,0,0c11.6,11.6,11.6,30.4,0,42C485.5,497,477.9,499.9,470.3,499.9z M297.8,353.9c17.7,0,35.1,6.8,48,19.7
				l110.6,110.6c7.7,7.7,20.2,7.7,27.8,0c7.7-7.7,7.7-20.2,0-27.8L373.9,346c-20.1-20.1-25.7-50.7-14-76.1
				c31.9-69.3,17.1-152.2-36.9-206.2c-71.4-71.4-187.7-71.4-259.1,0c-71.2,71.2-71.4,187.2-0.5,258.6
				c53.8,54.2,136.6,69.4,206.1,37.7C278.5,355.9,288.2,353.9,297.8,353.9z"/>
		</g>
	</g>
	<g>
		<g>
			<path class="st1" d="M426.4,466.2c-1.3,0-2.6-0.5-3.5-1.5c-2-2-2-5.1,0-7.1l18.6-18.6c2-2,5.1-2,7.1,0c2,2,2,5.1,0,7.1
				l-18.6,18.6C429,465.7,427.7,466.2,426.4,466.2z"/>
		</g>
	</g>
	<g>
		<g>
			<g>
				<g>
					<path class="st2" d="M92.3,250.2c15.4,26.3,44.1,44.1,76.9,44.1c32.9,0,61.6-17.7,77-44.1c-15.4-26.3-44.1-44.1-77-44.1
						C136.4,206.1,107.7,223.9,92.3,250.2z"/>
				</g>
			</g>
			<g>
				<g>
					<path class="st1" d="M169.3,299.3c-33.4,0-64.5-17.8-81.3-46.6c-0.9-1.6-0.9-3.5,0-5c16.8-28.7,47.9-46.6,81.3-46.6
						c33.4,0,64.5,17.8,81.3,46.6c0.9,1.6,0.9,3.5,0,5C233.8,281.5,202.7,299.3,169.3,299.3z M98.2,250.2
						c15.3,24.2,42.3,39.1,71.1,39.1c28.8,0,55.8-14.9,71.1-39.1c-15.3-24.2-42.3-39.1-71.1-39.1C140.4,211.1,113.5,226,98.2,250.2z
						"/>
				</g>
			</g>
			<g>
				<g>
					<path class="st1" d="M246.2,255.2H92.3c-2.8,0-5-2.2-5-5s2.2-5,5-5h153.9c2.8,0,5,2.2,5,5S249,255.2,246.2,255.2z"/>
				</g>
			</g>
			<g>
				<g>
					<path class="st1" d="M163.1,299.3c-1.3,0-2.6-0.5-3.5-1.5c-2-2-2-5.1,0-7.1l40.6-40.5l-40.6-40.5c-2-2-2-5.1,0-7.1
						c2-2,5.1-2,7.1,0l44.1,44.1c0.9,0.9,1.5,2.2,1.5,3.5c0,1.3-0.5,2.6-1.5,3.5l-44.1,44.1C165.7,298.8,164.4,299.3,163.1,299.3z"
						/>
				</g>
			</g>
			<g>
				<g>
					<path class="st1" d="M128.7,289.6c-1.3,0-2.6-0.5-3.5-1.5c-2-2-2-5.1,0-7.1l30.9-30.8l-30.9-30.8c-2-2-2-5.1,0-7.1
						c2-2,5.1-2,7.1,0l34.4,34.4c0.9,0.9,1.5,2.2,1.5,3.5c0,1.3-0.5,2.6-1.5,3.5l-34.4,34.4C131.3,289.1,130,289.6,128.7,289.6z"/>
				</g>
			</g>
		</g>
		<g>
			<g>
				<g>
					<path class="st2" d="M250.4,92.2c26.3,15.4,44.1,44.1,44.1,76.9c0,32.9-17.7,61.6-44.1,76.9c-26.3-15.4-44.1-44.1-44.1-76.9
						C206.3,136.3,224,107.6,250.4,92.2z"/>
				</g>
			</g>
			<g>
				<g>
					<path class="st1" d="M250.4,251.1c-0.9,0-1.7-0.2-2.5-0.7c-28.7-16.8-46.6-47.9-46.6-81.3c0-33.4,17.8-64.5,46.6-81.3
						c1.6-0.9,3.5-0.9,5,0c28.7,16.8,46.6,47.9,46.6,81.3c0,33.4-17.8,64.5-46.6,81.3C252.1,250.9,251.2,251.1,250.4,251.1z
						 M250.4,98.1c-24.2,15.3-39.1,42.3-39.1,71.1c0,28.8,14.9,55.8,39.1,71.1c24.2-15.3,39.1-42.3,39.1-71.1
						C289.4,140.3,274.5,113.3,250.4,98.1z"/>
				</g>
			</g>
			<g>
				<g>
					<path class="st1" d="M250.4,251.1c-2.8,0-5-2.2-5-5V92.2c0-2.8,2.2-5,5-5c2.8,0,5,2.2,5,5v153.9
						C255.4,248.9,253.1,251.1,250.4,251.1z"/>
				</g>
			</g>
			<g>
				<g>
					<path class="st1" d="M250.4,212.1c-1.3,0-2.6-0.5-3.5-1.5l-44.1-44.1c-2-2-2-5.1,0-7.1c2-2,5.1-2,7.1,0l40.5,40.6l40.5-40.6
						c2-2,5.1-2,7.1,0c2,2,2,5.1,0,7.1l-44.1,44.1C253,211.6,251.7,212.1,250.4,212.1z"/>
				</g>
			</g>
			<g>
				<g>
					<path class="st1" d="M250.4,168c-1.3,0-2.6-0.5-3.5-1.5l-34.4-34.4c-2-2-2-5.1,0-7.1c2-2,5.1-2,7.1,0l30.8,30.9l30.8-30.9
						c2-2,5.1-2,7.1,0c2,2,2,5.1,0,7.1l-34.4,34.4C253,167.5,251.7,168,250.4,168z"/>
				</g>
			</g>
		</g>
	</g>
</g>
</svg>
