<?xml version="1.0" encoding="utf-8"?>
<!-- Generator: Adobe Illustrator 19.2.0, SVG Export Plug-In . SVG Version: 6.00 Build 0)  -->
<svg version="1.1" id="Layer_1" xmlns="http://www.w3.org/2000/svg" xmlns:xlink="http://www.w3.org/1999/xlink" x="0px" y="0px"
	 viewBox="0 0 500 500" style="enable-background:new 0 0 500 500;" xml:space="preserve">
<style type="text/css">
	.st0{fill:#ECF4F7;}
	.st1{fill:#1C1D21;}
	.st2{fill:#83E1E5;}
	.st3{fill:#AAB1BA;}
	.st4{fill:none;stroke:#1C1D21;stroke-width:10;stroke-linecap:round;stroke-linejoin:round;stroke-miterlimit:10;}
	.st5{fill:#FDDF7F;}
	.st6{fill:#FFFFFF;}
</style>
<g>
	<g>
		<g>
			<g>
				<path class="st0" d="M99.3,495h-7.2c-9.2,0-16.6-7.5-16.6-16.6V51.9c0-9.2,7.5-16.6,16.6-16.6h7.2c9.2,0,16.6,7.5,16.6,16.6
					v426.5C115.9,487.5,108.5,495,99.3,495z"/>
			</g>
		</g>
		<g>
			<g>
				<path class="st1" d="M75.4,338.3c-2.8,0-5-2.2-5-5V314c0-2.8,2.2-5,5-5c2.8,0,5,2.2,5,5v19.3C80.4,336.1,78.2,338.3,75.4,338.3z
					"/>
			</g>
		</g>
		<g>
			<g>
				<path class="st1" d="M99.3,500h-7.2c-11.9,0-21.6-9.7-21.6-21.6V360c0-2.8,2.2-5,5-5c2.8,0,5,2.2,5,5v118.4
					c0,6.4,5.2,11.6,11.6,11.6h7.2c6.4,0,11.6-5.2,11.6-11.6V51.9c0-6.4-5.2-11.6-11.6-11.6h-7.2c-6.4,0-11.6,5.2-11.6,11.6V283
					c0,2.8-2.2,5-5,5c-2.8,0-5-2.2-5-5V51.9c0-11.9,9.7-21.6,21.6-21.6h7.2c11.9,0,21.6,9.7,21.6,21.6v426.5
					C120.9,490.3,111.2,500,99.3,500z"/>
			</g>
		</g>
	</g>
	<g>
		<g>
			<path class="st5" d="M284.2,5h140.9c19.9,0,31.4,22.6,19.7,38.6l-37.6,51.7c-6.2,8.5-6.2,20.1,0,28.6l37.6,51.7
				c11.7,16.1,0.2,38.6-19.7,38.6H284.2c-13.4,0-24.3,10.9-24.3,24.3l0,20c0,13.4-10.9,24.3-24.3,24.3H74.8
				c-13.4,0-24.3-10.9-24.3-24.3V98c0-13.4,10.9-24.3,24.3-24.3h160.7c13.4,0,24.3-10.9,24.3-24.3v-20C259.9,15.9,270.8,5,284.2,5z"
				/>
		</g>
	</g>
	<g>
		<g>
			<path class="st1" d="M235.5,288H74.8c-16.2,0-29.3-13.2-29.3-29.3V98c0-16.2,13.2-29.3,29.3-29.3h160.7
				c10.7,0,19.3-8.7,19.3-19.3v-20C254.9,13.2,268,0,284.2,0h140.9c11.1,0,21.1,6.1,26.1,16c5,9.9,4.1,21.6-2.4,30.6l-37.6,51.7
				c-4.9,6.8-4.9,15.9,0,22.7l37.6,51.7c6.5,9,7.5,20.7,2.4,30.6c-5,9.9-15,16-26.1,16H284.2c-10.7,0-19.3,8.7-19.3,19.3v20
				C264.9,274.8,251.7,288,235.5,288z M74.8,78.7c-10.7,0-19.3,8.7-19.3,19.3v160.7c0,10.7,8.7,19.3,19.3,19.3h160.7
				c10.7,0,19.3-8.7,19.3-19.3v-20c0-16.2,13.2-29.3,29.3-29.3h140.9c7.4,0,13.9-3.9,17.2-10.6c3.4-6.6,2.8-14.1-1.6-20.1
				l-37.6-51.7c-7.5-10.3-7.5-24.2,0-34.5l37.6-51.7c4.4-6,5-13.5,1.6-20.1C439,13.9,432.5,10,425.1,10H284.2
				c-10.7,0-19.3,8.7-19.3,19.3v20c0,16.2-13.2,29.3-29.3,29.3H74.8z"/>
		</g>
	</g>
	<g>
		<g>
			<path class="st1" d="M259.9,239.5c-2.8,0-5-2.2-5-5v-62.9c0-2.8,2.2-5,5-5c2.8,0,5,2.2,5,5v62.9
				C264.9,237.3,262.6,239.5,259.9,239.5z"/>
		</g>
	</g>
	<g>
		<g>
			<path class="st1" d="M259.9,144.8c-2.8,0-5-2.2-5-5v-8.7c0-2.8,2.2-5,5-5c2.8,0,5,2.2,5,5v8.7
				C264.9,142.6,262.6,144.8,259.9,144.8z"/>
		</g>
	</g>
</g>
</svg>
