<?xml version="1.0" encoding="utf-8"?>
<!-- Generator: Adobe Illustrator 19.2.0, SVG Export Plug-In . SVG Version: 6.00 Build 0)  -->
<svg version="1.1" id="Layer_1" xmlns="http://www.w3.org/2000/svg" xmlns:xlink="http://www.w3.org/1999/xlink" x="0px" y="0px"
	 viewBox="0 0 500 500" style="enable-background:new 0 0 500 500;" xml:space="preserve">
<style type="text/css">
	.st0{fill:#ECF4F7;}
	.st1{fill:#1C1D21;}
	.st2{fill:#83E1E5;}
	.st3{fill:#AAB1BA;}
	.st4{fill:none;stroke:#1C1D21;stroke-width:10;stroke-linecap:round;stroke-linejoin:round;stroke-miterlimit:10;}
	.st5{fill:#FDDF7F;}
	.st6{fill:#FFFFFF;}
</style>
<g>
	<g>
		<g>
			<g>
				<path class="st2" d="M250,339.3l-39.9,147.6c-2.4,9-14.2,11-19.5,3.4l-19.9-28.6c-3-4.4-8.8-5.9-13.6-3.7l-31.6,14.7
					c-8.4,3.9-17.6-3.8-15.2-12.8l39.9-147.6L250,339.3z"/>
			</g>
		</g>
		<g>
			<g>
				<path class="st2" d="M250,339.3l39.9,147.6c2.4,9,14.2,11,19.5,3.4l19.9-28.6c3-4.4,8.8-5.9,13.6-3.7l31.6,14.7
					c8.4,3.9,17.6-3.8,15.2-12.8l-39.9-147.6L250,339.3z"/>
			</g>
		</g>
	</g>
	<g>
		<g>
			<g>
				<path class="st1" d="M199.5,500c-5.2,0-10-2.5-13-6.9l-19.9-28.6c-1.7-2.4-4.8-3.2-7.4-2l-31.6,14.7c-5.7,2.6-12.2,1.8-17-2.2
					c-4.8-4-6.8-10.3-5.1-16.4L145.4,311c0.3-1.3,1.2-2.4,2.3-3c1.2-0.7,2.5-0.8,3.8-0.5l99.8,27c1.3,0.3,2.4,1.2,3,2.3
					c0.7,1.1,0.8,2.5,0.5,3.8l-39.9,147.6c-1.6,6.1-6.5,10.5-12.7,11.5C201.3,499.9,200.4,500,199.5,500z M161.7,451.9
					c5.1,0,10,2.4,13.1,6.9l19.9,28.6c1.3,1.9,3.6,2.9,5.9,2.5c2.3-0.4,4.1-2,4.7-4.3l38.6-142.8l-90.1-24.4l-38.6,142.8
					c-0.6,2.3,0.1,4.6,1.9,6.1c1.8,1.5,4.2,1.8,6.3,0.8l31.6-14.7C157.2,452.4,159.5,451.9,161.7,451.9z"/>
			</g>
		</g>
		<g>
			<g>
				<path class="st1" d="M300.5,500c-0.9,0-1.9-0.1-2.8-0.2c-6.2-1.1-11-5.5-12.7-11.5l-39.9-147.6c-0.3-1.3-0.2-2.6,0.5-3.8
					c0.7-1.2,1.8-2,3-2.3l99.8-27c1.3-0.3,2.6-0.2,3.8,0.5c1.2,0.7,2,1.8,2.3,3l39.9,147.6c1.6,6.1-0.3,12.3-5.1,16.4
					c-4.8,4-11.3,4.9-17,2.2l-31.6-14.7c-2.6-1.2-5.7-0.4-7.4,2l-19.9,28.6C310.5,497.5,305.7,500,300.5,500z M256.1,342.8
					l38.6,142.8c0.6,2.3,2.4,3.9,4.7,4.3c2.3,0.4,4.5-0.5,5.9-2.5l19.9-28.6c4.4-6.4,12.8-8.7,19.8-5.4l31.6,14.7
					c2.1,1,4.5,0.7,6.3-0.8c1.8-1.5,2.5-3.8,1.9-6.1l-38.6-142.8L256.1,342.8z"/>
			</g>
		</g>
	</g>
	<g>
		<g>
			<path class="st0" d="M411,157.6h-20c-0.9,0-1.9-0.1-2.8-0.2c0.8-0.5,1.6-0.9,2.4-1.3l18.4-7.9c10-4.3,14.6-15.9,10.4-25.9
				l-6.6-15.5c-4.3-10-15.9-14.6-25.9-10.4l-14.1,6l10.8-10.8c7.7-7.7,7.7-20.2,0-27.9L371.8,52c-7.7-7.7-20.2-7.7-27.9,0
				l-14.1,14.1c-0.7,0.7-1.4,1.3-2.1,1.8c0.2-0.9,0.5-1.8,0.8-2.6l7.4-18.6c4-10.1-0.9-21.6-11-25.6l-15.6-6.3
				c-10.1-4-21.6,0.9-25.6,11L278.1,40V24.7c0-10.9-8.8-19.7-19.7-19.7h-16.9c-10.9,0-19.7,8.8-19.7,19.7v20c0,0.9-0.1,1.9-0.2,2.8
				c-0.5-0.8-0.9-1.6-1.3-2.4l-7.9-18.4c-4.3-10-15.9-14.6-25.9-10.4l-15.5,6.6c-10,4.3-14.6,15.9-10.4,25.9l6,14.1L156,52
				c-7.7-7.7-20.2-7.7-27.9,0l-11.9,11.9c-7.7,7.7-7.7,20.2,0,27.9l14.1,14.1c0.7,0.7,1.3,1.4,1.8,2.1c-0.9-0.2-1.8-0.5-2.6-0.8
				L111,99.7c-10.1-4-21.6,0.9-25.6,11l-6.3,15.6c-4,10.1,0.9,21.6,11,25.6l14.2,5.7H89c-10.9,0-19.7,8.8-19.7,19.7v16.9
				c0,10.9,8.8,19.7,19.7,19.7h20c0.9,0,1.9,0.1,2.8,0.2c-0.8,0.5-1.6,0.9-2.4,1.3l-18.4,7.9c-10,4.3-14.6,15.9-10.4,25.9l6.6,15.5
				c4.3,10,15.9,14.6,25.9,10.4l14.1-6l-10.8,10.8c-7.7,7.7-7.7,20.2,0,27.9l11.9,11.9c7.7,7.7,20.2,7.7,27.9,0l14.1-14.1
				c0.7-0.7,1.4-1.3,2.1-1.8c-0.2,0.9-0.5,1.8-0.8,2.6l-7.4,18.6c-4,10.1,0.9,21.6,11,25.6l15.6,6.3c10.1,4,21.6-0.9,25.6-11
				l5.7-14.2v15.3c0,10.9,8.8,19.7,19.7,19.7h16.9c10.9,0,19.7-8.8,19.7-19.7v-20c0-0.9,0.1-1.9,0.2-2.8c0.5,0.8,0.9,1.6,1.3,2.4
				l7.9,18.4c4.3,10,15.9,14.6,25.9,10.4l15.5-6.6c10-4.3,14.6-15.9,10.4-25.9l-6-14.1l10.8,10.8c7.7,7.7,20.2,7.7,27.9,0l11.9-11.9
				c7.7-7.7,7.7-20.2,0-27.9l-14.1-14.1c-0.7-0.7-1.3-1.4-1.8-2.1c0.9,0.2,1.8,0.5,2.6,0.8l18.6,7.4c10.1,4,21.6-0.9,25.6-11
				l6.3-15.6c4-10.1-0.9-21.6-11-25.6l-14.2-5.7H411c10.9,0,19.7-8.8,19.7-19.7v-16.9C430.7,166.4,421.9,157.6,411,157.6z"/>
		</g>
	</g>
	<g>
		<g>
			<path class="st1" d="M258.4,371.5h-16.9c-11.4,0-21.1-7.8-23.9-18.4c-2.6,3.5-6,6.2-10.1,7.9c-6.1,2.6-12.8,2.7-18.9,0.2
				l-15.6-6.3c-12.4-5-18.6-19-14-31.5c-9.7,9.2-25,9-34.5-0.5l-11.9-11.9c-8.1-8.1-9.4-20.4-3.9-29.9C98,282.8,87,277,82.5,266.5
				L75.9,251c-2.6-6.1-2.7-12.8-0.2-18.9c2.4-5.9,6.8-10.6,12.6-13.3c-13.3-0.3-24.1-11.3-24.1-24.7v-16.9
				c0-11.4,7.8-21.1,18.4-23.9c-3.5-2.6-6.2-6-7.9-10.1c-2.6-6.1-2.7-12.8-0.2-18.9l6.3-15.6c5-12.4,19-18.6,31.5-14
				c-9.2-9.7-9-25,0.5-34.5l11.9-11.9c8.1-8.1,20.4-9.4,29.9-3.9c-1.6-10.8,4.2-21.8,14.7-26.3l15.5-6.6
				c12.3-5.3,26.6,0.3,32.2,12.4C217.2,10.7,228.2,0,241.6,0h16.9c11.4,0,21.1,7.8,23.9,18.4c2.6-3.5,6-6.2,10.1-7.9
				c6.1-2.6,12.8-2.7,18.9-0.2l15.6,6.3c6.1,2.5,10.9,7.1,13.5,13.2c2.5,5.9,2.7,12.3,0.4,18.3c9.7-9.2,25-9,34.5,0.4l11.9,11.9
				c8.1,8.1,9.4,20.4,3.9,29.9c4.3-0.6,8.6-0.1,12.8,1.5c6.1,2.5,10.9,7.1,13.5,13.2l6.6,15.5c2.6,6.1,2.7,12.8,0.2,18.9
				c-2.4,5.9-6.8,10.6-12.6,13.3c13.3,0.3,24.1,11.3,24.1,24.7v16.9c0,11.4-7.8,21.1-18.4,23.9c8.8,6.5,12.4,18.4,8.2,29l-6.3,15.6
				c-5,12.4-19,18.6-31.5,14c9.2,9.7,9,25-0.5,34.5L375.4,323c-8.1,8.1-20.4,9.4-29.9,3.9c1.6,10.8-4.2,21.8-14.7,26.3l-15.5,6.6
				c-12.3,5.3-26.6-0.3-32.2-12.4C282.8,360.7,271.8,371.5,258.4,371.5z M221.9,326.4c0.3,0,0.6,0,1,0.1c2.4,0.5,4.1,2.5,4.1,4.9
				v15.3c0,8.1,6.6,14.7,14.7,14.7h16.9c8.1,0,14.7-6.6,14.7-14.7v-20c0-1.1,0.1-2.3,0.2-3.5c0.3-2.1,1.9-3.8,3.9-4.2
				c2.1-0.4,4.2,0.5,5.3,2.3c0.6,1,1.1,2,1.6,3.1l7.9,18.4c3.2,7.4,11.8,10.9,19.3,7.7l15.5-6.6c7.5-3.2,10.9-11.8,7.7-19.3l-6-14.1
				c-0.9-2.2-0.2-4.8,1.8-6.1c2-1.3,4.6-1.1,6.3,0.6l10.8,10.8c5.7,5.7,15.1,5.7,20.8,0l11.9-11.9c5.7-5.7,5.7-15.1,0-20.8
				l-14.1-14.1c-0.8-0.8-1.5-1.6-2.3-2.6c-1.3-1.7-1.4-4-0.2-5.8c1.2-1.8,3.3-2.6,5.4-2.1c1.2,0.3,2.3,0.6,3.3,1.1l18.5,7.4
				c7.5,3,16.1-0.7,19.1-8.2l6.3-15.6c3-7.5-0.6-16.1-8.2-19.1l-14.2-5.7c-2.2-0.9-3.5-3.2-3-5.6c0.5-2.4,2.5-4.1,4.9-4.1H411
				c8.1,0,14.7-6.6,14.7-14.7v-16.9c0-8.1-6.6-14.7-14.7-14.7h-20c-1.1,0-2.2-0.1-3.4-0.3c-2.1-0.3-3.8-1.9-4.2-3.9
				c-0.4-2.1,0.5-4.2,2.3-5.3c1-0.6,2-1.1,3.1-1.6l18.4-7.9c3.6-1.5,6.4-4.4,7.9-8c1.5-3.6,1.4-7.6-0.1-11.2l-6.6-15.5
				c-1.5-3.6-4.4-6.4-8-7.9c-3.6-1.5-7.6-1.4-11.2,0.1l-14.1,6c-2.2,0.9-4.8,0.2-6.1-1.8c-1.3-2-1.1-4.6,0.6-6.3l10.8-10.8
				c5.7-5.7,5.7-15.1,0-20.8l-11.9-11.9c-5.7-5.7-15.1-5.7-20.8,0l-14.1,14.1c-0.8,0.8-1.6,1.5-2.6,2.3c-1.7,1.3-4,1.3-5.8,0.2
				c-1.8-1.2-2.6-3.3-2.1-5.4c0.3-1.2,0.6-2.3,1.1-3.3l7.4-18.5c3-7.5-0.7-16.1-8.2-19.1l-15.6-6.3c-3.6-1.5-7.6-1.4-11.2,0.1
				c-3.6,1.5-6.4,4.4-7.9,8l-5.7,14.2c-0.9,2.2-3.2,3.5-5.6,3c-2.4-0.5-4.1-2.5-4.1-4.9V24.7c0-8.1-6.6-14.7-14.7-14.7h-16.9
				c-8.1,0-14.7,6.6-14.7,14.7v20c0,1.1-0.1,2.3-0.2,3.5c-0.3,2.1-1.9,3.8-3.9,4.2c-2.1,0.4-4.2-0.5-5.3-2.3c-0.6-1-1.1-2-1.6-3.1
				L208,28.6c-3.2-7.5-11.8-10.9-19.3-7.7l-15.5,6.6c-7.5,3.2-10.9,11.8-7.7,19.3l6,14.1c0.9,2.2,0.2,4.8-1.8,6.1
				c-2,1.3-4.6,1.1-6.3-0.6l-10.8-10.8c-5.7-5.7-15.1-5.7-20.8,0l-11.9,11.9c-5.7,5.7-5.7,15.1,0,20.8l14.1,14.1
				c0.8,0.8,1.5,1.6,2.3,2.6c1.3,1.7,1.3,4,0.2,5.8c-1.2,1.8-3.3,2.6-5.4,2.1c-1.2-0.3-2.3-0.6-3.3-1.1l-18.6-7.4
				c-3.6-1.5-7.6-1.4-11.2,0.1c-3.6,1.5-6.4,4.4-7.9,8l-6.3,15.6c-1.5,3.6-1.4,7.6,0.1,11.2c1.5,3.6,4.4,6.4,8,7.9l14.2,5.7
				c2.2,0.9,3.5,3.2,3,5.6c-0.5,2.4-2.5,4.1-4.9,4.1H89c-8.1,0-14.7,6.6-14.7,14.7v16.9c0,8.1,6.6,14.7,14.7,14.7h20
				c1.1,0,2.2,0.1,3.5,0.3c2.1,0.3,3.8,1.9,4.2,4c0.4,2.1-0.5,4.2-2.3,5.3c-1,0.6-2,1.1-3.1,1.6l-18.4,7.9c-3.6,1.5-6.4,4.4-7.9,8
				c-1.5,3.6-1.4,7.6,0.1,11.2l6.6,15.5c3.2,7.5,11.8,10.9,19.3,7.7l14.1-6c2.2-0.9,4.8-0.2,6.1,1.8c1.3,2,1.1,4.6-0.6,6.3
				l-10.8,10.8c-5.7,5.7-5.7,15.1,0,20.8l11.9,11.9c5.7,5.7,15.1,5.7,20.8,0l14.1-14.1c0.8-0.8,1.6-1.5,2.6-2.3
				c1.7-1.3,4-1.4,5.8-0.2c1.8,1.2,2.6,3.3,2.1,5.4c-0.3,1.2-0.6,2.3-1.1,3.3l-7.4,18.6c-3,7.5,0.7,16.1,8.2,19.1l15.6,6.3
				c3.6,1.5,7.6,1.4,11.2-0.1c3.6-1.5,6.4-4.4,7.9-8l5.7-14.2C218,327.7,219.9,326.4,221.9,326.4z"/>
		</g>
	</g>
	<g>
		<g>
			<circle class="st5" cx="250" cy="185.7" r="111.6"/>
		</g>
	</g>
	<g>
		<g>
			<path class="st1" d="M211.4,86c-2,0-3.9-1.3-4.7-3.3c-1-2.6,0.4-5.5,3-6.4c3-1.1,6-2.1,9.1-2.9c2.7-0.7,5.4,0.8,6.2,3.5
				c0.7,2.7-0.8,5.4-3.5,6.2c-2.8,0.8-5.6,1.7-8.3,2.7C212.6,85.9,212,86,211.4,86z"/>
		</g>
	</g>
	<g>
		<g>
			<path class="st1" d="M150.2,140.7c-0.8,0-1.5-0.2-2.2-0.5c-2.5-1.2-3.5-4.2-2.2-6.7c8.9-17.7,22.2-32.9,38.6-44.1
				c2.3-1.6,5.4-1,6.9,1.3c1.6,2.3,1,5.4-1.3,6.9c-15,10.2-27.1,24.1-35.3,40.3C153.8,139.7,152.1,140.7,150.2,140.7z"/>
		</g>
	</g>
	<g>
		<g>
			<path class="st1" d="M250,302.3c-64.3,0-116.6-52.3-116.6-116.6c0-6.5,0.5-13,1.6-19.4c0.5-2.7,3-4.6,5.8-4.1
				c2.7,0.5,4.6,3,4.1,5.8c-1,5.8-1.5,11.8-1.5,17.7c0,58.8,47.8,106.6,106.6,106.6s106.6-47.8,106.6-106.6S308.8,79.2,250,79.2
				c-2.8,0-5-2.2-5-5c0-2.8,2.2-5,5-5c64.3,0,116.6,52.3,116.6,116.6C366.6,250,314.3,302.3,250,302.3z"/>
		</g>
	</g>
</g>
</svg>
