<svg xmlns="http://www.w3.org/2000/svg" width="128" height="128" viewBox="0 0 128 128">
  <title>MICROPHONE</title>
  <g>
    <g>
      <polygon points="68.081 92.833 59.919 92.833 60.919 80.667 67.081 80.667 68.081 92.833" fill="#8299fd"/>
      <polygon points="85.622 103.349 42.377 103.349 46.377 92.833 81.622 92.833 85.622 103.349" fill="#d2ddff"/>
      <path d="M64,82.417A23.4,23.4,0,0,1,40.627,59.044a1.75,1.75,0,0,1,3.5,0,19.873,19.873,0,0,0,39.746,0,1.75,1.75,0,0,1,3.5,0A23.4,23.4,0,0,1,64,82.417Z" fill="#3536c0"/>
      <path d="M79.62,40.27V59.04a14.432,14.432,0,0,1-.1,1.75,15.617,15.617,0,0,1-31.04,0,14.432,14.432,0,0,1-.1-1.75V40.27a14.549,14.549,0,0,1,.1-1.75,15.618,15.618,0,0,1,31.04,0A14.549,14.549,0,0,1,79.62,40.27Z" fill="#d2ddff"/>
      <g>
        <path d="M55,40.27a1.746,1.746,0,0,1-1.75,1.75H48.38V40.27a14.549,14.549,0,0,1,.1-1.75h4.77A1.752,1.752,0,0,1,55,40.27Z" fill="#8299fd"/>
        <path d="M55,49.66a1.746,1.746,0,0,1-1.75,1.75H48.38v-3.5h4.87A1.746,1.746,0,0,1,55,49.66Z" fill="#8299fd"/>
        <path d="M55,59.04a1.746,1.746,0,0,1-1.75,1.75H48.48a14.432,14.432,0,0,1-.1-1.75V57.29h4.87A1.752,1.752,0,0,1,55,59.04Z" fill="#8299fd"/>
        <path d="M79.62,40.27v1.75H74.75a1.75,1.75,0,0,1,0-3.5h4.77A14.549,14.549,0,0,1,79.62,40.27Z" fill="#8299fd"/>
        <path d="M79.62,47.91v3.5H74.75a1.75,1.75,0,0,1,0-3.5Z" fill="#8299fd"/>
        <path d="M79.62,57.29v1.75a14.432,14.432,0,0,1-.1,1.75H74.75a1.75,1.75,0,0,1,0-3.5Z" fill="#8299fd"/>
      </g>
    </g>
    <g>
      <path d="M55.4,28.978a1.744,1.744,0,0,0,.963-.29c.215-.142.435-.278.658-.409a1.75,1.75,0,1,0-1.762-3.023q-.42.243-.824.511a1.75,1.75,0,0,0,.965,3.211Z" fill="#3536c0"/>
      <path d="M64,76.417A17.393,17.393,0,0,0,81.373,59.044V40.273a17.385,17.385,0,0,0-20.5-17.09,1.75,1.75,0,1,0,.625,3.443A14.078,14.078,0,0,1,64,26.4,13.885,13.885,0,0,1,77.75,38.523h-3a1.75,1.75,0,0,0,0,3.5h3.123v5.886H74.75a1.75,1.75,0,0,0,0,3.5h3.123v5.885H74.75a1.75,1.75,0,0,0,0,3.5h3a13.859,13.859,0,0,1-27.5,0h3a1.75,1.75,0,0,0,0-3.5H50.127V51.409H53.25a1.75,1.75,0,0,0,0-3.5H50.127V42.023H53.25a1.75,1.75,0,0,0,0-3.5h-3a13.753,13.753,0,0,1,2.418-6.249,1.75,1.75,0,0,0-2.858-2.019,17.261,17.261,0,0,0-3.179,10.018V59.044A17.393,17.393,0,0,0,64,76.417Z" fill="#3536c0"/>
      <path d="M83.259,92.211a1.751,1.751,0,0,0-1.636-1.128H69.693l-.756-9.2A23.409,23.409,0,0,0,87.373,59.044a1.75,1.75,0,0,0-3.5,0,19.873,19.873,0,0,1-39.746,0,1.75,1.75,0,0,0-3.5,0A23.409,23.409,0,0,0,59.063,81.887l-.46,5.6a1.749,1.749,0,0,0,1.6,1.888c.048,0,.1.006.145.006a1.751,1.751,0,0,0,1.742-1.607l.444-5.41c.485.03.973.051,1.465.051s.98-.021,1.465-.051l.716,8.717h-19.8a1.749,1.749,0,0,0-1.635,1.128l-4,10.516a1.75,1.75,0,0,0,1.635,2.372H63.25a1.75,1.75,0,0,0,0-3.5H44.916l2.668-7.016H80.416l2.669,7.016h-5a1.75,1.75,0,0,0,0,3.5h7.54a1.751,1.751,0,0,0,1.636-2.372Z" fill="#3536c0"/>
      <path d="M70.917,101.6H69.833a1.75,1.75,0,0,0,0,3.5h1.084a1.75,1.75,0,0,0,0-3.5Z" fill="#3536c0"/>
    </g>
  </g>
</svg>
