<svg xmlns="http://www.w3.org/2000/svg" width="128" height="128" viewBox="0 0 128 128">
  <title>GPS</title>
  <g>
    <g>
      <path d="M83.087,60.433c0,22.156-24.829,42.916-24.829,42.916S33.43,82.589,33.43,60.433a24.829,24.829,0,1,1,49.657,0Z" fill="#ff7eb7"/>
      <circle cx="58.258" cy="60.433" r="14.567" fill="#ffa7ce"/>
      <path d="M88.118,44.541a1.75,1.75,0,0,1-1.75-1.75,9.949,9.949,0,0,0-9.938-9.938,1.75,1.75,0,0,1,0-3.5A13.453,13.453,0,0,1,89.868,42.791,1.75,1.75,0,0,1,88.118,44.541Z" fill="#96ffd1"/>
      <circle cx="76.43" cy="42.791" r="4.826" fill="#96ffd1"/>
    </g>
    <g>
      <path d="M48.649,39.443A23.089,23.089,0,0,1,70.2,40.692a6.593,6.593,0,1,0,1.961-2.9A26.565,26.565,0,0,0,47.19,36.262a1.75,1.75,0,1,0,1.459,3.181Zm27.782.271a3.08,3.08,0,1,1-2.552,1.36l.011-.011,0-.006A3.074,3.074,0,0,1,76.431,39.714Z" fill="#3536c0"/>
      <path d="M42.014,43.406a1.739,1.739,0,0,0,1.144-.427q.347-.3.7-.585a1.75,1.75,0,0,0-2.183-2.736c-.276.22-.546.446-.812.675a1.75,1.75,0,0,0,1.147,3.073Z" fill="#3536c0"/>
      <path d="M81.245,50.867a1.749,1.749,0,0,0-1.1,2.216,23.024,23.024,0,0,1,1.194,7.35c0,18.418-18.311,36.251-23.079,40.582C53.488,96.688,35.18,78.872,35.18,60.433a22.966,22.966,0,0,1,3.94-12.9,1.75,1.75,0,0,0-2.9-1.959,26.451,26.451,0,0,0-4.54,14.862c0,9.588,4.3,19.965,12.784,30.843a95.879,95.879,0,0,0,12.673,13.416,1.748,1.748,0,0,0,2.244,0A95.8,95.8,0,0,0,72.053,91.276C80.536,80.4,84.837,70.021,84.837,60.433a26.538,26.538,0,0,0-1.376-8.464A1.75,1.75,0,0,0,81.245,50.867Z" fill="#3536c0"/>
      <path d="M67.1,69.708q-.327.312-.675.6A1.75,1.75,0,1,0,68.663,73q.44-.364.855-.759A1.75,1.75,0,0,0,67.1,69.708Z" fill="#3536c0"/>
      <path d="M70.909,67.868a1.751,1.751,0,0,0,2.3-.9A16.319,16.319,0,1,0,58.259,76.75a16.379,16.379,0,0,0,3.97-.487,1.75,1.75,0,0,0-.849-3.4,12.819,12.819,0,1,1,9.7-12.434,12.716,12.716,0,0,1-1.068,5.13A1.75,1.75,0,0,0,70.909,67.868Z" fill="#3536c0"/>
      <path d="M95.267,36.386a1.751,1.751,0,0,0-3.315,1.126,16.362,16.362,0,0,1,.868,5.279,1.75,1.75,0,0,0,3.5,0A19.864,19.864,0,0,0,95.267,36.386Z" fill="#3536c0"/>
      <path d="M92.422,30.961A19.986,19.986,0,0,0,76.431,22.9a1.75,1.75,0,0,0,0,3.5,16.47,16.47,0,0,1,13.178,6.644,1.75,1.75,0,0,0,2.813-2.084Z" fill="#3536c0"/>
      <path d="M76.431,29.353a1.75,1.75,0,0,0,0,3.5,9.949,9.949,0,0,1,9.937,9.938,1.75,1.75,0,0,0,3.5,0A13.453,13.453,0,0,0,76.431,29.353Z" fill="#3536c0"/>
    </g>
  </g>
</svg>
