<svg xmlns="http://www.w3.org/2000/svg" width="128" height="128" viewBox="0 0 128 128">
  <title>SERVER</title>
  <g>
    <g>
      <path d="M76.279,31.487a1.746,1.746,0,0,1-1.237-.512,15.634,15.634,0,0,0-22.084,0A1.75,1.75,0,0,1,50.483,28.5a19.137,19.137,0,0,1,27.033,0,1.75,1.75,0,0,1-1.237,2.987Z" fill="#ff7eb7"/>
      <path d="M71.912,35.854a1.74,1.74,0,0,1-1.237-.512,9.452,9.452,0,0,0-13.35,0,1.75,1.75,0,0,1-2.475-2.475,12.954,12.954,0,0,1,18.3,0,1.75,1.75,0,0,1-1.237,2.987Z" fill="#ff7eb7"/>
      <circle cx="64" cy="42.017" r="4.62" fill="#ffa7ce"/>
      <rect x="24.651" y="55.349" width="78.698" height="15" fill="#96ffd1"/>
      <rect x="32.875" y="70.349" width="62.25" height="9" fill="#d2ddff"/>
      <rect x="24.651" y="79.349" width="78.698" height="15" fill="#01eba4"/>
      <rect x="32.875" y="94.349" width="62.25" height="9" fill="#d2ddff"/>
      <rect x="32.875" y="61.224" width="3.25" height="3.25" fill="#3536c0"/>
      <path d="M46.458,64.6H43.125a1.75,1.75,0,1,1,0-3.5h3.333a1.75,1.75,0,0,1,0,3.5Z" fill="#3536c0"/>
      <path d="M56.458,64.6H53.125a1.75,1.75,0,1,1,0-3.5h3.333a1.75,1.75,0,0,1,0,3.5Z" fill="#3536c0"/>
      <rect x="91.875" y="85.224" width="3.25" height="3.25" transform="translate(187 173.698) rotate(180)" fill="#3536c0"/>
      <path d="M84.875,88.6H81.542a1.75,1.75,0,0,1,0-3.5h3.333a1.75,1.75,0,0,1,0,3.5Z" fill="#3536c0"/>
      <path d="M74.875,88.6H71.542a1.75,1.75,0,0,1,0-3.5h3.333a1.75,1.75,0,0,1,0,3.5Z" fill="#3536c0"/>
    </g>
    <g>
      <path d="M52.958,30.975a15.634,15.634,0,0,1,22.084,0A1.75,1.75,0,1,0,77.517,28.5a19.138,19.138,0,0,0-27.034,0,1.75,1.75,0,0,0,2.475,2.475Z" fill="#3536c0"/>
      <path d="M73.149,32.867a12.953,12.953,0,0,0-18.3,0,1.75,1.75,0,1,0,2.474,2.475,9.452,9.452,0,0,1,13.35,0,1.75,1.75,0,1,0,2.474-2.475Z" fill="#3536c0"/>
      <path d="M64,44.887a1.75,1.75,0,0,0,0,3.5,6.37,6.37,0,1,0-6.37-6.37,1.75,1.75,0,0,0,3.5,0,2.852,2.852,0,0,1,.841-2.03,2.938,2.938,0,0,1,4.058,0A2.871,2.871,0,0,1,64,44.887Z" fill="#3536c0"/>
      <path d="M70.625,57.1h1.287a1.75,1.75,0,0,0,0-3.5H70.625a1.75,1.75,0,0,0,0,3.5Z" fill="#3536c0"/>
      <path d="M34.625,72.1h68.724a1.751,1.751,0,0,0,1.75-1.75v-15a1.75,1.75,0,0,0-1.75-1.75H77.5a1.75,1.75,0,0,0,0,3.5h24.1V68.6H26.4V57.1H64.625a1.75,1.75,0,0,0,0-3.5H24.651a1.75,1.75,0,0,0-1.75,1.75v15a1.751,1.751,0,0,0,1.75,1.75h6.474v5.5H24.651a1.75,1.75,0,0,0-1.75,1.75v15a1.751,1.751,0,0,0,1.75,1.75h6.474v7.25a1.75,1.75,0,0,0,1.75,1.75h62.25a1.75,1.75,0,0,0,1.75-1.75V96.1h6.474a1.751,1.751,0,0,0,1.75-1.75v-15a1.75,1.75,0,0,0-1.75-1.75H96.875V75.667a1.75,1.75,0,0,0-3.5,0V77.6H34.625ZM101.6,92.6H55.625a1.75,1.75,0,1,0,0,3.5h37.75v5.5H34.625V96.1h7.542a1.75,1.75,0,1,0,0-3.5H26.4V81.1h75.2Z" fill="#3536c0"/>
      <path d="M49.625,92.6H48.5a1.75,1.75,0,1,0,0,3.5h1.125a1.75,1.75,0,0,0,0-3.5Z" fill="#3536c0"/>
      <rect x="31.125" y="59.474" width="6.75" height="6.75" rx="1.75" ry="1.75" fill="#3536c0"/>
      <path d="M43.125,61.1a1.75,1.75,0,1,0,0,3.5h3.333a1.75,1.75,0,0,0,0-3.5Z" fill="#3536c0"/>
      <path d="M53.125,61.1a1.75,1.75,0,1,0,0,3.5h3.333a1.75,1.75,0,0,0,0-3.5Z" fill="#3536c0"/>
      <rect x="90.125" y="83.474" width="6.75" height="6.75" rx="1.75" ry="1.75" fill="#3536c0"/>
      <path d="M84.875,85.1H81.542a1.75,1.75,0,0,0,0,3.5h3.333a1.75,1.75,0,0,0,0-3.5Z" fill="#3536c0"/>
      <path d="M74.875,85.1H71.542a1.75,1.75,0,0,0,0,3.5h3.333a1.75,1.75,0,0,0,0-3.5Z" fill="#3536c0"/>
    </g>
  </g>
</svg>
