<svg xmlns="http://www.w3.org/2000/svg" width="128" height="128" viewBox="0 0 128 128">
  <title>PRINTER</title>
  <g>
    <g>
      <rect x="24.651" y="44.25" width="78.698" height="39.5" fill="#d2ddff"/>
      <rect x="37" y="24.651" width="54" height="19.599" fill="#96ffd1"/>
      <rect x="33.166" y="70.981" width="61.667" height="7.186" fill="#8299fd"/>
      <rect x="39.625" y="70.981" width="48.75" height="32.368" fill="#01eba4"/>
      <path d="M64,80.417H49.667a1.75,1.75,0,0,1,0-3.5H64a1.75,1.75,0,0,1,0,3.5Z" fill="#96ffd1"/>
      <path d="M78.333,88.915H49.667a1.75,1.75,0,1,1,0-3.5H78.333a1.75,1.75,0,0,1,0,3.5Z" fill="#96ffd1"/>
      <path d="M78.333,97.413H49.667a1.75,1.75,0,1,1,0-3.5H78.333a1.75,1.75,0,0,1,0,3.5Z" fill="#96ffd1"/>
      <rect x="33.166" y="50.5" width="5.375" height="5.375" fill="#ffa7ce"/>
      <rect x="46.979" y="50.5" width="5.375" height="5.375" fill="#ffa7ce"/>
    </g>
    <g>
      <path d="M103.349,42.5H38.75V26.4h8.229a1.75,1.75,0,0,0,0-3.5H37a1.75,1.75,0,0,0-1.75,1.75V42.5h-10.6a1.75,1.75,0,0,0-1.75,1.75v39.5a1.75,1.75,0,0,0,1.75,1.75h8.516a1.75,1.75,0,0,0,0-3.5H26.4V46h75.2V82H90.125V72.731h2.958v5.436a1.75,1.75,0,0,0,3.5,0V70.981a1.75,1.75,0,0,0-1.75-1.75H33.167a1.75,1.75,0,0,0-1.75,1.75v7.186a1.749,1.749,0,0,0,1.75,1.75h4.708v23.432a1.75,1.75,0,0,0,1.75,1.75h48.75a1.75,1.75,0,0,0,1.75-1.75V97.625a1.75,1.75,0,0,0-3.5,0V101.6H41.375V72.731h45.25V83.75a1.749,1.749,0,0,0,1.75,1.75h14.974a1.75,1.75,0,0,0,1.75-1.75V44.25A1.75,1.75,0,0,0,103.349,42.5ZM37.875,76.417H34.917V72.731h2.958Z" fill="#3536c0"/>
      <path d="M60.667,26.4H89.25V37.833a1.75,1.75,0,0,0,3.5,0V24.651A1.75,1.75,0,0,0,91,22.9H60.667a1.75,1.75,0,0,0,0,3.5Z" fill="#3536c0"/>
      <path d="M53,26.4h1.083a1.75,1.75,0,0,0,0-3.5H53a1.75,1.75,0,0,0,0,3.5Z" fill="#3536c0"/>
      <path d="M88.375,88.75a1.749,1.749,0,0,0-1.75,1.75v1.25a1.75,1.75,0,0,0,3.5,0V90.5A1.749,1.749,0,0,0,88.375,88.75Z" fill="#3536c0"/>
      <path d="M49.667,80.417H64a1.75,1.75,0,0,0,0-3.5H49.667a1.75,1.75,0,0,0,0,3.5Z" fill="#3536c0"/>
      <path d="M78.333,85.415H49.667a1.75,1.75,0,1,0,0,3.5H78.333a1.75,1.75,0,0,0,0-3.5Z" fill="#3536c0"/>
      <path d="M78.333,93.913H49.667a1.75,1.75,0,1,0,0,3.5H78.333a1.75,1.75,0,0,0,0-3.5Z" fill="#3536c0"/>
      <path d="M33.167,57.625h5.375a1.749,1.749,0,0,0,1.75-1.75V50.5a1.749,1.749,0,0,0-1.75-1.75H33.167a1.749,1.749,0,0,0-1.75,1.75v5.375A1.749,1.749,0,0,0,33.167,57.625Zm1.75-5.375h1.875v1.875H34.917Z" fill="#3536c0"/>
      <path d="M52.354,57.625a1.749,1.749,0,0,0,1.75-1.75V50.5a1.749,1.749,0,0,0-1.75-1.75H46.979a1.75,1.75,0,0,0-1.75,1.75v5.375a1.75,1.75,0,0,0,1.75,1.75ZM48.729,52.25H50.6v1.875H48.729Z" fill="#3536c0"/>
    </g>
  </g>
</svg>
