<svg xmlns="http://www.w3.org/2000/svg" width="128" height="128" viewBox="0 0 128 128">
  <title>HEATER</title>
  <g>
    <g>
      <rect x="24.651" y="55.754" width="78.698" height="37.23" fill="#ffa7ce"/>
      <g>
        <rect x="32.251" y="92.984" width="9.75" height="4.937" fill="#d2ddff"/>
        <rect x="85.998" y="92.984" width="9.75" height="4.937" fill="#d2ddff"/>
      </g>
      <g>
        <path d="M73.479,48.329a1.75,1.75,0,0,1-.963-3.212,3.348,3.348,0,0,0,1.568-2.156c.254-1.294-.293-2.969-1.581-4.844-1.568-2.283-2.051-4.383-1.434-6.242a5.832,5.832,0,0,1,3.5-3.452,1.75,1.75,0,0,1,1.148,3.306,2.374,2.374,0,0,0-1.331,1.264c-.239.753.108,1.84,1,3.142,1.859,2.707,2.576,5.229,2.131,7.5a6.806,6.806,0,0,1-3.08,4.406A1.742,1.742,0,0,1,73.479,48.329Z" fill="#d2ddff"/>
        <path d="M63.25,48.329a1.75,1.75,0,0,1-.963-3.212,3.348,3.348,0,0,0,1.568-2.156c.254-1.294-.293-2.969-1.581-4.844-1.568-2.283-2.051-4.383-1.434-6.242a5.832,5.832,0,0,1,3.5-3.452,1.75,1.75,0,0,1,1.147,3.306,2.375,2.375,0,0,0-1.33,1.264c-.239.753.108,1.84,1,3.142,1.86,2.706,2.577,5.229,2.132,7.5a6.806,6.806,0,0,1-3.08,4.406A1.742,1.742,0,0,1,63.25,48.329Z" fill="#d2ddff"/>
        <path d="M53.02,48.329a1.75,1.75,0,0,1-.963-3.212,3.35,3.35,0,0,0,1.569-2.156c.254-1.294-.293-2.969-1.581-4.844-1.568-2.283-2.051-4.383-1.434-6.242a5.832,5.832,0,0,1,3.5-3.452,1.75,1.75,0,0,1,1.147,3.306,2.375,2.375,0,0,0-1.33,1.264c-.239.753.108,1.84,1,3.142,1.86,2.707,2.577,5.229,2.131,7.5a6.8,6.8,0,0,1-3.08,4.406A1.74,1.74,0,0,1,53.02,48.329Z" fill="#d2ddff"/>
      </g>
    </g>
    <g>
      <path d="M42,91.234H26.4V57.5h7.844a1.75,1.75,0,0,0,0-3.5H24.651a1.75,1.75,0,0,0-1.75,1.75v37.23a1.75,1.75,0,0,0,1.75,1.75H30.5v3.187a1.75,1.75,0,0,0,1.75,1.75H42a1.749,1.749,0,0,0,1.75-1.75V92.984A1.75,1.75,0,0,0,42,91.234Zm-8,4.937V94.734h6.25v1.437Z" fill="#3536c0"/>
      <path d="M103.349,84.619a1.75,1.75,0,0,0-1.75,1.75v4.865H48.75a1.75,1.75,0,1,0,0,3.5h35.5v3.187A1.749,1.749,0,0,0,86,99.671h9.75a1.75,1.75,0,0,0,1.75-1.75V94.734h5.85a1.75,1.75,0,0,0,1.75-1.75V86.369A1.75,1.75,0,0,0,103.349,84.619ZM94,96.171h-6.25V94.734H94Z" fill="#3536c0"/>
      <path d="M103.349,77.625a1.75,1.75,0,0,0-1.75,1.75V80.5a1.75,1.75,0,0,0,3.5,0V79.375A1.75,1.75,0,0,0,103.349,77.625Z" fill="#3536c0"/>
      <path d="M103.349,54H50.813a1.75,1.75,0,0,0,0,3.5H101.6V73.375a1.75,1.75,0,0,0,3.5,0V55.754A1.75,1.75,0,0,0,103.349,54Z" fill="#3536c0"/>
      <path d="M43.063,54H42.25a1.75,1.75,0,0,0,0,3.5h.813a1.75,1.75,0,0,0,0-3.5Z" fill="#3536c0"/>
      <path d="M34.246,72a1.749,1.749,0,0,0-1.75,1.75V86.369a1.75,1.75,0,0,0,3.5,0V73.75A1.75,1.75,0,0,0,34.246,72Z" fill="#3536c0"/>
      <path d="M36,62.369a1.75,1.75,0,0,0-3.5,0V68A1.75,1.75,0,0,0,36,68Z" fill="#3536c0"/>
      <path d="M42.747,60.619A1.749,1.749,0,0,0,41,62.369v24a1.75,1.75,0,0,0,3.5,0v-24A1.75,1.75,0,0,0,42.747,60.619Z" fill="#3536c0"/>
      <path d="M53,86.369v-24a1.75,1.75,0,0,0-3.5,0v24a1.75,1.75,0,0,0,3.5,0Z" fill="#3536c0"/>
      <path d="M61.5,86.369v-24a1.75,1.75,0,0,0-3.5,0v24a1.75,1.75,0,0,0,3.5,0Z" fill="#3536c0"/>
      <path d="M70,86.369v-24a1.75,1.75,0,0,0-3.5,0v24a1.75,1.75,0,0,0,3.5,0Z" fill="#3536c0"/>
      <path d="M75,86.369a1.75,1.75,0,0,0,3.5,0V81.125a1.75,1.75,0,0,0-3.5,0Z" fill="#3536c0"/>
      <path d="M76.752,77.375a1.75,1.75,0,0,0,1.75-1.75V62.369a1.75,1.75,0,1,0-3.5,0V75.625A1.75,1.75,0,0,0,76.752,77.375Z" fill="#3536c0"/>
      <path d="M87,86.369v-24a1.75,1.75,0,0,0-3.5,0v24a1.75,1.75,0,0,0,3.5,0Z" fill="#3536c0"/>
      <path d="M95.5,86.369v-24a1.75,1.75,0,1,0-3.5,0v24a1.75,1.75,0,0,0,3.5,0Z" fill="#3536c0"/>
      <path d="M74.084,42.961a3.345,3.345,0,0,1-1.568,2.156,1.75,1.75,0,1,0,1.923,2.924,6.806,6.806,0,0,0,3.08-4.406c.445-2.271-.271-4.793-2.131-7.5-.9-1.3-1.242-2.389-1-3.142a2.371,2.371,0,0,1,1.33-1.264,1.75,1.75,0,0,0-1.148-3.306,5.832,5.832,0,0,0-3.5,3.452c-.616,1.859-.134,3.959,1.434,6.242C73.792,39.992,74.338,41.667,74.084,42.961Z" fill="#3536c0"/>
      <path d="M63.855,42.961a3.348,3.348,0,0,1-1.568,2.156,1.75,1.75,0,1,0,1.923,2.924,6.806,6.806,0,0,0,3.08-4.406c.445-2.271-.272-4.794-2.131-7.5-.9-1.3-1.242-2.389-1-3.142a2.378,2.378,0,0,1,1.33-1.264,1.75,1.75,0,0,0-1.147-3.306,5.832,5.832,0,0,0-3.5,3.452c-.616,1.859-.134,3.959,1.434,6.242C63.562,39.992,64.109,41.667,63.855,42.961Z" fill="#3536c0"/>
      <path d="M53.626,42.961a3.348,3.348,0,0,1-1.568,2.156,1.75,1.75,0,1,0,1.922,2.924,6.8,6.8,0,0,0,3.081-4.406c.445-2.271-.272-4.793-2.131-7.5-.9-1.3-1.242-2.389-1-3.142a2.378,2.378,0,0,1,1.33-1.264,1.75,1.75,0,0,0-1.147-3.306,5.832,5.832,0,0,0-3.5,3.452c-.616,1.859-.134,3.959,1.434,6.242C53.333,39.992,53.88,41.667,53.626,42.961Z" fill="#3536c0"/>
    </g>
  </g>
</svg>
