<svg xmlns="http://www.w3.org/2000/svg" width="128" height="128" viewBox="0 0 128 128">
  <title>SMART HOME</title>
  <g>
    <g>
      <polygon points="98.271 64.148 29.728 64.148 64 42.017 98.271 64.148" fill="#ffa7ce"/>
      <rect x="36.245" y="64.148" width="55.51" height="39.201" fill="#ff7eb7"/>
      <rect x="54.204" y="78.751" width="19.592" height="24.598" fill="#d2ddff"/>
      <path d="M71.911,35.855a1.745,1.745,0,0,1-1.237-.513,9.452,9.452,0,0,0-13.349,0,1.749,1.749,0,1,1-2.474-2.474,12.953,12.953,0,0,1,18.3,0,1.75,1.75,0,0,1-1.238,2.987Z" fill="#01eba4"/>
      <circle cx="64" cy="42.017" r="4.62" fill="#96ffd1"/>
    </g>
    <g>
      <path d="M50.275,50.879a1.749,1.749,0,0,0,2.419.521l7.116-4.594a6.36,6.36,0,1,0-2.18-4.789,6.384,6.384,0,0,0,.273,1.854L50.8,48.46A1.749,1.749,0,0,0,50.275,50.879Zm11.7-10.892a2.87,2.87,0,1,1,0,4.059A2.862,2.862,0,0,1,61.97,39.987Z" fill="#3536c0"/>
      <path d="M45.8,55.518a1.736,1.736,0,0,0,.948-.28l.728-.47a1.75,1.75,0,0,0-1.9-2.94l-.728.47a1.75,1.75,0,0,0,.951,3.22Z" fill="#3536c0"/>
      <path d="M99.221,62.678,74.744,46.872a1.75,1.75,0,1,0-1.9,2.94L92.335,62.4H35.665l6.069-3.919a1.75,1.75,0,1,0-1.9-2.941l-11.056,7.14a1.75,1.75,0,0,0,.95,3.22H90.005V78.751a1.75,1.75,0,0,0,3.5,0V65.9h4.766a1.75,1.75,0,0,0,.95-3.22Z" fill="#3536c0"/>
      <path d="M91.755,89.3a1.75,1.75,0,0,0-1.75,1.75V101.6H55.954V80.5H72.046v16a1.75,1.75,0,0,0,3.5,0V78.751A1.751,1.751,0,0,0,73.8,77H54.2a1.751,1.751,0,0,0-1.75,1.75V101.6H37.995V71.25a1.75,1.75,0,0,0-3.5,0v32.1a1.75,1.75,0,0,0,1.75,1.75h55.51a1.75,1.75,0,0,0,1.75-1.75V91.05A1.749,1.749,0,0,0,91.755,89.3Z" fill="#3536c0"/>
      <path d="M91.755,82.188a1.751,1.751,0,0,0-1.75,1.75v.875a1.75,1.75,0,0,0,3.5,0v-.875A1.75,1.75,0,0,0,91.755,82.188Z" fill="#3536c0"/>
      <path d="M71.864,28.521a15.649,15.649,0,0,1,3.178,2.454A1.75,1.75,0,1,0,77.517,28.5a19.16,19.16,0,0,0-3.889-3,1.75,1.75,0,0,0-1.764,3.023Z" fill="#3536c0"/>
      <path d="M51.721,31.487a1.748,1.748,0,0,0,1.237-.512,15.615,15.615,0,0,1,13.973-4.3,1.75,1.75,0,0,0,.653-3.439,19.123,19.123,0,0,0-17.1,5.262,1.75,1.75,0,0,0,1.238,2.987Z" fill="#3536c0"/>
      <path d="M71.912,35.855a1.75,1.75,0,0,0,1.237-2.987,12.953,12.953,0,0,0-18.3,0,1.75,1.75,0,1,0,2.475,2.474,9.451,9.451,0,0,1,13.348,0A1.745,1.745,0,0,0,71.912,35.855Z" fill="#3536c0"/>
    </g>
  </g>
</svg>
