<svg xmlns="http://www.w3.org/2000/svg" width="128" height="128" viewBox="0 0 128 128">
  <title>GAMEPAD</title>
  <g>
    <g>
      <path d="M51.72,33.184A1.751,1.751,0,0,1,50.483,30.2a19.137,19.137,0,0,1,27.033,0,1.75,1.75,0,0,1-2.474,2.475,15.636,15.636,0,0,0-22.084,0A1.745,1.745,0,0,1,51.72,33.184Z" fill="#ff7eb7"/>
      <path d="M56.088,37.552a1.751,1.751,0,0,1-1.237-2.988,12.938,12.938,0,0,1,18.3,0,1.75,1.75,0,1,1-2.474,2.475,9.44,9.44,0,0,0-13.35,0A1.741,1.741,0,0,1,56.088,37.552Z" fill="#ff7eb7"/>
      <circle cx="64" cy="43.713" r="4.62" fill="#ffa7ce"/>
      <path d="M83.807,60.122H77.856a2.811,2.811,0,0,0-2.433,1.405h0a2.812,2.812,0,0,1-2.434,1.405H55.011a2.812,2.812,0,0,1-2.434-1.405h0a2.812,2.812,0,0,0-2.434-1.405H44.192a6.261,6.261,0,0,0-5.231,2.812C34.505,69.7,23.831,87.008,24.7,96.366c.878,9.44,16.394,4.855,24.1-2.967a20.542,20.542,0,0,1,14.593-6.305h1.214A20.54,20.54,0,0,1,79.2,93.4c7.7,7.822,23.221,12.407,24.1,2.967.871-9.358-9.8-26.668-14.259-33.432A6.264,6.264,0,0,0,83.807,60.122Z" fill="#8299fd"/>
      <rect x="60.379" y="58.416" width="7.241" height="4.516" fill="#d2ddff"/>
    </g>
    <g>
      <path d="M51.721,33.184a1.745,1.745,0,0,0,1.237-.513,15.636,15.636,0,0,1,22.084,0A1.75,1.75,0,1,0,77.517,30.2a19.138,19.138,0,0,0-27.034,0,1.751,1.751,0,0,0,1.238,2.988Z" fill="#3536c0"/>
      <path d="M73.149,37.039a1.749,1.749,0,0,0,0-2.475,12.938,12.938,0,0,0-18.3,0,1.75,1.75,0,1,0,2.475,2.475,9.438,9.438,0,0,1,13.349,0A1.748,1.748,0,0,0,73.149,37.039Z" fill="#3536c0"/>
      <path d="M64,46.583a1.75,1.75,0,0,0,0,3.5,6.369,6.369,0,1,0-6.358-5.972,1.75,1.75,0,1,0,3.493-.218,2.87,2.87,0,0,1,.836-2.209,2.938,2.938,0,0,1,4.058,0A2.87,2.87,0,0,1,64,46.583Z" fill="#3536c0"/>
      <path d="M31.565,75.279a1.749,1.749,0,0,0,2.377-.686l.448-.806a1.75,1.75,0,1,0-3.054-1.709l-.458.823A1.749,1.749,0,0,0,31.565,75.279Z" fill="#3536c0"/>
      <path d="M34.65,69.813a1.75,1.75,0,0,0,2.4-.588c1.088-1.794,2.221-3.587,3.368-5.329a4.5,4.5,0,0,1,3.77-2.024h5.952a1.75,1.75,0,0,0,0-3.5H44.192a7.989,7.989,0,0,0-6.692,3.6c-1.171,1.778-2.328,3.607-3.438,5.439A1.748,1.748,0,0,0,34.65,69.813Z" fill="#3536c0"/>
      <path d="M90.5,61.971a7.989,7.989,0,0,0-6.692-3.6H77.856a4.574,4.574,0,0,0-3.949,2.28,1.061,1.061,0,0,1-.918.53H62.129V60.166H67.62a1.75,1.75,0,0,0,0-3.5H60.379a1.75,1.75,0,0,0-1.75,1.75v2.766H55.011a1.75,1.75,0,0,0,0,3.5H72.989a4.571,4.571,0,0,0,3.949-2.28,1.064,1.064,0,0,1,.918-.53h5.952A4.5,4.5,0,0,1,87.577,63.9C91.068,69.2,102.4,87.19,101.557,96.2a3.622,3.622,0,0,1-1.547,2.922c-1.716,1.112-4.973,1.02-8.712-.25a1.75,1.75,0,1,0-1.125,3.314,20.661,20.661,0,0,0,6.544,1.212,9.455,9.455,0,0,0,5.2-1.339,7.082,7.082,0,0,0,3.127-5.535C105.926,87.012,96.311,70.792,90.5,61.971Z" fill="#3536c0"/>
      <path d="M85.89,96.363q-.373-.221-.743-.455a1.75,1.75,0,1,0-1.876,2.955c.274.174.551.343.832.51a1.75,1.75,0,0,0,1.787-3.01Z" fill="#3536c0"/>
      <path d="M64.607,85.344H63.393A22.187,22.187,0,0,0,47.554,92.17c-5.262,5.341-14.356,8.921-18.715,7.368A3.488,3.488,0,0,1,26.444,96.2c-.329-3.536,1.264-9.077,4.605-16.023A1.75,1.75,0,0,0,27.9,78.663C24.227,86.29,22.566,92.3,22.958,96.528a6.994,6.994,0,0,0,4.705,6.307,10.911,10.911,0,0,0,3.662.579c6.162,0,14.024-4.018,18.722-8.787a18.71,18.71,0,0,1,13.346-5.783h1.214a18.7,18.7,0,0,1,13.345,5.783,1.75,1.75,0,1,0,2.494-2.457A22.187,22.187,0,0,0,64.607,85.344Z" fill="#3536c0"/>
      <path d="M80.287,73.216a2.974,2.974,0,1,0-2.974-2.974A2.977,2.977,0,0,0,80.287,73.216Z" fill="#3536c0"/>
      <path d="M80.287,78.247a2.974,2.974,0,1,0,2.974,2.974A2.977,2.977,0,0,0,80.287,78.247Z" fill="#3536c0"/>
      <path d="M74.8,72.758a2.974,2.974,0,1,0,2.973,2.973A2.977,2.977,0,0,0,74.8,72.758Z" fill="#3536c0"/>
      <path d="M85.776,72.758a2.974,2.974,0,1,0,2.974,2.973A2.977,2.977,0,0,0,85.776,72.758Z" fill="#3536c0"/>
      <path d="M46.868,83.349a1.751,1.751,0,0,0,1.75-1.75V69.864a1.75,1.75,0,0,0-3.5,0v4.117H41a1.75,1.75,0,0,0,0,3.5h4.118V81.6A1.75,1.75,0,0,0,46.868,83.349Z" fill="#3536c0"/>
      <path d="M50.175,75.731a1.749,1.749,0,0,0,1.75,1.75h.81a1.75,1.75,0,1,0,0-3.5h-.81A1.75,1.75,0,0,0,50.175,75.731Z" fill="#3536c0"/>
    </g>
  </g>
</svg>
