<svg xmlns="http://www.w3.org/2000/svg" width="128" height="128" viewBox="0 0 128 128">
  <title>SOCKET</title>
  <g>
    <g>
      <rect x="34.75" y="24.651" width="58.5" height="78.698" rx="9.644" ry="9.644" fill="#d2ddff"/>
      <rect x="40.75" y="30.651" width="46.5" height="66.697" rx="4.774" ry="4.774" fill="#8299fd"/>
      <path d="M79.81,64A15.806,15.806,0,0,1,65.75,79.71a15.362,15.362,0,0,1-3.5,0,15.807,15.807,0,0,1,0-31.42,15.362,15.362,0,0,1,3.5,0A15.806,15.806,0,0,1,79.81,64Z" fill="#d2ddff"/>
      <g>
        <path d="M57.456,66.646A2.646,2.646,0,1,1,60.1,64,2.649,2.649,0,0,1,57.456,66.646Z" fill="#3536c0"/>
        <path d="M70.544,66.646A2.646,2.646,0,1,1,73.189,64,2.649,2.649,0,0,1,70.544,66.646Z" fill="#3536c0"/>
      </g>
      <path d="M65.75,48.29v4.09a1.75,1.75,0,0,1-3.5,0V48.29a15.362,15.362,0,0,1,3.5,0Z" fill="#8299fd"/>
      <path d="M65.75,75.62v4.09a15.362,15.362,0,0,1-3.5,0V75.62a1.75,1.75,0,0,1,3.5,0Z" fill="#8299fd"/>
    </g>
    <g>
      <path d="M56.25,26.4H57a1.75,1.75,0,0,0,0-3.5h-.75a1.75,1.75,0,0,0,0,3.5Z" fill="#3536c0"/>
      <path d="M83.606,22.9H62.833a1.75,1.75,0,0,0,0,3.5H83.606A7.9,7.9,0,0,1,91.5,34.3v59.41a7.9,7.9,0,0,1-7.894,7.894H44.394A7.9,7.9,0,0,1,36.5,93.705V34.3A7.9,7.9,0,0,1,44.394,26.4h5.231a1.75,1.75,0,0,0,0-3.5H44.394A11.407,11.407,0,0,0,33,34.3v59.41A11.407,11.407,0,0,0,44.394,105.1H83.606A11.407,11.407,0,0,0,95,93.705V34.3A11.407,11.407,0,0,0,83.606,22.9Z" fill="#3536c0"/>
      <path d="M89,35.426A6.532,6.532,0,0,0,82.476,28.9H45.524A6.532,6.532,0,0,0,39,35.426V92.574A6.532,6.532,0,0,0,45.524,99.1H82.476A6.532,6.532,0,0,0,89,92.574V85.5a1.75,1.75,0,0,0-3.5,0v7.074A3.028,3.028,0,0,1,82.476,95.6H45.524A3.028,3.028,0,0,1,42.5,92.574V35.426A3.028,3.028,0,0,1,45.524,32.4H82.476A3.028,3.028,0,0,1,85.5,35.426v35.2a1.75,1.75,0,0,0,3.5,0Z" fill="#3536c0"/>
      <path d="M87.25,76.063a1.75,1.75,0,0,0-1.75,1.75v.9a1.75,1.75,0,1,0,3.5,0v-.9A1.75,1.75,0,0,0,87.25,76.063Z" fill="#3536c0"/>
      <path d="M53.634,76.061a1.749,1.749,0,0,0,.454,2.432,17.538,17.538,0,1,0-5.736-6.523,1.75,1.75,0,0,0,3.117-1.59A13.912,13.912,0,0,1,49.942,64,14.071,14.071,0,0,1,62.25,50.063v2.312a1.75,1.75,0,0,0,3.5,0V50.063a14.045,14.045,0,0,1,0,27.874V75.625a1.75,1.75,0,0,0-3.5,0v2.316a13.94,13.94,0,0,1-6.184-2.335A1.752,1.752,0,0,0,53.634,76.061Z" fill="#3536c0"/>
      <path d="M57.456,66.646A2.646,2.646,0,1,0,54.811,64,2.649,2.649,0,0,0,57.456,66.646Z" fill="#3536c0"/>
      <path d="M73.189,64a2.646,2.646,0,1,0-2.645,2.646A2.649,2.649,0,0,0,73.189,64Z" fill="#3536c0"/>
    </g>
  </g>
</svg>
