<svg xmlns="http://www.w3.org/2000/svg" width="128" height="128" viewBox="0 0 128 128">
  <title>REMOTE CONTROL</title>
  <g>
    <g>
      <path d="M71.911,35.855a1.745,1.745,0,0,1-1.237-.513,9.452,9.452,0,0,0-13.349,0,1.749,1.749,0,1,1-2.474-2.474,12.953,12.953,0,0,1,18.3,0,1.75,1.75,0,0,1-1.238,2.987Z" fill="#ff7eb7"/>
      <circle cx="64" cy="42.017" r="4.62" fill="#ffa7ce"/>
      <path d="M45.633,54.167V84.983a18.367,18.367,0,0,0,36.733,0V54.167Z" fill="#8299fd"/>
      <circle cx="64" cy="68.333" r="5.667" fill="#d2ddff"/>
      <path d="M56.031,84.688a2.907,2.907,0,1,1,2.906-2.907A2.909,2.909,0,0,1,56.031,84.688Z" fill="#3536c0"/>
      <path d="M64,84.688a2.907,2.907,0,1,1,2.906-2.907A2.909,2.909,0,0,1,64,84.688Z" fill="#3536c0"/>
      <path d="M71.969,84.688a2.907,2.907,0,1,1,2.906-2.907A2.91,2.91,0,0,1,71.969,84.688Z" fill="#3536c0"/>
      <path d="M56.031,93.073a2.907,2.907,0,1,1,2.906-2.906A2.909,2.909,0,0,1,56.031,93.073Z" fill="#3536c0"/>
      <path d="M64,93.073a2.907,2.907,0,1,1,2.906-2.906A2.909,2.909,0,0,1,64,93.073Z" fill="#3536c0"/>
      <path d="M71.969,93.073a2.907,2.907,0,1,1,2.906-2.906A2.91,2.91,0,0,1,71.969,93.073Z" fill="#3536c0"/>
    </g>
    <g>
      <path d="M60.584,26.777a15.556,15.556,0,0,1,14.458,4.2A1.75,1.75,0,1,0,77.517,28.5a19.046,19.046,0,0,0-17.695-5.139,1.75,1.75,0,0,0,.762,3.416Z" fill="#3536c0"/>
      <path d="M51.721,31.487a1.748,1.748,0,0,0,1.237-.512,15.6,15.6,0,0,1,3.5-2.634,1.75,1.75,0,0,0-1.693-3.064A19.185,19.185,0,0,0,50.483,28.5a1.75,1.75,0,0,0,1.238,2.987Z" fill="#3536c0"/>
      <path d="M71.912,35.855a1.75,1.75,0,0,0,1.237-2.987,12.953,12.953,0,0,0-18.3,0,1.75,1.75,0,1,0,2.475,2.474,9.451,9.451,0,0,1,13.348,0A1.745,1.745,0,0,0,71.912,35.855Z" fill="#3536c0"/>
      <path d="M68.5,46.521A6.369,6.369,0,1,0,64,48.387,6.325,6.325,0,0,0,68.5,46.521ZM61.97,39.987a2.87,2.87,0,1,1,0,4.059A2.862,2.862,0,0,1,61.97,39.987Z" fill="#3536c0"/>
      <path d="M58.563,52.417h-.625a1.75,1.75,0,0,0,0,3.5h.625a1.75,1.75,0,0,0,0-3.5Z" fill="#3536c0"/>
      <path d="M82.366,52.417H64.375a1.75,1.75,0,0,0,0,3.5H80.616V84.982a16.557,16.557,0,0,1-2.632,8.98,1.75,1.75,0,1,0,2.944,1.893,20.046,20.046,0,0,0,3.188-10.873V54.167A1.749,1.749,0,0,0,82.366,52.417Z" fill="#3536c0"/>
      <path d="M74.8,97.615q-.258.222-.527.433a1.75,1.75,0,0,0,2.166,2.75q.324-.257.639-.525A1.75,1.75,0,0,0,74.8,97.615Z" fill="#3536c0"/>
      <path d="M69.59,100.636A16.629,16.629,0,0,1,47.384,84.982V55.917H52.25a1.75,1.75,0,0,0,0-3.5H45.634a1.749,1.749,0,0,0-1.75,1.75V84.982a20.129,20.129,0,0,0,26.883,18.95,1.75,1.75,0,1,0-1.177-3.3Z" fill="#3536c0"/>
      <path d="M64,60.917a7.417,7.417,0,1,0,2.034,14.55,1.75,1.75,0,1,0-.958-3.366,3.912,3.912,0,1,1,2.61-2.438,1.75,1.75,0,0,0,3.292,1.189A7.421,7.421,0,0,0,64,60.917Z" fill="#3536c0"/>
      <path d="M56.031,78.875a2.907,2.907,0,1,0,2.907,2.906A2.91,2.91,0,0,0,56.031,78.875Z" fill="#3536c0"/>
      <path d="M64,78.875a2.907,2.907,0,1,0,2.906,2.906A2.909,2.909,0,0,0,64,78.875Z" fill="#3536c0"/>
      <path d="M69.063,81.781a2.906,2.906,0,1,0,2.906-2.906A2.909,2.909,0,0,0,69.063,81.781Z" fill="#3536c0"/>
      <path d="M56.031,87.26a2.907,2.907,0,1,0,2.907,2.907A2.91,2.91,0,0,0,56.031,87.26Z" fill="#3536c0"/>
      <path d="M64,87.26a2.907,2.907,0,1,0,2.906,2.907A2.909,2.909,0,0,0,64,87.26Z" fill="#3536c0"/>
      <path d="M74.875,90.167a2.906,2.906,0,1,0-2.906,2.906A2.91,2.91,0,0,0,74.875,90.167Z" fill="#3536c0"/>
    </g>
  </g>
</svg>
