<svg xmlns="http://www.w3.org/2000/svg" width="128" height="128" viewBox="0 0 128 128">
  <title>CLOUD</title>
  <g>
    <g>
      <path d="M82.437,55.951c-.023,0-.045,0-.068,0a19.877,19.877,0,0,0-38.748,4.074c-.032,0-.063-.005-.095-.005a14.772,14.772,0,1,0,0,29.543H82.437a16.808,16.808,0,1,0,0-33.616Z" fill="#d2ddff"/>
      <circle cx="64" cy="42.174" r="4.62" fill="#ffa7ce"/>
    </g>
    <g>
      <path d="M83.625,54.238a21.737,21.737,0,0,0-8.3-10.363A1.75,1.75,0,0,0,73.4,46.793a18.2,18.2,0,0,1,7.3,9.686,1.75,1.75,0,0,0,1.67,1.226c.03,0,.074,0,.115,0a15.058,15.058,0,0,1-.047,30.116H43.526A13.036,13.036,0,0,1,30.505,74.8a1.75,1.75,0,0,0-3.5,0A16.539,16.539,0,0,0,43.526,91.317h7.128v3.391h-10.3a1.75,1.75,0,0,0,0,3.5H52.4a1.749,1.749,0,0,0,1.75-1.75V91.317H73.846v5.141a1.749,1.749,0,0,0,1.75,1.75h5.279a1.75,1.75,0,0,0,0-3.5H77.346V91.317h5.091a18.559,18.559,0,0,0,1.188-37.079Z" fill="#3536c0"/>
      <path d="M29.354,70.253a1.752,1.752,0,0,0,2.321-.861q.215-.471.466-.921a1.75,1.75,0,1,0-3.057-1.7c-.212.38-.408.769-.591,1.167A1.751,1.751,0,0,0,29.354,70.253Z" fill="#3536c0"/>
      <path d="M34.448,64.893a1.742,1.742,0,0,0,1.075-.371,12.862,12.862,0,0,1,7.917-2.751c.044,0,.137.008.182.008a1.75,1.75,0,0,0,1.742-1.586A18.054,18.054,0,0,1,58.1,44.583a6.394,6.394,0,1,0-.369-3.523A21.534,21.534,0,0,0,42.078,58.336a16.323,16.323,0,0,0-8.707,3.427,1.75,1.75,0,0,0,1.077,3.13ZM61.971,40.145a2.869,2.869,0,1,1-.841,2.029A2.85,2.85,0,0,1,61.971,40.145Z" fill="#3536c0"/>
      <path d="M64,92.583a1.749,1.749,0,0,0-1.75,1.75v9.016a1.75,1.75,0,0,0,3.5,0V94.333A1.749,1.749,0,0,0,64,92.583Z" fill="#3536c0"/>
      <path d="M87.649,94.708h-.711a1.75,1.75,0,0,0,0,3.5h.711a1.75,1.75,0,0,0,0-3.5Z" fill="#3536c0"/>
      <path d="M71.94,28.724a15.648,15.648,0,0,1,3.1,2.408,1.75,1.75,0,1,0,2.475-2.475,19.208,19.208,0,0,0-3.8-2.947,1.751,1.751,0,0,0-1.782,3.014Z" fill="#3536c0"/>
      <path d="M51.721,31.645a1.743,1.743,0,0,0,1.237-.513,15.62,15.62,0,0,1,13.945-4.3,1.75,1.75,0,1,0,.647-3.439,19.122,19.122,0,0,0-17.067,5.267,1.751,1.751,0,0,0,1.238,2.988Z" fill="#3536c0"/>
      <path d="M54.851,33.025A1.75,1.75,0,1,0,57.325,35.5a9.452,9.452,0,0,1,13.35,0,1.75,1.75,0,1,0,2.474-2.475,12.938,12.938,0,0,0-18.3,0Z" fill="#3536c0"/>
    </g>
  </g>
</svg>
